<svg width="531" height="414" viewBox="0 0 531 414" fill="none" xmlns="http://www.w3.org/2000/svg">
<path d="M254.913 151.827C263.372 150.24 272.057 150.24 280.516 151.827C290.043 153.615 299.141 158.156 317.589 167.38L497.846 257.509C505.939 261.555 511.963 264.568 516.291 267.249C520.629 269.936 523.138 272.218 524.337 274.747C526.496 279.301 526.496 284.585 524.337 289.139C523.138 291.668 520.628 293.949 516.291 296.636C511.963 299.317 505.939 302.329 497.846 306.376L317.589 396.507C299.141 405.729 290.043 410.27 280.516 412.057H280.515C272.056 413.646 263.372 413.646 254.914 412.057H254.913C245.385 410.27 236.287 405.729 217.84 396.507L37.583 306.376C29.4898 302.329 23.4667 299.317 19.1387 296.636C14.8009 293.949 12.2911 291.668 11.0918 289.139C8.93239 284.585 8.93252 279.301 11.0918 274.747C12.2911 272.218 14.8009 269.936 19.1387 267.249C23.4667 264.568 29.4899 261.555 37.583 257.509L217.84 167.38C236.287 158.156 245.385 153.615 254.913 151.827Z" fill="url(#paint0_linear_241_2049)" stroke="#070EA0" stroke-width="1.5"/>
<path d="M75.2031 310L111.203 229.5H448.703L368.703 347.5L75.2031 310Z" stroke="#070FA0" stroke-width="1.49621" stroke-linecap="round" stroke-linejoin="round"/>
<path d="M64.6895 282.996C66.8411 282.592 69.0505 282.592 71.2021 282.996C73.6076 283.448 75.9142 284.593 80.7822 287.027L128.072 310.673C130.205 311.739 131.758 312.516 132.867 313.203C133.986 313.896 134.526 314.425 134.77 314.938C135.265 315.982 135.265 317.194 134.77 318.238C134.526 318.751 133.986 319.28 132.867 319.973C131.758 320.659 130.205 321.437 128.072 322.503L80.7822 346.148C75.9141 348.582 73.6076 349.728 71.2021 350.179V350.18C69.0506 350.584 66.841 350.584 64.6895 350.18V350.179C62.2839 349.728 59.9768 348.582 55.1084 346.148L7.81836 322.503C5.68543 321.436 4.13224 320.66 3.02344 319.973C1.90495 319.28 1.36412 318.751 1.12109 318.238C0.625991 317.194 0.626019 315.982 1.12109 314.938C1.36412 314.425 1.90498 313.896 3.02344 313.203C4.13223 312.516 5.68545 311.739 7.81836 310.673L55.1084 287.027C59.9767 284.593 62.2839 283.447 64.6895 282.996Z" fill="#FFF6E5" stroke="#070FA0" stroke-width="1.5"/>
<path d="M108.229 182.408C110.38 182.005 112.59 182.005 114.741 182.408C117.147 182.86 119.453 184.005 124.321 186.439L171.611 210.085C173.744 211.151 175.297 211.928 176.406 212.615C177.525 213.308 178.066 213.837 178.309 214.35C178.804 215.394 178.804 216.606 178.309 217.65C178.066 218.163 177.525 218.692 176.406 219.385C175.297 220.072 173.744 220.849 171.611 221.915L124.321 245.561C119.453 247.994 117.147 249.14 114.741 249.591V249.592C112.59 249.996 110.38 249.996 108.229 249.592V249.591C105.823 249.14 103.516 247.994 98.6475 245.561L51.3574 221.915C49.2245 220.849 47.6713 220.072 46.5625 219.385C45.444 218.692 44.9032 218.163 44.6602 217.65C44.1651 216.606 44.1651 215.394 44.6602 214.35C44.9032 213.837 45.444 213.308 46.5625 212.615C47.6713 211.928 49.2245 211.151 51.3574 210.085L98.6475 186.439C103.516 184.005 105.823 182.86 108.229 182.408Z" fill="#FFF6E5" stroke="#070FA0" stroke-width="1.5"/>
<path d="M459.064 195.875C461.216 195.471 463.425 195.471 465.577 195.875C467.983 196.326 470.289 197.472 475.157 199.906L522.447 223.552C524.58 224.618 526.133 225.395 527.242 226.082C528.361 226.775 528.901 227.304 529.145 227.816C529.64 228.861 529.64 230.073 529.145 231.117C528.901 231.63 528.361 232.159 527.242 232.852C526.133 233.538 524.58 234.315 522.447 235.382L475.157 259.027C470.289 261.461 467.983 262.607 465.577 263.058V263.059C463.426 263.463 461.216 263.463 459.064 263.059V263.058C456.659 262.607 454.352 261.461 449.483 259.027L402.193 235.382C400.06 234.315 398.507 233.538 397.398 232.852C396.28 232.159 395.739 231.63 395.496 231.117C395.001 230.073 395.001 228.861 395.496 227.816C395.739 227.304 396.28 226.775 397.398 226.082C398.507 225.395 400.06 224.618 402.193 223.552L449.483 199.906C454.352 197.472 456.659 196.326 459.064 195.875Z" fill="#FFF6E5" stroke="#070FA0" stroke-width="1.5"/>
<path d="M372.275 313.764C374.427 313.36 376.636 313.36 378.788 313.764C381.194 314.215 383.5 315.361 388.368 317.795L435.658 341.44C437.791 342.507 439.344 343.284 440.453 343.971C441.572 344.664 442.112 345.193 442.355 345.705C442.851 346.75 442.851 347.961 442.355 349.006C442.112 349.518 441.572 350.047 440.453 350.74C439.344 351.427 437.791 352.204 435.658 353.271L388.368 376.916C383.5 379.35 381.194 380.495 378.788 380.946V380.947C376.637 381.352 374.427 381.352 372.275 380.947V380.946C369.87 380.495 367.563 379.35 362.694 376.916L315.404 353.271C313.271 352.204 311.718 351.427 310.609 350.74C309.491 350.047 308.95 349.518 308.707 349.006C308.212 347.961 308.212 346.75 308.707 345.705C308.95 345.193 309.491 344.664 310.609 343.971C311.718 343.284 313.271 342.507 315.404 341.44L362.694 317.795C367.563 315.361 369.87 314.215 372.275 313.764Z" fill="#FFF6E5" stroke="#070FA0" stroke-width="1.5"/>
<mask id="path-7-inside-1_241_2049" fill="white">
<path d="M254.774 1.20312C263.325 -0.400942 272.103 -0.400942 280.653 1.20312C290.309 3.0149 299.515 7.61748 317.924 16.8223L498.182 106.951C514.341 115.031 522.421 119.072 525.014 124.539C527.27 129.296 527.27 134.816 525.014 139.573C522.421 145.04 514.341 149.08 498.182 157.16L317.924 247.291C299.515 256.494 290.309 261.097 280.653 262.907C272.103 264.514 263.325 264.514 254.774 262.907C245.119 261.097 235.913 256.493 217.505 247.291L37.2471 157.16C21.0872 149.08 13.0068 145.04 10.4141 139.573C8.15821 134.816 8.1583 129.296 10.4141 124.539C13.0068 119.072 21.0871 115.031 37.2471 106.951L217.505 16.8223C235.913 7.61768 245.119 3.01494 254.774 1.20312ZM273.256 76.0156C269.594 75.3287 265.835 75.3287 262.173 76.0156C258.038 76.7915 254.095 78.7621 246.211 82.7041L169.011 121.305C162.09 124.765 158.63 126.495 157.52 128.837C156.553 130.874 156.553 133.238 157.52 135.275C158.63 137.617 162.09 139.347 169.011 142.808L246.211 181.408C254.095 185.349 258.038 187.321 262.173 188.097C265.835 188.785 269.594 188.785 273.256 188.097C277.391 187.321 281.334 185.349 289.218 181.408L366.417 142.808C373.338 139.347 376.799 137.617 377.909 135.275C378.875 133.238 378.875 130.874 377.909 128.837C376.799 126.495 373.338 124.765 366.417 121.305L289.218 82.7041C281.334 78.762 277.391 76.7916 273.256 76.0156Z"/>
</mask>
<path d="M254.774 1.20312C263.325 -0.400942 272.103 -0.400942 280.653 1.20312C290.309 3.0149 299.515 7.61748 317.924 16.8223L498.182 106.951C514.341 115.031 522.421 119.072 525.014 124.539C527.27 129.296 527.27 134.816 525.014 139.573C522.421 145.04 514.341 149.08 498.182 157.16L317.924 247.291C299.515 256.494 290.309 261.097 280.653 262.907C272.103 264.514 263.325 264.514 254.774 262.907C245.119 261.097 235.913 256.493 217.505 247.291L37.2471 157.16C21.0872 149.08 13.0068 145.04 10.4141 139.573C8.15821 134.816 8.1583 129.296 10.4141 124.539C13.0068 119.072 21.0871 115.031 37.2471 106.951L217.505 16.8223C235.913 7.61768 245.119 3.01494 254.774 1.20312ZM273.256 76.0156C269.594 75.3287 265.835 75.3287 262.173 76.0156C258.038 76.7915 254.095 78.7621 246.211 82.7041L169.011 121.305C162.09 124.765 158.63 126.495 157.52 128.837C156.553 130.874 156.553 133.238 157.52 135.275C158.63 137.617 162.09 139.347 169.011 142.808L246.211 181.408C254.095 185.349 258.038 187.321 262.173 188.097C265.835 188.785 269.594 188.785 273.256 188.097C277.391 187.321 281.334 185.349 289.218 181.408L366.417 142.808C373.338 139.347 376.799 137.617 377.909 135.275C378.875 133.238 378.875 130.874 377.909 128.837C376.799 126.495 373.338 124.765 366.417 121.305L289.218 82.7041C281.334 78.762 277.391 76.7916 273.256 76.0156Z" fill="#FFF6E5"/>
<path d="M254.774 1.20312L254.498 -0.271154L254.498 -0.271142L254.774 1.20312ZM280.653 1.20312L280.93 -0.271144L280.93 -0.271154L280.653 1.20312ZM317.924 16.8223L317.253 18.1639L317.253 18.1639L317.924 16.8223ZM498.182 106.951L498.852 105.61L498.852 105.61L498.182 106.951ZM525.014 124.539L526.369 123.896L526.369 123.896L525.014 124.539ZM525.014 139.573L526.369 140.216L526.369 140.216L525.014 139.573ZM498.182 157.16L497.511 155.819L497.511 155.819L498.182 157.16ZM317.924 247.291L318.595 248.633L318.595 248.633L317.924 247.291ZM280.653 262.907L280.377 261.433L280.376 261.433L280.653 262.907ZM254.774 262.907L255.051 261.433L255.051 261.433L254.774 262.907ZM217.505 247.291L216.834 248.633L216.834 248.633L217.505 247.291ZM37.2471 157.16L37.9179 155.819L37.9179 155.819L37.2471 157.16ZM10.4141 139.573L9.05872 140.216L9.05874 140.216L10.4141 139.573ZM10.4141 124.539L9.05874 123.896L9.05871 123.896L10.4141 124.539ZM37.2471 106.951L37.9179 108.293L37.2471 106.951ZM217.505 16.8223L218.176 18.1639L218.176 18.1639L217.505 16.8223ZM273.256 76.0156L273.533 74.5414L273.532 74.5413L273.256 76.0156ZM262.173 76.0156L261.896 74.5413L261.896 74.5414L262.173 76.0156ZM246.211 82.7041L246.882 84.0457L246.882 84.0457L246.211 82.7041ZM169.011 121.305L169.682 122.646L169.682 122.646L169.011 121.305ZM157.52 128.837L156.164 128.194L156.164 128.194L157.52 128.837ZM157.52 135.275L156.164 135.918L156.164 135.918L157.52 135.275ZM169.011 142.808L169.682 141.466L169.682 141.466L169.011 142.808ZM246.211 181.408L245.54 182.75L245.54 182.75L246.211 181.408ZM262.173 188.097L262.45 186.622L262.449 186.622L262.173 188.097ZM273.256 188.097L272.979 186.622L272.979 186.622L273.256 188.097ZM289.218 181.408L289.888 182.75L289.889 182.75L289.218 181.408ZM366.417 142.808L365.746 141.466L365.746 141.466L366.417 142.808ZM377.909 135.275L379.264 135.918L379.265 135.918L377.909 135.275ZM377.909 128.837L379.265 128.194L379.264 128.194L377.909 128.837ZM366.417 121.305L365.746 122.646L365.746 122.646L366.417 121.305ZM289.218 82.7041L288.547 84.0457L288.547 84.0457L289.218 82.7041ZM254.774 1.20312L255.051 2.6774C263.418 1.10763 272.009 1.10763 280.377 2.6774L280.653 1.20312L280.93 -0.271154C272.197 -1.90952 263.231 -1.90952 254.498 -0.271154L254.774 1.20312ZM280.653 1.20312L280.377 2.67739C289.777 4.44134 298.766 8.92027 317.253 18.1639L317.924 16.8223L318.595 15.4806C300.263 6.31469 290.84 1.58845 280.93 -0.271144L280.653 1.20312ZM317.924 16.8223L317.253 18.1639L497.511 108.293L498.182 106.951L498.852 105.61L318.595 15.4806L317.924 16.8223ZM498.182 106.951L497.511 108.293C505.617 112.346 511.603 115.341 515.895 118C520.207 120.671 522.556 122.857 523.658 125.182L525.014 124.539L526.369 123.896C524.879 120.753 521.892 118.186 517.475 115.45C513.039 112.702 506.906 109.636 498.852 105.61L498.182 106.951ZM525.014 124.539L523.658 125.182C525.721 129.532 525.721 134.58 523.658 138.931L525.014 139.573L526.369 140.216C528.818 135.052 528.818 129.061 526.369 123.896L525.014 124.539ZM525.014 139.573L523.658 138.93C522.556 141.255 520.207 143.441 515.895 146.112C511.603 148.771 505.617 151.765 497.511 155.819L498.182 157.16L498.852 158.502C506.905 154.475 513.039 151.41 517.475 148.662C521.892 145.926 524.878 143.359 526.369 140.216L525.014 139.573ZM498.182 157.16L497.511 155.819L317.253 245.949L317.924 247.291L318.595 248.633L498.852 158.502L498.182 157.16ZM317.924 247.291L317.253 245.949C298.766 255.191 289.777 259.67 280.377 261.433L280.653 262.907L280.93 264.382C290.84 262.523 300.264 257.796 318.595 248.633L317.924 247.291ZM280.653 262.907L280.376 261.433C272.009 263.005 263.418 263.005 255.051 261.433L254.774 262.907L254.497 264.381C263.231 266.023 272.197 266.023 280.93 264.381L280.653 262.907ZM254.774 262.907L255.051 261.433C245.651 259.67 236.662 255.191 218.176 245.949L217.505 247.291L216.834 248.633C235.165 257.796 244.588 262.523 254.498 264.382L254.774 262.907ZM217.505 247.291L218.176 245.949L37.9179 155.819L37.2471 157.16L36.5762 158.502L216.834 248.633L217.505 247.291ZM37.2471 157.16L37.9179 155.819C29.8112 151.765 23.8249 148.77 19.5328 146.112C15.2212 143.441 12.8716 141.255 11.7694 138.931L10.4141 139.573L9.05874 140.216C10.5493 143.359 13.5362 145.926 17.953 148.662C22.3892 151.41 28.5231 154.475 36.5762 158.502L37.2471 157.16ZM10.4141 139.573L11.7694 138.931C9.70644 134.58 9.7065 129.532 11.7694 125.182L10.4141 124.539L9.05871 123.896C6.61009 129.06 6.60998 135.052 9.05872 140.216L10.4141 139.573ZM10.4141 124.539L11.7694 125.182C12.8716 122.858 15.2213 120.671 19.5328 118C23.8249 115.341 29.8112 112.346 37.9179 108.293L37.2471 106.951L36.5762 105.61C28.523 109.636 22.3892 112.702 17.9529 115.45C13.5361 118.186 10.5492 120.753 9.05874 123.896L10.4141 124.539ZM37.2471 106.951L37.9179 108.293L218.176 18.1639L217.505 16.8223L216.834 15.4806L36.5762 105.61L37.2471 106.951ZM217.505 16.8223L218.176 18.1639C236.662 8.92045 245.651 4.44138 255.051 2.67739L254.774 1.20312L254.498 -0.271142C244.588 1.5885 235.165 6.31491 216.834 15.4806L217.505 16.8223ZM273.256 76.0156L273.532 74.5413C269.688 73.8201 265.741 73.8201 261.896 74.5413L262.173 76.0156L262.449 77.4899C265.928 76.8373 269.5 76.8372 272.979 77.4899L273.256 76.0156ZM262.173 76.0156L261.896 74.5414C257.506 75.3651 253.346 77.4592 245.54 81.3625L246.211 82.7041L246.882 84.0457C254.843 80.065 258.569 78.218 262.449 77.4899L262.173 76.0156ZM246.211 82.7041L245.54 81.3625L168.34 119.963L169.011 121.305L169.682 122.646L246.882 84.0457L246.211 82.7041ZM169.011 121.305L168.34 119.963C164.906 121.68 162.237 123.013 160.296 124.215C158.375 125.406 156.914 126.614 156.164 128.194L157.52 128.837L158.875 129.48C159.236 128.718 160.06 127.891 161.876 126.766C163.673 125.652 166.194 124.39 169.682 122.646L169.011 121.305ZM157.52 128.837L156.164 128.194C155.005 130.638 155.005 133.474 156.164 135.918L157.52 135.275L158.875 134.633C158.102 133.002 158.102 131.11 158.875 129.48L157.52 128.837ZM157.52 135.275L156.164 135.918C156.914 137.498 158.375 138.707 160.296 139.897C162.237 141.1 164.906 142.432 168.34 144.149L169.011 142.808L169.682 141.466C166.194 139.722 163.673 138.46 161.876 137.347C160.06 136.222 159.236 135.394 158.875 134.633L157.52 135.275ZM169.011 142.808L168.34 144.149L245.54 182.75L246.211 181.408L246.882 180.067L169.682 141.466L169.011 142.808ZM246.211 181.408L245.54 182.75C253.346 186.652 257.506 188.748 261.896 189.571L262.173 188.097L262.449 186.622C258.569 185.895 254.844 184.047 246.882 180.067L246.211 181.408ZM262.173 188.097L261.896 189.571C265.741 190.293 269.688 190.293 273.533 189.571L273.256 188.097L272.979 186.622C269.5 187.276 265.928 187.276 262.45 186.622L262.173 188.097ZM273.256 188.097L273.532 189.571C277.922 188.748 282.083 186.652 289.888 182.75L289.218 181.408L288.547 180.067C280.585 184.047 276.859 185.895 272.979 186.622L273.256 188.097ZM289.218 181.408L289.889 182.75L367.088 144.149L366.417 142.808L365.746 141.466L288.547 180.067L289.218 181.408ZM366.417 142.808L367.088 144.149C370.522 142.432 373.191 141.1 375.132 139.897C377.054 138.707 378.515 137.498 379.264 135.918L377.909 135.275L376.554 134.633C376.193 135.394 375.369 136.221 373.552 137.347C371.755 138.46 369.233 139.722 365.746 141.466L366.417 142.808ZM377.909 135.275L379.265 135.918C380.423 133.474 380.423 130.638 379.265 128.194L377.909 128.837L376.554 129.48C377.327 131.11 377.327 133.002 376.554 134.633L377.909 135.275ZM377.909 128.837L379.264 128.194C378.515 126.614 377.054 125.406 375.132 124.215C373.191 123.013 370.522 121.68 367.088 119.963L366.417 121.305L365.746 122.646C369.233 124.39 371.755 125.652 373.552 126.766C375.369 127.891 376.193 128.718 376.554 129.48L377.909 128.837ZM366.417 121.305L367.088 119.963L289.889 81.3625L289.218 82.7041L288.547 84.0457L365.746 122.646L366.417 121.305ZM289.218 82.7041L289.889 81.3625C282.082 77.4591 277.922 75.3652 273.533 74.5414L273.256 76.0156L272.979 77.4899C276.859 78.2181 280.586 80.0649 288.547 84.0457L289.218 82.7041Z" fill="#070EA0" mask="url(#path-7-inside-1_241_2049)"/>
<defs>
<linearGradient id="paint0_linear_241_2049" x1="267.714" y1="141.604" x2="267.714" y2="422.281" gradientUnits="userSpaceOnUse">
<stop stop-color="#BFEAFF"/>
<stop offset="1" stop-color="#A5C0EE"/>
</linearGradient>
</defs>
</svg>
