<svg width="531" height="414" viewBox="0 0 531 414" fill="none" xmlns="http://www.w3.org/2000/svg">
<path d="M254.912 151.828C263.371 150.241 272.056 150.241 280.515 151.828C290.042 153.616 299.14 158.156 317.588 167.38L497.845 257.509C505.938 261.556 511.962 264.568 516.29 267.25C520.628 269.937 523.137 272.219 524.336 274.748C526.495 279.302 526.495 284.585 524.336 289.139C523.137 291.668 520.628 293.949 516.29 296.636C511.962 299.317 505.938 302.33 497.845 306.376L317.588 396.507C299.14 405.729 290.042 410.271 280.515 412.057H280.514C272.055 413.647 263.371 413.647 254.913 412.057H254.912C245.384 410.271 236.286 405.729 217.839 396.507L37.582 306.376C29.4888 302.33 23.4657 299.317 19.1377 296.636C14.7999 293.949 12.2901 291.668 11.0908 289.139C8.93142 284.585 8.93155 279.302 11.0908 274.748C12.2901 272.219 14.7999 269.937 19.1377 267.25C23.4657 264.568 29.4889 261.556 37.582 257.509L217.839 167.38C236.286 158.156 245.384 153.616 254.912 151.828Z" fill="url(#paint0_linear_263_630)" stroke="#070EA0" stroke-width="1.5"/>
<path d="M75.2051 310L111.205 229.5H448.705L368.705 347.5L75.2051 310Z" stroke="#070FA0" stroke-width="1.49621" stroke-linecap="round" stroke-linejoin="round"/>
<path d="M64.6895 282.996C66.8411 282.592 69.0505 282.592 71.2021 282.996C73.6076 283.448 75.9142 284.593 80.7822 287.027L128.072 310.673C130.205 311.739 131.758 312.516 132.867 313.203C133.986 313.896 134.526 314.425 134.77 314.938C135.265 315.982 135.265 317.194 134.77 318.238C134.526 318.751 133.986 319.28 132.867 319.973C131.758 320.66 130.205 321.437 128.072 322.503L80.7822 346.148C75.9141 348.582 73.6076 349.728 71.2021 350.179V350.18C69.0506 350.584 66.841 350.584 64.6895 350.18V350.179C62.2839 349.728 59.9768 348.582 55.1084 346.148L7.81836 322.503C5.68543 321.437 4.13224 320.66 3.02344 319.973C1.90495 319.28 1.36412 318.751 1.12109 318.238C0.625991 317.194 0.626019 315.982 1.12109 314.938C1.36412 314.425 1.90498 313.896 3.02344 313.203C4.13223 312.516 5.68545 311.739 7.81836 310.673L55.1084 287.027C59.9767 284.593 62.2839 283.448 64.6895 282.996Z" fill="#FFF6E5" stroke="#070FA0" stroke-width="1.5"/>
<path d="M108.228 182.408C110.379 182.004 112.589 182.004 114.74 182.408C117.146 182.859 119.452 184.005 124.32 186.439L171.61 210.085C173.743 211.151 175.296 211.928 176.405 212.615C177.524 213.308 178.065 213.837 178.308 214.349C178.803 215.394 178.803 216.605 178.308 217.65C178.065 218.163 177.524 218.692 176.405 219.384C175.296 220.071 173.743 220.848 171.61 221.915L124.32 245.56C119.452 247.994 117.146 249.139 114.74 249.591V249.591C112.589 249.996 110.379 249.996 108.228 249.591V249.591C105.822 249.139 103.515 247.994 98.6465 245.56L51.3564 221.915C49.2235 220.848 47.6703 220.071 46.5615 219.384C45.443 218.692 44.9022 218.163 44.6592 217.65C44.1641 216.606 44.1641 215.394 44.6592 214.349C44.9022 213.837 45.4431 213.308 46.5615 212.615C47.6703 211.928 49.2235 211.151 51.3564 210.085L98.6465 186.439C103.515 184.005 105.822 182.859 108.228 182.408Z" fill="#FFF6E5" stroke="#070FA0" stroke-width="1.5"/>
<path d="M459.063 195.876C461.215 195.472 463.424 195.472 465.576 195.876C467.981 196.327 470.288 197.473 475.156 199.907L522.446 223.552C524.579 224.619 526.132 225.396 527.241 226.083C528.359 226.776 528.9 227.305 529.143 227.817C529.638 228.862 529.638 230.073 529.143 231.118C528.9 231.63 528.359 232.159 527.241 232.852C526.132 233.539 524.579 234.316 522.446 235.382L475.156 259.028C470.288 261.462 467.981 262.607 465.576 263.058V263.059C463.424 263.464 461.215 263.464 459.063 263.059V263.058C456.657 262.607 454.35 261.462 449.482 259.028L402.192 235.382C400.059 234.316 398.506 233.539 397.397 232.852C396.278 232.159 395.738 231.63 395.495 231.118C395 230.073 395 228.861 395.495 227.817C395.738 227.305 396.279 226.776 397.397 226.083C398.506 225.396 400.059 224.619 402.192 223.552L449.482 199.907C454.35 197.473 456.657 196.327 459.063 195.876Z" fill="#FFF6E5" stroke="#070FA0" stroke-width="1.5"/>
<path d="M372.278 313.763C374.43 313.36 376.639 313.36 378.791 313.763C381.196 314.215 383.503 315.36 388.371 317.795L435.661 341.44C437.794 342.506 439.347 343.283 440.456 343.97C441.574 344.663 442.115 345.192 442.358 345.705C442.853 346.749 442.853 347.961 442.358 349.005C442.115 349.518 441.574 350.047 440.456 350.74C439.347 351.427 437.793 352.204 435.661 353.27L388.371 376.916C383.502 379.349 381.196 380.495 378.791 380.946V380.947C376.639 381.351 374.429 381.351 372.278 380.947V380.946C369.872 380.495 367.565 379.349 362.697 376.916L315.407 353.27C313.274 352.204 311.721 351.427 310.612 350.74C309.493 350.047 308.953 349.518 308.709 349.005C308.214 347.961 308.214 346.749 308.709 345.705C308.952 345.192 309.493 344.663 310.612 343.97C311.721 343.283 313.274 342.507 315.407 341.44L362.697 317.795C367.565 315.36 369.872 314.215 372.278 313.763Z" fill="#FFF6E5" stroke="#070FA0" stroke-width="1.5"/>
<mask id="path-7-inside-1_263_630" fill="white">
<path d="M254.775 1.20301C263.325 -0.400999 272.103 -0.401011 280.653 1.20301C290.309 3.01478 299.515 7.61736 317.924 16.8222L498.182 106.951C514.341 115.031 522.421 119.071 525.014 124.538C527.27 129.295 527.27 134.816 525.014 139.573C522.421 145.04 514.341 149.08 498.182 157.16L317.924 247.291C299.515 256.494 290.309 261.097 280.653 262.907C272.103 264.514 263.325 264.514 254.775 262.907C245.12 261.097 235.914 256.494 217.505 247.291L37.2471 157.16C21.0873 149.08 13.0069 145.04 10.4141 139.573C8.15818 134.816 8.15818 129.295 10.4141 124.538C13.007 119.071 21.0874 115.031 37.2471 106.951L217.505 16.8222C235.914 7.61736 245.12 3.01478 254.775 1.20301ZM273.256 76.0145C269.594 75.3276 265.835 75.3276 262.173 76.0145C258.038 76.7905 254.095 78.7619 246.211 82.704L169.011 121.305C162.09 124.765 158.63 126.495 157.52 128.837C156.554 130.874 156.553 133.238 157.52 135.275C158.63 137.617 162.09 139.347 169.011 142.808L246.211 181.408C254.095 185.349 258.038 187.32 262.173 188.096C265.835 188.784 269.594 188.784 273.256 188.096C277.391 187.32 281.334 185.349 289.218 181.408L366.417 142.808C373.338 139.347 376.799 137.617 377.909 135.275C378.875 133.238 378.875 130.874 377.909 128.837C376.799 126.495 373.338 124.765 366.417 121.305L289.218 82.704C281.334 78.7618 277.391 76.7905 273.256 76.0145Z"/>
</mask>
<path d="M254.775 1.20301C263.325 -0.400999 272.103 -0.401011 280.653 1.20301C290.309 3.01478 299.515 7.61736 317.924 16.8222L498.182 106.951C514.341 115.031 522.421 119.071 525.014 124.538C527.27 129.295 527.27 134.816 525.014 139.573C522.421 145.04 514.341 149.08 498.182 157.16L317.924 247.291C299.515 256.494 290.309 261.097 280.653 262.907C272.103 264.514 263.325 264.514 254.775 262.907C245.12 261.097 235.914 256.494 217.505 247.291L37.2471 157.16C21.0873 149.08 13.0069 145.04 10.4141 139.573C8.15818 134.816 8.15818 129.295 10.4141 124.538C13.007 119.071 21.0874 115.031 37.2471 106.951L217.505 16.8222C235.914 7.61736 245.12 3.01478 254.775 1.20301ZM273.256 76.0145C269.594 75.3276 265.835 75.3276 262.173 76.0145C258.038 76.7905 254.095 78.7619 246.211 82.704L169.011 121.305C162.09 124.765 158.63 126.495 157.52 128.837C156.554 130.874 156.553 133.238 157.52 135.275C158.63 137.617 162.09 139.347 169.011 142.808L246.211 181.408C254.095 185.349 258.038 187.32 262.173 188.096C265.835 188.784 269.594 188.784 273.256 188.096C277.391 187.32 281.334 185.349 289.218 181.408L366.417 142.808C373.338 139.347 376.799 137.617 377.909 135.275C378.875 133.238 378.875 130.874 377.909 128.837C376.799 126.495 373.338 124.765 366.417 121.305L289.218 82.704C281.334 78.7618 277.391 76.7905 273.256 76.0145Z" fill="#FFF6E5"/>
<path d="M254.775 1.20301L254.499 -0.271266L254.499 -0.271255L254.775 1.20301ZM280.653 1.20301L280.93 -0.271255L280.93 -0.271265L280.653 1.20301ZM317.924 16.8222L317.253 18.1638L317.253 18.1638L317.924 16.8222ZM498.182 106.951L497.511 108.293L498.182 106.951ZM525.014 124.538L526.369 123.895L526.369 123.895L525.014 124.538ZM525.014 139.573L526.369 140.216L526.369 140.216L525.014 139.573ZM498.182 157.16L497.511 155.818L497.511 155.818L498.182 157.16ZM317.924 247.291L318.595 248.633L318.595 248.633L317.924 247.291ZM280.653 262.907L280.377 261.433L280.376 261.433L280.653 262.907ZM254.775 262.907L255.052 261.433L255.052 261.433L254.775 262.907ZM217.505 247.291L216.834 248.633L216.834 248.633L217.505 247.291ZM37.2471 157.16L37.918 155.818L37.918 155.818L37.2471 157.16ZM10.4141 139.573L9.05878 140.216L9.05881 140.216L10.4141 139.573ZM10.4141 124.538L9.05882 123.895L9.05878 123.895L10.4141 124.538ZM37.2471 106.951L37.918 108.293L37.2471 106.951ZM217.505 16.8222L218.176 18.1638L218.176 18.1638L217.505 16.8222ZM273.256 76.0145L273.533 74.5403L273.533 74.5403L273.256 76.0145ZM262.173 76.0145L261.896 74.5403L261.896 74.5403L262.173 76.0145ZM246.211 82.704L246.882 84.0456L246.882 84.0456L246.211 82.704ZM169.011 121.305L169.682 122.646L169.682 122.646L169.011 121.305ZM157.52 128.837L156.164 128.194L156.164 128.194L157.52 128.837ZM157.52 135.275L156.164 135.918L156.164 135.918L157.52 135.275ZM169.011 142.808L169.682 141.466L169.682 141.466L169.011 142.808ZM246.211 181.408L245.54 182.75L245.54 182.75L246.211 181.408ZM262.173 188.096L262.45 186.621L262.449 186.621L262.173 188.096ZM273.256 188.096L272.979 186.621L272.979 186.621L273.256 188.096ZM289.218 181.408L289.889 182.75L289.889 182.75L289.218 181.408ZM366.417 142.808L365.746 141.466L365.746 141.466L366.417 142.808ZM377.909 135.275L379.265 135.918L379.265 135.918L377.909 135.275ZM377.909 128.837L379.265 128.194L379.265 128.194L377.909 128.837ZM366.417 121.305L365.746 122.646L365.746 122.646L366.417 121.305ZM289.218 82.704L288.547 84.0456L288.547 84.0456L289.218 82.704ZM254.775 1.20301L255.052 2.6773C263.419 1.10757 272.01 1.10756 280.377 2.67729L280.653 1.20301L280.93 -0.271265C272.197 -1.90958 263.232 -1.90957 254.499 -0.271266L254.775 1.20301ZM280.653 1.20301L280.377 2.67728C289.777 4.44123 298.766 8.92015 317.253 18.1638L317.924 16.8222L318.595 15.4805C300.264 6.31458 290.84 1.58834 280.93 -0.271255L280.653 1.20301ZM317.924 16.8222L317.253 18.1638L497.511 108.293L498.182 106.951L498.853 105.609L318.595 15.4805L317.924 16.8222ZM498.182 106.951L497.511 108.293C505.617 112.346 511.603 115.341 515.895 117.999C520.206 120.67 522.556 122.857 523.658 125.181L525.014 124.538L526.369 123.895C524.878 120.752 521.892 118.185 517.475 115.449C513.039 112.701 506.905 109.636 498.853 105.609L498.182 106.951ZM525.014 124.538L523.658 125.181C525.721 129.531 525.721 134.58 523.658 138.93L525.014 139.573L526.369 140.216C528.818 135.052 528.818 129.06 526.369 123.895L525.014 124.538ZM525.014 139.573L523.658 138.93C522.556 141.255 520.207 143.441 515.895 146.112C511.603 148.77 505.617 151.765 497.511 155.818L498.182 157.16L498.853 158.502C506.906 154.475 513.039 151.41 517.475 148.662C521.892 145.926 524.878 143.359 526.369 140.216L525.014 139.573ZM498.182 157.16L497.511 155.818L317.253 245.949L317.924 247.291L318.595 248.633L498.853 158.502L498.182 157.16ZM317.924 247.291L317.253 245.949C298.766 255.191 289.777 259.67 280.377 261.433L280.653 262.907L280.93 264.381C290.84 262.523 300.264 257.796 318.595 248.633L317.924 247.291ZM280.653 262.907L280.376 261.433C272.009 263.005 263.419 263.005 255.052 261.433L254.775 262.907L254.498 264.381C263.231 266.023 272.197 266.023 280.93 264.381L280.653 262.907ZM254.775 262.907L255.052 261.433C245.652 259.67 236.662 255.191 218.176 245.949L217.505 247.291L216.834 248.633C235.165 257.796 244.589 262.523 254.499 264.381L254.775 262.907ZM217.505 247.291L218.176 245.949L37.918 155.818L37.2471 157.16L36.5763 158.502L216.834 248.633L217.505 247.291ZM37.2471 157.16L37.918 155.818C29.8113 151.765 23.825 148.77 19.5329 146.112C15.2213 143.441 12.8717 141.255 11.7694 138.93L10.4141 139.573L9.05881 140.216C10.5493 143.359 13.5363 145.926 17.9531 148.662C22.3893 151.41 28.5232 154.475 36.5763 158.502L37.2471 157.16ZM10.4141 139.573L11.7695 138.93C9.7064 134.58 9.7064 129.531 11.7695 125.181L10.4141 124.538L9.05878 123.895C6.60996 129.06 6.60996 135.052 9.05878 140.216L10.4141 139.573ZM10.4141 124.538L11.7694 125.181C12.8717 122.857 15.2214 120.67 19.5329 117.999C23.825 115.341 29.8113 112.346 37.918 108.293L37.2471 106.951L36.5763 105.609C28.5232 109.636 22.3894 112.701 17.9531 115.449C13.5363 118.185 10.5494 120.752 9.05882 123.895L10.4141 124.538ZM37.2471 106.951L37.918 108.293L218.176 18.1638L217.505 16.8222L216.834 15.4805L36.5763 105.609L37.2471 106.951ZM217.505 16.8222L218.176 18.1638C236.662 8.92015 245.652 4.44123 255.052 2.67728L254.775 1.20301L254.499 -0.271255C244.589 1.58834 235.165 6.31458 216.834 15.4805L217.505 16.8222ZM273.256 76.0145L273.533 74.5403C269.688 73.819 265.741 73.819 261.896 74.5403L262.173 76.0145L262.449 77.4888C265.928 76.8362 269.5 76.8361 272.979 77.4888L273.256 76.0145ZM262.173 76.0145L261.896 74.5403C257.506 75.364 253.346 77.4591 245.54 81.3624L246.211 82.704L246.882 84.0456C254.844 80.0646 258.569 78.2169 262.45 77.4888L262.173 76.0145ZM246.211 82.704L245.54 81.3624L168.34 119.963L169.011 121.305L169.682 122.646L246.882 84.0456L246.211 82.704ZM169.011 121.305L168.34 119.963C164.906 121.68 162.237 123.013 160.296 124.215C158.375 125.406 156.914 126.614 156.164 128.194L157.52 128.837L158.875 129.48C159.236 128.718 160.06 127.891 161.876 126.765C163.673 125.652 166.195 124.39 169.682 122.646L169.011 121.305ZM157.52 128.837L156.164 128.194C155.005 130.638 155.005 133.474 156.164 135.918L157.52 135.275L158.875 134.633C158.102 133.002 158.102 131.11 158.875 129.479L157.52 128.837ZM157.52 135.275L156.164 135.918C156.914 137.498 158.375 138.706 160.296 139.897C162.237 141.099 164.906 142.432 168.34 144.149L169.011 142.808L169.682 141.466C166.195 139.722 163.673 138.46 161.876 137.347C160.06 136.221 159.236 135.394 158.875 134.633L157.52 135.275ZM169.011 142.808L168.34 144.149L245.54 182.75L246.211 181.408L246.882 180.066L169.682 141.466L169.011 142.808ZM246.211 181.408L245.54 182.75C253.346 186.652 257.506 188.747 261.896 189.57L262.173 188.096L262.449 186.621C258.569 185.894 254.843 184.047 246.882 180.066L246.211 181.408ZM262.173 188.096L261.896 189.57C265.741 190.292 269.688 190.292 273.533 189.57L273.256 188.096L272.979 186.621C269.5 187.275 265.929 187.275 262.45 186.621L262.173 188.096ZM273.256 188.096L273.532 189.57C277.922 188.747 282.082 186.652 289.889 182.75L289.218 181.408L288.547 180.066C280.585 184.046 276.86 185.894 272.979 186.621L273.256 188.096ZM289.218 181.408L289.889 182.75L367.088 144.149L366.417 142.808L365.746 141.466L288.547 180.066L289.218 181.408ZM366.417 142.808L367.088 144.149C370.522 142.432 373.191 141.099 375.132 139.897C377.054 138.707 378.515 137.498 379.265 135.918L377.909 135.275L376.554 134.633C376.193 135.394 375.369 136.221 373.552 137.347C371.755 138.46 369.233 139.722 365.746 141.466L366.417 142.808ZM377.909 135.275L379.265 135.918C380.424 133.474 380.423 130.638 379.265 128.194L377.909 128.837L376.554 129.479C377.327 131.11 377.327 133.002 376.554 134.633L377.909 135.275ZM377.909 128.837L379.265 128.194C378.515 126.614 377.054 125.406 375.132 124.215C373.191 123.013 370.522 121.68 367.088 119.963L366.417 121.305L365.746 122.646C369.233 124.39 371.755 125.652 373.552 126.765C375.369 127.891 376.193 128.718 376.554 129.48L377.909 128.837ZM366.417 121.305L367.088 119.963L289.889 81.3624L289.218 82.704L288.547 84.0456L365.746 122.646L366.417 121.305ZM289.218 82.704L289.889 81.3624C282.082 77.4591 277.923 75.364 273.533 74.5403L273.256 76.0145L272.979 77.4888C276.859 78.2169 280.585 80.0646 288.547 84.0456L289.218 82.704Z" fill="#070EA0" mask="url(#path-7-inside-1_263_630)"/>
<defs>
<linearGradient id="paint0_linear_263_630" x1="267.713" y1="141.605" x2="267.713" y2="422.281" gradientUnits="userSpaceOnUse">
<stop stop-color="#BFEAFF"/>
<stop offset="1" stop-color="#A5C0EE"/>
</linearGradient>
</defs>
</svg>
