<svg width="630" height="431" viewBox="0 0 630 431" fill="none" xmlns="http://www.w3.org/2000/svg">
<g clip-path="url(#clip0_241_2965)">
<g clip-path="url(#clip1_241_2965)">
<mask id="mask0_241_2965" style="mask-type:luminance" maskUnits="userSpaceOnUse" x="-1" y="0" width="632" height="431">
<path d="M-0.171875 0.222656H630.998V430.778H-0.171875V0.222656Z" fill="white"/>
</mask>
<g mask="url(#mask0_241_2965)">
<path d="M455.883 223.944L325.233 158.618C319.585 155.794 316.761 154.382 313.799 153.827C311.175 153.334 308.482 153.334 305.859 153.827C302.897 154.382 300.072 155.794 294.425 158.618L163.775 223.944C158.817 226.423 156.338 227.662 155.543 229.339C154.85 230.798 154.85 232.493 155.543 233.952C156.338 235.629 158.817 236.868 163.775 239.347L294.425 304.673C300.072 307.496 302.897 308.909 305.859 309.464C308.482 309.957 311.175 309.957 313.799 309.464C316.761 308.909 319.585 307.496 325.233 304.673L455.883 239.347C460.841 236.868 463.32 235.629 464.115 233.952C464.807 232.493 464.807 230.798 464.115 229.339C463.32 227.662 460.841 226.423 455.883 223.944Z" fill="#FFF6E5" stroke="#070FA0" stroke-width="1.61458" stroke-linecap="round" stroke-linejoin="round"/>
<path d="M232.329 221.958C235.897 221.958 238.788 220.513 238.788 218.729C238.788 216.946 235.897 215.5 232.329 215.5C228.762 215.5 225.871 216.946 225.871 218.729C225.871 220.513 228.762 221.958 232.329 221.958Z" stroke="#070FA0" stroke-width="1.61458" stroke-linecap="round" stroke-linejoin="round"/>
<path d="M246.811 221.664C246.551 221.959 246.472 222.287 246.587 222.605C246.703 222.921 247.005 223.215 247.457 223.445L247.575 223.504C247.938 223.686 248.227 223.902 248.424 224.139C248.621 224.377 248.722 224.632 248.722 224.889C248.722 225.146 248.621 225.4 248.424 225.638C248.227 225.876 247.938 226.091 247.575 226.273C247.211 226.455 246.779 226.599 246.303 226.698C245.829 226.796 245.32 226.847 244.805 226.847C244.29 226.847 243.781 226.796 243.306 226.698C242.831 226.599 242.399 226.455 242.035 226.273L241.918 226.215C241.457 225.989 240.871 225.837 240.237 225.78C239.602 225.722 238.946 225.762 238.356 225.892C237.777 226.016 237.284 226.221 236.937 226.484C236.589 226.747 236.402 227.055 236.399 227.369V227.536C236.399 228.055 235.987 228.552 235.253 228.919C234.519 229.286 233.523 229.493 232.485 229.493C231.447 229.493 230.451 229.286 229.717 228.919C228.983 228.552 228.571 228.055 228.571 227.536V227.447C228.556 227.123 228.346 226.809 227.969 226.545C227.592 226.283 227.065 226.082 226.457 225.97C225.867 225.839 225.213 225.801 224.577 225.859C223.942 225.916 223.357 226.068 222.895 226.293L222.778 226.352C222.415 226.534 221.983 226.678 221.508 226.776C221.033 226.875 220.523 226.925 220.009 226.925C219.495 226.925 218.985 226.875 218.51 226.776C218.035 226.678 217.604 226.534 217.24 226.352C216.876 226.17 216.587 225.953 216.39 225.717C216.193 225.479 216.091 225.224 216.091 224.966C216.091 224.71 216.193 224.455 216.39 224.217C216.587 223.979 216.876 223.764 217.24 223.582L217.357 223.524C217.808 223.293 218.111 223 218.226 222.682C218.341 222.365 218.263 222.038 218.003 221.743C217.754 221.453 217.343 221.207 216.818 221.032C216.293 220.859 215.678 220.765 215.047 220.764H214.715C213.677 220.764 212.681 220.558 211.947 220.19C211.213 219.823 210.801 219.326 210.801 218.807C210.801 218.288 211.213 217.79 211.947 217.423C212.681 217.056 213.677 216.85 214.715 216.85H214.891C215.539 216.843 216.167 216.737 216.694 216.549C217.221 216.361 217.623 216.097 217.846 215.793C218.106 215.498 218.185 215.17 218.07 214.853C217.954 214.536 217.652 214.242 217.2 214.012L217.083 213.954C216.719 213.772 216.43 213.556 216.233 213.319C216.036 213.081 215.935 212.826 215.935 212.569C215.935 212.311 216.036 212.057 216.233 211.819C216.43 211.582 216.719 211.366 217.083 211.184C217.446 211.002 217.878 210.858 218.354 210.759C218.828 210.661 219.338 210.611 219.852 210.611C220.367 210.611 220.876 210.661 221.352 210.759C221.826 210.858 222.258 211.002 222.622 211.184L222.739 211.242C223.2 211.468 223.786 211.62 224.42 211.677C225.055 211.735 225.711 211.696 226.301 211.565H226.457C227.036 211.442 227.53 211.236 227.878 210.973C228.225 210.711 228.412 210.403 228.415 210.089V209.922C228.415 209.403 228.827 208.906 229.561 208.539C230.295 208.172 231.291 207.965 232.329 207.965C233.366 207.965 234.362 208.172 235.096 208.539C235.83 208.906 236.242 209.403 236.242 209.922V210.01C236.246 210.325 236.432 210.632 236.779 210.895C237.127 211.157 237.621 211.363 238.2 211.488C238.79 211.618 239.445 211.657 240.08 211.599C240.715 211.542 241.3 211.39 241.762 211.165L241.879 211.106C242.242 210.924 242.674 210.78 243.149 210.682C243.624 210.583 244.134 210.532 244.648 210.532C245.162 210.532 245.673 210.583 246.147 210.682C246.622 210.78 247.054 210.924 247.417 211.106C247.781 211.288 248.07 211.504 248.267 211.741C248.464 211.979 248.566 212.234 248.566 212.491C248.566 212.747 248.464 213.002 248.267 213.24C248.07 213.478 247.781 213.693 247.417 213.875L247.3 213.933C246.849 214.165 246.547 214.458 246.431 214.775C246.316 215.093 246.394 215.42 246.654 215.715V215.793C246.903 216.083 247.314 216.329 247.839 216.503C248.365 216.677 248.979 216.771 249.61 216.772H249.943C250.98 216.772 251.976 216.977 252.71 217.345C253.444 217.712 253.856 218.21 253.856 218.729C253.856 219.248 253.444 219.746 252.71 220.113C251.976 220.48 250.98 220.686 249.943 220.686H249.766C249.136 220.687 248.521 220.78 247.996 220.955C247.471 221.128 247.059 221.375 246.811 221.664Z" stroke="#070FA0" stroke-width="1.61458" stroke-linecap="round" stroke-linejoin="round"/>
<path d="M292.473 222.968C299.842 222.475 305.524 219.319 305.524 215.5C305.524 211.338 298.778 207.965 290.455 207.965C282.817 207.965 276.506 210.807 275.52 214.49M274.309 219.805L277.538 218.729V224.649M274.309 224.649H280.767M292.608 221.958C292.608 226.119 285.861 229.493 277.538 229.493C269.216 229.493 262.469 226.119 262.469 221.958C262.469 217.797 269.216 214.423 277.538 214.423C285.861 214.423 292.608 217.797 292.608 221.958Z" stroke="#070FA0" stroke-width="1.61458" stroke-linecap="round" stroke-linejoin="round"/>
<path d="M339.965 208.255V212.701C339.965 213.304 339.965 213.605 340.2 213.835C340.407 214.038 340.736 214.203 341.141 214.306C341.601 214.423 342.204 214.423 343.41 214.423H352.302M339.965 224.649L345.347 221.958L339.965 219.267M331.354 219.267L325.972 221.958L331.354 224.649M352.882 216.563V224.326C352.882 226.134 352.882 227.038 352.178 227.729C351.559 228.337 350.571 228.831 349.356 229.141C347.974 229.493 346.165 229.493 342.549 229.493H328.771C325.154 229.493 323.346 229.493 321.964 229.141C320.749 228.831 319.76 228.337 319.141 227.729C318.437 227.038 318.438 226.134 318.438 224.326V213.132C318.438 211.323 318.437 210.419 319.141 209.728C319.76 209.121 320.749 208.627 321.964 208.317C323.346 207.965 325.154 207.965 328.771 207.965H335.686C337.265 207.965 338.055 207.965 338.797 208.054C339.457 208.133 340.087 208.264 340.665 208.441C341.316 208.641 341.875 208.92 342.992 209.478L349.855 212.91C350.972 213.468 351.531 213.747 351.93 214.073C352.285 214.363 352.545 214.677 352.703 215.007C352.882 215.379 352.882 215.773 352.882 216.563Z" stroke="#070FA0" stroke-width="1.61458" stroke-linecap="round" stroke-linejoin="round"/>
<path d="M384.622 211.293C385.497 211.228 386.399 211.194 387.329 211.194C398.319 211.194 405.531 216.043 407.953 217.961C408.247 218.194 408.393 218.309 408.475 218.488C408.538 218.623 408.536 218.835 408.475 218.97C408.393 219.148 408.246 219.265 407.95 219.499C407.305 220.009 406.32 220.727 405.017 221.506M375.971 213.04C371.316 214.619 368.157 216.811 366.707 217.959C366.413 218.192 366.266 218.309 366.183 218.487C366.121 218.622 366.121 218.834 366.183 218.969C366.266 219.148 366.412 219.265 366.705 219.496C369.128 221.414 376.34 226.263 387.329 226.263C391.761 226.263 395.578 225.475 398.714 224.409M367.954 209.041L406.704 228.416M382.762 216.445C381.593 217.03 380.871 217.837 380.871 218.729C380.871 220.512 383.762 221.958 387.329 221.958C389.113 221.958 390.728 221.596 391.896 221.012" stroke="#070FA0" stroke-width="1.61458" stroke-linecap="round" stroke-linejoin="round"/>
<path opacity="0.6" d="M455.883 213.18L325.233 147.854C319.585 145.031 316.761 143.619 313.799 143.063C311.175 142.57 308.482 142.57 305.859 143.063C302.897 143.619 300.072 145.031 294.425 147.854L163.775 213.18C158.817 215.659 156.338 216.898 155.543 218.575C154.85 220.035 154.85 221.729 155.543 223.188C156.338 224.865 158.817 226.104 163.775 228.583L294.425 293.909C300.072 296.733 302.897 298.145 305.859 298.7C308.482 299.193 311.175 299.193 313.799 298.7C316.761 298.145 319.585 296.733 325.233 293.909L455.883 228.583C460.841 226.104 463.32 224.865 464.115 223.188C464.807 221.729 464.807 220.035 464.115 218.575C463.32 216.898 460.841 215.659 455.883 213.18Z" stroke="#070FA0" stroke-width="1.61458" stroke-linecap="round" stroke-linejoin="round"/>
<path opacity="0.3" d="M455.883 202.416L325.233 137.09C319.585 134.267 316.761 132.855 313.799 132.299C311.175 131.806 308.482 131.806 305.859 132.299C302.897 132.855 300.072 134.267 294.425 137.09L163.775 202.416C158.817 204.895 156.338 206.134 155.543 207.811C154.85 209.271 154.85 210.965 155.543 212.425C156.338 214.102 158.817 215.341 163.775 217.82L294.425 283.146C300.072 285.969 302.897 287.381 305.859 287.937C308.482 288.43 311.175 288.43 313.799 287.937C316.761 287.381 319.585 285.969 325.233 283.146L455.883 217.82C460.841 215.341 463.32 214.102 464.115 212.425C464.807 210.965 464.807 209.271 464.115 207.811C463.32 206.134 460.841 204.895 455.883 202.416Z" stroke="#070FA0" stroke-width="1.61458" stroke-linecap="round" stroke-linejoin="round"/>
<path opacity="0.1" d="M455.883 191.653L325.233 126.327C319.585 123.503 316.761 122.091 313.799 121.536C311.175 121.043 308.482 121.043 305.859 121.536C302.897 122.091 300.072 123.503 294.425 126.327L163.775 191.653C158.817 194.132 156.338 195.371 155.543 197.048C154.85 198.507 154.85 200.201 155.543 201.661C156.338 203.338 158.817 204.577 163.775 207.056L294.425 272.382C300.072 275.205 302.897 276.618 305.859 277.173C308.482 277.666 311.175 277.666 313.799 277.173C316.761 276.618 319.585 275.205 325.233 272.382L455.883 207.056C460.841 204.577 463.32 203.338 464.115 201.661C464.807 200.201 464.807 198.507 464.115 197.048C463.32 195.371 460.841 194.132 455.883 191.653Z" stroke="#070FA0" stroke-width="1.61458" stroke-linecap="round" stroke-linejoin="round"/>
<path d="M804.633 223.944L673.983 158.618C668.335 155.794 665.511 154.382 662.549 153.827C659.925 153.334 657.232 153.334 654.609 153.827C651.647 154.382 648.823 155.794 643.175 158.618L512.525 223.944C507.567 226.423 505.088 227.662 504.293 229.339C503.6 230.798 503.6 232.493 504.293 233.952C505.088 235.629 507.567 236.868 512.525 239.347L643.175 304.673C648.823 307.496 651.647 308.909 654.609 309.464C657.232 309.957 659.925 309.957 662.549 309.464C665.511 308.909 668.335 307.496 673.983 304.673L804.633 239.347C809.591 236.868 812.07 235.629 812.865 233.952C813.557 232.493 813.557 230.798 812.865 229.339C812.07 227.662 809.591 226.423 804.633 223.944Z" fill="url(#paint0_linear_241_2965)" stroke="#070FA0" stroke-width="1.61458" stroke-linecap="round" stroke-linejoin="round"/>
<path d="M107.133 223.944L-23.5171 158.618C-29.1652 155.794 -31.9893 154.382 -34.9514 153.827C-37.575 153.334 -40.2673 153.334 -42.8908 153.827C-45.853 154.382 -48.6771 155.794 -54.3251 158.618L-184.975 223.944C-189.933 226.423 -192.412 227.662 -193.207 229.339C-193.9 230.798 -193.9 232.493 -193.207 233.952C-192.412 235.629 -189.933 236.868 -184.975 239.347L-54.3251 304.673C-48.6771 307.496 -45.853 308.909 -42.8908 309.464C-40.2673 309.957 -37.575 309.957 -34.9514 309.464C-31.9893 308.909 -29.1652 307.496 -23.5171 304.673L107.133 239.347C112.091 236.868 114.57 235.629 115.365 233.952C116.057 232.493 116.057 230.798 115.365 229.339C114.57 227.662 112.091 226.423 107.133 223.944Z" fill="url(#paint1_linear_241_2965)" stroke="#070FA0" stroke-width="1.61458" stroke-linecap="round" stroke-linejoin="round"/>
<path d="M562.224 199.641C562.67 199.641 563.031 199.28 563.031 198.834V191.568C563.031 191.122 562.67 190.761 562.224 190.761C561.778 190.761 561.416 191.122 561.416 191.568V198.026H554.958C554.512 198.026 554.151 198.388 554.151 198.834C554.151 199.28 554.512 199.641 554.958 199.641H562.224ZM405.813 201.879C407.494 203.56 410.219 203.56 411.901 201.879C413.583 200.197 413.583 197.471 411.901 195.79C410.219 194.108 407.494 194.108 405.813 195.79C404.13 197.471 404.13 200.197 405.813 201.879ZM408.857 198.834L409.427 199.405C451.463 157.369 519.617 157.369 561.653 199.405L562.224 198.834L562.795 198.263C520.128 155.597 450.952 155.597 408.286 198.263L408.857 198.834Z" fill="#070FA0"/>
<path d="M57.9557 263.391C57.5099 263.391 57.1484 263.752 57.1484 264.199V271.464C57.1484 271.91 57.5099 272.272 57.9557 272.272C58.4016 272.272 58.763 271.91 58.763 271.464V265.006H65.2214C65.6672 265.006 66.0286 264.644 66.0286 264.199C66.0286 263.752 65.6672 263.391 65.2214 263.391H57.9557ZM214.368 261.154C212.687 259.472 209.96 259.472 208.279 261.154C206.598 262.835 206.598 265.561 208.279 267.243C209.96 268.924 212.687 268.924 214.368 267.243C216.049 265.561 216.049 262.835 214.368 261.154ZM211.323 264.199L210.752 263.627C168.716 305.663 100.563 305.663 58.5265 263.627L57.9557 264.199L57.3849 264.769C100.051 307.436 169.227 307.436 211.894 264.769L211.323 264.199Z" fill="#070FA0"/>
</g>
</g>
</g>
<defs>
<linearGradient id="paint0_linear_241_2965" x1="658.579" y1="150.916" x2="658.579" y2="312.375" gradientUnits="userSpaceOnUse">
<stop stop-color="#BFEAFF"/>
<stop offset="1" stop-color="#A5C0EE"/>
</linearGradient>
<linearGradient id="paint1_linear_241_2965" x1="-38.9211" y1="150.916" x2="-38.9211" y2="312.375" gradientUnits="userSpaceOnUse">
<stop stop-color="#BFEAFF"/>
<stop offset="1" stop-color="#A5C0EE"/>
</linearGradient>
<clipPath id="clip0_241_2965">
<rect width="630" height="431" fill="white"/>
</clipPath>
<clipPath id="clip1_241_2965">
<rect width="631" height="431" fill="white"/>
</clipPath>
</defs>
</svg>
