<svg width="620" height="431" viewBox="0 0 620 431" fill="none" xmlns="http://www.w3.org/2000/svg">
<g clip-path="url(#clip0_241_2996)">
<g clip-path="url(#clip1_241_2996)">
<mask id="mask0_241_2996" style="mask-type:luminance" maskUnits="userSpaceOnUse" x="0" y="-1" width="620" height="432">
<path d="M0 -0.00195312H620V430.554H0V-0.00195312Z" fill="white"/>
</mask>
<g mask="url(#mask0_241_2996)">
<path d="M376.967 332.002C417.354 308.782 444.55 265.205 444.55 215.275C444.55 140.966 384.311 80.7266 310.002 80.7266C235.692 80.7266 175.453 140.966 175.453 215.275C175.453 265.217 202.664 308.806 243.069 332.02" stroke="#070FA0" stroke-width="1.61458" stroke-linecap="round" stroke-linejoin="round"/>
<path d="M417.305 73.0252L325.405 27.075C319.757 24.251 316.933 22.839 313.97 22.2832C311.347 21.791 308.654 21.791 306.031 22.2832C303.069 22.839 300.244 24.251 294.597 27.075L202.697 73.0252C197.739 75.5041 195.26 76.7436 194.464 78.4209C193.772 79.8805 193.772 81.5739 194.464 83.0335C195.26 84.7108 197.739 85.9503 202.697 88.4292L294.597 134.38C300.244 137.203 303.069 138.615 306.031 139.171C308.654 139.664 311.347 139.664 313.97 139.171C316.933 138.615 319.756 137.203 325.405 134.38L417.305 88.4292C422.263 85.9503 424.742 84.7108 425.537 83.0335C426.229 81.5739 426.229 79.8805 425.537 78.4209C424.742 76.7436 422.263 75.5041 417.305 73.0252Z" fill="#FFF6E5" stroke="#070FA0" stroke-width="1.61458" stroke-linecap="round" stroke-linejoin="round"/>
<path d="M606.75 214.031L514.85 168.081C509.202 165.257 506.378 163.845 503.416 163.29C500.793 162.797 498.1 162.797 495.476 163.29C492.514 163.845 489.69 165.257 484.042 168.081L392.142 214.031C387.184 216.51 384.705 217.75 383.91 219.427C383.218 220.886 383.218 222.579 383.91 224.039C384.705 225.717 387.184 226.956 392.142 229.435L484.042 275.385C489.69 278.209 492.514 279.621 495.476 280.177C498.1 280.67 500.793 280.67 503.416 280.177C506.378 279.621 509.201 278.209 514.85 275.386V275.385L606.75 229.435C611.708 226.956 614.187 225.717 614.982 224.039C615.675 222.579 615.675 220.886 614.982 219.427C614.187 217.75 611.708 216.51 606.75 214.031Z" fill="url(#paint0_linear_241_2996)" stroke="#070FA0" stroke-width="1.61458" stroke-linecap="round" stroke-linejoin="round"/>
<path d="M227.86 214.031L135.96 168.081C130.312 165.257 127.488 163.845 124.526 163.29C121.902 162.797 119.209 162.797 116.586 163.29C113.624 163.845 110.799 165.257 105.152 168.081L13.2515 214.031C8.29364 216.51 5.81469 217.75 5.01919 219.427C4.32694 220.886 4.32694 222.579 5.01919 224.039C5.81469 225.717 8.29365 226.956 13.2515 229.435L105.152 275.385C110.799 278.209 113.624 279.621 116.586 280.177C119.209 280.67 121.902 280.67 124.526 280.177C127.488 279.621 130.311 278.209 135.96 275.386V275.385L227.86 229.435C232.818 226.956 235.297 225.717 236.092 224.039C236.784 222.579 236.784 220.886 236.092 219.427C235.297 217.75 232.818 216.51 227.86 214.031Z" fill="url(#paint1_linear_241_2996)" stroke="#070FA0" stroke-width="1.61458" stroke-linecap="round" stroke-linejoin="round"/>
<path d="M180.833 188.367C180.833 186.583 179.388 185.137 177.604 185.137C175.821 185.137 174.375 186.583 174.375 188.367C174.375 190.15 175.821 191.596 177.604 191.596C179.388 191.596 180.833 190.15 180.833 188.367Z" fill="#070FA0"/>
<path d="M439.167 188.367C439.167 186.583 440.612 185.137 442.396 185.137C444.179 185.137 445.625 186.583 445.625 188.367C445.625 190.15 444.179 191.596 442.396 191.596C440.612 191.596 439.167 190.15 439.167 188.367Z" fill="#070FA0"/>
<path d="M383.194 104.408C383.194 102.624 384.64 101.178 386.423 101.178C388.207 101.178 389.652 102.624 389.652 104.408C389.652 106.191 388.207 107.637 386.423 107.637C384.64 107.637 383.194 106.191 383.194 104.408Z" fill="#070FA0"/>
<path d="M230.346 104.408C230.346 102.624 231.792 101.178 233.576 101.178C235.359 101.178 236.805 102.624 236.805 104.408C236.805 106.191 235.359 107.637 233.576 107.637C231.792 107.637 230.346 106.191 230.346 104.408Z" fill="#070FA0"/>
<path d="M184.064 252.949C184.064 251.165 182.618 249.719 180.835 249.719C179.051 249.719 177.605 251.165 177.605 252.949C177.605 254.732 179.051 256.178 180.835 256.178C182.618 256.178 184.064 254.732 184.064 252.949Z" fill="#070FA0"/>
<path d="M435.94 252.949C435.94 251.165 437.386 249.719 439.169 249.719C440.953 249.719 442.398 251.165 442.398 252.949C442.398 254.732 440.953 256.178 439.169 256.178C437.386 256.178 435.94 254.732 435.94 252.949Z" fill="#070FA0"/>
<path d="M373.507 331.527C373.507 329.743 374.952 328.298 376.736 328.298C378.519 328.298 379.965 329.743 379.965 331.527C379.965 333.31 378.519 334.756 376.736 334.756C374.952 334.756 373.507 333.31 373.507 331.527Z" fill="#070FA0"/>
<path d="M240.034 331.527C240.034 329.743 241.48 328.298 243.263 328.298C245.046 328.298 246.492 329.743 246.492 331.527C246.492 333.31 245.046 334.756 243.263 334.756C241.48 334.756 240.034 333.31 240.034 331.527Z" fill="#070FA0"/>
<path d="M525.278 406.873L340.809 314.638C329.512 308.991 323.864 306.166 317.94 305.054C312.692 304.07 307.308 304.07 302.061 305.054C296.137 306.166 290.489 308.991 279.192 314.638L94.7227 406.873" stroke="url(#paint2_linear_241_2996)" stroke-width="1.61458" stroke-linecap="round" stroke-linejoin="round"/>
<path d="M259.945 357.359V366.907L268.015 370.513L259.945 357.359Z" fill="#050B7D" fill-opacity="0.602"/>
<path d="M259.946 357.359L251.875 370.513L259.946 366.907V357.359Z" fill="#4D81FF" fill-opacity="0.2"/>
<path d="M259.945 376.7V383.187L268.02 372.016L259.945 376.7Z" fill="#050B7D" fill-opacity="0.602"/>
<path d="M259.946 383.187V376.699L251.875 372.016L259.946 383.187Z" fill="#4D81FF" fill-opacity="0.2"/>
<path d="M259.945 375.197L268.015 370.512L259.945 366.908V375.197Z" fill="#050B7D"/>
<path d="M251.875 370.512L259.946 375.197V366.908L251.875 370.512Z" fill="#050B7D" fill-opacity="0.602"/>
<path d="M275.613 377.81V362.154H285.429V364.188H277.976V368.958H284.918V370.984H277.976V375.777H285.521V377.81H275.613ZM293.883 366.068V367.902H287.469V366.068H293.883ZM289.189 363.254H291.475V374.363C291.475 374.806 291.541 375.14 291.673 375.364C291.805 375.583 291.977 375.734 292.185 375.815C292.4 375.891 292.631 375.93 292.881 375.93C293.065 375.93 293.225 375.917 293.363 375.891C293.501 375.866 293.607 375.846 293.684 375.831L294.097 377.719C293.965 377.769 293.775 377.82 293.531 377.872C293.287 377.928 292.981 377.958 292.614 377.963C292.012 377.974 291.451 377.866 290.931 377.642C290.411 377.417 289.992 377.071 289.67 376.603C289.349 376.133 289.189 375.545 289.189 374.836V363.254ZM298.949 370.839V377.81H296.663V362.154H298.918V367.979H299.063C299.339 367.347 299.76 366.845 300.325 366.473C300.891 366.101 301.63 365.915 302.542 365.915C303.348 365.915 304.05 366.081 304.652 366.413C305.259 366.743 305.727 367.238 306.059 367.895C306.395 368.547 306.564 369.363 306.564 370.341V377.81H304.278V370.617C304.278 369.756 304.056 369.087 303.612 368.614C303.169 368.135 302.552 367.895 301.762 367.895C301.223 367.895 300.738 368.01 300.31 368.239C299.887 368.468 299.553 368.805 299.309 369.248C299.069 369.687 298.949 370.216 298.949 370.839ZM314.674 378.047C313.517 378.047 312.522 377.801 311.685 377.306C310.854 376.806 310.213 376.105 309.758 375.203C309.311 374.296 309.086 373.234 309.086 372.015C309.086 370.813 309.311 369.753 309.758 368.835C310.213 367.918 310.845 367.201 311.655 366.687C312.47 366.172 313.424 365.915 314.514 365.915C315.177 365.915 315.819 366.025 316.441 366.244C317.062 366.463 317.62 366.806 318.114 367.276C318.609 367.745 318.999 368.353 319.285 369.103C319.57 369.847 319.713 370.751 319.713 371.817V372.628H310.378V370.915H317.473C317.473 370.313 317.35 369.781 317.106 369.317C316.861 368.848 316.517 368.478 316.074 368.209C315.636 367.939 315.12 367.803 314.529 367.803C313.888 367.803 313.327 367.961 312.848 368.277C312.373 368.588 312.006 368.996 311.747 369.501C311.491 370 311.364 370.543 311.364 371.129V372.467C311.364 373.252 311.502 373.919 311.777 374.469C312.058 375.02 312.447 375.44 312.947 375.731C313.446 376.016 314.03 376.159 314.697 376.159C315.131 376.159 315.526 376.098 315.882 375.975C316.239 375.848 316.547 375.66 316.808 375.41C317.067 375.16 317.266 374.851 317.404 374.485L319.568 374.875C319.394 375.512 319.083 376.07 318.634 376.549C318.191 377.022 317.633 377.393 316.961 377.658C316.292 377.917 315.531 378.047 314.674 378.047ZM322.249 377.81V366.068H324.458V367.933H324.58C324.795 367.302 325.171 366.804 325.712 366.443C326.257 366.076 326.874 365.893 327.562 365.893C327.704 365.893 327.873 365.897 328.067 365.908C328.265 365.917 328.421 365.93 328.533 365.945V368.133C328.441 368.107 328.278 368.079 328.043 368.048C327.808 368.012 327.575 367.995 327.34 367.995C326.8 367.995 326.319 368.109 325.896 368.338C325.477 368.563 325.145 368.876 324.901 369.279C324.657 369.676 324.534 370.13 324.534 370.639V377.81H322.249ZM335.152 378.047C333.994 378.047 332.998 377.801 332.162 377.306C331.331 376.806 330.689 376.105 330.236 375.203C329.787 374.296 329.563 373.234 329.563 372.015C329.563 370.813 329.787 369.753 330.236 368.835C330.689 367.918 331.321 367.201 332.131 366.687C332.947 366.172 333.9 365.915 334.99 365.915C335.653 365.915 336.296 366.025 336.917 366.244C337.539 366.463 338.097 366.806 338.592 367.276C339.086 367.745 339.475 368.353 339.761 369.103C340.046 369.847 340.189 370.751 340.189 371.817V372.628H330.855V370.915H337.949C337.949 370.313 337.826 369.781 337.582 369.317C337.338 368.848 336.993 368.478 336.55 368.209C336.112 367.939 335.597 367.803 335.006 367.803C334.364 367.803 333.803 367.961 333.324 368.277C332.85 368.588 332.483 368.996 332.223 369.501C331.969 370 331.841 370.543 331.841 371.129V372.467C331.841 373.252 331.978 373.919 332.254 374.469C332.534 375.02 332.923 375.44 333.423 375.731C333.922 376.016 334.507 376.159 335.174 376.159C335.607 376.159 336.002 376.098 336.359 375.975C336.716 375.848 337.024 375.66 337.284 375.41C337.544 375.16 337.742 374.851 337.88 374.485L340.044 374.875C339.87 375.512 339.559 376.07 339.112 376.549C338.668 377.022 338.109 377.393 337.437 377.658C336.769 377.917 336.007 378.047 335.152 378.047ZM350.164 372.941V366.068H352.457V377.81H350.209V375.777H350.088C349.817 376.404 349.384 376.927 348.787 377.344C348.196 377.757 347.46 377.963 346.579 377.963C345.824 377.963 345.157 377.797 344.575 377.466C343.999 377.13 343.545 376.633 343.215 375.975C342.889 375.319 342.725 374.505 342.725 373.537V366.068H345.011V373.262C345.011 374.062 345.233 374.699 345.677 375.173C346.12 375.647 346.696 375.884 347.404 375.884C347.831 375.884 348.258 375.777 348.681 375.563C349.109 375.349 349.463 375.025 349.743 374.592C350.028 374.158 350.168 373.608 350.164 372.941ZM355.529 377.81V366.068H357.722V367.979H357.868C358.112 367.332 358.512 366.827 359.068 366.465C359.623 366.098 360.288 365.915 361.063 365.915C361.848 365.915 362.506 366.098 363.035 366.465C363.57 366.832 363.965 367.337 364.221 367.979H364.343C364.623 367.352 365.069 366.853 365.681 366.48C366.293 366.104 367.021 365.915 367.867 365.915C368.932 365.915 369.802 366.249 370.474 366.916C371.151 367.585 371.49 368.591 371.49 369.937V377.81H369.205V370.151C369.205 369.355 368.988 368.78 368.555 368.422C368.122 368.066 367.605 367.887 367.003 367.887C366.259 367.887 365.681 368.116 365.268 368.575C364.855 369.029 364.649 369.613 364.649 370.326V377.81H362.37V370.005C362.37 369.368 362.172 368.856 361.774 368.468C361.377 368.081 360.859 367.887 360.222 367.887C359.789 367.887 359.389 368.002 359.022 368.232C358.66 368.456 358.367 368.769 358.143 369.171C357.924 369.574 357.814 370.041 357.814 370.571V377.81H355.529Z" fill="#050B7D"/>
</g>
</g>
</g>
<defs>
<linearGradient id="paint0_linear_241_2996" x1="499.446" y1="160.379" x2="499.446" y2="283.087" gradientUnits="userSpaceOnUse">
<stop stop-color="#BFEAFF"/>
<stop offset="1" stop-color="#A5C0EE"/>
</linearGradient>
<linearGradient id="paint1_linear_241_2996" x1="120.556" y1="160.379" x2="120.556" y2="283.087" gradientUnits="userSpaceOnUse">
<stop stop-color="#BFEAFF"/>
<stop offset="1" stop-color="#A5C0EE"/>
</linearGradient>
<linearGradient id="paint2_linear_241_2996" x1="310" y1="299.234" x2="310" y2="406.873" gradientUnits="userSpaceOnUse">
<stop offset="0.5" stop-color="#070FA0"/>
<stop offset="1" stop-color="#070FA0" stop-opacity="0"/>
</linearGradient>
<clipPath id="clip0_241_2996">
<rect width="620" height="430.55" fill="white"/>
</clipPath>
<clipPath id="clip1_241_2996">
<rect width="620" height="430.556" fill="white" transform="translate(0 -0.00195312)"/>
</clipPath>
</defs>
</svg>
