<svg width="620" height="431" viewBox="0 0 620 431" fill="none" xmlns="http://www.w3.org/2000/svg">
<g clip-path="url(#clip0_241_3024)">
<path d="M456.055 145.143L325.405 79.8172C319.757 76.9932 316.933 75.5812 313.97 75.0253C311.347 74.5332 308.654 74.5332 306.031 75.0253C303.069 75.5812 300.244 76.9932 294.597 79.8172L163.947 145.143C158.989 147.622 156.51 148.861 155.714 150.538C155.022 151.997 155.022 153.692 155.714 155.151C156.51 156.828 158.989 158.067 163.947 160.546L294.597 225.872C300.244 228.695 303.069 230.108 306.031 230.663C308.654 231.156 311.347 231.156 313.97 230.663C316.933 230.108 319.757 228.695 325.405 225.872L456.055 160.546C461.013 158.067 463.492 156.828 464.287 155.151C464.979 153.692 464.979 151.997 464.287 150.538C463.492 148.861 461.013 147.622 456.055 145.143Z" fill="#FFF6E5" stroke="#070FA0" stroke-width="1.61458" stroke-linecap="round" stroke-linejoin="round"/>
<path d="M242.723 135.426H244.601L247.464 140.408H247.581L250.445 135.426H252.323L248.347 142.083V146.385H246.699V142.083L242.723 135.426ZM255.864 146.551C255.094 146.551 254.421 146.375 253.847 146.022C253.272 145.668 252.827 145.174 252.509 144.539C252.192 143.904 252.032 143.162 252.032 142.313C252.032 141.46 252.192 140.715 252.509 140.076C252.827 139.437 253.272 138.942 253.847 138.588C254.421 138.235 255.094 138.058 255.864 138.058C256.635 138.058 257.308 138.235 257.881 138.588C258.456 138.942 258.902 139.437 259.219 140.076C259.537 140.715 259.696 141.46 259.696 142.313C259.696 143.162 259.537 143.904 259.219 144.539C258.902 145.174 258.456 145.668 257.881 146.022C257.308 146.375 256.635 146.551 255.864 146.551ZM255.87 145.208C256.369 145.208 256.784 145.076 257.112 144.812C257.439 144.548 257.682 144.197 257.839 143.758C258 143.319 258.08 142.835 258.08 142.308C258.08 141.783 258 141.302 257.839 140.862C257.682 140.42 257.439 140.066 257.112 139.798C256.784 139.53 256.369 139.396 255.87 139.396C255.367 139.396 254.949 139.53 254.618 139.798C254.29 140.066 254.045 140.42 253.885 140.862C253.728 141.302 253.649 141.783 253.649 142.308C253.649 142.835 253.728 143.319 253.885 143.758C254.045 144.197 254.29 144.548 254.618 144.812C254.949 145.076 255.367 145.208 255.87 145.208ZM266.688 142.976V138.166H268.294V146.385H266.721V144.962H266.636C266.446 145.4 266.143 145.766 265.726 146.059C265.312 146.348 264.796 146.492 264.179 146.492C263.651 146.492 263.184 146.377 262.777 146.144C262.374 145.91 262.057 145.561 261.824 145.101C261.596 144.641 261.482 144.072 261.482 143.394V138.166H263.083V143.201C263.083 143.761 263.238 144.208 263.548 144.539C263.858 144.871 264.261 145.037 264.757 145.037C265.057 145.037 265.355 144.962 265.651 144.812C265.95 144.662 266.199 144.436 266.395 144.132C266.595 143.829 266.693 143.444 266.688 142.976ZM270.444 146.385V138.166H271.991V139.472H272.077C272.226 139.029 272.49 138.682 272.868 138.428C273.25 138.171 273.682 138.042 274.163 138.042C274.263 138.042 274.381 138.047 274.517 138.053C274.656 138.061 274.765 138.069 274.843 138.08V139.611C274.779 139.592 274.665 139.573 274.501 139.551C274.336 139.527 274.173 139.514 274.008 139.514C273.63 139.514 273.293 139.594 272.997 139.755C272.704 139.912 272.472 140.132 272.301 140.414C272.13 140.691 272.045 141.009 272.045 141.366V146.385H270.444ZM280.215 146.385V138.166H281.816V146.385H280.215ZM281.024 136.897C280.746 136.897 280.506 136.804 280.307 136.619C280.111 136.43 280.012 136.205 280.012 135.944C280.012 135.681 280.111 135.456 280.307 135.271C280.506 135.081 280.746 134.987 281.024 134.987C281.303 134.987 281.539 135.081 281.735 135.271C281.936 135.456 282.036 135.681 282.036 135.944C282.036 136.205 281.936 136.43 281.735 136.619C281.539 136.804 281.303 136.897 281.024 136.897ZM285.568 141.505V146.385H283.969V138.166H285.505V139.504H285.606C285.795 139.068 286.091 138.718 286.494 138.455C286.901 138.191 287.413 138.058 288.03 138.058C288.59 138.058 289.081 138.177 289.501 138.411C289.922 138.644 290.25 138.989 290.481 139.45C290.713 139.91 290.829 140.479 290.829 141.157V146.385H289.229V141.35C289.229 140.754 289.074 140.289 288.763 139.953C288.453 139.614 288.027 139.445 287.484 139.445C287.113 139.445 286.784 139.524 286.494 139.686C286.209 139.846 285.983 140.081 285.815 140.392C285.65 140.699 285.568 141.07 285.568 141.505ZM296.887 138.166V139.45H292.242V138.166H296.887ZM293.515 146.385V137.213C293.515 136.699 293.627 136.273 293.852 135.934C294.077 135.591 294.375 135.336 294.746 135.169C295.117 134.997 295.521 134.912 295.955 134.912C296.276 134.912 296.552 134.939 296.78 134.992C297.008 135.042 297.177 135.089 297.288 135.132L296.913 136.427C296.838 136.405 296.742 136.38 296.625 136.351C296.507 136.319 296.365 136.304 296.197 136.304C295.808 136.304 295.529 136.4 295.361 136.592C295.198 136.785 295.116 137.063 295.116 137.428V146.385H293.515ZM298.538 146.385V138.166H300.084V139.472H300.17C300.319 139.029 300.584 138.682 300.962 138.428C301.344 138.171 301.776 138.042 302.257 138.042C302.357 138.042 302.474 138.047 302.61 138.053C302.749 138.061 302.858 138.069 302.937 138.08V139.611C302.872 139.592 302.758 139.573 302.594 139.551C302.43 139.527 302.265 139.514 302.102 139.514C301.724 139.514 301.386 139.594 301.09 139.755C300.798 139.912 300.566 140.132 300.394 140.414C300.223 140.691 300.137 141.009 300.137 141.366V146.385H298.538ZM306.64 146.567C306.119 146.567 305.647 146.471 305.226 146.279C304.806 146.082 304.472 145.799 304.226 145.427C303.983 145.056 303.863 144.602 303.863 144.062C303.863 143.599 303.951 143.218 304.13 142.917C304.308 142.618 304.549 142.381 304.852 142.206C305.155 142.031 305.494 141.899 305.869 141.81C306.244 141.72 306.626 141.652 307.014 141.606C307.506 141.549 307.906 141.503 308.212 141.467C308.52 141.429 308.743 141.366 308.882 141.28C309.021 141.195 309.091 141.055 309.091 140.862V140.826C309.091 140.358 308.958 139.996 308.695 139.739C308.434 139.482 308.045 139.353 307.528 139.353C306.99 139.353 306.564 139.473 306.254 139.712C305.948 139.947 305.736 140.21 305.617 140.499L304.113 140.156C304.292 139.657 304.553 139.254 304.895 138.946C305.241 138.636 305.639 138.411 306.089 138.273C306.537 138.129 307.011 138.058 307.506 138.058C307.835 138.058 308.182 138.098 308.55 138.177C308.921 138.251 309.267 138.39 309.588 138.593C309.913 138.797 310.179 139.087 310.386 139.466C310.592 139.841 310.696 140.327 310.696 140.927V146.385H309.134V145.262H309.069C308.966 145.468 308.811 145.672 308.603 145.872C308.396 146.071 308.131 146.237 307.807 146.369C307.481 146.502 307.093 146.567 306.64 146.567ZM306.987 145.283C307.43 145.283 307.808 145.196 308.122 145.02C308.439 144.846 308.681 144.618 308.844 144.336C309.012 144.051 309.096 143.745 309.096 143.421V142.361C309.039 142.418 308.928 142.472 308.764 142.522C308.603 142.568 308.42 142.609 308.212 142.645C308.006 142.677 307.804 142.707 307.608 142.735C307.411 142.761 307.248 142.782 307.115 142.8C306.805 142.839 306.521 142.905 306.265 142.998C306.012 143.091 305.809 143.224 305.655 143.399C305.505 143.571 305.43 143.799 305.43 144.084C305.43 144.48 305.576 144.78 305.869 144.983C306.162 145.183 306.534 145.283 306.987 145.283ZM318.987 140.172L317.536 140.43C317.476 140.243 317.379 140.067 317.248 139.899C317.118 139.732 316.944 139.594 316.723 139.488C316.502 139.38 316.225 139.326 315.893 139.326C315.44 139.326 315.062 139.429 314.759 139.632C314.455 139.831 314.304 140.091 314.304 140.408C314.304 140.683 314.406 140.903 314.609 141.071C314.813 141.239 315.141 141.377 315.594 141.483L316.9 141.783C317.655 141.958 318.219 142.227 318.591 142.591C318.961 142.955 319.147 143.427 319.147 144.01C319.147 144.502 319.004 144.941 318.719 145.326C318.437 145.707 318.043 146.008 317.536 146.225C317.033 146.442 316.45 146.551 315.787 146.551C314.865 146.551 314.115 146.355 313.533 145.962C312.952 145.566 312.595 145.004 312.463 144.277L314.01 144.041C314.106 144.445 314.304 144.749 314.604 144.957C314.903 145.16 315.294 145.262 315.776 145.262C316.3 145.262 316.719 145.153 317.033 144.935C317.348 144.714 317.504 144.445 317.504 144.127C317.504 143.87 317.408 143.655 317.215 143.479C317.026 143.305 316.735 143.172 316.343 143.084L314.952 142.778C314.184 142.604 313.617 142.325 313.25 141.944C312.886 141.562 312.704 141.079 312.704 140.493C312.704 140.009 312.84 139.584 313.111 139.22C313.382 138.856 313.757 138.572 314.235 138.369C314.713 138.162 315.261 138.058 315.877 138.058C316.765 138.058 317.465 138.251 317.975 138.636C318.485 139.019 318.822 139.53 318.987 140.172ZM324.743 138.166V139.45H320.254V138.166H324.743ZM321.457 136.196H323.058V143.972C323.058 144.282 323.104 144.516 323.197 144.673C323.289 144.827 323.409 144.931 323.555 144.988C323.705 145.042 323.867 145.069 324.042 145.069C324.171 145.069 324.283 145.06 324.38 145.042C324.475 145.025 324.551 145.01 324.604 144.999L324.893 146.321C324.801 146.356 324.668 146.393 324.497 146.428C324.326 146.467 324.112 146.489 323.854 146.492C323.434 146.499 323.042 146.424 322.678 146.268C322.314 146.111 322.019 145.868 321.794 145.539C321.57 145.212 321.457 144.8 321.457 144.304V136.196ZM326.513 146.385V138.166H328.06V139.472H328.145C328.296 139.029 328.559 138.682 328.937 138.428C329.319 138.171 329.751 138.042 330.232 138.042C330.332 138.042 330.451 138.047 330.585 138.053C330.725 138.061 330.834 138.069 330.912 138.08V139.611C330.848 139.592 330.734 139.573 330.57 139.551C330.405 139.527 330.242 139.514 330.077 139.514C329.699 139.514 329.362 139.594 329.066 139.755C328.774 139.912 328.541 140.132 328.37 140.414C328.199 140.691 328.114 141.009 328.114 141.366V146.385H326.513ZM337.503 142.976V138.166H339.109V146.385H337.535V144.962H337.45C337.261 145.4 336.957 145.766 336.541 146.059C336.126 146.348 335.611 146.492 334.994 146.492C334.465 146.492 333.998 146.377 333.591 146.144C333.189 145.91 332.871 145.561 332.639 145.101C332.411 144.641 332.297 144.072 332.297 143.394V138.166H333.897V143.201C333.897 143.761 334.052 144.208 334.362 144.539C334.673 144.871 335.076 145.037 335.572 145.037C335.871 145.037 336.169 144.962 336.465 144.812C336.765 144.662 337.013 144.436 337.209 144.132C337.409 143.829 337.507 143.444 337.503 142.976ZM344.721 146.551C343.926 146.551 343.24 146.371 342.666 146.011C342.096 145.647 341.657 145.145 341.35 144.507C341.043 143.869 340.889 143.137 340.889 142.313C340.889 141.478 341.047 140.742 341.361 140.102C341.674 139.461 342.116 138.959 342.688 138.599C343.258 138.239 343.931 138.058 344.705 138.058C345.329 138.058 345.886 138.175 346.375 138.406C346.863 138.634 347.257 138.956 347.558 139.369C347.861 139.784 348.041 140.267 348.098 140.82H346.54C346.455 140.435 346.258 140.102 345.952 139.825C345.649 139.546 345.242 139.407 344.732 139.407C344.286 139.407 343.896 139.524 343.56 139.76C343.228 139.993 342.97 140.324 342.784 140.756C342.599 141.184 342.506 141.69 342.506 142.276C342.506 142.875 342.596 143.392 342.778 143.828C342.96 144.263 343.218 144.6 343.549 144.839C343.885 145.078 344.279 145.197 344.732 145.197C345.036 145.197 345.31 145.142 345.555 145.031C345.806 144.917 346.014 144.755 346.182 144.545C346.353 144.334 346.473 144.081 346.54 143.785H348.098C348.041 144.317 347.868 144.79 347.579 145.208C347.29 145.625 346.903 145.954 346.418 146.193C345.935 146.432 345.37 146.551 344.721 146.551ZM353.646 138.166V139.45H349.156V138.166H353.646ZM350.36 136.196H351.96V143.972C351.96 144.282 352.006 144.516 352.1 144.673C352.192 144.827 352.312 144.931 352.458 144.988C352.608 145.042 352.771 145.069 352.945 145.069C353.073 145.069 353.186 145.06 353.282 145.042C353.379 145.025 353.453 145.01 353.507 144.999L353.796 146.321C353.703 146.356 353.571 146.393 353.4 146.428C353.229 146.467 353.015 146.489 352.758 146.492C352.337 146.499 351.944 146.424 351.58 146.268C351.216 146.111 350.922 145.868 350.697 145.539C350.472 145.212 350.36 144.8 350.36 144.304V136.196ZM360.623 142.976V138.166H362.228V146.385H360.655V144.962H360.569C360.381 145.4 360.077 145.766 359.659 146.059C359.246 146.348 358.73 146.492 358.113 146.492C357.585 146.492 357.118 146.377 356.711 146.144C356.308 145.91 355.99 145.561 355.759 145.101C355.53 144.641 355.416 144.072 355.416 143.394V138.166H357.016V143.201C357.016 143.761 357.171 144.208 357.482 144.539C357.792 144.871 358.196 145.037 358.691 145.037C358.991 145.037 359.288 144.962 359.585 144.812C359.884 144.662 360.132 144.436 360.329 144.132C360.528 143.829 360.626 143.444 360.623 142.976ZM364.378 146.385V138.166H365.925V139.472H366.01C366.16 139.029 366.425 138.682 366.802 138.428C367.184 138.171 367.616 138.042 368.097 138.042C368.197 138.042 368.315 138.047 368.45 138.053C368.589 138.061 368.699 138.069 368.776 138.08V139.611C368.713 139.592 368.599 139.573 368.434 139.551C368.271 139.527 368.106 139.514 367.942 139.514C367.564 139.514 367.226 139.594 366.93 139.755C366.638 139.912 366.406 140.132 366.235 140.414C366.064 140.691 365.978 141.009 365.978 141.366V146.385H364.378ZM373.41 146.551C372.6 146.551 371.902 146.378 371.318 146.032C370.735 145.682 370.287 145.192 369.969 144.561C369.655 143.926 369.498 143.182 369.498 142.329C369.498 141.487 369.655 140.745 369.969 140.102C370.287 139.461 370.729 138.959 371.296 138.599C371.867 138.239 372.534 138.058 373.297 138.058C373.761 138.058 374.211 138.135 374.646 138.289C375.081 138.443 375.472 138.683 375.818 139.011C376.164 139.339 376.437 139.766 376.636 140.29C376.836 140.811 376.937 141.445 376.937 142.19V142.757H370.403V141.559H375.368C375.368 141.138 375.283 140.764 375.112 140.44C374.94 140.112 374.7 139.853 374.389 139.664C374.082 139.475 373.722 139.38 373.308 139.38C372.859 139.38 372.466 139.491 372.13 139.712C371.799 139.93 371.543 140.215 371.361 140.569C371.182 140.918 371.093 141.298 371.093 141.708V142.645C371.093 143.194 371.189 143.661 371.381 144.046C371.578 144.432 371.851 144.727 372.2 144.93C372.55 145.129 372.958 145.229 373.426 145.229C373.729 145.229 374.006 145.186 374.255 145.101C374.505 145.012 374.721 144.879 374.903 144.705C375.085 144.531 375.224 144.314 375.32 144.057L376.834 144.331C376.714 144.776 376.496 145.167 376.182 145.503C375.872 145.834 375.481 146.093 375.01 146.279C374.543 146.461 374.009 146.551 373.41 146.551Z" fill="#070FA0"/>
<path opacity="0.6" d="M456.055 134.379L325.405 69.0535C319.757 66.2295 316.933 64.8175 313.97 64.2617C311.347 63.7695 308.654 63.7695 306.031 64.2617C303.069 64.8175 300.244 66.2295 294.597 69.0535L163.947 134.379C158.989 136.858 156.51 138.097 155.714 139.774C155.022 141.234 155.022 142.928 155.714 144.387C156.51 146.064 158.989 147.303 163.947 149.782L294.597 215.108C300.244 217.932 303.069 219.344 306.031 219.899C308.654 220.392 311.347 220.392 313.97 219.899C316.933 219.344 319.757 217.932 325.405 215.108L456.055 149.782C461.013 147.303 463.492 146.064 464.287 144.387C464.979 142.928 464.979 141.234 464.287 139.774C463.492 138.097 461.013 136.858 456.055 134.379Z" stroke="#070FA0" stroke-width="1.61458" stroke-linecap="round" stroke-linejoin="round"/>
<path opacity="0.3" d="M456.055 123.615L325.405 58.2899C319.757 55.4659 316.933 54.0538 313.97 53.498C311.347 53.0059 308.654 53.0059 306.031 53.498C303.069 54.0538 300.244 55.4659 294.597 58.2899L163.947 123.615C158.989 126.094 156.51 127.333 155.714 129.01C155.022 130.47 155.022 132.164 155.714 133.624C156.51 135.301 158.989 136.54 163.947 139.019L294.597 204.345C300.244 207.168 303.069 208.58 306.031 209.136C308.654 209.629 311.347 209.629 313.97 209.136C316.933 208.58 319.757 207.168 325.405 204.345L456.055 139.019C461.013 136.54 463.492 135.301 464.287 133.624C464.979 132.164 464.979 130.47 464.287 129.01C463.492 127.333 461.013 126.094 456.055 123.615Z" stroke="#070FA0" stroke-width="1.61458" stroke-linecap="round" stroke-linejoin="round"/>
<path opacity="0.1" d="M456.055 112.852L325.405 47.5262C319.757 44.7022 316.933 43.2902 313.97 42.7343C311.347 42.2422 308.654 42.2422 306.031 42.7343C303.069 43.2902 300.244 44.7022 294.597 47.5262L163.947 112.852C158.989 115.331 156.51 116.57 155.714 118.247C155.022 119.706 155.022 121.4 155.714 122.86C156.51 124.537 158.989 125.776 163.947 128.255L294.597 193.581C300.244 196.404 303.069 197.817 306.031 198.372C308.654 198.865 311.347 198.865 313.97 198.372C316.933 197.817 319.757 196.404 325.405 193.581L456.055 128.255C461.013 125.776 463.492 124.537 464.287 122.86C464.979 121.4 464.979 119.706 464.287 118.247C463.492 116.57 461.013 115.331 456.055 112.852Z" stroke="#070FA0" stroke-width="1.61458" stroke-linecap="round" stroke-linejoin="round"/>
<path d="M399.089 335.867C399.089 336.312 399.449 336.674 399.896 336.674H407.162C407.607 336.674 407.969 336.312 407.969 335.867C407.969 335.421 407.607 335.059 407.162 335.059H400.703V328.601C400.703 328.155 400.342 327.794 399.896 327.794C399.449 327.794 399.089 328.155 399.089 328.601V335.867ZM396.851 187.475C395.17 189.156 395.17 191.881 396.851 193.563C398.532 195.245 401.259 195.245 402.94 193.563C404.621 191.881 404.621 189.156 402.94 187.475C401.259 185.792 398.532 185.792 396.851 187.475ZM399.896 190.519L399.324 191.089C439.146 230.911 439.146 295.474 399.324 335.296L399.896 335.867L400.466 336.437C440.918 295.985 440.918 230.4 400.466 189.948L399.896 190.519Z" fill="#070FA0"/>
<path d="M400.416 208.818C410.522 208.818 418.714 200.625 418.714 190.519C418.714 180.413 410.522 172.221 400.416 172.221C390.31 172.221 382.117 180.413 382.117 190.519C382.117 200.625 390.31 208.818 400.416 208.818Z" fill="#FFF6E5"/>
<path d="M400.416 208.818C410.522 208.818 418.714 200.625 418.714 190.519C418.714 180.413 410.522 172.221 400.416 172.221C390.31 172.221 382.117 180.413 382.117 190.519C382.117 200.625 390.31 208.818 400.416 208.818Z" fill="url(#paint0_linear_241_3024)"/>
<path d="M400.416 208.818C410.522 208.818 418.714 200.625 418.714 190.519C418.714 180.413 410.522 172.221 400.416 172.221C390.31 172.221 382.117 180.413 382.117 190.519C382.117 200.625 390.31 208.818 400.416 208.818Z" stroke="#070FA0" stroke-width="1.61458" stroke-linecap="round" stroke-linejoin="round"/>
<path d="M399.664 200.868C399.902 201.007 400.022 201.077 400.19 201.112C400.321 201.14 400.511 201.14 400.642 201.112C400.81 201.077 400.929 201.007 401.167 200.868C403.264 199.644 409.027 195.801 409.027 190.518V186.428C409.027 185.272 409.027 184.694 408.848 184.284C408.667 183.867 408.488 183.645 408.116 183.383C407.75 183.125 407.035 182.976 405.602 182.678C404.023 182.35 402.81 181.757 401.701 180.899C401.17 180.488 400.904 180.282 400.696 180.226C400.476 180.167 400.356 180.167 400.136 180.226C399.927 180.282 399.661 180.488 399.131 180.899C398.022 181.757 396.809 182.35 395.23 182.678C393.797 182.976 393.081 183.125 392.715 183.383C392.344 183.645 392.164 183.867 391.983 184.284C391.805 184.694 391.805 185.272 391.805 186.428V190.518C391.805 195.801 397.568 199.644 399.664 200.868Z" stroke="#070FA0" stroke-width="1.61458" stroke-linecap="round" stroke-linejoin="round"/>
<path d="M470.384 251.604H392.884C383.818 251.604 376.469 258.953 376.469 268.018C376.469 277.084 383.818 284.433 392.884 284.433H470.384C479.449 284.433 486.799 277.084 486.799 268.018C486.799 258.953 479.449 251.604 470.384 251.604Z" fill="white"/>
<path d="M470.384 251.604H392.884C383.818 251.604 376.469 258.953 376.469 268.018C376.469 277.084 383.818 284.433 392.884 284.433H470.384C479.449 284.433 486.799 277.084 486.799 268.018C486.799 258.953 479.449 251.604 470.384 251.604Z" fill="url(#paint1_linear_241_3024)"/>
<path d="M470.384 251.604H392.884C383.818 251.604 376.469 258.953 376.469 268.018C376.469 277.084 383.818 284.433 392.884 284.433H470.384C479.449 284.433 486.799 277.084 486.799 268.018C486.799 258.953 479.449 251.604 470.384 251.604Z" fill="#FFF6E5"/>
<path d="M470.384 251.604H392.884C383.818 251.604 376.469 258.953 376.469 268.018C376.469 277.084 383.818 284.433 392.884 284.433H470.384C479.449 284.433 486.799 277.084 486.799 268.018C486.799 258.953 479.449 251.604 470.384 251.604Z" stroke="#070FA0" stroke-width="1.61458"/>
<path d="M391.342 262.994L386.422 267.915L391.342 272.836V269.146L396.263 265.455H391.342V262.994Z" fill="#070FA0"/>
<path d="M403.646 267.915L398.726 262.994V266.685L393.805 270.376H398.726V272.836L403.646 267.915Z" fill="#070FA0"/>
<path d="M413.33 273.401V272.299L419.093 263.865H413.281V262.441H421.115V263.543L415.352 271.978H421.164V273.401H413.33ZM423.238 273.401V262.441H424.891V267.675H425.025L429.622 262.441H431.704L427.283 267.375L431.72 273.401H429.728L426.186 268.504L424.891 269.992V273.401H423.238ZM437.104 276.484V265.182H438.667V266.514H438.8C438.893 266.342 439.027 266.145 439.202 265.92C439.377 265.695 439.619 265.499 439.929 265.331C440.24 265.16 440.651 265.074 441.161 265.074C441.824 265.074 442.416 265.242 442.937 265.578C443.458 265.913 443.867 266.396 444.163 267.028C444.462 267.658 444.612 268.418 444.612 269.307C444.612 270.195 444.464 270.958 444.168 271.593C443.872 272.223 443.465 272.711 442.948 273.053C442.431 273.392 441.84 273.561 441.177 273.561C440.677 273.561 440.268 273.477 439.951 273.309C439.638 273.143 439.391 272.946 439.213 272.722C439.034 272.497 438.897 272.297 438.8 272.122H438.704V276.484H437.104ZM438.672 269.291C438.672 269.869 438.756 270.375 438.924 270.811C439.091 271.246 439.334 271.587 439.652 271.833C439.969 272.076 440.358 272.196 440.819 272.196C441.296 272.196 441.696 272.071 442.017 271.817C442.338 271.56 442.581 271.213 442.744 270.774C442.912 270.334 442.996 269.84 442.996 269.291C442.996 268.749 442.914 268.262 442.75 267.831C442.589 267.399 442.347 267.058 442.022 266.808C441.701 266.558 441.3 266.433 440.819 266.433C440.355 266.433 439.962 266.553 439.641 266.792C439.323 267.031 439.082 267.365 438.919 267.793C438.754 268.22 438.672 268.721 438.672 269.291ZM446.405 273.401V265.182H447.952V266.487H448.037C448.186 266.045 448.451 265.697 448.829 265.443C449.211 265.187 449.643 265.058 450.124 265.058C450.224 265.058 450.341 265.062 450.477 265.069C450.617 265.076 450.726 265.085 450.804 265.096V266.626C450.74 266.608 450.625 266.588 450.461 266.567C450.297 266.542 450.132 266.529 449.969 266.529C449.591 266.529 449.253 266.61 448.957 266.77C448.665 266.928 448.433 267.147 448.262 267.429C448.091 267.707 448.004 268.024 448.004 268.382V273.401H446.405ZM455.356 273.567C454.586 273.567 453.914 273.39 453.339 273.037C452.764 272.684 452.319 272.19 452.001 271.555C451.684 270.92 451.525 270.177 451.525 269.329C451.525 268.475 451.684 267.731 452.001 267.091C452.319 266.453 452.764 265.958 453.339 265.604C453.914 265.251 454.586 265.074 455.356 265.074C456.127 265.074 456.8 265.251 457.373 265.604C457.948 265.958 458.394 266.453 458.711 267.091C459.029 267.731 459.188 268.475 459.188 269.329C459.188 270.177 459.029 270.92 458.711 271.555C458.394 272.19 457.948 272.684 457.373 273.037C456.8 273.39 456.127 273.567 455.356 273.567ZM455.362 272.223C455.861 272.223 456.275 272.092 456.604 271.827C456.931 271.564 457.174 271.213 457.331 270.774C457.492 270.334 457.571 269.851 457.571 269.324C457.571 268.798 457.492 268.317 457.331 267.878C457.174 267.436 456.931 267.081 456.604 266.813C456.275 266.545 455.861 266.412 455.362 266.412C454.859 266.412 454.441 266.545 454.11 266.813C453.781 267.081 453.537 267.436 453.377 267.878C453.22 268.317 453.141 268.798 453.141 269.324C453.141 269.851 453.22 270.334 453.377 270.774C453.537 271.213 453.781 271.564 454.11 271.827C454.441 272.092 454.859 272.223 455.362 272.223ZM464.437 273.567C463.666 273.567 462.993 273.39 462.418 273.037C461.845 272.684 461.399 272.19 461.082 271.555C460.764 270.92 460.605 270.177 460.605 269.329C460.605 268.475 460.764 267.731 461.082 267.091C461.399 266.453 461.845 265.958 462.418 265.604C462.993 265.251 463.666 265.074 464.437 265.074C465.207 265.074 465.879 265.251 466.454 265.604C467.029 265.958 467.474 266.453 467.792 267.091C468.109 267.731 468.267 268.475 468.267 269.329C468.267 270.177 468.109 270.92 467.792 271.555C467.474 272.19 467.029 272.684 466.454 273.037C465.879 273.39 465.207 273.567 464.437 273.567ZM464.442 272.223C464.941 272.223 465.355 272.092 465.683 271.827C466.011 271.564 466.254 271.213 466.411 270.774C466.571 270.334 466.652 269.851 466.652 269.324C466.652 268.798 466.571 268.317 466.411 267.878C466.254 267.436 466.011 267.081 465.683 266.813C465.355 266.545 464.941 266.412 464.442 266.412C463.938 266.412 463.522 266.545 463.189 266.813C462.861 267.081 462.616 267.436 462.456 267.878C462.299 268.317 462.22 268.798 462.22 269.324C462.22 269.851 462.299 270.334 462.456 270.774C462.616 271.213 462.861 271.564 463.189 271.827C463.522 272.092 463.938 272.223 464.442 272.223ZM473.966 265.182V266.466H469.321V265.182H473.966ZM470.595 273.401V264.229C470.595 263.715 470.707 263.288 470.932 262.949C471.157 262.607 471.455 262.352 471.825 262.185C472.196 262.013 472.599 261.928 473.035 261.928C473.356 261.928 473.63 261.955 473.858 262.007C474.088 262.058 474.257 262.104 474.367 262.147L473.993 263.442C473.917 263.421 473.822 263.396 473.703 263.367C473.586 263.335 473.443 263.32 473.276 263.32C472.886 263.32 472.609 263.415 472.441 263.608C472.277 263.801 472.194 264.078 472.194 264.443V273.401H470.595Z" fill="#070FA0"/>
<path d="M525.278 399.34L340.809 307.105C329.512 301.457 323.864 298.633 317.94 297.521C312.692 296.537 307.308 296.537 302.061 297.521C296.137 298.633 290.489 301.457 279.192 307.105L94.7227 399.34" stroke="url(#paint2_linear_241_3024)" stroke-width="1.61458" stroke-linecap="round" stroke-linejoin="round"/>
<path d="M259.945 349.826V359.374L268.015 362.98L259.945 349.826Z" fill="#050B7D" fill-opacity="0.602"/>
<path d="M259.946 349.826L251.875 362.98L259.946 359.374V349.826Z" fill="#4D81FF" fill-opacity="0.2"/>
<path d="M259.945 369.167V375.654L268.02 364.482L259.945 369.167Z" fill="#050B7D" fill-opacity="0.602"/>
<path d="M259.946 375.654V369.166L251.875 364.482L259.946 375.654Z" fill="#4D81FF" fill-opacity="0.2"/>
<path d="M259.945 367.662L268.015 362.977L259.945 359.373V367.662Z" fill="#050B7D"/>
<path d="M251.875 362.977L259.946 367.662V359.373L251.875 362.977Z" fill="#050B7D" fill-opacity="0.602"/>
<path d="M275.613 370.275V354.619H285.429V356.652H277.976V361.423H284.918V363.449H277.976V368.242H285.521V370.275H275.613ZM293.883 358.533V360.367H287.469V358.533H293.883ZM289.189 355.719H291.475V366.828C291.475 367.271 291.541 367.605 291.673 367.829C291.805 368.048 291.977 368.199 292.185 368.28C292.4 368.356 292.631 368.395 292.881 368.395C293.065 368.395 293.225 368.382 293.363 368.356C293.501 368.331 293.607 368.311 293.684 368.296L294.097 370.184C293.965 370.234 293.775 370.285 293.531 370.337C293.287 370.393 292.981 370.423 292.614 370.428C292.012 370.439 291.451 370.331 290.931 370.107C290.411 369.882 289.992 369.536 289.67 369.068C289.349 368.598 289.189 368.009 289.189 367.301V355.719ZM298.949 363.303V370.275H296.663V354.619H298.918V360.443H299.063C299.339 359.812 299.76 359.31 300.325 358.938C300.891 358.566 301.63 358.38 302.542 358.38C303.348 358.38 304.05 358.546 304.652 358.877C305.259 359.208 305.727 359.703 306.059 360.36C306.395 361.012 306.564 361.828 306.564 362.806V370.275H304.278V363.082C304.278 362.221 304.056 361.552 303.612 361.079C303.169 360.6 302.552 360.36 301.762 360.36C301.223 360.36 300.738 360.475 300.31 360.704C299.887 360.933 299.553 361.27 299.309 361.713C299.069 362.152 298.949 362.681 298.949 363.303ZM314.674 370.512C313.517 370.512 312.522 370.266 311.685 369.77C310.854 369.271 310.213 368.57 309.758 367.668C309.311 366.761 309.086 365.698 309.086 364.48C309.086 363.278 309.311 362.217 309.758 361.3C310.213 360.383 310.845 359.666 311.655 359.152C312.47 358.637 313.424 358.38 314.514 358.38C315.177 358.38 315.819 358.49 316.441 358.708C317.062 358.928 317.62 359.271 318.114 359.741C318.609 360.21 318.999 360.818 319.285 361.568C319.57 362.312 319.713 363.216 319.713 364.282V365.092H310.378V363.38H317.473C317.473 362.778 317.35 362.245 317.106 361.781C316.861 361.313 316.517 360.943 316.074 360.674C315.636 360.404 315.12 360.268 314.529 360.268C313.888 360.268 313.327 360.426 312.848 360.742C312.373 361.053 312.006 361.461 311.747 361.966C311.491 362.465 311.364 363.007 311.364 363.594V364.932C311.364 365.717 311.502 366.384 311.777 366.934C312.058 367.485 312.447 367.905 312.947 368.196C313.446 368.481 314.03 368.624 314.697 368.624C315.131 368.624 315.526 368.563 315.882 368.44C316.239 368.313 316.547 368.125 316.808 367.875C317.067 367.625 317.266 367.316 317.404 366.95L319.568 367.34C319.394 367.977 319.083 368.535 318.634 369.014C318.191 369.487 317.633 369.858 316.961 370.122C316.292 370.382 315.531 370.512 314.674 370.512ZM322.249 370.275V358.533H324.458V360.398H324.58C324.795 359.766 325.171 359.269 325.712 358.907C326.257 358.54 326.874 358.357 327.562 358.357C327.704 358.357 327.873 358.362 328.067 358.373C328.265 358.382 328.421 358.395 328.533 358.41V360.597C328.441 360.572 328.278 360.544 328.043 360.512C327.808 360.477 327.575 360.46 327.34 360.46C326.8 360.46 326.319 360.574 325.896 360.803C325.477 361.028 325.145 361.341 324.901 361.744C324.657 362.141 324.534 362.595 324.534 363.104V370.275H322.249ZM335.152 370.512C333.994 370.512 332.998 370.266 332.162 369.77C331.331 369.271 330.689 368.57 330.236 367.668C329.787 366.761 329.563 365.698 329.563 364.48C329.563 363.278 329.787 362.217 330.236 361.3C330.689 360.383 331.321 359.666 332.131 359.152C332.947 358.637 333.9 358.38 334.99 358.38C335.653 358.38 336.296 358.49 336.917 358.708C337.539 358.928 338.097 359.271 338.592 359.741C339.086 360.21 339.475 360.818 339.761 361.568C340.046 362.312 340.189 363.216 340.189 364.282V365.092H330.855V363.38H337.949C337.949 362.778 337.826 362.245 337.582 361.781C337.338 361.313 336.993 360.943 336.55 360.674C336.112 360.404 335.597 360.268 335.006 360.268C334.364 360.268 333.803 360.426 333.324 360.742C332.85 361.053 332.483 361.461 332.223 361.966C331.969 362.465 331.841 363.007 331.841 363.594V364.932C331.841 365.717 331.978 366.384 332.254 366.934C332.534 367.485 332.923 367.905 333.423 368.196C333.922 368.481 334.507 368.624 335.174 368.624C335.607 368.624 336.002 368.563 336.359 368.44C336.716 368.313 337.024 368.125 337.284 367.875C337.544 367.625 337.742 367.316 337.88 366.95L340.044 367.34C339.87 367.977 339.559 368.535 339.112 369.014C338.668 369.487 338.109 369.858 337.437 370.122C336.769 370.382 336.007 370.512 335.152 370.512ZM350.164 365.406V358.533H352.457V370.275H350.209V368.242H350.088C349.817 368.868 349.384 369.392 348.787 369.809C348.196 370.221 347.46 370.428 346.579 370.428C345.824 370.428 345.157 370.262 344.575 369.931C343.999 369.595 343.545 369.098 343.215 368.44C342.889 367.783 342.725 366.97 342.725 366.002V358.533H345.011V365.726C345.011 366.527 345.233 367.163 345.677 367.638C346.12 368.112 346.696 368.348 347.404 368.348C347.831 368.348 348.258 368.242 348.681 368.028C349.109 367.814 349.463 367.49 349.743 367.057C350.028 366.623 350.168 366.073 350.164 365.406ZM355.529 370.275V358.533H357.722V360.443H357.868C358.112 359.797 358.512 359.292 359.068 358.93C359.623 358.563 360.288 358.38 361.063 358.38C361.848 358.38 362.506 358.563 363.035 358.93C363.57 359.297 363.965 359.802 364.221 360.443H364.343C364.623 359.817 365.069 359.318 365.681 358.945C366.293 358.568 367.021 358.38 367.867 358.38C368.932 358.38 369.802 358.714 370.474 359.381C371.151 360.05 371.49 361.056 371.49 362.401V370.275H369.205V362.616C369.205 361.82 368.988 361.244 368.555 360.887C368.122 360.531 367.605 360.352 367.003 360.352C366.259 360.352 365.681 360.581 365.268 361.04C364.855 361.494 364.649 362.077 364.649 362.791V370.275H362.37V362.47C362.37 361.833 362.172 361.321 361.774 360.933C361.377 360.546 360.859 360.352 360.222 360.352C359.789 360.352 359.389 360.467 359.022 360.696C358.66 360.92 358.367 361.234 358.143 361.636C357.924 362.039 357.814 362.506 357.814 363.035V370.275H355.529Z" fill="#050B7D"/>
</g>
<defs>
<linearGradient id="paint0_linear_241_3024" x1="400.416" y1="172.221" x2="400.416" y2="208.818" gradientUnits="userSpaceOnUse">
<stop stop-color="#BFEAFF"/>
<stop offset="1" stop-color="#A5C0EE"/>
</linearGradient>
<linearGradient id="paint1_linear_241_3024" x1="375.661" y1="268.049" x2="487.518" y2="264.885" gradientUnits="userSpaceOnUse">
<stop stop-color="#FFEAF6"/>
<stop offset="1" stop-color="#98B6FE"/>
</linearGradient>
<linearGradient id="paint2_linear_241_3024" x1="310" y1="291.701" x2="310" y2="399.34" gradientUnits="userSpaceOnUse">
<stop offset="0.5" stop-color="#070FA0"/>
<stop offset="1" stop-color="#070FA0" stop-opacity="0"/>
</linearGradient>
<clipPath id="clip0_241_3024">
<rect width="620" height="430.55" fill="white"/>
</clipPath>
</defs>
</svg>
