<svg width="630" height="431" viewBox="0 0 630 431" fill="none" xmlns="http://www.w3.org/2000/svg">
<g clip-path="url(#clip0_241_2935)">
<mask id="mask0_241_2935" style="mask-type:luminance" maskUnits="userSpaceOnUse" x="0" y="-1" width="630" height="432">
<path d="M0 -0.00195312H630V430.554H0V-0.00195312Z" fill="white"/>
</mask>
<g mask="url(#mask0_241_2935)">
<path d="M178.344 245.249L47.6938 179.922C42.0458 177.099 39.2216 175.687 36.2595 175.131C33.6359 174.638 30.9437 174.638 28.3201 175.131C25.358 175.687 22.5339 177.099 16.8858 179.922L-113.764 245.249C-118.722 247.727 -121.201 248.966 -121.997 250.643C-122.689 252.103 -122.689 253.797 -121.997 255.257C-121.201 256.934 -118.722 258.173 -113.764 260.652L16.8858 325.978C22.5339 328.801 25.358 330.213 28.3201 330.769C30.9437 331.262 33.6359 331.262 36.2595 330.769C39.2216 330.213 42.0458 328.801 47.6938 325.978L178.344 260.652C183.302 258.173 185.781 256.934 186.576 255.257C187.268 253.797 187.268 252.103 186.576 250.643C185.781 248.966 183.302 247.727 178.344 245.249Z" fill="#FFF6E5" stroke="#070FA0" stroke-width="1.61458" stroke-linecap="round" stroke-linejoin="round"/>
<path opacity="0.6" d="M178.344 234.485L47.6938 169.159C42.0458 166.335 39.2216 164.923 36.2595 164.368C33.6359 163.875 30.9437 163.875 28.3201 164.368C25.358 164.923 22.5339 166.335 16.8858 169.159L-113.764 234.485C-118.722 236.964 -121.201 238.203 -121.997 239.88C-122.689 241.339 -122.689 243.034 -121.997 244.493C-121.201 246.17 -118.722 247.409 -113.764 249.888L16.8858 315.214C22.5339 318.037 25.358 319.45 28.3201 320.005C30.9437 320.498 33.6359 320.498 36.2595 320.005C39.2216 319.45 42.0458 318.037 47.6938 315.214L178.344 249.888C183.302 247.409 185.781 246.17 186.576 244.493C187.268 243.034 187.268 241.339 186.576 239.88C185.781 238.203 183.302 236.964 178.344 234.485Z" stroke="#070FA0" stroke-width="1.61458" stroke-linecap="round" stroke-linejoin="round"/>
<path opacity="0.3" d="M178.344 223.719L47.6938 158.393C42.0458 155.57 39.2216 154.158 36.2595 153.602C33.6359 153.109 30.9437 153.109 28.3201 153.602C25.358 154.158 22.5339 155.57 16.8858 158.393L-113.764 223.719C-118.722 226.198 -121.201 227.437 -121.997 229.114C-122.689 230.574 -122.689 232.268 -121.997 233.727C-121.201 235.405 -118.722 236.643 -113.764 239.122L16.8858 304.448C22.5339 307.272 25.358 308.684 28.3201 309.239C30.9437 309.732 33.6359 309.732 36.2595 309.239C39.2216 308.684 42.0458 307.272 47.6938 304.448L178.344 239.122C183.302 236.643 185.781 235.405 186.576 233.727C187.268 232.268 187.268 230.574 186.576 229.114C185.781 227.437 183.302 226.198 178.344 223.719Z" stroke="#070FA0" stroke-width="1.61458" stroke-linecap="round" stroke-linejoin="round"/>
<path opacity="0.1" d="M178.344 212.956L47.6938 147.63C42.0458 144.806 39.2216 143.394 36.2595 142.838C33.6359 142.346 30.9437 142.346 28.3201 142.838C25.358 143.394 22.5339 144.806 16.8858 147.63L-113.764 212.956C-118.722 215.434 -121.201 216.673 -121.997 218.35C-122.689 219.81 -122.689 221.504 -121.997 222.964C-121.201 224.641 -118.722 225.88 -113.764 228.359L16.8858 293.685C22.5339 296.508 25.358 297.92 28.3201 298.476C30.9437 298.969 33.6359 298.969 36.2595 298.476C39.2216 297.92 42.0458 296.508 47.6938 293.685L178.344 228.359C183.302 225.88 185.781 224.641 186.576 222.964C187.268 221.504 187.268 219.81 186.576 218.35C185.781 216.673 183.302 215.434 178.344 212.956Z" stroke="#070FA0" stroke-width="1.61458" stroke-linecap="round" stroke-linejoin="round"/>
<path d="M91.4441 197.926L90.8921 196.86L93.1406 195.696L90.036 189.696L89.9442 189.745L89.1127 192.691L87.9531 192.388L88.8494 189.118L90.8341 188.091L94.4253 195.032L96.3641 194.029L96.9162 195.095L91.4441 197.926ZM100.865 193.332C100.354 193.582 99.8633 193.706 99.3934 193.705C98.9276 193.692 98.484 193.568 98.0628 193.332C97.6493 193.093 97.2583 192.742 96.8895 192.281C96.5208 191.818 96.1743 191.254 95.8501 190.588C95.5295 189.93 95.3011 189.314 95.1645 188.738C95.0242 188.156 94.9874 187.627 95.054 187.155C95.1282 186.678 95.3059 186.256 95.5871 185.889C95.8721 185.511 96.2702 185.197 96.7811 184.948C97.2921 184.7 97.7806 184.581 98.2464 184.594C98.7163 184.595 99.1578 184.715 99.5712 184.955C99.9924 185.189 100.389 185.542 100.762 186.013C101.131 186.475 101.475 187.034 101.796 187.693C102.12 188.358 102.35 188.979 102.487 189.554C102.623 190.129 102.654 190.655 102.58 191.132C102.514 191.606 102.338 192.031 102.053 192.409C101.772 192.776 101.376 193.084 100.865 193.332ZM100.344 192.264C100.933 191.978 101.245 191.557 101.282 191.003C101.322 190.438 101.162 189.783 100.8 189.04L100.121 187.647C99.759 186.903 99.3447 186.377 98.878 186.068C98.4153 185.747 97.8898 185.73 97.3015 186.017C97.0073 186.16 96.7839 186.341 96.6315 186.558C96.4752 186.768 96.3842 187.014 96.3581 187.295C96.3283 187.568 96.356 187.871 96.441 188.203C96.5301 188.524 96.6652 188.869 96.8461 189.241L97.5248 190.635C97.7059 191.006 97.8969 191.33 98.0982 191.606C98.3034 191.869 98.5246 192.078 98.7618 192.23C98.9951 192.375 99.2447 192.455 99.5102 192.469C99.7721 192.475 100.05 192.408 100.344 192.264ZM99.1565 189.825C98.8856 189.958 98.6695 189.995 98.5083 189.94C98.3549 189.881 98.2405 189.774 98.165 189.619L98.0407 189.364C97.9653 189.209 97.9515 189.052 97.9994 188.895C98.0549 188.734 98.2182 188.587 98.4891 188.455C98.7602 188.324 98.9723 188.287 99.1257 188.346C99.287 188.402 99.4053 188.507 99.4806 188.662L99.605 188.918C99.6805 189.072 99.6904 189.23 99.6347 189.392C99.587 189.549 99.4275 189.694 99.1565 189.825ZM107.859 190.015C107.343 190.253 106.85 190.367 106.38 190.356C105.915 190.334 105.474 190.201 105.058 189.957C104.649 189.709 104.266 189.351 103.906 188.88C103.547 188.411 103.212 187.84 102.902 187.168C102.595 186.504 102.379 185.883 102.255 185.304C102.127 184.718 102.101 184.189 102.177 183.718C102.261 183.243 102.447 182.824 102.736 182.464C103.029 182.091 103.433 181.787 103.949 181.548C104.465 181.31 104.956 181.202 105.421 181.224C105.891 181.235 106.33 181.364 106.739 181.611C107.155 181.856 107.544 182.216 107.908 182.694C108.266 183.164 108.6 183.731 108.906 184.395C109.216 185.068 109.434 185.693 109.559 186.271C109.684 186.849 109.704 187.375 109.619 187.85C109.544 188.322 109.359 188.744 109.066 189.116C108.777 189.477 108.375 189.777 107.859 190.015ZM107.361 188.936C107.955 188.662 108.276 188.247 108.324 187.694C108.376 187.13 108.229 186.472 107.883 185.721L107.233 184.314C106.886 183.564 106.483 183.029 106.022 182.71C105.567 182.381 105.041 182.353 104.447 182.628C104.15 182.764 103.923 182.94 103.766 183.155C103.606 183.362 103.51 183.606 103.478 183.886C103.442 184.158 103.464 184.462 103.542 184.795C103.624 185.117 103.752 185.466 103.926 185.842L104.575 187.248C104.749 187.624 104.933 187.951 105.129 188.231C105.328 188.499 105.545 188.712 105.779 188.869C106.01 189.019 106.257 189.104 106.523 189.124C106.784 189.135 107.064 189.073 107.361 188.936ZM106.224 186.473C105.95 186.599 105.733 186.634 105.573 186.575C105.421 186.512 105.309 186.402 105.237 186.246L105.117 185.988C105.045 185.832 105.035 185.676 105.086 185.519C105.145 185.359 105.311 185.216 105.585 185.089C105.858 184.963 106.071 184.931 106.223 184.993C106.383 185.053 106.499 185.16 106.572 185.316L106.691 185.575C106.763 185.731 106.769 185.889 106.711 186.049C106.659 186.205 106.497 186.348 106.224 186.473ZM112.347 187.791L111.86 186.693L114.175 185.668L111.439 179.491L111.344 179.533L110.336 182.423L109.197 182.053L110.29 178.842L112.333 177.937L115.497 185.082L117.494 184.198L117.98 185.296L112.347 187.791ZM122.008 183.724C121.486 183.949 120.991 184.05 120.522 184.028C120.057 183.993 119.62 183.849 119.21 183.594C118.807 183.336 118.434 182.968 118.086 182.489C117.739 182.011 117.42 181.431 117.126 180.75C116.836 180.079 116.637 179.452 116.527 178.871C116.414 178.282 116.401 177.753 116.49 177.283C116.586 176.811 116.783 176.397 117.081 176.044C117.383 175.679 117.795 175.384 118.317 175.16C118.839 174.935 119.332 174.84 119.797 174.873C120.267 174.897 120.703 175.037 121.104 175.295C121.514 175.549 121.894 175.921 122.244 176.407C122.592 176.886 122.909 177.461 123.2 178.134C123.493 178.814 123.694 179.444 123.804 180.025C123.913 180.606 123.92 181.132 123.824 181.606C123.736 182.075 123.54 182.492 123.237 182.857C122.94 183.21 122.53 183.499 122.008 183.724ZM121.538 182.633C122.138 182.373 122.47 181.969 122.532 181.417C122.599 180.854 122.469 180.192 122.142 179.433L121.528 178.01C121.201 177.25 120.811 176.705 120.36 176.375C119.913 176.034 119.388 175.993 118.788 176.251C118.487 176.38 118.256 176.55 118.093 176.761C117.928 176.965 117.825 177.205 117.786 177.485C117.744 177.756 117.758 178.059 117.826 178.395C117.901 178.719 118.02 179.071 118.184 179.451L118.797 180.874C118.961 181.254 119.136 181.587 119.325 181.871C119.517 182.144 119.728 182.363 119.959 182.526C120.185 182.681 120.43 182.773 120.695 182.799C120.957 182.818 121.238 182.762 121.538 182.633ZM120.465 180.142C120.187 180.262 119.97 180.29 119.811 180.226C119.661 180.16 119.552 180.047 119.483 179.889L119.371 179.629C119.303 179.47 119.297 179.313 119.352 179.158C119.414 179 119.584 178.861 119.861 178.742C120.137 178.623 120.352 178.596 120.502 178.663C120.661 178.726 120.774 178.836 120.841 178.995L120.954 179.255C121.022 179.413 121.025 179.572 120.962 179.73C120.907 179.886 120.741 180.023 120.465 180.142ZM126.554 181.621L126.101 180.509L128.445 179.554L125.898 173.297L125.803 173.336L124.707 176.195L123.58 175.789L124.769 172.614L126.839 171.771L129.785 179.009L131.807 178.186L132.26 179.298L126.554 181.621ZM133.733 178.717L133.296 177.598L135.655 176.677L133.198 170.384L133.103 170.421L131.966 173.264L130.844 172.842L132.08 169.684L134.161 168.871L137.002 176.151L139.036 175.358L139.473 176.477L133.733 178.717ZM143.573 175.102C143.041 175.302 142.54 175.378 142.073 175.333C141.61 175.276 141.181 175.11 140.784 174.836C140.395 174.558 140.04 174.171 139.716 173.676C139.393 173.181 139.102 172.586 138.843 171.893C138.587 171.207 138.419 170.571 138.337 169.985C138.253 169.392 138.267 168.863 138.379 168.399C138.497 167.93 138.715 167.528 139.03 167.19C139.35 166.84 139.776 166.566 140.308 166.368C140.841 166.168 141.338 166.097 141.801 166.154C142.268 166.2 142.696 166.362 143.085 166.64C143.482 166.914 143.844 167.303 144.169 167.807C144.492 168.302 144.781 168.892 145.038 169.577C145.297 170.272 145.467 170.911 145.549 171.497C145.63 172.082 145.61 172.608 145.491 173.077C145.379 173.541 145.164 173.948 144.844 174.297C144.528 174.635 144.105 174.904 143.573 175.102ZM143.157 173.989C143.77 173.76 144.122 173.372 144.211 172.824C144.305 172.265 144.208 171.598 143.918 170.824L143.376 169.372C143.086 168.597 142.723 168.034 142.288 167.682C141.859 167.318 141.337 167.251 140.724 167.481C140.418 167.595 140.179 167.753 140.005 167.955C139.83 168.15 139.716 168.386 139.663 168.662C139.607 168.932 139.606 169.236 139.659 169.574C139.717 169.902 139.818 170.26 139.963 170.646L140.506 172.098C140.65 172.486 140.81 172.826 140.984 173.12C141.163 173.402 141.364 173.63 141.585 173.805C141.803 173.971 142.044 174.075 142.307 174.114C142.567 174.146 142.85 174.105 143.157 173.989ZM142.208 171.449C141.925 171.555 141.706 171.572 141.551 171.501C141.404 171.428 141.3 171.309 141.24 171.149L141.141 170.882C141.081 170.72 141.082 170.564 141.144 170.412C141.215 170.257 141.392 170.126 141.674 170.021C141.956 169.915 142.171 169.9 142.318 169.973C142.473 170.045 142.581 170.161 142.642 170.321L142.741 170.588C142.801 170.75 142.795 170.908 142.724 171.063C142.662 171.215 142.49 171.344 142.208 171.449ZM150.845 172.445C150.31 172.636 149.808 172.705 149.342 172.653C148.88 172.589 148.453 172.417 148.06 172.137C147.675 171.854 147.325 171.462 147.01 170.963C146.693 170.463 146.411 169.865 146.161 169.167C145.915 168.477 145.756 167.84 145.683 167.252C145.608 166.658 145.63 166.13 145.747 165.667C145.874 165.201 146.097 164.8 146.416 164.467C146.74 164.122 147.171 163.854 147.706 163.663C148.241 163.472 148.739 163.407 149.201 163.472C149.668 163.524 150.094 163.692 150.479 163.975C150.872 164.256 151.227 164.65 151.545 165.158C151.862 165.657 152.143 166.252 152.389 166.941C152.638 167.639 152.799 168.28 152.872 168.867C152.945 169.454 152.918 169.98 152.792 170.446C152.673 170.909 152.452 171.313 152.127 171.657C151.807 171.992 151.38 172.253 150.845 172.445ZM150.444 171.325C151.061 171.106 151.417 170.723 151.515 170.176C151.618 169.617 151.529 168.95 151.252 168.171L150.73 166.711C150.452 165.933 150.098 165.364 149.667 165.006C149.243 164.637 148.722 164.561 148.106 164.782C147.797 164.892 147.556 165.047 147.381 165.247C147.202 165.439 147.085 165.673 147.028 165.949C146.969 166.218 146.962 166.522 147.011 166.861C147.064 167.189 147.16 167.548 147.299 167.937L147.821 169.397C147.96 169.786 148.115 170.128 148.285 170.424C148.459 170.71 148.656 170.941 148.876 171.119C149.091 171.289 149.331 171.394 149.593 171.438C149.852 171.474 150.136 171.436 150.444 171.325ZM149.532 168.771C149.248 168.873 149.029 168.887 148.875 168.814C148.729 168.739 148.627 168.619 148.569 168.457L148.473 168.19C148.415 168.027 148.419 167.871 148.484 167.72C148.556 167.566 148.735 167.438 149.019 167.336C149.302 167.235 149.518 167.222 149.664 167.298C149.818 167.371 149.923 167.488 149.981 167.651L150.077 167.919C150.135 168.08 150.128 168.238 150.055 168.392C149.99 168.544 149.816 168.67 149.532 168.771ZM155.512 170.629L155.124 169.492L157.52 168.674L155.338 162.282L155.24 162.315L153.981 165.106L152.879 164.636L154.249 161.534L156.364 160.811L158.89 168.207L160.955 167.502L161.343 168.639L155.512 170.629ZM162.846 168.143L162.475 167L164.882 166.216L162.79 159.793L162.693 159.825L161.394 162.598L160.299 162.113L161.713 159.03L163.838 158.338L166.258 165.768L168.333 165.092L168.705 166.234L162.846 168.143ZM172.877 165.097C172.335 165.265 171.831 165.314 171.367 165.241C170.909 165.158 170.489 164.967 170.109 164.671C169.736 164.371 169.403 163.965 169.109 163.453C168.815 162.939 168.558 162.329 168.339 161.622C168.122 160.923 167.991 160.278 167.943 159.69C167.893 159.092 167.937 158.564 168.074 158.107C168.221 157.647 168.461 157.257 168.795 156.937C169.134 156.607 169.575 156.357 170.117 156.189C170.66 156.021 171.16 155.978 171.619 156.062C172.084 156.134 172.502 156.321 172.874 156.62C173.254 156.917 173.593 157.326 173.89 157.847C174.184 158.359 174.439 158.965 174.655 159.665C174.875 160.372 175.009 161.02 175.056 161.61C175.103 162.199 175.054 162.724 174.907 163.184C174.77 163.641 174.532 164.035 174.193 164.365C173.859 164.685 173.42 164.93 172.877 165.097ZM172.525 163.962C173.151 163.768 173.524 163.401 173.644 162.859C173.771 162.305 173.712 161.635 173.466 160.845L173.008 159.365C172.763 158.575 172.434 157.991 172.019 157.614C171.611 157.228 171.094 157.131 170.469 157.325C170.156 157.422 169.909 157.566 169.725 157.758C169.538 157.942 169.41 158.171 169.342 158.444C169.271 158.71 169.252 159.013 169.286 159.354C169.325 159.684 169.406 160.047 169.529 160.442L169.987 161.923C170.11 162.317 170.249 162.666 170.406 162.969C170.568 163.261 170.756 163.501 170.967 163.688C171.176 163.867 171.41 163.983 171.671 164.038C171.928 164.085 172.213 164.059 172.525 163.962ZM171.723 161.371C171.435 161.46 171.215 161.466 171.065 161.386C170.923 161.304 170.826 161.18 170.774 161.016L170.69 160.745C170.639 160.58 170.649 160.424 170.721 160.275C170.8 160.125 170.984 160.005 171.271 159.916C171.56 159.826 171.775 159.823 171.917 159.905C172.069 159.985 172.169 160.106 172.221 160.271L172.305 160.542C172.355 160.707 172.341 160.864 172.262 161.015C172.191 161.163 172.011 161.282 171.723 161.371ZM180.291 162.867C179.746 163.026 179.242 163.066 178.779 162.986C178.322 162.895 177.905 162.698 177.529 162.395C177.162 162.089 176.836 161.678 176.551 161.16C176.265 160.642 176.018 160.029 175.812 159.317C175.606 158.614 175.484 157.969 175.448 157.379C175.407 156.78 175.46 156.254 175.605 155.799C175.759 155.341 176.005 154.955 176.344 154.641C176.689 154.316 177.133 154.074 177.679 153.915C178.225 153.756 178.726 153.721 179.184 153.813C179.647 153.892 180.061 154.086 180.428 154.391C180.804 154.694 181.135 155.109 181.424 155.635C181.709 156.153 181.954 156.762 182.16 157.465C182.367 158.176 182.489 158.826 182.527 159.416C182.565 160.006 182.507 160.53 182.354 160.988C182.209 161.443 181.963 161.833 181.619 162.158C181.28 162.471 180.837 162.708 180.291 162.867ZM179.959 161.726C180.586 161.543 180.965 161.182 181.096 160.641C181.23 160.091 181.183 159.418 180.951 158.625L180.516 157.138C180.285 156.343 179.965 155.755 179.557 155.371C179.156 154.977 178.64 154.873 178.013 155.056C177.698 155.147 177.448 155.287 177.26 155.477C177.071 155.658 176.94 155.885 176.866 156.157C176.791 156.421 176.767 156.724 176.795 157.065C176.83 157.397 176.904 157.761 177.02 158.157L177.454 159.646C177.57 160.042 177.704 160.394 177.856 160.698C178.014 160.993 178.197 161.236 178.405 161.427C178.61 161.609 178.843 161.729 179.102 161.789C179.359 161.839 179.645 161.819 179.959 161.726ZM179.199 159.122C178.909 159.207 178.69 159.209 178.54 159.127C178.399 159.042 178.304 158.917 178.256 158.752L178.176 158.479C178.129 158.314 178.141 158.158 178.215 158.01C178.297 157.861 178.483 157.744 178.772 157.66C179.061 157.576 179.276 157.576 179.417 157.66C179.567 157.741 179.666 157.865 179.715 158.031L179.794 158.303C179.843 158.469 179.825 158.626 179.744 158.776C179.669 158.922 179.488 159.038 179.199 159.122ZM185.059 161.332L184.739 160.174L187.179 159.5L185.382 152.989L185.283 153.016L183.86 155.727L182.788 155.192L184.341 152.178L186.495 151.583L188.574 159.116L190.679 158.535L190.998 159.693L185.059 161.332ZM195.218 158.747C194.668 158.89 194.162 158.915 193.702 158.821C193.248 158.718 192.837 158.508 192.471 158.195C192.112 157.878 191.798 157.457 191.528 156.932C191.257 156.407 191.028 155.785 190.842 155.069C190.657 154.36 190.555 153.71 190.534 153.119C190.512 152.521 190.58 151.996 190.738 151.545C190.905 151.093 191.162 150.714 191.51 150.409C191.864 150.095 192.316 149.865 192.866 149.722C193.416 149.579 193.917 149.56 194.372 149.663C194.832 149.757 195.241 149.961 195.6 150.278C195.967 150.592 196.287 151.015 196.559 151.55C196.829 152.075 197.057 152.692 197.241 153.4C197.429 154.117 197.532 154.771 197.552 155.362C197.573 155.952 197.5 156.474 197.333 156.928C197.175 157.378 196.918 157.761 196.564 158.075C196.217 158.38 195.768 158.604 195.218 158.747ZM194.917 157.597C195.551 157.431 195.94 157.082 196.085 156.546C196.236 155.999 196.208 155.325 195.999 154.525L195.608 153.026C195.4 152.225 195.097 151.628 194.701 151.232C194.31 150.828 193.799 150.707 193.165 150.872C192.849 150.955 192.595 151.088 192.402 151.271C192.207 151.447 192.069 151.669 191.989 151.94C191.906 152.201 191.873 152.504 191.891 152.846C191.915 153.178 191.98 153.543 192.083 153.944L192.475 155.443C192.578 155.844 192.702 156.199 192.845 156.508C192.995 156.807 193.17 157.056 193.373 157.252C193.573 157.44 193.802 157.567 194.06 157.634C194.315 157.692 194.601 157.679 194.917 157.597ZM194.234 154.972C193.942 155.048 193.723 155.043 193.575 154.957C193.437 154.869 193.346 154.74 193.303 154.574L193.231 154.299C193.188 154.132 193.205 153.976 193.282 153.832C193.369 153.684 193.558 153.573 193.85 153.497C194.141 153.421 194.357 153.427 194.496 153.515C194.642 153.602 194.738 153.729 194.781 153.895L194.853 154.17C194.896 154.337 194.874 154.494 194.788 154.64C194.71 154.786 194.526 154.895 194.234 154.972ZM202.723 156.848C202.171 156.983 201.665 157.001 201.207 156.901C200.754 156.79 200.347 156.576 199.984 156.256C199.631 155.935 199.322 155.51 199.059 154.98C198.797 154.451 198.577 153.827 198.401 153.108C198.226 152.396 198.133 151.746 198.121 151.155C198.106 150.555 198.181 150.031 198.347 149.582C198.519 149.132 198.782 148.758 199.135 148.459C199.493 148.149 199.948 147.926 200.5 147.79C201.052 147.656 201.554 147.643 202.007 147.754C202.466 147.854 202.872 148.064 203.226 148.385C203.588 148.704 203.902 149.132 204.167 149.671C204.429 150.2 204.648 150.82 204.822 151.531C204.999 152.25 205.094 152.905 205.105 153.496C205.118 154.087 205.038 154.608 204.864 155.058C204.7 155.507 204.438 155.886 204.08 156.196C203.728 156.495 203.276 156.712 202.723 156.848ZM202.44 155.693C203.075 155.537 203.469 155.193 203.622 154.659C203.782 154.114 203.762 153.44 203.565 152.637L203.196 151.132C202.999 150.329 202.704 149.728 202.313 149.327C201.929 148.916 201.419 148.789 200.783 148.945C200.465 149.023 200.209 149.152 200.014 149.333C199.817 149.506 199.676 149.727 199.591 149.996C199.505 150.256 199.467 150.558 199.481 150.9C199.501 151.232 199.56 151.6 199.658 152.001L200.027 153.506C200.126 153.907 200.244 154.264 200.383 154.576C200.529 154.877 200.701 155.127 200.9 155.327C201.098 155.518 201.325 155.648 201.581 155.718C201.836 155.779 202.122 155.772 202.44 155.693ZM201.793 153.059C201.501 153.131 201.281 153.123 201.136 153.034C200.998 152.944 200.909 152.815 200.868 152.648L200.8 152.372C200.759 152.204 200.778 152.049 200.858 151.905C200.946 151.76 201.137 151.651 201.43 151.579C201.722 151.507 201.938 151.517 202.075 151.607C202.221 151.695 202.314 151.823 202.355 151.99L202.423 152.266C202.464 152.434 202.44 152.59 202.352 152.736C202.272 152.879 202.086 152.987 201.793 153.059ZM207.552 155.519L207.282 154.349L209.749 153.779L208.23 147.197L208.129 147.22L206.593 149.868L205.545 149.287L207.225 146.342L209.401 145.84L211.158 153.454L213.285 152.963L213.555 154.134L207.552 155.519ZM217.814 153.384C217.258 153.501 216.752 153.503 216.297 153.387C215.848 153.263 215.447 153.034 215.097 152.704C214.753 152.372 214.459 151.936 214.213 151.399C213.967 150.861 213.768 150.23 213.615 149.506C213.464 148.789 213.392 148.136 213.399 147.545C213.403 146.945 213.496 146.424 213.676 145.981C213.863 145.536 214.137 145.17 214.499 144.883C214.868 144.585 215.33 144.377 215.887 144.26C216.442 144.142 216.945 144.147 217.394 144.271C217.849 144.387 218.248 144.609 218.592 144.942C218.942 145.273 219.243 145.712 219.49 146.257C219.736 146.796 219.934 147.422 220.086 148.138C220.238 148.862 220.312 149.521 220.304 150.112C220.298 150.703 220.2 151.221 220.012 151.665C219.833 152.109 219.559 152.479 219.191 152.776C218.829 153.064 218.37 153.267 217.814 153.384ZM217.569 152.222C218.208 152.086 218.614 151.755 218.784 151.225C218.961 150.687 218.963 150.013 218.793 149.203L218.472 147.687C218.301 146.878 218.026 146.267 217.649 145.855C217.277 145.431 216.772 145.288 216.132 145.422C215.811 145.49 215.551 145.612 215.351 145.786C215.148 145.952 215 146.168 214.906 146.434C214.811 146.691 214.765 146.992 214.767 147.335C214.776 147.667 214.822 148.036 214.908 148.44L215.229 149.957C215.314 150.361 215.421 150.721 215.55 151.038C215.684 151.343 215.849 151.6 216.042 151.805C216.233 152.002 216.456 152.14 216.71 152.218C216.962 152.288 217.248 152.289 217.569 152.222ZM217.008 149.567C216.713 149.63 216.494 149.615 216.352 149.521C216.217 149.426 216.132 149.295 216.096 149.126L216.037 148.848C216.002 148.68 216.027 148.525 216.11 148.384C216.204 148.241 216.398 148.139 216.693 148.076C216.988 148.014 217.202 148.03 217.336 148.125C217.48 148.219 217.569 148.349 217.604 148.518L217.663 148.796C217.698 148.963 217.67 149.12 217.577 149.263C217.493 149.404 217.303 149.505 217.008 149.567ZM222.684 152.215L222.455 151.037L224.94 150.553L223.651 143.922L223.549 143.941L221.922 146.534L220.894 145.918L222.675 143.033L224.868 142.606L226.36 150.277L228.503 149.86L228.732 151.039L222.684 152.215ZM233.012 150.422C232.453 150.522 231.947 150.508 231.495 150.379C231.051 150.24 230.658 150 230.317 149.659C229.983 149.316 229.702 148.872 229.474 148.327C229.245 147.783 229.064 147.145 228.934 146.417C228.804 145.696 228.752 145.04 228.777 144.45C228.801 143.851 228.909 143.333 229.101 142.896C229.303 142.457 229.588 142.099 229.959 141.823C230.336 141.536 230.804 141.343 231.364 141.243C231.923 141.142 232.425 141.161 232.87 141.3C233.322 141.429 233.714 141.664 234.047 142.008C234.389 142.348 234.674 142.796 234.905 143.349C235.133 143.895 235.313 144.527 235.442 145.248C235.574 145.976 235.626 146.636 235.601 147.227C235.576 147.817 235.463 148.333 235.262 148.771C235.069 149.208 234.784 149.569 234.407 149.856C234.037 150.132 233.572 150.321 233.012 150.422ZM232.802 149.252C233.446 149.136 233.861 148.817 234.047 148.293C234.24 147.76 234.264 147.086 234.117 146.272L233.844 144.747C233.698 143.933 233.441 143.315 233.077 142.89C232.719 142.456 232.218 142.296 231.574 142.413C231.252 142.47 230.987 142.583 230.782 142.752C230.574 142.911 230.42 143.122 230.318 143.386C230.215 143.641 230.159 143.939 230.151 144.282C230.15 144.615 230.185 144.984 230.259 145.391L230.532 146.916C230.605 147.323 230.701 147.687 230.82 148.007C230.945 148.317 231.101 148.577 231.289 148.789C231.474 148.991 231.692 149.136 231.944 149.222C232.194 149.299 232.48 149.31 232.802 149.252ZM232.323 146.582C232.026 146.635 231.807 146.614 231.668 146.516C231.536 146.417 231.455 146.283 231.425 146.113L231.375 145.833C231.345 145.664 231.374 145.51 231.462 145.372C231.56 145.232 231.757 145.135 232.053 145.082C232.35 145.028 232.564 145.052 232.695 145.15C232.835 145.248 232.92 145.381 232.951 145.55L233.001 145.83C233.031 146 232.998 146.154 232.901 146.294C232.812 146.433 232.619 146.529 232.323 146.582ZM237.915 149.399L237.719 148.214L240.217 147.802L239.117 141.137L239.015 141.154L237.314 143.7L236.305 143.054L238.167 140.22L240.372 139.856L241.645 147.566L243.798 147.211L243.994 148.396L237.915 149.399ZM248.292 147.925C247.729 148.007 247.225 147.974 246.778 147.83C246.338 147.676 245.953 147.422 245.624 147.069C245.304 146.715 245.038 146.262 244.829 145.71C244.619 145.156 244.46 144.514 244.355 143.781C244.251 143.056 244.221 142.4 244.268 141.81C244.312 141.212 244.438 140.698 244.646 140.267C244.862 139.837 245.16 139.489 245.54 139.225C245.926 138.952 246.401 138.775 246.964 138.695C247.526 138.614 248.028 138.651 248.468 138.804C248.914 138.949 249.299 139.198 249.618 139.551C249.948 139.905 250.218 140.362 250.43 140.923C250.64 141.476 250.797 142.114 250.902 142.839C251.007 143.572 251.036 144.233 250.991 144.823C250.945 145.411 250.814 145.923 250.598 146.353C250.39 146.784 250.092 147.136 249.706 147.408C249.326 147.672 248.855 147.844 248.292 147.925ZM248.123 146.749C248.77 146.656 249.197 146.351 249.401 145.834C249.612 145.308 249.659 144.635 249.541 143.817L249.32 142.283C249.203 141.465 248.968 140.838 248.618 140.401C248.276 139.954 247.781 139.778 247.133 139.87C246.809 139.917 246.541 140.021 246.33 140.182C246.117 140.334 245.956 140.541 245.845 140.8C245.733 141.051 245.667 141.348 245.647 141.689C245.634 142.022 245.656 142.393 245.715 142.802L245.936 144.336C245.994 144.745 246.078 145.112 246.186 145.436C246.3 145.749 246.447 146.015 246.626 146.234C246.805 146.443 247.018 146.594 247.267 146.689C247.513 146.776 247.799 146.796 248.123 146.749ZM247.737 144.064C247.439 144.107 247.221 144.078 247.085 143.975C246.957 143.872 246.88 143.735 246.855 143.564L246.816 143.283C246.791 143.112 246.825 142.959 246.919 142.825C247.021 142.688 247.221 142.599 247.52 142.556C247.818 142.513 248.031 142.543 248.159 142.646C248.296 142.748 248.376 142.885 248.4 143.055L248.441 143.336C248.466 143.507 248.427 143.66 248.325 143.797C248.231 143.932 248.035 144.021 247.737 144.064ZM253.229 147.078L253.077 145.886L255.589 145.567L254.739 138.866L254.637 138.879L252.842 141.359L251.857 140.676L253.824 137.914L256.041 137.633L257.024 145.386L259.19 145.111L259.34 146.303L253.229 147.078ZM260.913 146.12L260.78 144.926L263.295 144.644L262.543 137.93L262.44 137.942L260.609 140.395L259.634 139.699L261.642 136.966L263.862 136.717L264.733 144.482L266.902 144.239L267.037 145.433L260.913 146.12ZM271.352 145.172C270.787 145.225 270.284 145.169 269.844 145.003C269.412 144.828 269.041 144.557 268.729 144.189C268.426 143.819 268.183 143.353 268 142.791C267.817 142.23 267.69 141.579 267.62 140.842C267.551 140.113 267.553 139.456 267.628 138.869C267.701 138.274 267.851 137.767 268.08 137.347C268.316 136.927 268.631 136.595 269.024 136.349C269.423 136.095 269.905 135.941 270.471 135.887C271.038 135.834 271.536 135.895 271.968 136.07C272.408 136.236 272.779 136.503 273.082 136.872C273.394 137.24 273.641 137.711 273.825 138.281C274.008 138.843 274.134 139.489 274.203 140.218C274.273 140.955 274.272 141.617 274.198 142.203C274.124 142.789 273.967 143.293 273.731 143.714C273.502 144.133 273.188 144.47 272.789 144.725C272.397 144.969 271.918 145.119 271.352 145.172ZM271.24 143.988C271.891 143.927 272.331 143.643 272.561 143.137C272.797 142.621 272.876 141.952 272.798 141.129L272.652 139.586C272.574 138.764 272.37 138.125 272.042 137.672C271.721 137.209 271.236 137.009 270.583 137.07C270.258 137.102 269.986 137.192 269.766 137.343C269.546 137.485 269.375 137.683 269.252 137.937C269.128 138.182 269.047 138.475 269.011 138.816C268.982 139.148 268.987 139.519 269.026 139.93L269.172 141.473C269.211 141.885 269.277 142.255 269.368 142.584C269.467 142.902 269.602 143.176 269.771 143.402C269.937 143.619 270.143 143.782 270.387 143.888C270.63 143.986 270.915 144.02 271.24 143.988ZM270.984 141.289C270.683 141.317 270.468 141.277 270.337 141.168C270.214 141.058 270.144 140.919 270.128 140.747L270.101 140.464C270.085 140.292 270.127 140.141 270.227 140.011C270.336 139.88 270.54 139.799 270.839 139.771C271.14 139.743 271.352 139.783 271.475 139.893C271.606 140.001 271.679 140.141 271.695 140.313L271.722 140.596C271.738 140.767 271.693 140.919 271.584 141.05C271.484 141.18 271.284 141.26 270.984 141.289ZM279.066 144.529C278.499 144.57 277.999 144.502 277.563 144.326C277.135 144.141 276.769 143.86 276.466 143.486C276.172 143.109 275.939 142.639 275.768 142.072C275.598 141.506 275.487 140.854 275.433 140.114C275.381 139.385 275.399 138.727 275.486 138.142C275.572 137.549 275.735 137.046 275.973 136.631C276.219 136.217 276.541 135.891 276.938 135.655C277.344 135.411 277.831 135.267 278.397 135.227C278.964 135.186 279.461 135.258 279.889 135.443C280.325 135.619 280.69 135.895 280.984 136.271C281.288 136.646 281.525 137.121 281.696 137.696C281.866 138.262 281.978 138.91 282.03 139.641C282.083 140.379 282.066 141.04 281.979 141.626C281.891 142.21 281.724 142.71 281.477 143.125C281.24 143.54 280.919 143.869 280.513 144.113C280.116 144.349 279.634 144.488 279.066 144.529ZM278.981 143.344C279.634 143.296 280.08 143.023 280.32 142.521C280.569 142.012 280.664 141.345 280.604 140.52L280.493 138.973C280.433 138.149 280.245 137.506 279.926 137.047C279.616 136.576 279.135 136.365 278.483 136.412C278.156 136.435 277.881 136.52 277.658 136.666C277.436 136.802 277.26 136.996 277.131 137.247C277.002 137.49 276.915 137.781 276.87 138.121C276.834 138.451 276.83 138.823 276.86 139.235L276.971 140.782C277.001 141.194 277.058 141.565 277.142 141.896C277.234 142.217 277.361 142.493 277.525 142.723C277.687 142.944 277.89 143.111 278.131 143.223C278.371 143.326 278.655 143.366 278.981 143.344ZM278.786 140.638C278.486 140.659 278.271 140.614 278.142 140.503C278.022 140.391 277.955 140.249 277.944 140.077L277.923 139.794C277.91 139.621 277.955 139.472 278.059 139.344C278.171 139.215 278.376 139.139 278.677 139.118C278.978 139.096 279.188 139.141 279.308 139.253C279.438 139.365 279.508 139.506 279.521 139.679L279.541 139.962C279.553 140.134 279.503 140.283 279.391 140.413C279.289 140.541 279.087 140.616 278.786 140.638ZM284.05 144.031L283.981 142.832L286.508 142.688L286.124 135.943L286.021 135.949L284.059 138.3L283.123 137.55L285.277 134.931L287.507 134.804L287.953 142.605L290.133 142.48L290.202 143.681L284.05 144.031ZM291.783 143.607L291.732 142.406L294.261 142.3L293.976 135.551L293.873 135.555L291.876 137.876L290.953 137.113L293.144 134.526L295.378 134.431L295.706 142.239L297.887 142.147L297.938 143.347L291.783 143.607ZM299.521 143.308L299.499 142.107L302.03 142.061L301.906 135.306L301.803 135.307L299.752 137.581L298.846 136.796L301.099 134.261L303.333 134.22L303.477 142.034L305.66 141.994L305.681 143.194L299.521 143.308ZM310.003 143.341C309.434 143.341 308.939 143.238 308.517 143.031C308.104 142.816 307.76 142.51 307.484 142.114C307.217 141.718 307.019 141.232 306.89 140.655C306.761 140.078 306.696 139.419 306.696 138.679C306.696 137.947 306.761 137.292 306.89 136.715C307.019 136.13 307.217 135.639 307.484 135.243C307.76 134.847 308.104 134.545 308.517 134.339C308.939 134.123 309.434 134.016 310.003 134.016C310.571 134.016 311.062 134.123 311.475 134.339C311.897 134.545 312.242 134.847 312.509 135.243C312.784 135.639 312.987 136.13 313.116 136.715C313.245 137.292 313.309 137.947 313.309 138.679C313.309 139.419 313.245 140.078 313.116 140.655C312.987 141.232 312.784 141.718 312.509 142.114C312.242 142.51 311.897 142.816 311.475 143.031C311.062 143.238 310.571 143.341 310.003 143.341ZM310.003 142.153C310.657 142.153 311.122 141.912 311.398 141.43C311.682 140.939 311.824 140.28 311.824 139.454V137.904C311.824 137.077 311.682 136.422 311.398 135.94C311.122 135.449 310.657 135.204 310.003 135.204C309.676 135.204 309.396 135.269 309.163 135.398C308.931 135.518 308.741 135.699 308.595 135.94C308.449 136.173 308.341 136.457 308.272 136.793C308.212 137.12 308.182 137.49 308.182 137.904V139.454C308.182 139.867 308.212 140.241 308.272 140.577C308.341 140.905 308.449 141.189 308.595 141.43C308.741 141.662 308.931 141.843 309.163 141.972C309.396 142.093 309.676 142.153 310.003 142.153ZM310.003 139.441C309.701 139.441 309.49 139.38 309.37 139.26C309.258 139.139 309.202 138.993 309.202 138.821V138.536C309.202 138.364 309.258 138.218 309.37 138.097C309.49 137.977 309.701 137.916 310.003 137.916C310.304 137.916 310.511 137.977 310.623 138.097C310.743 138.218 310.804 138.364 310.804 138.536V138.821C310.804 138.993 310.743 139.139 310.623 139.26C310.511 139.38 310.304 139.441 310.003 139.441ZM315.009 143.207L315.032 142.006L317.562 142.053L317.687 135.299L317.584 135.297L315.45 137.492L314.574 136.675L316.919 134.224L319.152 134.265L319.009 142.079L321.192 142.119L321.169 143.32L315.009 143.207ZM325.481 143.646C324.914 143.622 324.423 143.499 324.011 143.275C323.606 143.042 323.276 142.721 323.016 142.315C322.767 141.908 322.589 141.413 322.485 140.831C322.38 140.249 322.343 139.588 322.374 138.849C322.405 138.117 322.498 137.467 322.65 136.895C322.804 136.316 323.023 135.834 323.306 135.449C323.598 135.065 323.955 134.778 324.377 134.589C324.807 134.391 325.307 134.305 325.874 134.329C326.443 134.353 326.928 134.481 327.332 134.713C327.745 134.938 328.076 135.253 328.326 135.66C328.585 136.068 328.766 136.567 328.871 137.158C328.975 137.739 329.013 138.395 328.982 139.127C328.95 139.867 328.858 140.522 328.705 141.093C328.551 141.664 328.328 142.142 328.037 142.526C327.754 142.911 327.396 143.202 326.966 143.399C326.544 143.588 326.05 143.671 325.481 143.646ZM325.532 142.459C326.185 142.487 326.66 142.265 326.956 141.796C327.261 141.317 327.431 140.664 327.465 139.839L327.531 138.29C327.565 137.464 327.451 136.805 327.187 136.31C326.932 135.809 326.478 135.544 325.825 135.516C325.497 135.502 325.215 135.555 324.978 135.674C324.74 135.785 324.543 135.957 324.387 136.192C324.231 136.419 324.111 136.698 324.028 137.031C323.954 137.355 323.909 137.724 323.891 138.137L323.826 139.685C323.809 140.098 323.823 140.474 323.869 140.812C323.924 141.141 324.02 141.43 324.155 141.677C324.292 141.915 324.474 142.105 324.7 142.244C324.928 142.374 325.205 142.446 325.532 142.459ZM325.646 139.75C325.345 139.737 325.137 139.668 325.021 139.542C324.914 139.417 324.865 139.268 324.872 139.096L324.884 138.812C324.891 138.64 324.953 138.496 325.07 138.38C325.196 138.265 325.409 138.214 325.709 138.226C326.011 138.239 326.215 138.308 326.322 138.433C326.437 138.559 326.491 138.708 326.484 138.88L326.472 139.163C326.465 139.335 326.398 139.479 326.272 139.595C326.156 139.711 325.947 139.761 325.646 139.75ZM330.49 143.719L330.558 142.52L333.085 142.664L333.47 135.92L333.367 135.914L331.151 138.026L330.307 137.176L332.745 134.818L334.975 134.946L334.529 142.747L336.709 142.871L336.64 144.071L330.49 143.719ZM338.22 144.178L338.306 142.98L340.832 143.162L341.316 136.424L341.213 136.416L338.965 138.494L338.134 137.632L340.607 135.311L342.835 135.471L342.274 143.265L344.452 143.422L344.365 144.62L338.22 144.178ZM345.942 144.759L346.056 143.563L348.576 143.802L349.215 137.077L349.111 137.067L346.817 139.095L346.006 138.214L348.53 135.949L350.755 136.16L350.016 143.939L352.19 144.146L352.077 145.341L345.942 144.759ZM356.355 145.969C355.79 145.906 355.309 145.748 354.913 145.495C354.527 145.236 354.219 144.894 353.988 144.47C353.768 144.045 353.625 143.541 353.561 142.953C353.496 142.365 353.506 141.703 353.588 140.967C353.67 140.239 353.806 139.597 353.999 139.038C354.193 138.47 354.445 138.005 354.754 137.641C355.072 137.277 355.448 137.017 355.882 136.857C356.325 136.69 356.829 136.638 357.394 136.701C357.959 136.765 358.435 136.926 358.821 137.187C359.217 137.439 359.526 137.777 359.747 138.201C359.977 138.625 360.124 139.135 360.186 139.731C360.251 140.319 360.242 140.977 360.16 141.704C360.078 142.439 359.941 143.087 359.748 143.646C359.555 144.205 359.299 144.667 358.982 145.029C358.673 145.393 358.296 145.658 357.853 145.826C357.419 145.985 356.919 146.032 356.355 145.969ZM356.488 144.788C357.138 144.861 357.627 144.674 357.954 144.225C358.291 143.769 358.506 143.13 358.597 142.308L358.771 140.768C358.862 139.947 358.794 139.28 358.566 138.77C358.347 138.251 357.912 137.955 357.262 137.882C356.937 137.847 356.651 137.879 356.406 137.981C356.161 138.076 355.953 138.234 355.781 138.457C355.609 138.672 355.471 138.942 355.364 139.268C355.268 139.587 355.197 139.952 355.151 140.362L354.978 141.902C354.932 142.314 354.921 142.689 354.943 143.029C354.974 143.362 355.05 143.657 355.169 143.913C355.289 144.161 355.457 144.361 355.673 144.515C355.89 144.661 356.162 144.752 356.488 144.788ZM356.789 142.093C356.49 142.059 356.286 141.976 356.181 141.842C356.083 141.711 356.043 141.559 356.063 141.388L356.095 141.105C356.113 140.934 356.185 140.795 356.31 140.687C356.444 140.581 356.66 140.545 356.959 140.578C357.258 140.612 357.458 140.695 357.556 140.827C357.662 140.96 357.705 141.112 357.686 141.283L357.655 141.565C357.635 141.737 357.559 141.875 357.425 141.982C357.301 142.09 357.089 142.126 356.789 142.093ZM361.345 146.39L361.496 145.197L364.007 145.516L364.858 138.814L364.754 138.801L362.398 140.755L361.615 139.849L364.209 137.665L366.426 137.946L365.443 145.698L367.609 145.972L367.457 147.165L361.345 146.39ZM371.714 147.926C371.151 147.845 370.676 147.672 370.288 147.407C369.909 147.136 369.612 146.784 369.396 146.352C369.188 145.923 369.061 145.412 369.016 144.824C368.97 144.234 369 143.573 369.105 142.84C369.21 142.115 369.367 141.476 369.577 140.924C369.788 140.362 370.053 139.905 370.374 139.55C370.704 139.198 371.088 138.949 371.526 138.803C371.975 138.651 372.48 138.614 373.043 138.695C373.604 138.776 374.075 138.953 374.454 139.224C374.842 139.489 375.14 139.837 375.348 140.266C375.565 140.698 375.695 141.212 375.739 141.811C375.784 142.4 375.755 143.057 375.651 143.782C375.545 144.515 375.388 145.157 375.178 145.71C374.967 146.263 374.698 146.715 374.369 147.068C374.048 147.422 373.664 147.676 373.216 147.829C372.777 147.974 372.276 148.007 371.714 147.926ZM371.883 146.749C372.531 146.843 373.025 146.671 373.367 146.233C373.719 145.787 373.952 145.155 374.071 144.337L374.291 142.803C374.409 141.984 374.361 141.317 374.149 140.799C373.946 140.274 373.521 139.965 372.873 139.871C372.55 139.825 372.263 139.849 372.015 139.943C371.767 140.029 371.554 140.181 371.374 140.4C371.197 140.609 371.049 140.874 370.934 141.197C370.827 141.513 370.745 141.874 370.685 142.284L370.465 143.818C370.407 144.227 370.383 144.602 370.395 144.943C370.416 145.277 370.482 145.574 370.593 145.833C370.705 146.084 370.866 146.29 371.078 146.451C371.291 146.604 371.559 146.703 371.883 146.749ZM372.27 144.065C371.972 144.022 371.771 143.932 371.669 143.796C371.575 143.66 371.541 143.507 371.565 143.337L371.606 143.056C371.63 142.885 371.707 142.748 371.835 142.645C371.971 142.543 372.188 142.514 372.486 142.556C372.785 142.599 372.981 142.688 373.075 142.824C373.177 142.96 373.216 143.113 373.191 143.284L373.15 143.565C373.125 143.735 373.046 143.872 372.909 143.974C372.781 144.078 372.568 144.108 372.27 144.065ZM376.688 148.509L376.883 147.323L379.381 147.735L380.482 141.07L380.379 141.054L377.951 142.917L377.202 141.982L379.877 139.897L382.081 140.261L380.809 147.971L382.963 148.327L382.767 149.512L376.688 148.509ZM386.995 150.422C386.435 150.322 385.966 150.132 385.587 149.855C385.219 149.569 384.933 149.208 384.732 148.77C384.54 148.333 384.431 147.818 384.405 147.228C384.38 146.637 384.433 145.978 384.564 145.249C384.693 144.528 384.873 143.896 385.101 143.35C385.333 142.797 385.614 142.349 385.947 142.006C386.289 141.664 386.68 141.429 387.124 141.298C387.577 141.162 388.083 141.143 388.643 141.244C389.202 141.344 389.666 141.536 390.036 141.822C390.414 142.099 390.7 142.457 390.892 142.894C391.094 143.333 391.206 143.852 391.229 144.451C391.255 145.041 391.202 145.697 391.073 146.418C390.942 147.146 390.762 147.784 390.533 148.328C390.305 148.873 390.019 149.316 389.678 149.658C389.345 150 388.952 150.24 388.498 150.378C388.055 150.508 387.553 150.523 386.995 150.422ZM387.205 149.253C387.848 149.368 388.349 149.213 388.705 148.787C389.072 148.354 389.328 147.731 389.475 146.917L389.748 145.392C389.895 144.578 389.87 143.909 389.676 143.385C389.491 142.853 389.076 142.529 388.433 142.413C388.111 142.355 387.824 142.369 387.573 142.456C387.322 142.533 387.103 142.677 386.917 142.888C386.732 143.092 386.576 143.352 386.448 143.671C386.332 143.982 386.236 144.341 386.163 144.748L385.889 146.274C385.816 146.68 385.78 147.055 385.78 147.396C385.789 147.73 385.845 148.029 385.946 148.292C386.05 148.547 386.204 148.758 386.41 148.927C386.618 149.086 386.883 149.195 387.205 149.253ZM387.684 146.582C387.388 146.53 387.191 146.433 387.093 146.293C387.004 146.155 386.975 146.001 387.006 145.831L387.056 145.551C387.086 145.382 387.167 145.248 387.298 145.149C387.438 145.052 387.657 145.029 387.954 145.083C388.25 145.136 388.443 145.232 388.532 145.37C388.629 145.51 388.662 145.665 388.632 145.834L388.581 146.114C388.551 146.284 388.466 146.417 388.326 146.515C388.195 146.614 387.981 146.636 387.684 146.582ZM394.605 151.846C394.046 151.737 393.58 151.541 393.206 151.258C392.841 150.968 392.561 150.602 392.366 150.16C392.18 149.72 392.079 149.206 392.061 148.615C392.045 148.023 392.108 147.364 392.249 146.637C392.389 145.918 392.577 145.289 392.814 144.747C393.053 144.197 393.34 143.753 393.678 143.415C394.025 143.079 394.42 142.848 394.865 142.725C395.321 142.594 395.827 142.583 396.385 142.691C396.943 142.8 397.405 142.999 397.768 143.29C398.143 143.573 398.424 143.935 398.61 144.374C398.805 144.816 398.91 145.336 398.925 145.936C398.942 146.526 398.88 147.181 398.74 147.9C398.599 148.627 398.41 149.261 398.173 149.803C397.936 150.344 397.645 150.784 397.299 151.119C396.961 151.457 396.565 151.692 396.11 151.822C395.664 151.946 395.162 151.955 394.605 151.846ZM394.832 150.679C395.473 150.804 395.976 150.657 396.339 150.236C396.711 149.808 396.977 149.188 397.134 148.377L397.43 146.856C397.589 146.044 397.574 145.375 397.387 144.847C397.21 144.312 396.801 143.983 396.158 143.858C395.837 143.796 395.55 143.805 395.297 143.888C395.046 143.961 394.825 144.104 394.635 144.311C394.448 144.513 394.287 144.771 394.156 145.087C394.034 145.396 393.934 145.755 393.855 146.161L393.559 147.681C393.48 148.087 393.438 148.461 393.434 148.802C393.438 149.137 393.49 149.436 393.588 149.701C393.687 149.957 393.838 150.17 394.042 150.341C394.247 150.504 394.51 150.617 394.832 150.679ZM395.35 148.016C395.054 147.959 394.858 147.86 394.762 147.718C394.676 147.578 394.649 147.424 394.681 147.255L394.736 146.976C394.768 146.807 394.851 146.674 394.985 146.577C395.126 146.481 395.344 146.463 395.64 146.52C395.936 146.578 396.128 146.676 396.214 146.816C396.31 146.958 396.341 147.113 396.308 147.282L396.254 147.561C396.22 147.73 396.133 147.862 395.992 147.957C395.86 148.054 395.645 148.074 395.35 148.016ZM399.544 152.667L399.793 151.492L402.27 152.015L403.667 145.406L403.566 145.384L401.057 147.138L400.35 146.17L403.115 144.207L405.301 144.669L403.685 152.314L405.821 152.766L405.573 153.941L399.544 152.667ZM409.752 155.056C409.197 154.928 408.738 154.716 408.374 154.42C408.019 154.117 407.752 153.742 407.573 153.294C407.402 152.848 407.318 152.329 407.322 151.738C407.326 151.146 407.411 150.491 407.577 149.769C407.742 149.056 407.952 148.433 408.207 147.899C408.465 147.357 408.768 146.924 409.118 146.598C409.475 146.274 409.879 146.057 410.328 145.95C410.787 145.834 411.294 145.841 411.848 145.969C412.402 146.096 412.855 146.311 413.21 146.614C413.574 146.911 413.842 147.281 414.013 147.728C414.193 148.176 414.28 148.699 414.274 149.298C414.27 149.89 414.186 150.543 414.022 151.255C413.855 151.977 413.644 152.604 413.389 153.138C413.133 153.67 412.826 154.099 412.469 154.423C412.12 154.749 411.715 154.97 411.255 155.085C410.807 155.193 410.305 155.184 409.752 155.056ZM410.019 153.898C410.656 154.045 411.163 153.915 411.541 153.507C411.927 153.092 412.215 152.482 412.4 151.677L412.748 150.166C412.934 149.361 412.943 148.691 412.774 148.157C412.616 147.617 412.218 147.274 411.581 147.126C411.262 147.053 410.975 147.053 410.718 147.126C410.465 147.192 410.24 147.325 410.043 147.528C409.849 147.721 409.68 147.973 409.536 148.285C409.404 148.591 409.292 148.945 409.198 149.348L408.851 150.858C408.757 151.26 408.703 151.633 408.686 151.973C408.68 152.308 408.721 152.608 408.809 152.876C408.899 153.136 409.043 153.355 409.24 153.533C409.441 153.703 409.7 153.824 410.019 153.898ZM410.628 151.255C410.334 151.187 410.142 151.081 410.052 150.936C409.97 150.793 409.949 150.638 409.987 150.47L410.051 150.194C410.09 150.026 410.177 149.896 410.314 149.803C410.458 149.713 410.677 149.702 410.97 149.77C411.264 149.837 411.452 149.942 411.534 150.085C411.625 150.229 411.651 150.385 411.612 150.553L411.548 150.831C411.51 150.998 411.418 151.127 411.273 151.217C411.137 151.31 410.922 151.323 410.628 151.255ZM414.661 156.045L414.948 154.879L417.406 155.482L419.016 148.921L418.916 148.897L416.351 150.568L415.676 149.578L418.504 147.705L420.674 148.238L418.811 155.828L420.931 156.347L420.645 157.514L414.661 156.045ZM424.789 158.748C424.239 158.605 423.786 158.38 423.429 158.073C423.084 157.761 422.828 157.379 422.661 156.925C422.503 156.474 422.434 155.954 422.454 155.364C422.475 154.773 422.578 154.118 422.765 153.401C422.949 152.693 423.178 152.076 423.448 151.551C423.72 151.017 424.035 150.592 424.394 150.276C424.761 149.962 425.17 149.757 425.622 149.661C426.085 149.56 426.591 149.58 427.141 149.723C427.691 149.867 428.139 150.095 428.484 150.407C428.84 150.714 429.098 151.093 429.256 151.542C429.423 151.996 429.495 152.522 429.472 153.12C429.452 153.711 429.35 154.362 429.164 155.07C428.978 155.787 428.749 156.408 428.479 156.933C428.209 157.459 427.89 157.879 427.523 158.192C427.165 158.509 426.754 158.718 426.292 158.819C425.839 158.915 425.339 158.891 424.789 158.748ZM425.088 157.598C425.722 157.763 426.232 157.647 426.621 157.249C427.019 156.847 427.324 156.245 427.532 155.445L427.922 153.945C428.131 153.145 428.159 152.476 428.005 151.938C427.862 151.393 427.475 151.039 426.842 150.874C426.524 150.791 426.238 150.783 425.979 150.849C425.724 150.907 425.495 151.034 425.293 151.231C425.092 151.419 424.917 151.667 424.765 151.974C424.624 152.275 424.503 152.626 424.398 153.027L424.007 154.526C423.903 154.927 423.837 155.297 423.812 155.637C423.795 155.971 423.828 156.273 423.908 156.543C423.991 156.805 424.129 157.028 424.322 157.212C424.517 157.386 424.772 157.515 425.088 157.598ZM425.773 154.973C425.481 154.898 425.292 154.786 425.205 154.638C425.128 154.494 425.111 154.338 425.154 154.171L425.226 153.897C425.269 153.73 425.361 153.603 425.499 153.513C425.646 153.427 425.865 153.422 426.157 153.498C426.449 153.575 426.634 153.684 426.711 153.83C426.797 153.977 426.819 154.133 426.776 154.3L426.704 154.576C426.661 154.741 426.565 154.869 426.419 154.955C426.28 155.043 426.064 155.049 425.773 154.973ZM429.668 159.876L429.988 158.719L432.428 159.391L434.226 152.88L434.127 152.852L431.514 154.45L430.868 153.441L433.748 151.649L435.903 152.244L433.823 159.777L435.927 160.358L435.608 161.516L429.668 159.876ZM439.714 162.869C439.169 162.71 438.723 162.472 438.375 162.156C438.039 161.833 437.794 161.443 437.64 160.986C437.495 160.53 437.441 160.008 437.478 159.417C437.516 158.827 437.639 158.177 437.847 157.466C438.051 156.764 438.297 156.154 438.582 155.636C438.87 155.11 439.197 154.694 439.566 154.388C439.94 154.086 440.356 153.893 440.81 153.81C441.276 153.722 441.781 153.757 442.327 153.916C442.872 154.075 443.314 154.316 443.649 154.638C443.997 154.956 444.244 155.341 444.389 155.796C444.542 156.254 444.599 156.781 444.559 157.38C444.521 157.97 444.4 158.616 444.195 159.318C443.987 160.03 443.741 160.644 443.456 161.161C443.169 161.679 442.839 162.09 442.464 162.392C442.096 162.698 441.681 162.895 441.215 162.983C440.76 163.066 440.26 163.028 439.714 162.869ZM440.048 161.728C440.675 161.911 441.19 161.81 441.589 161.425C441.999 161.033 442.32 160.44 442.552 159.647L442.986 158.159C443.218 157.365 443.264 156.697 443.126 156.155C442.999 155.606 442.623 155.24 441.994 155.057C441.68 154.965 441.393 154.949 441.134 155.007C440.877 155.058 440.644 155.179 440.436 155.369C440.231 155.552 440.048 155.794 439.887 156.098C439.738 156.395 439.605 156.741 439.489 157.139L439.055 158.626C438.939 159.023 438.864 159.391 438.827 159.731C438.801 160.064 438.825 160.367 438.898 160.639C438.974 160.904 439.105 161.13 439.292 161.319C439.482 161.5 439.733 161.637 440.048 161.728ZM440.808 159.125C440.518 159.04 440.332 158.923 440.25 158.774C440.177 158.626 440.164 158.47 440.213 158.304L440.292 158.032C440.34 157.866 440.434 157.741 440.576 157.657C440.725 157.576 440.944 157.577 441.234 157.661C441.524 157.746 441.705 157.861 441.779 158.008C441.86 158.158 441.878 158.315 441.829 158.481L441.75 158.753C441.701 158.919 441.602 159.043 441.454 159.125C441.311 159.209 441.096 159.209 440.808 159.125ZM444.559 164.141L444.914 162.993L447.333 163.742L449.332 157.289L449.234 157.259L446.573 158.774L445.959 157.746L448.893 156.045L451.027 156.706L448.715 164.171L450.8 164.817L450.444 165.964L444.559 164.141ZM454.508 167.444C453.968 167.267 453.529 167.016 453.192 166.688C452.864 166.356 452.632 165.959 452.493 165.497C452.362 165.037 452.324 164.514 452.38 163.925C452.436 163.336 452.578 162.69 452.807 161.986C453.034 161.29 453.298 160.687 453.6 160.179C453.904 159.662 454.244 159.257 454.621 158.963C455.005 158.671 455.426 158.492 455.883 158.423C456.351 158.35 456.855 158.4 457.396 158.576C457.936 158.752 458.369 159.006 458.695 159.339C459.033 159.666 459.267 160.06 459.398 160.518C459.538 160.98 459.578 161.51 459.52 162.107C459.464 162.695 459.323 163.338 459.096 164.034C458.866 164.738 458.6 165.344 458.299 165.853C457.998 166.361 457.655 166.762 457.27 167.052C456.893 167.347 456.471 167.531 456.004 167.604C455.547 167.673 455.048 167.619 454.508 167.444ZM454.875 166.314C455.498 166.516 456.015 166.431 456.426 166.058C456.848 165.679 457.187 165.096 457.443 164.311L457.923 162.837C458.18 162.051 458.246 161.385 458.126 160.838C458.016 160.286 457.65 159.908 457.028 159.706C456.717 159.605 456.43 159.58 456.169 159.63C455.911 159.672 455.675 159.787 455.461 159.97C455.25 160.146 455.059 160.383 454.89 160.681C454.731 160.973 454.588 161.316 454.46 161.709L453.979 163.183C453.851 163.575 453.764 163.941 453.718 164.279C453.682 164.612 453.696 164.916 453.761 165.19C453.828 165.456 453.953 165.687 454.133 165.882C454.318 166.068 454.564 166.213 454.875 166.314ZM455.716 163.735C455.429 163.641 455.247 163.518 455.17 163.367C455.101 163.217 455.092 163.061 455.146 162.897L455.235 162.627C455.287 162.462 455.386 162.341 455.53 162.261C455.681 162.184 455.901 162.192 456.187 162.285C456.475 162.378 456.652 162.5 456.721 162.649C456.799 162.801 456.81 162.959 456.757 163.122L456.669 163.392C456.616 163.557 456.513 163.677 456.362 163.754C456.217 163.835 456.002 163.827 455.716 163.735ZM461.852 169.893C461.314 169.71 460.879 169.451 460.547 169.12C460.225 168.783 459.998 168.381 459.865 167.918C459.74 167.457 459.71 166.933 459.775 166.345C459.838 165.757 459.99 165.113 460.229 164.412C460.466 163.72 460.738 163.121 461.047 162.616C461.358 162.104 461.705 161.704 462.085 161.415C462.474 161.129 462.897 160.955 463.355 160.893C463.824 160.825 464.328 160.883 464.865 161.067C465.403 161.25 465.833 161.511 466.155 161.849C466.487 162.18 466.715 162.577 466.84 163.038C466.973 163.502 467.006 164.032 466.939 164.628C466.875 165.216 466.725 165.856 466.488 166.548C466.249 167.249 465.975 167.852 465.666 168.356C465.358 168.86 465.009 169.256 464.621 169.542C464.24 169.83 463.814 170.008 463.346 170.076C462.888 170.137 462.39 170.077 461.852 169.893ZM462.237 168.768C462.855 168.98 463.373 168.901 463.79 168.534C464.218 168.162 464.565 167.584 464.832 166.802L465.333 165.335C465.6 164.553 465.677 163.888 465.564 163.34C465.461 162.785 465.101 162.403 464.482 162.192C464.172 162.086 463.886 162.057 463.624 162.104C463.366 162.143 463.128 162.253 462.911 162.433C462.697 162.607 462.503 162.84 462.33 163.136C462.168 163.427 462.019 163.767 461.886 164.159L461.385 165.625C461.252 166.017 461.159 166.38 461.107 166.717C461.066 167.05 461.077 167.354 461.138 167.629C461.201 167.896 461.322 168.129 461.5 168.326C461.681 168.515 461.927 168.662 462.237 168.768ZM463.113 166.202C462.827 166.104 462.648 165.979 462.572 165.826C462.505 165.675 462.499 165.519 462.555 165.356L462.647 165.087C462.703 164.924 462.803 164.804 462.948 164.726C463.101 164.651 463.319 164.661 463.605 164.759C463.89 164.856 464.066 164.98 464.133 165.131C464.208 165.284 464.218 165.442 464.162 165.604L464.071 165.874C464.015 166.036 463.91 166.156 463.757 166.231C463.613 166.308 463.398 166.299 463.113 166.202ZM466.635 171.379L467.039 170.248L469.424 171.1L471.697 164.739L471.6 164.703L468.877 166.104L468.307 165.05L471.312 163.476L473.416 164.228L470.785 171.587L472.841 172.321L472.436 173.452L466.635 171.379ZM473.923 174.001L474.343 172.875L476.714 173.762L479.079 167.434L478.982 167.398L476.24 168.758L475.686 167.696L478.712 166.166L480.805 166.948L478.069 174.268L480.114 175.033L479.693 176.157L473.923 174.001ZM483.666 177.868C483.137 177.661 482.713 177.384 482.395 177.039C482.088 176.688 481.878 176.278 481.765 175.809C481.661 175.342 481.653 174.817 481.743 174.233C481.832 173.648 482.012 173.011 482.281 172.321C482.547 171.64 482.845 171.053 483.176 170.562C483.508 170.064 483.871 169.679 484.264 169.407C484.664 169.138 485.095 168.983 485.555 168.94C486.027 168.893 486.527 168.974 487.056 169.179C487.585 169.386 488.004 169.665 488.311 170.015C488.628 170.362 488.839 170.768 488.945 171.234C489.057 171.703 489.068 172.234 488.975 172.826C488.886 173.41 488.708 174.043 488.441 174.726C488.172 175.416 487.873 176.006 487.542 176.496C487.212 176.987 486.847 177.366 486.447 177.635C486.054 177.908 485.622 178.067 485.151 178.114C484.69 178.156 484.195 178.074 483.666 177.868ZM484.098 176.76C484.707 176.998 485.228 176.943 485.661 176.593C486.103 176.24 486.476 175.677 486.776 174.908L487.339 173.463C487.64 172.694 487.746 172.033 487.656 171.479C487.578 170.922 487.233 170.525 486.624 170.287C486.32 170.167 486.035 170.126 485.772 170.162C485.511 170.19 485.269 170.289 485.045 170.461C484.825 170.624 484.621 170.85 484.435 171.137C484.259 171.42 484.097 171.754 483.946 172.139L483.383 173.584C483.233 173.968 483.124 174.329 483.058 174.663C483.003 174.993 483.001 175.297 483.05 175.575C483.101 175.844 483.212 176.082 483.381 176.286C483.554 176.483 483.793 176.642 484.098 176.76ZM485.084 174.234C484.803 174.124 484.629 173.991 484.56 173.834C484.499 173.682 484.501 173.526 484.563 173.365L484.666 173.1C484.73 172.94 484.834 172.824 484.983 172.752C485.139 172.684 485.357 172.704 485.638 172.814C485.919 172.923 486.089 173.054 486.15 173.207C486.218 173.363 486.222 173.522 486.159 173.683L486.056 173.948C485.992 174.108 485.884 174.222 485.728 174.291C485.579 174.362 485.365 174.343 485.084 174.234ZM488.38 179.559L488.833 178.446L491.177 179.4L493.725 173.143L493.629 173.105L490.849 174.386L490.325 173.307L493.395 171.866L495.465 172.709L492.517 179.946L494.539 180.769L494.087 181.882L488.38 179.559ZM497.997 183.726C497.475 183.502 497.062 183.21 496.756 182.854C496.461 182.492 496.267 182.075 496.171 181.603C496.081 181.132 496.092 180.608 496.202 180.027C496.312 179.446 496.513 178.815 496.807 178.136C497.096 177.463 497.415 176.887 497.762 176.409C498.111 175.923 498.488 175.55 498.89 175.292C499.3 175.037 499.736 174.897 500.196 174.87C500.67 174.84 501.167 174.937 501.688 175.162C502.21 175.387 502.618 175.679 502.913 176.041C503.219 176.398 503.416 176.811 503.504 177.28C503.601 177.754 503.592 178.284 503.479 178.873C503.37 179.454 503.169 180.081 502.88 180.752C502.587 181.433 502.266 182.012 501.92 182.491C501.573 182.97 501.194 183.337 500.784 183.591C500.383 183.849 499.946 183.993 499.473 184.025C499.011 184.05 498.519 183.951 497.997 183.726ZM498.468 182.635C499.069 182.893 499.591 182.857 500.035 182.523C500.49 182.184 500.882 181.636 501.209 180.876L501.823 179.453C502.15 178.694 502.278 178.037 502.208 177.481C502.149 176.922 501.82 176.513 501.218 176.253C500.918 176.124 500.636 176.072 500.371 176.099C500.109 176.118 499.864 176.209 499.635 176.372C499.407 176.528 499.196 176.746 499.001 177.027C498.815 177.304 498.641 177.632 498.477 178.012L497.864 179.435C497.7 179.815 497.58 180.17 497.502 180.503C497.436 180.83 497.423 181.133 497.461 181.413C497.503 181.685 497.607 181.926 497.768 182.137C497.934 182.339 498.167 182.505 498.468 182.635ZM499.542 180.144C499.264 180.025 499.095 179.886 499.032 179.728C498.977 179.573 498.983 179.416 499.051 179.257L499.164 178.997C499.232 178.839 499.342 178.726 499.492 178.66C499.651 178.596 499.868 178.624 500.145 178.744C500.421 178.863 500.587 179 500.643 179.155C500.706 179.314 500.703 179.473 500.635 179.631L500.523 179.891C500.455 180.05 500.341 180.16 500.182 180.223C500.032 180.29 499.819 180.263 499.542 180.144ZM502.652 185.576L503.138 184.478L505.454 185.503L508.189 179.326L508.095 179.284L505.277 180.48L504.786 179.386L507.898 178.039L509.941 178.943L506.776 186.088L508.772 186.973L508.286 188.071L502.652 185.576ZM512.146 190.017C511.631 189.779 511.225 189.478 510.928 189.113C510.644 188.744 510.459 188.322 510.375 187.847C510.298 187.375 510.323 186.85 510.447 186.273C510.572 185.695 510.789 185.07 511.1 184.397C511.407 183.733 511.74 183.166 512.099 182.696C512.462 182.218 512.847 181.856 513.255 181.608C513.672 181.364 514.111 181.235 514.573 181.221C515.046 181.202 515.54 181.312 516.057 181.55C516.573 181.789 516.973 182.093 517.258 182.461C517.554 182.826 517.74 183.243 517.817 183.715C517.901 184.19 517.879 184.72 517.751 185.307C517.626 185.885 517.411 186.506 517.104 187.17C516.793 187.843 516.458 188.413 516.099 188.882C515.741 189.353 515.353 189.709 514.936 189.953C514.527 190.201 514.087 190.334 513.614 190.353C513.152 190.367 512.663 190.255 512.146 190.017ZM512.645 188.938C513.239 189.213 513.762 189.188 514.215 188.866C514.678 188.54 515.084 188.001 515.431 187.251L516.081 185.844C516.427 185.094 516.573 184.439 516.517 183.883C516.471 183.322 516.153 182.903 515.559 182.63C515.262 182.492 514.981 182.434 514.715 182.453C514.453 182.465 514.206 182.55 513.972 182.707C513.742 182.857 513.524 183.07 513.321 183.345C513.129 183.618 512.946 183.942 512.773 184.316L512.124 185.723C511.951 186.099 511.82 186.452 511.734 186.782C511.66 187.107 511.638 187.411 511.67 187.691C511.705 187.963 511.802 188.208 511.959 188.422C512.12 188.628 512.348 188.801 512.645 188.938ZM513.783 186.476C513.509 186.35 513.342 186.206 513.283 186.046C513.233 185.89 513.243 185.733 513.315 185.577L513.434 185.318C513.507 185.162 513.619 185.053 513.771 184.99C513.931 184.932 514.147 184.965 514.421 185.091C514.695 185.218 514.857 185.359 514.909 185.515C514.968 185.676 514.96 185.834 514.888 185.99L514.77 186.248C514.698 186.405 514.581 186.512 514.421 186.571C514.269 186.634 514.056 186.602 513.783 186.476ZM516.747 191.996L517.273 190.917L519.549 192.025L522.507 185.951L522.414 185.906L519.554 186.999L519.104 185.889L522.262 184.654L524.272 185.633L520.85 192.658L522.812 193.614L522.286 194.694L516.747 191.996ZM526.059 196.808C525.554 196.547 525.161 196.228 524.881 195.85C524.613 195.469 524.449 195.039 524.385 194.561C524.33 194.087 524.379 193.564 524.528 192.992C524.679 192.419 524.924 191.805 525.264 191.147C525.601 190.497 525.959 189.946 526.339 189.493C526.723 189.032 527.124 188.688 527.543 188.458C527.97 188.232 528.415 188.124 528.877 188.13C529.35 188.132 529.839 188.265 530.344 188.526C530.849 188.787 531.235 189.108 531.504 189.489C531.783 189.866 531.951 190.292 532.006 190.767C532.068 191.245 532.023 191.775 531.868 192.354C531.719 192.925 531.474 193.537 531.138 194.187C530.798 194.845 530.438 195.4 530.058 195.853C529.678 196.306 529.275 196.645 528.848 196.87C528.429 197.1 527.982 197.213 527.509 197.209C527.047 197.203 526.564 197.069 526.059 196.808ZM526.605 195.753C527.186 196.053 527.71 196.053 528.176 195.752C528.654 195.446 529.083 194.926 529.462 194.192L530.175 192.816C530.555 192.081 530.729 191.435 530.699 190.876C530.68 190.314 530.379 189.881 529.798 189.581C529.508 189.43 529.23 189.359 528.964 189.367C528.701 189.368 528.451 189.441 528.209 189.587C527.973 189.727 527.747 189.93 527.531 190.197C527.327 190.459 527.13 190.775 526.94 191.142L526.228 192.518C526.037 192.885 525.892 193.232 525.792 193.558C525.703 193.88 525.667 194.183 525.686 194.463C525.71 194.737 525.795 194.984 525.943 195.206C526.093 195.42 526.314 195.602 526.605 195.753ZM527.851 193.344C527.584 193.205 527.424 193.054 527.372 192.892C527.328 192.734 527.346 192.578 527.425 192.425L527.555 192.173C527.635 192.02 527.752 191.916 527.907 191.86C528.068 191.808 528.284 191.852 528.552 191.99C528.82 192.129 528.975 192.277 529.019 192.436C529.071 192.598 529.058 192.756 528.978 192.909L528.848 193.161C528.768 193.314 528.648 193.416 528.485 193.468C528.33 193.524 528.119 193.483 527.851 193.344Z" fill="#050B7D"/>
<path d="M311.077 175.449C330.1 175.449 345.522 160.028 345.522 141.005C345.522 121.982 330.1 106.561 311.077 106.561C292.054 106.561 276.633 121.982 276.633 141.005C276.633 160.028 292.054 175.449 311.077 175.449Z" fill="#D9D9D9"/>
<path d="M311.077 175.449C330.1 175.449 345.522 160.028 345.522 141.005C345.522 121.982 330.1 106.561 311.077 106.561C292.054 106.561 276.633 121.982 276.633 141.005C276.633 160.028 292.054 175.449 311.077 175.449Z" fill="url(#paint0_linear_241_2935)" stroke="#070FA0" stroke-width="1.61458" stroke-linecap="round" stroke-linejoin="round"/>
<mask id="mask1_241_2935" style="mask-type:alpha" maskUnits="userSpaceOnUse" x="276" y="106" width="70" height="70">
<path d="M311.077 175.449C330.1 175.449 345.522 160.028 345.522 141.005C345.522 121.982 330.1 106.561 311.077 106.561C292.054 106.561 276.633 121.982 276.633 141.005C276.633 160.028 292.054 175.449 311.077 175.449Z" fill="#D9D9D9"/>
</mask>
<g mask="url(#mask1_241_2935)">
<path d="M335.489 149.386L335.673 146.99L340.722 147.378L341.758 133.907L341.553 133.891L337.037 138.027L335.383 136.293L340.35 131.674L344.806 132.017L343.606 147.6L347.959 147.935L347.775 150.331L335.489 149.386Z" fill="#050B7D"/>
<path d="M325.476 149.227C324.339 149.184 323.358 148.94 322.53 148.495C321.72 148.033 321.055 147.396 320.534 146.583C320.032 145.772 319.672 144.784 319.458 143.621C319.244 142.459 319.164 141.137 319.221 139.657C319.276 138.194 319.455 136.892 319.757 135.747C320.06 134.587 320.492 133.622 321.055 132.85C321.636 132.079 322.348 131.503 323.19 131.121C324.049 130.723 325.046 130.545 326.182 130.588C327.319 130.631 328.292 130.884 329.101 131.346C329.929 131.791 330.594 132.419 331.098 133.231C331.618 134.044 331.986 135.04 332.199 136.22C332.413 137.383 332.493 138.696 332.438 140.159C332.382 141.639 332.202 142.95 331.901 144.094C331.598 145.237 331.157 146.194 330.577 146.965C330.013 147.736 329.301 148.321 328.442 148.719C327.601 149.101 326.611 149.27 325.476 149.227ZM325.565 146.852C326.874 146.901 327.821 146.455 328.408 145.512C329.014 144.552 329.348 143.247 329.41 141.594L329.527 138.497C329.59 136.844 329.356 135.526 328.825 134.541C328.311 133.539 327.4 133.013 326.093 132.964C325.438 132.939 324.874 133.047 324.4 133.287C323.926 133.511 323.534 133.857 323.223 134.329C322.913 134.782 322.676 135.342 322.513 136.008C322.367 136.657 322.279 137.394 322.248 138.221L322.13 141.319C322.099 142.144 322.13 142.896 322.226 143.572C322.339 144.23 322.532 144.806 322.806 145.299C323.082 145.775 323.447 146.151 323.901 146.426C324.356 146.686 324.912 146.827 325.565 146.852ZM325.771 141.431C325.169 141.408 324.751 141.272 324.52 141.022C324.306 140.772 324.205 140.475 324.218 140.131L324.239 139.563C324.252 139.219 324.376 138.93 324.608 138.698C324.858 138.466 325.284 138.362 325.887 138.385C326.489 138.407 326.898 138.544 327.112 138.793C327.345 139.043 327.453 139.34 327.44 139.685L327.419 140.252C327.406 140.597 327.275 140.885 327.024 141.116C326.791 141.349 326.374 141.453 325.771 141.431Z" fill="#050B7D"/>
<path d="M304.525 148.623V146.221H309.588V132.71H309.382L305.197 137.179L303.414 135.578L308.012 130.592H312.482V146.221H316.847V148.623H304.525Z" fill="#050B7D"/>
<path d="M294.534 149.226C293.398 149.269 292.4 149.1 291.541 148.719C290.699 148.321 289.988 147.736 289.407 146.965C288.844 146.194 288.411 145.236 288.109 144.093C287.807 142.95 287.629 141.639 287.571 140.159C287.517 138.696 287.596 137.382 287.81 136.22C288.024 135.039 288.383 134.044 288.886 133.232C289.407 132.419 290.072 131.791 290.882 131.346C291.71 130.884 292.691 130.631 293.827 130.588C294.963 130.545 295.952 130.723 296.794 131.122C297.653 131.503 298.364 132.079 298.928 132.851C299.509 133.622 299.95 134.587 300.254 135.747C300.555 136.891 300.734 138.194 300.79 139.657C300.846 141.137 300.766 142.458 300.552 143.621C300.337 144.784 299.969 145.772 299.449 146.585C298.946 147.396 298.28 148.033 297.454 148.495C296.643 148.94 295.67 149.183 294.534 149.226ZM294.444 146.851C295.752 146.802 296.663 146.284 297.177 145.3C297.708 144.297 297.941 142.97 297.879 141.318L297.762 138.22C297.699 136.569 297.366 135.271 296.761 134.329C296.173 133.369 295.225 132.913 293.917 132.963C293.263 132.988 292.709 133.138 292.254 133.414C291.798 133.672 291.434 134.048 291.159 134.541C290.885 135.017 290.691 135.594 290.578 136.27C290.483 136.928 290.451 137.67 290.482 138.497L290.599 141.594C290.631 142.42 290.719 143.167 290.865 143.833C291.028 144.482 291.265 145.042 291.576 145.512C291.886 145.967 292.277 146.313 292.752 146.553C293.226 146.777 293.79 146.876 294.444 146.851ZM294.239 141.431C293.636 141.453 293.21 141.349 292.96 141.116C292.726 140.884 292.604 140.597 292.591 140.252L292.569 139.684C292.556 139.339 292.656 139.043 292.872 138.794C293.103 138.544 293.521 138.407 294.122 138.385C294.725 138.361 295.143 138.466 295.375 138.699C295.626 138.93 295.757 139.219 295.77 139.562L295.792 140.131C295.805 140.475 295.695 140.772 295.464 141.022C295.249 141.271 294.84 141.407 294.239 141.431Z" fill="#050B7D"/>
<path d="M273.6 150.223L273.416 147.828L278.464 147.439L277.427 133.968L277.222 133.985L273.392 138.762L271.492 137.301L275.694 131.977L280.15 131.635L281.349 147.218L285.702 146.883L285.887 149.278L273.6 150.223Z" fill="#050B7D"/>
</g>
<path d="M364.355 194.287L335.293 165.225M344.98 141.006C344.98 159.732 329.8 174.912 311.074 174.912C292.348 174.912 277.168 159.732 277.168 141.006C277.168 122.28 292.348 107.1 311.074 107.1C329.8 107.1 344.98 122.28 344.98 141.006Z" stroke="#050B7D" stroke-width="2.15278" stroke-linecap="round" stroke-linejoin="round"/>
<path d="M310 176.525V256.178" stroke="#070FA0" stroke-width="1.61458" stroke-linejoin="round" stroke-dasharray="8.61 8.61"/>
<path d="M733.758 245.249L603.108 179.922C597.46 177.099 594.636 175.687 591.674 175.131C589.05 174.638 586.357 174.638 583.734 175.131C580.772 175.687 577.948 177.099 572.3 179.922L441.65 245.249C436.692 247.727 434.213 248.966 433.418 250.643C432.725 252.103 432.725 253.797 433.418 255.257C434.213 256.934 436.692 258.173 441.65 260.652L572.3 325.978C577.948 328.801 580.772 330.213 583.734 330.769C586.357 331.262 589.05 331.262 591.674 330.769C594.636 330.213 597.46 328.801 603.108 325.978L733.758 260.652C738.716 258.173 741.195 256.934 741.99 255.257C742.682 253.797 742.682 252.103 741.99 250.643C741.195 248.966 738.716 247.727 733.758 245.249Z" fill="url(#paint1_linear_241_2935)" stroke="#070FA0" stroke-width="1.61458" stroke-linecap="round" stroke-linejoin="round"/>
<path d="M341.212 252.95C341.212 235.71 327.236 221.734 309.997 221.734C292.757 221.734 278.781 235.71 278.781 252.95C278.781 270.189 292.757 284.165 309.997 284.165C327.236 284.165 341.212 270.189 341.212 252.95Z" fill="#FFF6E5"/>
<path d="M341.212 252.95C341.212 235.71 327.236 221.734 309.997 221.734C292.757 221.734 278.781 235.71 278.781 252.95C278.781 270.189 292.757 284.165 309.997 284.165C327.236 284.165 341.212 270.189 341.212 252.95Z" stroke="#070FA0" stroke-width="1.61458" stroke-linecap="round" stroke-linejoin="round"/>
<path d="M305.964 251.604L310 255.64L323.455 242.185M315.382 240.84H304.349C302.089 240.84 300.958 240.84 300.095 241.28C299.335 241.667 298.717 242.284 298.331 243.044C297.891 243.908 297.891 245.038 297.891 247.298V258.6C297.891 260.861 297.891 261.991 298.331 262.854C298.717 263.614 299.335 264.232 300.095 264.618C300.958 265.059 302.089 265.059 304.349 265.059H315.651C317.911 265.059 319.042 265.059 319.905 264.618C320.665 264.232 321.283 263.614 321.669 262.854C322.109 261.991 322.109 260.861 322.109 258.6V252.949" stroke="#070FA0" stroke-width="1.61458" stroke-linecap="round" stroke-linejoin="round"/>
</g>
</g>
<defs>
<linearGradient id="paint0_linear_241_2935" x1="311.077" y1="106.561" x2="311.077" y2="175.449" gradientUnits="userSpaceOnUse">
<stop stop-color="#BFEAFF"/>
<stop offset="1" stop-color="#A5C0EE"/>
</linearGradient>
<linearGradient id="paint1_linear_241_2935" x1="587.704" y1="172.221" x2="587.704" y2="333.679" gradientUnits="userSpaceOnUse">
<stop stop-color="#BFEAFF"/>
<stop offset="1" stop-color="#A5C0EE"/>
</linearGradient>
<clipPath id="clip0_241_2935">
<rect width="630" height="431" fill="white"/>
</clipPath>
</defs>
</svg>
