<svg width="142" height="45" viewBox="0 0 142 45" fill="none" xmlns="http://www.w3.org/2000/svg">
<g clip-path="url(#clip0_241_1928)">
<path d="M0 0H44.5499V45H0V0Z" fill="#B72A1E"/>
<path d="M30.4263 14.4704V10.2207H17.1887V19.3388H16.8296H14.332V22.2404H15.1237H17.1887V24.5345H16.746H14.332V27.4388H15.0383H17.1887V36.3657H22.2942V27.4388H26.8271L28.1088 24.5345H22.2942V23.5604V22.2404H29.1474L30.4263 19.3388H22.2942V14.4704H30.4263Z" fill="white"/>
<path d="M67.7716 17.9914H72.156V32.2142H67.7716V17.9914ZM84.9416 32.1852V30.1827H84.8877C84.3883 30.9473 83.7023 31.5691 82.8959 31.9882C82.0894 32.4072 81.1897 32.6094 80.2834 32.5752C76.3427 32.5752 73.6688 28.9873 73.6688 25.0086C73.6688 21.0298 76.1534 17.4973 80.2259 17.4973C81.1113 17.4614 81.9908 17.6578 82.7787 18.0674C83.5666 18.477 84.236 19.0858 84.7216 19.8345H84.7782V10.1577H88.7431V32.1889L84.9416 32.1852ZM84.9137 25.0648C84.9137 22.918 83.7564 20.8948 81.2765 20.8948C78.9915 20.8948 77.8045 22.9573 77.8045 25.122C77.8045 27.372 79.0444 29.3502 81.3851 29.3502C83.645 29.3502 84.9119 27.4592 84.9119 25.0648M104.601 25.0648V26.1777H94.2458C94.2524 27.0611 94.6027 27.9065 95.221 28.5313C95.8394 29.1561 96.6762 29.5102 97.5508 29.517C98.1352 29.5372 98.7131 29.3879 99.2162 29.0869C99.7193 28.7859 100.127 28.3457 100.39 27.8183L104.249 28.1202C103.285 31.047 100.692 32.5752 97.3587 32.5752C93.0838 32.5752 90.1111 29.6277 90.1111 25.0648C90.1111 20.4467 93.0811 17.4973 97.3587 17.4973C101.636 17.4973 104.606 20.4467 104.606 25.0648M100.642 23.6183C100.598 22.7916 100.242 22.0134 99.6471 21.4439C99.0521 20.8745 98.2637 20.5571 97.4441 20.5571C96.6245 20.5571 95.836 20.8745 95.2411 21.4439C94.6461 22.0134 94.2899 22.7916 94.2458 23.6183H100.642ZM106.044 10.5308V32.187H110.016V10.1558H106.044V10.5308ZM113.938 9.65234C113.324 9.66891 112.741 9.92409 112.308 10.3647C111.876 10.8053 111.629 11.3974 111.618 12.0177C111.623 12.4787 111.764 12.9278 112.021 13.3086C112.278 13.6894 112.641 13.9848 113.064 14.1578C113.487 14.3308 113.952 14.3735 114.399 14.2807C114.846 14.1879 115.256 13.9637 115.577 13.6362C115.898 13.3087 116.116 12.8926 116.204 12.4401C116.292 11.9877 116.245 11.5192 116.07 11.0934C115.895 10.6677 115.599 10.3037 115.22 10.0473C114.841 9.7909 114.395 9.65348 113.938 9.65234ZM69.961 9.65234C69.3485 9.6708 68.7665 9.92682 68.3358 10.3672C67.9051 10.8077 67.6589 11.3987 67.6482 12.0177C67.653 12.4787 67.7926 12.9279 68.0497 13.3089C68.3067 13.6899 68.6695 13.9855 69.0926 14.1586C69.5156 14.3317 69.9798 14.3745 70.4269 14.2816C70.8739 14.1888 71.2838 13.9643 71.6048 13.6367C71.9258 13.309 72.1437 12.8927 72.231 12.4402C72.3184 11.9877 72.2712 11.5192 72.0954 11.0937C71.9197 10.6682 71.6232 10.3048 71.2434 10.0491C70.8636 9.79348 70.4174 9.65706 69.961 9.65703M111.951 32.1852H115.924V17.8864H111.951V32.1852ZM125.33 29.0408C125.069 29.1026 124.801 29.1312 124.533 29.1261C123.512 29.1261 123.24 28.8195 123.24 28.1802V20.9436H125.33V17.8855H123.24V13.4127H119.268V17.8855H117.453V20.9436H119.268V28.6245C119.268 31.7117 120.84 32.352 123.431 32.352C124.067 32.3372 124.701 32.2814 125.33 32.1852V29.0408ZM130.249 36.253H134.396L141.257 17.8855H136.895L133.892 27.3439H133.838L130.831 17.8855H126.483L131.798 32.1852L130.249 36.253ZM52.4375 21.9711V24.4611H54.5211V32.2667H58.9008V24.4611H63.0374L64.1344 21.9711H58.9027V20.518H64.7813L65.8792 18.027H58.9027V13.8486H65.8765V10.2195H54.523V18.0317H52.4375V20.5227H54.5211V21.9758L52.4375 21.9711Z" fill="#035A90"/>
<path d="M55.73 44.9074H54.5234V39.8749H55.73V44.9074ZM60.1246 42.0424L61.9381 44.9074H63.1446V39.8749H61.9381V42.7024L60.1246 39.8749H58.918V44.9074H60.1246V42.0424ZM68.2278 40.8658H69.3694V39.8749H65.8686V40.8621H67.0185V44.9074H68.225L68.2278 40.8658ZM73.1895 40.8658H74.8313V39.8749H71.9811V44.9074H74.8313V43.9164H73.1895V42.8758H74.8313V41.8877H73.1895V40.8658ZM79.0764 42.9611L80.166 44.9074H81.613L80.5159 43.0605C80.8207 42.9476 81.0802 42.7365 81.2543 42.4598C81.4284 42.1831 81.5075 41.8562 81.4793 41.5296C81.4922 41.2897 81.4504 41.0501 81.357 40.8292C81.2637 40.6083 81.1214 40.412 80.941 40.2555C80.5079 39.9713 79.9941 39.8395 79.4792 39.8805H77.8653V44.9074H79.0718L79.0764 42.9611ZM79.0764 42.2758V40.8761H79.5405C79.6346 40.8685 79.7293 40.8813 79.8181 40.9136C79.907 40.9459 79.988 40.997 80.0557 41.0635C80.1235 41.13 80.1764 41.2103 80.2109 41.2991C80.2455 41.3878 80.2609 41.483 80.2561 41.5783C80.2561 42.0152 79.9656 42.2711 79.4662 42.2711L79.0764 42.2758ZM85.8061 42.0424L87.6206 44.9074H88.8271V39.8749H87.6206V42.7024L85.8061 39.8749H84.5996V44.9074H85.8061V42.0424ZM94.7661 44.1836L94.9832 44.9074H96.3113L94.6779 39.8777H93.1391L91.4973 44.9074H92.7883L93.0045 44.1836H94.7661ZM94.4681 43.1946H93.3034L93.8853 41.3196L94.4681 43.1946ZM100.692 40.8658H101.834V39.8749H98.3328V40.8621H99.4827V44.9074H100.689L100.692 40.8658ZM106.25 39.8786H105.044V44.9074H106.25V39.8786ZM114.314 42.4042C114.316 42.0473 114.25 41.6934 114.119 41.3617C113.997 41.0505 113.813 40.7673 113.58 40.5293C113.347 40.2912 113.069 40.103 112.762 39.9761C112.438 39.8435 112.091 39.776 111.741 39.7774C111.563 39.7768 111.385 39.7922 111.209 39.8233C111.041 39.8523 110.877 39.8975 110.717 39.9583C110.562 40.0164 110.413 40.0899 110.272 40.1777C110.133 40.2647 110.002 40.3655 109.883 40.4786C109.75 40.6054 109.629 40.7451 109.523 40.8958C109.42 41.0426 109.333 41.1997 109.262 41.3645C109.191 41.5278 109.138 41.6981 109.102 41.8727C109.066 42.0494 109.048 42.2294 109.048 42.4099C109.047 42.7533 109.116 43.0933 109.249 43.4092C109.382 43.7252 109.577 44.0106 109.823 44.2483C110.067 44.4852 110.354 44.6726 110.668 44.8005C111 44.9342 111.354 45.0027 111.711 45.0021C112.06 45.0025 112.404 44.933 112.726 44.7977C113.348 44.5366 113.846 44.0405 114.111 43.4149C114.247 43.0945 114.316 42.7497 114.316 42.4014M110.278 42.3939C110.277 42.1917 110.314 41.991 110.386 41.8024C110.453 41.6278 110.554 41.4684 110.682 41.3336C110.81 41.2006 110.962 41.0951 111.131 41.0233C111.311 40.9487 111.503 40.9108 111.697 40.9117C111.888 40.9105 112.078 40.9495 112.253 41.0261C112.421 41.0999 112.572 41.2078 112.696 41.343C112.823 41.4815 112.922 41.6435 112.988 41.8202C113.06 42.0114 113.095 42.2141 113.094 42.4183C113.095 42.6129 113.057 42.8056 112.984 42.9855C112.914 43.1577 112.812 43.3147 112.683 43.4477C112.554 43.5822 112.4 43.6892 112.23 43.7623C112.059 43.8354 111.876 43.8732 111.691 43.8733C111.504 43.8743 111.319 43.8368 111.147 43.7632C110.974 43.6895 110.819 43.5812 110.69 43.4449C110.56 43.3097 110.459 43.1505 110.39 42.9761C110.317 42.7915 110.28 42.5945 110.28 42.3958M118.177 42.0414L119.991 44.9064H121.198V39.8749H119.991V42.7024L118.177 39.8749H116.97V44.9074H118.177V42.0414ZM127.19 44.1827L127.407 44.9064H128.735L127.1 39.8767H125.562L123.918 44.9074H125.208L125.424 44.1836L127.19 44.1827ZM126.891 43.1936H125.727L126.31 41.3186L126.891 43.1936ZM132.652 43.9192V39.8749H131.446V44.9074H134.275V43.9164L132.652 43.9192Z" fill="#035A90"/>
</g>
<defs>
<clipPath id="clip0_241_1928">
<rect width="142" height="45" fill="white"/>
</clipPath>
</defs>
</svg>
