<svg width="200" height="93" viewBox="0 0 200 93" fill="none" xmlns="http://www.w3.org/2000/svg">
<path d="M155.551 1.97868C156.717 1.30568 157.3 0.969075 157.919 0.837375C158.468 0.720875 159.034 0.720875 159.583 0.837375C160.202 0.969075 160.785 1.30568 161.951 1.97868L195.388 21.2837C196.554 21.9567 197.137 22.2933 197.561 22.7641C197.936 23.1807 198.219 23.6714 198.392 24.2045C198.588 24.8071 198.588 25.4801 198.588 26.8262V65.4362C198.588 66.7822 198.588 67.4552 198.392 68.0582C198.219 68.5912 197.936 69.0822 197.561 69.4982C197.137 69.9692 196.554 70.3052 195.388 70.9792L161.951 90.2832C160.785 90.9572 160.202 91.2932 159.583 91.4252C159.034 91.5412 158.468 91.5412 157.919 91.4252C157.3 91.2932 156.717 90.9572 155.551 90.2832L122.114 70.9792C120.948 70.3052 120.365 69.9692 119.941 69.4982C119.566 69.0822 119.283 68.5912 119.11 68.0582C118.914 67.4552 118.914 66.7822 118.914 65.4362V26.8262C118.914 25.4801 118.914 24.8071 119.11 24.2045C119.283 23.6714 119.566 23.1807 119.941 22.7641C120.365 22.2933 120.948 21.9567 122.114 21.2837L155.551 1.97868Z" fill="url(#paint0_linear_262_4054)" stroke="#070FA0" stroke-width="1.5" stroke-linecap="round" stroke-linejoin="round"/>
<path d="M145.551 1.97868C146.717 1.30568 147.3 0.969075 147.919 0.837375C148.468 0.720875 149.034 0.720875 149.583 0.837375C150.202 0.969075 150.785 1.30568 151.951 1.97868L185.388 21.2837C186.554 21.9567 187.137 22.2933 187.561 22.7641C187.936 23.1807 188.219 23.6714 188.392 24.2045C188.588 24.8071 188.588 25.4801 188.588 26.8262V65.4362C188.588 66.7822 188.588 67.4552 188.392 68.0582C188.219 68.5912 187.936 69.0822 187.561 69.4982C187.137 69.9692 186.554 70.3052 185.388 70.9792L151.951 90.2832C150.785 90.9572 150.202 91.2932 149.583 91.4252C149.034 91.5412 148.468 91.5412 147.919 91.4252C147.3 91.2932 146.717 90.9572 145.551 90.2832L112.114 70.9792C110.948 70.3052 110.365 69.9692 109.941 69.4982C109.566 69.0822 109.283 68.5912 109.11 68.0582C108.914 67.4552 108.914 66.7822 108.914 65.4362V26.8262C108.914 25.4801 108.914 24.8071 109.11 24.2045C109.283 23.6714 109.566 23.1807 109.941 22.7641C110.365 22.2933 110.948 21.9567 112.114 21.2837L145.551 1.97868Z" fill="url(#paint1_linear_262_4054)" stroke="#070FA0" stroke-width="1.5" stroke-linecap="round" stroke-linejoin="round"/>
<path d="M135.551 1.97868C136.717 1.30568 137.3 0.969075 137.919 0.837375C138.468 0.720875 139.034 0.720875 139.583 0.837375C140.202 0.969075 140.785 1.30568 141.951 1.97868L175.388 21.2837C176.554 21.9567 177.137 22.2933 177.561 22.7641C177.936 23.1807 178.219 23.6714 178.392 24.2045C178.588 24.8071 178.588 25.4801 178.588 26.8262V65.4362C178.588 66.7822 178.588 67.4552 178.392 68.0582C178.219 68.5912 177.936 69.0822 177.561 69.4982C177.137 69.9692 176.554 70.3052 175.388 70.9792L141.951 90.2832C140.785 90.9572 140.202 91.2932 139.583 91.4252C139.034 91.5412 138.468 91.5412 137.919 91.4252C137.3 91.2932 136.717 90.9572 135.551 90.2832L102.114 70.9792C100.948 70.3052 100.365 69.9692 99.9411 69.4982C99.5661 69.0822 99.2831 68.5912 99.1101 68.0582C98.9141 67.4552 98.9141 66.7822 98.9141 65.4362V26.8262C98.9141 25.4801 98.9141 24.8071 99.1101 24.2045C99.2831 23.6714 99.5661 23.1807 99.9411 22.7641C100.365 22.2933 100.948 21.9567 102.114 21.2837L135.551 1.97868Z" fill="url(#paint2_linear_262_4054)" stroke="#070FA0" stroke-width="1.5" stroke-linecap="round" stroke-linejoin="round"/>
<path d="M120.75 64.1313H156.75M126.75 58.1313V42.1313M134.75 58.1313V42.1313M142.75 58.1313V42.1313M150.75 58.1313V42.1313M154.75 36.1313L139.598 26.6613C139.29 26.469 139.137 26.3728 138.972 26.3354C138.826 26.3022 138.674 26.3022 138.528 26.3354C138.363 26.3728 138.21 26.469 137.902 26.6613L122.75 36.1313H154.75Z" stroke="#070FA0" stroke-width="1.5" stroke-linecap="round" stroke-linejoin="round"/>
<path d="M0.75 46.1309C0.75 38.6758 0.750002 34.9483 1.968 32.008C3.592 28.0875 6.707 24.9727 10.627 23.3488C13.567 22.1309 17.295 22.1309 24.75 22.1309H88.75C96.205 22.1309 99.933 22.1309 102.873 23.3488C106.793 24.9727 109.908 28.0875 111.532 32.008C112.75 34.9483 112.75 38.6758 112.75 46.1309C112.75 53.5859 112.75 57.3139 111.532 60.2539C109.908 64.1739 106.793 67.2889 102.873 68.9129C99.933 70.1309 96.205 70.1309 88.75 70.1309H24.75C17.295 70.1309 13.567 70.1309 10.627 68.9129C6.707 67.2889 3.592 64.1739 1.968 60.2539C0.750002 57.3139 0.75 53.5859 0.75 46.1309Z" fill="#FFF6E5"/>
<path d="M0.75 46.1309C0.75 38.6758 0.750002 34.9483 1.968 32.008C3.592 28.0875 6.707 24.9727 10.627 23.3488C13.567 22.1309 17.295 22.1309 24.75 22.1309H88.75C96.205 22.1309 99.933 22.1309 102.873 23.3488C106.793 24.9727 109.908 28.0875 111.532 32.008C112.75 34.9483 112.75 38.6758 112.75 46.1309C112.75 53.5859 112.75 57.3139 111.532 60.2539C109.908 64.1739 106.793 67.2889 102.873 68.9129C99.933 70.1309 96.205 70.1309 88.75 70.1309H24.75C17.295 70.1309 13.567 70.1309 10.627 68.9129C6.707 67.2889 3.592 64.1739 1.968 60.2539C0.750002 57.3139 0.75 53.5859 0.75 46.1309Z" stroke="#070FA0" stroke-width="1.5" stroke-linecap="round" stroke-linejoin="round"/>
<path d="M24.75 50.1308C26.959 50.1308 28.75 48.34 28.75 46.1309C28.75 43.9217 26.959 42.1309 24.75 42.1309C22.541 42.1309 20.75 43.9217 20.75 46.1309C20.75 48.34 22.541 50.1308 24.75 50.1308Z" stroke="#070FA0" stroke-width="1.5" stroke-linecap="round" stroke-linejoin="round"/>
<path d="M33.721 49.7666C33.559 50.1322 33.511 50.5382 33.582 50.9312C33.654 51.3242 33.841 51.6872 34.121 51.9732L34.193 52.0452C34.419 52.2702 34.598 52.5382 34.72 52.8322C34.842 53.1262 34.904 53.4422 34.904 53.7602C34.904 54.0792 34.842 54.3942 34.72 54.6892C34.598 54.9832 34.419 55.2502 34.193 55.4762C33.968 55.7012 33.701 55.8802 33.407 56.0022C33.112 56.1242 32.797 56.1872 32.478 56.1872C32.16 56.1872 31.844 56.1242 31.55 56.0022C31.256 55.8802 30.988 55.7012 30.763 55.4762L30.69 55.4032C30.405 55.1232 30.042 54.9362 29.649 54.8652C29.255 54.7932 28.85 54.8412 28.484 55.0032C28.126 55.1562 27.82 55.4122 27.605 55.7372C27.389 56.0622 27.274 56.4432 27.272 56.8332V57.0392C27.272 57.6822 27.017 58.2992 26.562 58.7532C26.107 59.2082 25.491 59.4632 24.848 59.4632C24.205 59.4632 23.588 59.2082 23.134 58.7532C22.679 58.2992 22.424 57.6822 22.424 57.0392V56.9302C22.414 56.5292 22.284 56.1402 22.051 55.8132C21.818 55.4872 21.491 55.2382 21.115 55.1002C20.749 54.9382 20.343 54.8902 19.95 54.9622C19.557 55.0332 19.194 55.2202 18.909 55.5002L18.836 55.5732C18.611 55.7982 18.343 55.9772 18.049 56.0992C17.755 56.2212 17.439 56.2842 17.121 56.2842C16.802 56.2842 16.487 56.2212 16.192 56.0992C15.898 55.9772 15.631 55.7982 15.406 55.5732C15.18 55.3472 15.001 55.0802 14.879 54.7862C14.757 54.4912 14.695 54.1762 14.695 53.8572C14.695 53.5392 14.757 53.2232 14.879 52.9292C15.001 52.6352 15.18 52.3672 15.406 52.1422L15.478 52.0692C15.758 51.7842 15.945 51.4212 16.016 51.0282C16.088 50.6352 16.04 50.2292 15.878 49.8636C15.725 49.5051 15.469 49.1994 15.144 48.984C14.819 48.7686 14.438 48.653 14.048 48.6515H13.842C13.199 48.6515 12.582 48.3961 12.128 47.9414C11.673 47.4868 11.418 46.8702 11.418 46.2273C11.418 45.5843 11.673 44.9677 12.128 44.5131C12.582 44.0584 13.199 43.803 13.842 43.803H13.951C14.352 43.7936 14.741 43.6638 15.068 43.4303C15.394 43.1968 15.643 42.8706 15.781 42.4939C15.943 42.1283 15.991 41.7228 15.919 41.3296C15.848 40.9364 15.661 40.5735 15.381 40.2879L15.309 40.2151C15.083 39.99 14.904 39.7226 14.782 39.4283C14.66 39.134 14.598 38.8186 14.598 38.5C14.598 38.1814 14.66 37.8659 14.782 37.5716C14.904 37.2773 15.083 37.01 15.309 36.7848C15.534 36.5594 15.801 36.3806 16.095 36.2586C16.39 36.1366 16.705 36.0738 17.024 36.0738C17.342 36.0738 17.658 36.1366 17.952 36.2586C18.246 36.3806 18.514 36.5594 18.739 36.7848L18.812 36.8576C19.097 37.137 19.46 37.3244 19.853 37.3957C20.246 37.467 20.652 37.4189 21.018 37.2576H21.115C21.473 37.1039 21.779 36.8488 21.994 36.5236C22.21 36.1984 22.325 35.8173 22.327 35.4273V35.2212C22.327 34.5782 22.582 33.9616 23.037 33.507C23.491 33.0524 24.108 32.7969 24.751 32.7969C25.394 32.7969 26.011 33.0524 26.465 33.507C26.92 33.9616 27.175 34.5782 27.175 35.2212V35.3303C27.177 35.7203 27.292 36.1014 27.508 36.4266C27.723 36.7518 28.029 37.0069 28.387 37.1606C28.753 37.3219 29.158 37.3701 29.552 37.2988C29.945 37.2275 30.308 37.04 30.593 36.7606L30.666 36.6879C30.891 36.4625 31.159 36.2837 31.453 36.1617C31.747 36.0397 32.063 35.9769 32.381 35.9769C32.7 35.9769 33.015 36.0397 33.31 36.1617C33.604 36.2837 33.871 36.4625 34.096 36.6879C34.322 36.913 34.501 37.1804 34.623 37.4747C34.745 37.769 34.807 38.0844 34.807 38.403C34.807 38.7216 34.745 39.0371 34.623 39.3313C34.501 39.6256 34.322 39.893 34.096 40.1182L34.024 40.1909C33.744 40.4766 33.557 40.8394 33.486 41.2326C33.414 41.6258 33.462 42.0314 33.624 42.3969V42.4939C33.777 42.8524 34.032 43.1582 34.358 43.3735C34.683 43.5889 35.064 43.7045 35.454 43.706H35.66C36.303 43.706 36.92 43.9615 37.374 44.4161C37.829 44.8707 38.084 45.4873 38.084 46.1303C38.084 46.7732 37.829 47.3898 37.374 47.8445C36.92 48.2991 36.303 48.5545 35.66 48.5545H35.551C35.161 48.5561 34.78 48.6717 34.455 48.887C34.129 49.1024 33.874 49.4081 33.721 49.7666Z" stroke="#070FA0" stroke-width="1.5" stroke-linecap="round" stroke-linejoin="round"/>
<path d="M58.79 41.2661C58.027 41.8102 57.093 42.1303 56.084 42.1303C53.507 42.1303 51.418 40.0409 51.418 37.4636C51.418 34.8863 53.507 32.7969 56.084 32.7969C57.755 32.7969 59.221 33.6748 60.045 34.9945M48.751 56.9132H52.231C52.685 56.9132 53.136 56.9672 53.576 57.0752L57.253 57.9692C58.051 58.1632 58.883 58.1822 59.689 58.0252L63.755 57.2342C64.829 57.0252 65.817 56.5112 66.591 55.7572L69.468 52.9592C70.29 52.1612 70.29 50.8672 69.468 50.0677C68.728 49.3482 67.557 49.2672 66.72 49.8774L63.368 52.3232C62.888 52.6742 62.303 52.8632 61.702 52.8632H58.465H60.526C61.687 52.8632 62.628 51.9482 62.628 50.8182V50.4092C62.628 49.4709 61.972 48.6529 61.036 48.4261L57.856 47.6526C57.338 47.5271 56.808 47.4636 56.275 47.4636C54.989 47.4636 52.66 48.5287 52.66 48.5287L48.751 50.1632M67.418 38.7969C67.418 41.3743 65.328 43.4636 62.751 43.4636C60.174 43.4636 58.084 41.3743 58.084 38.7969C58.084 36.2196 60.174 34.1303 62.751 34.1303C65.328 34.1303 67.418 36.2196 67.418 38.7969ZM43.418 49.5969V57.3302C43.418 58.0772 43.418 58.4502 43.563 58.7352C43.691 58.9862 43.895 59.1902 44.146 59.3182C44.431 59.4632 44.804 59.4632 45.551 59.4632H46.618C47.364 59.4632 47.738 59.4632 48.023 59.3182C48.274 59.1902 48.478 58.9862 48.606 58.7352C48.751 58.4502 48.751 58.0772 48.751 57.3302V49.5969C48.751 48.8502 48.751 48.4768 48.606 48.1916C48.478 47.9407 48.274 47.7368 48.023 47.6089C47.738 47.4636 47.364 47.4636 46.618 47.4636H45.551C44.804 47.4636 44.431 47.4636 44.146 47.6089C43.895 47.7368 43.691 47.9407 43.563 48.1916C43.418 48.4768 43.418 48.8502 43.418 49.5969Z" stroke="#070FA0" stroke-width="1.5" stroke-linecap="round" stroke-linejoin="round"/>
<path d="M87.818 58.9513C88.114 59.1233 88.261 59.2093 88.469 59.2543C88.631 59.2883 88.867 59.2883 89.029 59.2543C89.237 59.2093 89.385 59.1233 89.68 58.9513C92.277 57.4363 99.416 52.6763 99.416 46.1313V39.7548C99.416 38.6887 99.416 38.1557 99.241 37.6976C99.087 37.2928 98.837 36.9317 98.512 36.6453C98.144 36.3212 97.645 36.1341 96.647 35.7598L89.498 33.0789C89.221 32.9749 89.082 32.9229 88.94 32.9023C88.813 32.8841 88.685 32.8841 88.558 32.9023C88.416 32.9229 88.277 32.9749 88 33.0789L80.851 35.7598C79.853 36.1341 79.354 36.3212 78.986 36.6453C78.661 36.9317 78.411 37.2928 78.257 37.6976C78.082 38.1557 78.082 38.6887 78.082 39.7548V46.1313C78.082 52.6763 85.221 57.4363 87.818 58.9513Z" stroke="#070FA0" stroke-width="1.5" stroke-linecap="round" stroke-linejoin="round"/>
<defs>
<linearGradient id="paint0_linear_262_4054" x1="158.751" y1="0.131175" x2="158.751" y2="92.1312" gradientUnits="userSpaceOnUse">
<stop stop-color="#BFEAFF"/>
<stop offset="1" stop-color="#A5C0EE"/>
</linearGradient>
<linearGradient id="paint1_linear_262_4054" x1="148.751" y1="0.131175" x2="148.751" y2="92.1312" gradientUnits="userSpaceOnUse">
<stop stop-color="#BFEAFF"/>
<stop offset="1" stop-color="#A5C0EE"/>
</linearGradient>
<linearGradient id="paint2_linear_262_4054" x1="138.751" y1="0.131175" x2="138.751" y2="92.1312" gradientUnits="userSpaceOnUse">
<stop stop-color="#BFEAFF"/>
<stop offset="1" stop-color="#A5C0EE"/>
</linearGradient>
</defs>
</svg>
