<svg width="630" height="431" viewBox="0 0 630 431" fill="none" xmlns="http://www.w3.org/2000/svg">
<g clip-path="url(#clip0_241_2895)">
<g clip-path="url(#clip1_241_2895)">
<path d="M456.055 145.143L325.405 79.8172C319.757 76.9932 316.933 75.5812 313.97 75.0253C311.347 74.5332 308.654 74.5332 306.031 75.0253C303.069 75.5812 300.244 76.9932 294.597 79.8172L163.947 145.143C158.989 147.622 156.51 148.861 155.714 150.538C155.022 151.997 155.022 153.692 155.714 155.151C156.51 156.828 158.989 158.067 163.947 160.546L294.597 225.872C300.244 228.695 303.069 230.108 306.031 230.663C308.654 231.156 311.347 231.156 313.97 230.663C316.933 230.108 319.757 228.695 325.405 225.872L456.055 160.546C461.013 158.067 463.492 156.828 464.287 155.151C464.979 153.692 464.979 151.997 464.287 150.538C463.492 148.861 461.013 147.622 456.055 145.143Z" fill="#FFF6E5" stroke="#070FA0" stroke-width="1.61458" stroke-linecap="round" stroke-linejoin="round"/>
<path d="M242.723 135.427H244.601L247.464 140.41H247.581L250.445 135.427H252.323L248.347 142.085V146.387H246.699V142.085L242.723 135.427ZM255.864 146.553C255.094 146.553 254.421 146.377 253.847 146.023C253.272 145.67 252.827 145.176 252.509 144.541C252.192 143.906 252.032 143.163 252.032 142.315C252.032 141.462 252.192 140.717 252.509 140.077C252.827 139.439 253.272 138.944 253.847 138.59C254.421 138.237 255.094 138.06 255.864 138.06C256.635 138.06 257.308 138.237 257.881 138.59C258.456 138.944 258.902 139.439 259.219 140.077C259.537 140.717 259.696 141.462 259.696 142.315C259.696 143.163 259.537 143.906 259.219 144.541C258.902 145.176 258.456 145.67 257.881 146.023C257.308 146.377 256.635 146.553 255.864 146.553ZM255.87 145.21C256.369 145.21 256.784 145.078 257.112 144.814C257.439 144.55 257.682 144.199 257.839 143.76C258 143.321 258.08 142.837 258.08 142.31C258.08 141.785 258 141.304 257.839 140.864C257.682 140.422 257.439 140.068 257.112 139.8C256.784 139.532 256.369 139.398 255.87 139.398C255.367 139.398 254.949 139.532 254.618 139.8C254.29 140.068 254.045 140.422 253.885 140.864C253.728 141.304 253.649 141.785 253.649 142.31C253.649 142.837 253.728 143.321 253.885 143.76C254.045 144.199 254.29 144.55 254.618 144.814C254.949 145.078 255.367 145.21 255.87 145.21ZM266.688 142.978V138.168H268.294V146.387H266.721V144.964H266.636C266.446 145.402 266.143 145.768 265.726 146.061C265.312 146.35 264.796 146.494 264.179 146.494C263.651 146.494 263.184 146.379 262.777 146.146C262.374 145.912 262.057 145.563 261.824 145.103C261.596 144.642 261.482 144.074 261.482 143.396V138.168H263.083V143.203C263.083 143.763 263.238 144.21 263.548 144.541C263.858 144.873 264.261 145.039 264.757 145.039C265.057 145.039 265.355 144.964 265.651 144.814C265.95 144.664 266.199 144.438 266.395 144.134C266.595 143.831 266.693 143.446 266.688 142.978ZM270.444 146.387V138.168H271.991V139.474H272.077C272.226 139.031 272.49 138.684 272.868 138.43C273.25 138.173 273.682 138.044 274.163 138.044C274.263 138.044 274.381 138.049 274.517 138.055C274.656 138.062 274.765 138.071 274.843 138.082V139.612C274.779 139.594 274.665 139.575 274.501 139.553C274.336 139.529 274.173 139.516 274.008 139.516C273.63 139.516 273.293 139.596 272.997 139.757C272.704 139.914 272.472 140.133 272.301 140.415C272.13 140.693 272.045 141.011 272.045 141.368V146.387H270.444ZM280.215 146.387V138.168H281.816V146.387H280.215ZM281.024 136.899C280.746 136.899 280.506 136.806 280.307 136.621C280.111 136.432 280.012 136.207 280.012 135.946C280.012 135.683 280.111 135.458 280.307 135.273C280.506 135.083 280.746 134.989 281.024 134.989C281.303 134.989 281.539 135.083 281.735 135.273C281.936 135.458 282.036 135.683 282.036 135.946C282.036 136.207 281.936 136.432 281.735 136.621C281.539 136.806 281.303 136.899 281.024 136.899ZM285.568 141.507V146.387H283.969V138.168H285.505V139.506H285.606C285.795 139.07 286.091 138.72 286.494 138.456C286.901 138.193 287.413 138.06 288.03 138.06C288.59 138.06 289.081 138.179 289.501 138.413C289.922 138.646 290.25 138.991 290.481 139.452C290.713 139.912 290.829 140.481 290.829 141.159V146.387H289.229V141.352C289.229 140.756 289.074 140.291 288.763 139.955C288.453 139.616 288.027 139.447 287.484 139.447C287.113 139.447 286.784 139.526 286.494 139.688C286.209 139.848 285.983 140.083 285.815 140.394C285.65 140.701 285.568 141.072 285.568 141.507ZM296.887 138.168V139.452H292.242V138.168H296.887ZM293.515 146.387V137.215C293.515 136.701 293.627 136.275 293.852 135.936C294.077 135.593 294.375 135.338 294.746 135.171C295.117 134.999 295.521 134.914 295.955 134.914C296.276 134.914 296.552 134.941 296.78 134.994C297.008 135.044 297.177 135.091 297.288 135.134L296.913 136.429C296.838 136.407 296.742 136.382 296.625 136.353C296.507 136.321 296.365 136.306 296.197 136.306C295.808 136.306 295.529 136.402 295.361 136.594C295.198 136.787 295.116 137.065 295.116 137.43V146.387H293.515ZM298.538 146.387V138.168H300.084V139.474H300.17C300.319 139.031 300.584 138.684 300.962 138.43C301.344 138.173 301.776 138.044 302.257 138.044C302.357 138.044 302.474 138.049 302.61 138.055C302.749 138.062 302.858 138.071 302.937 138.082V139.612C302.872 139.594 302.758 139.575 302.594 139.553C302.43 139.529 302.265 139.516 302.102 139.516C301.724 139.516 301.386 139.596 301.09 139.757C300.798 139.914 300.566 140.133 300.394 140.415C300.223 140.693 300.137 141.011 300.137 141.368V146.387H298.538ZM306.64 146.569C306.119 146.569 305.647 146.473 305.226 146.281C304.806 146.084 304.472 145.801 304.226 145.429C303.983 145.058 303.863 144.604 303.863 144.064C303.863 143.601 303.951 143.219 304.13 142.919C304.308 142.62 304.549 142.383 304.852 142.208C305.155 142.033 305.494 141.901 305.869 141.812C306.244 141.722 306.626 141.654 307.014 141.608C307.506 141.551 307.906 141.505 308.212 141.469C308.52 141.431 308.743 141.368 308.882 141.282C309.021 141.197 309.091 141.057 309.091 140.864V140.828C309.091 140.36 308.958 139.998 308.695 139.741C308.434 139.484 308.045 139.355 307.528 139.355C306.99 139.355 306.564 139.475 306.254 139.714C305.948 139.949 305.736 140.212 305.617 140.501L304.113 140.158C304.292 139.659 304.553 139.256 304.895 138.948C305.241 138.638 305.639 138.413 306.089 138.275C306.537 138.131 307.011 138.06 307.506 138.06C307.835 138.06 308.182 138.1 308.55 138.179C308.921 138.253 309.267 138.392 309.588 138.595C309.913 138.799 310.179 139.089 310.386 139.468C310.592 139.843 310.696 140.329 310.696 140.929V146.387H309.134V145.264H309.069C308.966 145.47 308.811 145.674 308.603 145.874C308.396 146.073 308.131 146.239 307.807 146.371C307.481 146.504 307.093 146.569 306.64 146.569ZM306.987 145.285C307.43 145.285 307.808 145.198 308.122 145.022C308.439 144.848 308.681 144.62 308.844 144.338C309.012 144.053 309.096 143.747 309.096 143.423V142.363C309.039 142.42 308.928 142.474 308.764 142.524C308.603 142.57 308.42 142.611 308.212 142.647C308.006 142.679 307.804 142.709 307.608 142.737C307.411 142.763 307.248 142.784 307.115 142.802C306.805 142.841 306.521 142.907 306.265 143C306.012 143.092 305.809 143.226 305.655 143.401C305.505 143.573 305.43 143.801 305.43 144.086C305.43 144.482 305.576 144.782 305.869 144.985C306.162 145.185 306.534 145.285 306.987 145.285ZM318.987 140.174L317.536 140.432C317.476 140.245 317.379 140.069 317.248 139.901C317.118 139.734 316.944 139.596 316.723 139.49C316.502 139.382 316.225 139.328 315.893 139.328C315.44 139.328 315.062 139.431 314.759 139.634C314.455 139.833 314.304 140.093 314.304 140.41C314.304 140.685 314.406 140.905 314.609 141.073C314.813 141.241 315.141 141.379 315.594 141.485L316.9 141.785C317.655 141.96 318.219 142.229 318.591 142.593C318.961 142.957 319.147 143.429 319.147 144.012C319.147 144.504 319.004 144.943 318.719 145.328C318.437 145.709 318.043 146.009 317.536 146.227C317.033 146.444 316.45 146.553 315.787 146.553C314.865 146.553 314.115 146.357 313.533 145.964C312.952 145.568 312.595 145.006 312.463 144.279L314.01 144.043C314.106 144.447 314.304 144.751 314.604 144.959C314.903 145.162 315.294 145.264 315.776 145.264C316.3 145.264 316.719 145.155 317.033 144.937C317.348 144.716 317.504 144.447 317.504 144.129C317.504 143.872 317.408 143.656 317.215 143.481C317.026 143.307 316.735 143.174 316.343 143.086L314.952 142.78C314.184 142.606 313.617 142.327 313.25 141.946C312.886 141.564 312.704 141.081 312.704 140.495C312.704 140.011 312.84 139.586 313.111 139.222C313.382 138.858 313.757 138.574 314.235 138.371C314.713 138.164 315.261 138.06 315.877 138.06C316.765 138.06 317.465 138.253 317.975 138.638C318.485 139.02 318.822 139.532 318.987 140.174ZM324.743 138.168V139.452H320.254V138.168H324.743ZM321.457 136.198H323.058V143.974C323.058 144.284 323.104 144.518 323.197 144.675C323.289 144.829 323.409 144.933 323.555 144.99C323.705 145.044 323.867 145.071 324.042 145.071C324.171 145.071 324.283 145.062 324.38 145.044C324.475 145.027 324.551 145.012 324.604 145.001L324.893 146.323C324.801 146.358 324.668 146.395 324.497 146.43C324.326 146.469 324.112 146.491 323.854 146.494C323.434 146.501 323.042 146.426 322.678 146.27C322.314 146.113 322.019 145.87 321.794 145.541C321.57 145.214 321.457 144.802 321.457 144.306V136.198ZM326.513 146.387V138.168H328.06V139.474H328.145C328.296 139.031 328.559 138.684 328.937 138.43C329.319 138.173 329.751 138.044 330.232 138.044C330.332 138.044 330.451 138.049 330.585 138.055C330.725 138.062 330.834 138.071 330.912 138.082V139.612C330.848 139.594 330.734 139.575 330.57 139.553C330.405 139.529 330.242 139.516 330.077 139.516C329.699 139.516 329.362 139.596 329.066 139.757C328.774 139.914 328.541 140.133 328.37 140.415C328.199 140.693 328.114 141.011 328.114 141.368V146.387H326.513ZM337.503 142.978V138.168H339.109V146.387H337.535V144.964H337.45C337.261 145.402 336.957 145.768 336.541 146.061C336.126 146.35 335.611 146.494 334.994 146.494C334.465 146.494 333.998 146.379 333.591 146.146C333.189 145.912 332.871 145.563 332.639 145.103C332.411 144.642 332.297 144.074 332.297 143.396V138.168H333.897V143.203C333.897 143.763 334.052 144.21 334.362 144.541C334.673 144.873 335.076 145.039 335.572 145.039C335.871 145.039 336.169 144.964 336.465 144.814C336.765 144.664 337.013 144.438 337.209 144.134C337.409 143.831 337.507 143.446 337.503 142.978ZM344.721 146.553C343.926 146.553 343.24 146.373 342.666 146.013C342.096 145.649 341.657 145.147 341.35 144.509C341.043 143.871 340.889 143.139 340.889 142.315C340.889 141.48 341.047 140.744 341.361 140.104C341.674 139.463 342.116 138.961 342.688 138.601C343.258 138.241 343.931 138.06 344.705 138.06C345.329 138.06 345.886 138.177 346.375 138.408C346.863 138.636 347.257 138.958 347.558 139.371C347.861 139.786 348.041 140.269 348.098 140.822H346.54C346.455 140.437 346.258 140.104 345.952 139.827C345.649 139.548 345.242 139.409 344.732 139.409C344.286 139.409 343.896 139.526 343.56 139.762C343.228 139.995 342.97 140.326 342.784 140.758C342.599 141.186 342.506 141.692 342.506 142.278C342.506 142.877 342.596 143.394 342.778 143.83C342.96 144.265 343.218 144.602 343.549 144.841C343.885 145.079 344.279 145.199 344.732 145.199C345.036 145.199 345.31 145.144 345.555 145.033C345.806 144.919 346.014 144.757 346.182 144.547C346.353 144.336 346.473 144.083 346.54 143.787H348.098C348.041 144.318 347.868 144.792 347.579 145.21C347.29 145.627 346.903 145.956 346.418 146.195C345.935 146.434 345.37 146.553 344.721 146.553ZM353.646 138.168V139.452H349.156V138.168H353.646ZM350.36 136.198H351.96V143.974C351.96 144.284 352.006 144.518 352.1 144.675C352.192 144.829 352.312 144.933 352.458 144.99C352.608 145.044 352.771 145.071 352.945 145.071C353.073 145.071 353.186 145.062 353.282 145.044C353.379 145.027 353.453 145.012 353.507 145.001L353.796 146.323C353.703 146.358 353.571 146.395 353.4 146.43C353.229 146.469 353.015 146.491 352.758 146.494C352.337 146.501 351.944 146.426 351.58 146.27C351.216 146.113 350.922 145.87 350.697 145.541C350.472 145.214 350.36 144.802 350.36 144.306V136.198ZM360.623 142.978V138.168H362.228V146.387H360.655V144.964H360.569C360.381 145.402 360.077 145.768 359.659 146.061C359.246 146.35 358.73 146.494 358.113 146.494C357.585 146.494 357.118 146.379 356.711 146.146C356.308 145.912 355.99 145.563 355.759 145.103C355.53 144.642 355.416 144.074 355.416 143.396V138.168H357.016V143.203C357.016 143.763 357.171 144.21 357.482 144.541C357.792 144.873 358.196 145.039 358.691 145.039C358.991 145.039 359.288 144.964 359.585 144.814C359.884 144.664 360.132 144.438 360.329 144.134C360.528 143.831 360.626 143.446 360.623 142.978ZM364.378 146.387V138.168H365.925V139.474H366.01C366.16 139.031 366.425 138.684 366.802 138.43C367.184 138.173 367.616 138.044 368.097 138.044C368.197 138.044 368.315 138.049 368.45 138.055C368.589 138.062 368.699 138.071 368.776 138.082V139.612C368.713 139.594 368.599 139.575 368.434 139.553C368.271 139.529 368.106 139.516 367.942 139.516C367.564 139.516 367.226 139.596 366.93 139.757C366.638 139.914 366.406 140.133 366.235 140.415C366.064 140.693 365.978 141.011 365.978 141.368V146.387H364.378ZM373.41 146.553C372.6 146.553 371.902 146.38 371.318 146.034C370.735 145.684 370.287 145.194 369.969 144.563C369.655 143.928 369.498 143.184 369.498 142.331C369.498 141.489 369.655 140.747 369.969 140.104C370.287 139.463 370.729 138.961 371.296 138.601C371.867 138.241 372.534 138.06 373.297 138.06C373.761 138.06 374.211 138.137 374.646 138.291C375.081 138.445 375.472 138.685 375.818 139.013C376.164 139.341 376.437 139.768 376.636 140.292C376.836 140.813 376.937 141.447 376.937 142.192V142.759H370.403V141.561H375.368C375.368 141.14 375.283 140.766 375.112 140.442C374.94 140.114 374.7 139.855 374.389 139.666C374.082 139.477 373.722 139.382 373.308 139.382C372.859 139.382 372.466 139.493 372.13 139.714C371.799 139.932 371.543 140.217 371.361 140.57C371.182 140.92 371.093 141.3 371.093 141.71V142.647C371.093 143.196 371.189 143.663 371.381 144.048C371.578 144.434 371.851 144.729 372.2 144.932C372.55 145.131 372.958 145.231 373.426 145.231C373.729 145.231 374.006 145.188 374.255 145.103C374.505 145.014 374.721 144.881 374.903 144.707C375.085 144.533 375.224 144.316 375.32 144.059L376.834 144.332C376.714 144.778 376.496 145.169 376.182 145.505C375.872 145.836 375.481 146.095 375.01 146.281C374.543 146.463 374.009 146.553 373.41 146.553Z" fill="#070FA0"/>
<path opacity="0.6" d="M456.055 134.379L325.405 69.0535C319.757 66.2295 316.933 64.8175 313.97 64.2617C311.347 63.7695 308.654 63.7695 306.031 64.2617C303.069 64.8175 300.244 66.2295 294.597 69.0535L163.947 134.379C158.989 136.858 156.51 138.097 155.714 139.774C155.022 141.234 155.022 142.928 155.714 144.387C156.51 146.064 158.989 147.303 163.947 149.782L294.597 215.108C300.244 217.932 303.069 219.344 306.031 219.899C308.654 220.392 311.347 220.392 313.97 219.899C316.933 219.344 319.757 217.932 325.405 215.108L456.055 149.782C461.013 147.303 463.492 146.064 464.287 144.387C464.979 142.928 464.979 141.234 464.287 139.774C463.492 138.097 461.013 136.858 456.055 134.379Z" stroke="#070FA0" stroke-width="1.61458" stroke-linecap="round" stroke-linejoin="round"/>
<path opacity="0.3" d="M456.055 123.615L325.405 58.2899C319.757 55.4659 316.933 54.0538 313.97 53.498C311.347 53.0059 308.654 53.0059 306.031 53.498C303.069 54.0538 300.244 55.4659 294.597 58.2899L163.947 123.615C158.989 126.094 156.51 127.333 155.714 129.01C155.022 130.47 155.022 132.164 155.714 133.624C156.51 135.301 158.989 136.54 163.947 139.019L294.597 204.345C300.244 207.168 303.069 208.58 306.031 209.136C308.654 209.629 311.347 209.629 313.97 209.136C316.933 208.58 319.757 207.168 325.405 204.345L456.055 139.019C461.013 136.54 463.492 135.301 464.287 133.624C464.979 132.164 464.979 130.47 464.287 129.01C463.492 127.333 461.013 126.094 456.055 123.615Z" stroke="#070FA0" stroke-width="1.61458" stroke-linecap="round" stroke-linejoin="round"/>
<path opacity="0.1" d="M456.055 112.852L325.405 47.5262C319.757 44.7022 316.933 43.2902 313.97 42.7343C311.347 42.2422 308.654 42.2422 306.031 42.7343C303.069 43.2902 300.244 44.7022 294.597 47.5262L163.947 112.852C158.989 115.331 156.51 116.57 155.714 118.247C155.022 119.706 155.022 121.4 155.714 122.86C156.51 124.537 158.989 125.776 163.947 128.255L294.597 193.581C300.244 196.404 303.069 197.817 306.031 198.372C308.654 198.865 311.347 198.865 313.97 198.372C316.933 197.817 319.757 196.404 325.405 193.581L456.055 128.255C461.013 125.776 463.492 124.537 464.287 122.86C464.979 121.4 464.979 119.706 464.287 118.247C463.492 116.57 461.013 115.331 456.055 112.852Z" stroke="#070FA0" stroke-width="1.61458" stroke-linecap="round" stroke-linejoin="round"/>
<path d="M399.089 335.867C399.089 336.312 399.449 336.674 399.896 336.674H407.162C407.607 336.674 407.969 336.312 407.969 335.867C407.969 335.421 407.607 335.059 407.162 335.059H400.703V328.601C400.703 328.155 400.342 327.794 399.896 327.794C399.449 327.794 399.089 328.155 399.089 328.601V335.867ZM396.851 187.475C395.17 189.156 395.17 191.881 396.851 193.563C398.532 195.245 401.259 195.245 402.94 193.563C404.621 191.881 404.621 189.156 402.94 187.475C401.259 185.792 398.532 185.792 396.851 187.475ZM399.896 190.519L399.324 191.089C439.146 230.911 439.146 295.474 399.324 335.296L399.896 335.867L400.466 336.437C440.918 295.985 440.918 230.4 400.466 189.948L399.896 190.519Z" fill="#070FA0"/>
<path d="M400.416 208.818C410.522 208.818 418.714 200.625 418.714 190.519C418.714 180.413 410.522 172.221 400.416 172.221C390.31 172.221 382.117 180.413 382.117 190.519C382.117 200.625 390.31 208.818 400.416 208.818Z" fill="#FFF6E5"/>
<path d="M400.416 208.818C410.522 208.818 418.714 200.625 418.714 190.519C418.714 180.413 410.522 172.221 400.416 172.221C390.31 172.221 382.117 180.413 382.117 190.519C382.117 200.625 390.31 208.818 400.416 208.818Z" fill="url(#paint0_linear_241_2895)"/>
<path d="M400.416 208.818C410.522 208.818 418.714 200.625 418.714 190.519C418.714 180.413 410.522 172.221 400.416 172.221C390.31 172.221 382.117 180.413 382.117 190.519C382.117 200.625 390.31 208.818 400.416 208.818Z" stroke="#070FA0" stroke-width="1.61458" stroke-linecap="round" stroke-linejoin="round"/>
<path d="M399.664 200.868C399.902 201.007 400.022 201.077 400.19 201.112C400.321 201.14 400.511 201.14 400.642 201.112C400.81 201.077 400.929 201.007 401.167 200.868C403.264 199.644 409.027 195.801 409.027 190.518V186.428C409.027 185.272 409.027 184.694 408.848 184.284C408.667 183.867 408.488 183.645 408.116 183.383C407.75 183.125 407.035 182.976 405.602 182.678C404.023 182.35 402.81 181.757 401.701 180.899C401.17 180.488 400.904 180.282 400.696 180.226C400.476 180.167 400.356 180.167 400.136 180.226C399.927 180.282 399.661 180.488 399.131 180.899C398.022 181.757 396.809 182.35 395.23 182.678C393.797 182.976 393.081 183.125 392.715 183.383C392.344 183.645 392.164 183.867 391.983 184.284C391.805 184.694 391.805 185.272 391.805 186.428V190.518C391.805 195.801 397.568 199.644 399.664 200.868Z" stroke="#070FA0" stroke-width="1.61458" stroke-linecap="round" stroke-linejoin="round"/>
<path d="M470.384 251.604H392.884C383.818 251.604 376.469 258.953 376.469 268.018C376.469 277.084 383.818 284.433 392.884 284.433H470.384C479.449 284.433 486.799 277.084 486.799 268.018C486.799 258.953 479.449 251.604 470.384 251.604Z" fill="white"/>
<path d="M470.384 251.604H392.884C383.818 251.604 376.469 258.953 376.469 268.018C376.469 277.084 383.818 284.433 392.884 284.433H470.384C479.449 284.433 486.799 277.084 486.799 268.018C486.799 258.953 479.449 251.604 470.384 251.604Z" fill="url(#paint1_linear_241_2895)"/>
<path d="M470.384 251.604H392.884C383.818 251.604 376.469 258.953 376.469 268.018C376.469 277.084 383.818 284.433 392.884 284.433H470.384C479.449 284.433 486.799 277.084 486.799 268.018C486.799 258.953 479.449 251.604 470.384 251.604Z" fill="#FFF6E5"/>
<path d="M470.384 251.604H392.884C383.818 251.604 376.469 258.953 376.469 268.018C376.469 277.084 383.818 284.433 392.884 284.433H470.384C479.449 284.433 486.799 277.084 486.799 268.018C486.799 258.953 479.449 251.604 470.384 251.604Z" stroke="#070FA0" stroke-width="1.61458"/>
<path d="M391.342 262.996L386.422 267.917L391.342 272.838V269.148L396.263 265.457H391.342V262.996Z" fill="#070FA0"/>
<path d="M403.646 267.917L398.726 262.996V266.687L393.805 270.378H398.726V272.838L403.646 267.917Z" fill="#070FA0"/>
<path d="M413.33 273.401V272.299L419.093 263.865H413.281V262.441H421.115V263.543L415.352 271.978H421.164V273.401H413.33ZM423.238 273.401V262.441H424.891V267.675H425.025L429.622 262.441H431.704L427.283 267.375L431.72 273.401H429.728L426.186 268.504L424.891 269.992V273.401H423.238ZM437.104 276.484V265.182H438.667V266.514H438.8C438.893 266.342 439.027 266.145 439.202 265.92C439.377 265.695 439.619 265.499 439.929 265.331C440.24 265.16 440.651 265.074 441.161 265.074C441.824 265.074 442.416 265.242 442.937 265.578C443.458 265.913 443.867 266.396 444.163 267.028C444.462 267.658 444.612 268.418 444.612 269.307C444.612 270.195 444.464 270.958 444.168 271.593C443.872 272.223 443.465 272.711 442.948 273.053C442.431 273.392 441.84 273.561 441.177 273.561C440.677 273.561 440.268 273.477 439.951 273.309C439.638 273.143 439.391 272.946 439.213 272.722C439.034 272.497 438.897 272.297 438.8 272.122H438.704V276.484H437.104ZM438.672 269.291C438.672 269.869 438.756 270.375 438.924 270.811C439.091 271.246 439.334 271.587 439.652 271.833C439.969 272.076 440.358 272.196 440.819 272.196C441.296 272.196 441.696 272.071 442.017 271.817C442.338 271.56 442.581 271.213 442.744 270.774C442.912 270.334 442.996 269.84 442.996 269.291C442.996 268.749 442.914 268.262 442.75 267.831C442.589 267.399 442.347 267.058 442.022 266.808C441.701 266.558 441.3 266.433 440.819 266.433C440.355 266.433 439.962 266.553 439.641 266.792C439.323 267.031 439.082 267.365 438.919 267.793C438.754 268.22 438.672 268.721 438.672 269.291ZM446.405 273.401V265.182H447.952V266.487H448.037C448.186 266.045 448.451 265.697 448.829 265.443C449.211 265.187 449.643 265.058 450.124 265.058C450.224 265.058 450.341 265.062 450.477 265.069C450.617 265.076 450.726 265.085 450.804 265.096V266.626C450.74 266.608 450.625 266.588 450.461 266.567C450.297 266.542 450.132 266.529 449.969 266.529C449.591 266.529 449.253 266.61 448.957 266.77C448.665 266.928 448.433 267.147 448.262 267.429C448.091 267.707 448.004 268.024 448.004 268.382V273.401H446.405ZM455.356 273.567C454.586 273.567 453.914 273.39 453.339 273.037C452.764 272.684 452.319 272.19 452.001 271.555C451.684 270.92 451.525 270.177 451.525 269.329C451.525 268.475 451.684 267.731 452.001 267.091C452.319 266.453 452.764 265.958 453.339 265.604C453.914 265.251 454.586 265.074 455.356 265.074C456.127 265.074 456.8 265.251 457.373 265.604C457.948 265.958 458.394 266.453 458.711 267.091C459.029 267.731 459.188 268.475 459.188 269.329C459.188 270.177 459.029 270.92 458.711 271.555C458.394 272.19 457.948 272.684 457.373 273.037C456.8 273.39 456.127 273.567 455.356 273.567ZM455.362 272.223C455.861 272.223 456.275 272.092 456.604 271.827C456.931 271.564 457.174 271.213 457.331 270.774C457.492 270.334 457.571 269.851 457.571 269.324C457.571 268.798 457.492 268.317 457.331 267.878C457.174 267.436 456.931 267.081 456.604 266.813C456.275 266.545 455.861 266.412 455.362 266.412C454.859 266.412 454.441 266.545 454.11 266.813C453.781 267.081 453.537 267.436 453.377 267.878C453.22 268.317 453.141 268.798 453.141 269.324C453.141 269.851 453.22 270.334 453.377 270.774C453.537 271.213 453.781 271.564 454.11 271.827C454.441 272.092 454.859 272.223 455.362 272.223ZM464.437 273.567C463.666 273.567 462.993 273.39 462.418 273.037C461.845 272.684 461.399 272.19 461.082 271.555C460.764 270.92 460.605 270.177 460.605 269.329C460.605 268.475 460.764 267.731 461.082 267.091C461.399 266.453 461.845 265.958 462.418 265.604C462.993 265.251 463.666 265.074 464.437 265.074C465.207 265.074 465.879 265.251 466.454 265.604C467.029 265.958 467.474 266.453 467.792 267.091C468.109 267.731 468.267 268.475 468.267 269.329C468.267 270.177 468.109 270.92 467.792 271.555C467.474 272.19 467.029 272.684 466.454 273.037C465.879 273.39 465.207 273.567 464.437 273.567ZM464.442 272.223C464.941 272.223 465.355 272.092 465.683 271.827C466.011 271.564 466.254 271.213 466.411 270.774C466.571 270.334 466.652 269.851 466.652 269.324C466.652 268.798 466.571 268.317 466.411 267.878C466.254 267.436 466.011 267.081 465.683 266.813C465.355 266.545 464.941 266.412 464.442 266.412C463.938 266.412 463.522 266.545 463.189 266.813C462.861 267.081 462.616 267.436 462.456 267.878C462.299 268.317 462.22 268.798 462.22 269.324C462.22 269.851 462.299 270.334 462.456 270.774C462.616 271.213 462.861 271.564 463.189 271.827C463.522 272.092 463.938 272.223 464.442 272.223ZM473.966 265.182V266.466H469.321V265.182H473.966ZM470.595 273.401V264.229C470.595 263.715 470.707 263.288 470.932 262.949C471.157 262.607 471.455 262.352 471.825 262.185C472.196 262.013 472.599 261.928 473.035 261.928C473.356 261.928 473.63 261.955 473.858 262.007C474.088 262.058 474.257 262.104 474.367 262.147L473.993 263.442C473.917 263.421 473.822 263.396 473.703 263.367C473.586 263.335 473.443 263.32 473.276 263.32C472.886 263.32 472.609 263.415 472.441 263.608C472.277 263.801 472.194 264.078 472.194 264.443V273.401H470.595Z" fill="#070FA0"/>
<path d="M525.278 399.338L340.809 307.103C329.512 301.455 323.864 298.631 317.94 297.519C312.692 296.535 307.308 296.535 302.061 297.519C296.137 298.631 290.489 301.455 279.192 307.103L94.7227 399.338" stroke="url(#paint2_linear_241_2895)" stroke-width="1.61458" stroke-linecap="round" stroke-linejoin="round"/>
<path d="M259.945 349.824V359.372L268.015 362.978L259.945 349.824Z" fill="#050B7D" fill-opacity="0.602"/>
<path d="M259.946 349.824L251.875 362.978L259.946 359.372V349.824Z" fill="#4D81FF" fill-opacity="0.2"/>
<path d="M259.945 369.165V375.652L268.02 364.48L259.945 369.165Z" fill="#050B7D" fill-opacity="0.602"/>
<path d="M259.946 375.652V369.164L251.875 364.48L259.946 375.652Z" fill="#4D81FF" fill-opacity="0.2"/>
<path d="M259.945 367.664L268.015 362.979L259.945 359.375V367.664Z" fill="#050B7D"/>
<path d="M251.875 362.979L259.946 367.664V359.375L251.875 362.979Z" fill="#050B7D" fill-opacity="0.602"/>
<path d="M275.613 370.275V354.619H285.429V356.652H277.976V361.423H284.918V363.449H277.976V368.242H285.521V370.275H275.613ZM293.883 358.533V360.367H287.469V358.533H293.883ZM289.189 355.719H291.475V366.828C291.475 367.271 291.541 367.605 291.673 367.829C291.805 368.048 291.977 368.199 292.185 368.28C292.4 368.356 292.631 368.395 292.881 368.395C293.065 368.395 293.225 368.382 293.363 368.356C293.501 368.331 293.607 368.311 293.684 368.296L294.097 370.184C293.965 370.234 293.775 370.285 293.531 370.337C293.287 370.393 292.981 370.423 292.614 370.428C292.012 370.439 291.451 370.331 290.931 370.107C290.411 369.882 289.992 369.536 289.67 369.068C289.349 368.598 289.189 368.009 289.189 367.301V355.719ZM298.949 363.303V370.275H296.663V354.619H298.918V360.443H299.063C299.339 359.812 299.76 359.31 300.325 358.938C300.891 358.566 301.63 358.38 302.542 358.38C303.348 358.38 304.05 358.546 304.652 358.877C305.259 359.208 305.727 359.703 306.059 360.36C306.395 361.012 306.564 361.828 306.564 362.806V370.275H304.278V363.082C304.278 362.221 304.056 361.552 303.612 361.079C303.169 360.6 302.552 360.36 301.762 360.36C301.223 360.36 300.738 360.475 300.31 360.704C299.887 360.933 299.553 361.27 299.309 361.713C299.069 362.152 298.949 362.681 298.949 363.303ZM314.674 370.512C313.517 370.512 312.522 370.266 311.685 369.77C310.854 369.271 310.213 368.57 309.758 367.668C309.311 366.761 309.086 365.698 309.086 364.48C309.086 363.278 309.311 362.217 309.758 361.3C310.213 360.383 310.845 359.666 311.655 359.152C312.47 358.637 313.424 358.38 314.514 358.38C315.177 358.38 315.819 358.49 316.441 358.708C317.062 358.928 317.62 359.271 318.114 359.741C318.609 360.21 318.999 360.818 319.285 361.568C319.57 362.312 319.713 363.216 319.713 364.282V365.092H310.378V363.38H317.473C317.473 362.778 317.35 362.245 317.106 361.781C316.861 361.313 316.517 360.943 316.074 360.674C315.636 360.404 315.12 360.268 314.529 360.268C313.888 360.268 313.327 360.426 312.848 360.742C312.373 361.053 312.006 361.461 311.747 361.966C311.491 362.465 311.364 363.007 311.364 363.594V364.932C311.364 365.717 311.502 366.384 311.777 366.934C312.058 367.485 312.447 367.905 312.947 368.196C313.446 368.481 314.03 368.624 314.697 368.624C315.131 368.624 315.526 368.563 315.882 368.44C316.239 368.313 316.547 368.125 316.808 367.875C317.067 367.625 317.266 367.316 317.404 366.95L319.568 367.34C319.394 367.977 319.083 368.535 318.634 369.014C318.191 369.487 317.633 369.858 316.961 370.122C316.292 370.382 315.531 370.512 314.674 370.512ZM322.249 370.275V358.533H324.458V360.398H324.58C324.795 359.766 325.171 359.269 325.712 358.907C326.257 358.54 326.874 358.357 327.562 358.357C327.704 358.357 327.873 358.362 328.067 358.373C328.265 358.382 328.421 358.395 328.533 358.41V360.597C328.441 360.572 328.278 360.544 328.043 360.512C327.808 360.477 327.575 360.46 327.34 360.46C326.8 360.46 326.319 360.574 325.896 360.803C325.477 361.028 325.145 361.341 324.901 361.744C324.657 362.141 324.534 362.595 324.534 363.104V370.275H322.249ZM335.152 370.512C333.994 370.512 332.998 370.266 332.162 369.77C331.331 369.271 330.689 368.57 330.236 367.668C329.787 366.761 329.563 365.698 329.563 364.48C329.563 363.278 329.787 362.217 330.236 361.3C330.689 360.383 331.321 359.666 332.131 359.152C332.947 358.637 333.9 358.38 334.99 358.38C335.653 358.38 336.296 358.49 336.917 358.708C337.539 358.928 338.097 359.271 338.592 359.741C339.086 360.21 339.475 360.818 339.761 361.568C340.046 362.312 340.189 363.216 340.189 364.282V365.092H330.855V363.38H337.949C337.949 362.778 337.826 362.245 337.582 361.781C337.338 361.313 336.993 360.943 336.55 360.674C336.112 360.404 335.597 360.268 335.006 360.268C334.364 360.268 333.803 360.426 333.324 360.742C332.85 361.053 332.483 361.461 332.223 361.966C331.969 362.465 331.841 363.007 331.841 363.594V364.932C331.841 365.717 331.978 366.384 332.254 366.934C332.534 367.485 332.923 367.905 333.423 368.196C333.922 368.481 334.507 368.624 335.174 368.624C335.607 368.624 336.002 368.563 336.359 368.44C336.716 368.313 337.024 368.125 337.284 367.875C337.544 367.625 337.742 367.316 337.88 366.95L340.044 367.34C339.87 367.977 339.559 368.535 339.112 369.014C338.668 369.487 338.109 369.858 337.437 370.122C336.769 370.382 336.007 370.512 335.152 370.512ZM350.164 365.406V358.533H352.457V370.275H350.209V368.242H350.088C349.817 368.868 349.384 369.392 348.787 369.809C348.196 370.221 347.46 370.428 346.579 370.428C345.824 370.428 345.157 370.262 344.575 369.931C343.999 369.595 343.545 369.098 343.215 368.44C342.889 367.783 342.725 366.97 342.725 366.002V358.533H345.011V365.726C345.011 366.527 345.233 367.163 345.677 367.638C346.12 368.112 346.696 368.348 347.404 368.348C347.831 368.348 348.258 368.242 348.681 368.028C349.109 367.814 349.463 367.49 349.743 367.057C350.028 366.623 350.168 366.073 350.164 365.406ZM355.529 370.275V358.533H357.722V360.443H357.868C358.112 359.797 358.512 359.292 359.068 358.93C359.623 358.563 360.288 358.38 361.063 358.38C361.848 358.38 362.506 358.563 363.035 358.93C363.57 359.297 363.965 359.802 364.221 360.443H364.343C364.623 359.817 365.069 359.318 365.681 358.945C366.293 358.568 367.021 358.38 367.867 358.38C368.932 358.38 369.802 358.714 370.474 359.381C371.151 360.05 371.49 361.056 371.49 362.401V370.275H369.205V362.616C369.205 361.82 368.988 361.244 368.555 360.887C368.122 360.531 367.605 360.352 367.003 360.352C366.259 360.352 365.681 360.581 365.268 361.04C364.855 361.494 364.649 362.077 364.649 362.791V370.275H362.37V362.47C362.37 361.833 362.172 361.321 361.774 360.933C361.377 360.546 360.859 360.352 360.222 360.352C359.789 360.352 359.389 360.467 359.022 360.696C358.66 360.92 358.367 361.234 358.143 361.636C357.924 362.039 357.814 362.506 357.814 363.035V370.275H355.529Z" fill="#050B7D"/>
</g>
</g>
<defs>
<linearGradient id="paint0_linear_241_2895" x1="400.416" y1="172.221" x2="400.416" y2="208.818" gradientUnits="userSpaceOnUse">
<stop stop-color="#BFEAFF"/>
<stop offset="1" stop-color="#A5C0EE"/>
</linearGradient>
<linearGradient id="paint1_linear_241_2895" x1="375.661" y1="268.049" x2="487.518" y2="264.885" gradientUnits="userSpaceOnUse">
<stop stop-color="#FFEAF6"/>
<stop offset="1" stop-color="#98B6FE"/>
</linearGradient>
<linearGradient id="paint2_linear_241_2895" x1="310" y1="291.699" x2="310" y2="399.338" gradientUnits="userSpaceOnUse">
<stop offset="0.5" stop-color="#070FA0"/>
<stop offset="1" stop-color="#070FA0" stop-opacity="0"/>
</linearGradient>
<clipPath id="clip0_241_2895">
<rect width="630" height="431" fill="white"/>
</clipPath>
<clipPath id="clip1_241_2895">
<rect width="620" height="430.55" fill="white"/>
</clipPath>
</defs>
</svg>
