<svg width="96" height="96" viewBox="0 0 96 96" fill="none" xmlns="http://www.w3.org/2000/svg">
<g clip-path="url(#clip0_256_259)">
<g clip-path="url(#clip1_256_259)">
<path d="M85.4123 60.706L55.1542 45.577C52.5306 44.2652 51.2188 43.6093 49.8428 43.3511C48.6241 43.1225 47.3735 43.1225 46.1548 43.3511C44.7788 43.6093 43.467 44.2652 40.8434 45.577L10.5853 60.706C7.82169 62.0879 6.43987 62.7788 5.99644 63.7137C5.61056 64.5273 5.61056 65.4713 5.99644 66.2849C6.43987 67.2198 7.82169 67.9107 10.5853 69.2926L40.8434 84.4216C43.467 85.7334 44.7788 86.3893 46.1548 86.6475C47.3735 86.8761 48.6241 86.8761 49.8428 86.6475C51.2188 86.3893 52.5306 85.7334 55.1542 84.4216L85.4123 69.2926C88.1759 67.9107 89.5578 67.2198 90.0012 66.2849C90.3871 65.4713 90.3871 64.5273 90.0012 63.7137C89.5578 62.7788 88.1759 62.0879 85.4123 60.706Z" fill="#FFF6E5"/>
<path d="M85.4123 60.706L55.1542 45.577C52.5306 44.2652 51.2188 43.6093 49.8428 43.3511C48.6241 43.1225 47.3735 43.1225 46.1548 43.3511C44.7788 43.6093 43.467 44.2652 40.8434 45.577L10.5853 60.706C7.82169 62.0879 6.43987 62.7788 5.99644 63.7137C5.61056 64.5273 5.61056 65.4713 5.99644 66.2849C6.43987 67.2198 7.82169 67.9107 10.5853 69.2926L40.8434 84.4216C43.467 85.7334 44.7788 86.3893 46.1548 86.6475C47.3735 86.8761 48.6241 86.8761 49.8428 86.6475C51.2188 86.3893 52.5306 85.7334 55.1542 84.4216L85.4123 69.2926C88.1759 67.9107 89.5578 67.2198 90.0012 66.2849C90.3871 65.4713 90.3871 64.5273 90.0012 63.7137C89.5578 62.7788 88.1759 62.0879 85.4123 60.706Z" fill="url(#paint0_linear_256_259)"/>
<path d="M85.4123 60.706L55.1542 45.577C52.5306 44.2652 51.2188 43.6093 49.8428 43.3511C48.6241 43.1225 47.3735 43.1225 46.1548 43.3511C44.7788 43.6093 43.467 44.2652 40.8434 45.577L10.5853 60.706C7.82169 62.0879 6.43987 62.7788 5.99644 63.7137C5.61056 64.5273 5.61056 65.4713 5.99644 66.2849C6.43987 67.2198 7.82169 67.9107 10.5853 69.2926L40.8434 84.4216C43.467 85.7334 44.7788 86.3893 46.1548 86.6475C47.3735 86.8761 48.6241 86.8761 49.8428 86.6475C51.2188 86.3893 52.5306 85.7334 55.1542 84.4216L85.4123 69.2926C88.1759 67.9107 89.5578 67.2198 90.0012 66.2849C90.3871 65.4713 90.3871 64.5273 90.0012 63.7137C89.5578 62.7788 88.1759 62.0879 85.4123 60.706Z" stroke="#070FA0" stroke-width="1.5" stroke-linecap="round" stroke-linejoin="round"/>
<path d="M47.4961 53V61.87L54.9931 65.22L47.4961 53Z" fill="#050B7D" fill-opacity="0.602"/>
<path d="M47.498 53L40 65.22L47.498 61.87V53Z" fill="#4D81FF" fill-opacity="0.2"/>
<path d="M47.4961 70.9672V76.9942L54.9981 66.6152L47.4961 70.9672Z" fill="#050B7D" fill-opacity="0.602"/>
<path d="M47.498 76.9942V70.9662L40 66.6152L47.498 76.9942Z" fill="#4D81FF" fill-opacity="0.2"/>
<path d="M47.4961 69.574L54.9931 65.221L47.4961 61.873V69.574Z" fill="#050B7D"/>
<path d="M40 65.221L47.498 69.574V61.873L40 65.221Z" fill="#050B7D" fill-opacity="0.602"/>
<path d="M59.4124 14.706L55.1543 12.577C52.5307 11.2652 51.2189 10.6093 49.8429 10.3511C48.6242 10.1225 47.3736 10.1225 46.1549 10.3511C44.7789 10.6093 43.4671 11.2652 40.8435 12.577L36.5854 14.706C33.8218 16.0879 32.4399 16.7788 31.9965 17.7137C31.6106 18.5273 31.6106 19.4713 31.9965 20.2849C32.4399 21.2198 33.8218 21.9107 36.5854 23.2926L40.8435 25.4216C43.4671 26.7334 44.7789 27.3893 46.1549 27.6475C47.3736 27.8761 48.6242 27.8761 49.8429 27.6475C51.2188 27.3893 52.5307 26.7334 55.1543 25.4216L59.4124 23.2926C62.176 21.9107 63.5579 21.2198 64.0013 20.2849C64.3872 19.4713 64.3872 18.5273 64.0013 17.7137C63.5579 16.7788 62.176 16.0879 59.4124 14.706Z" fill="#FFF6E5" stroke="#070FA0" stroke-width="1.5" stroke-linecap="round" stroke-linejoin="round"/>
<path d="M45 19L47 21L51 17" stroke="#070FA0" stroke-width="1.5" stroke-linecap="round" stroke-linejoin="round"/>
<path d="M60.9141 57.7265C60.9141 58.1407 61.2498 58.4765 61.6641 58.4765H68.4141C68.8283 58.4765 69.1641 58.1407 69.1641 57.7265C69.1641 57.3123 68.8283 56.9765 68.4141 56.9765H62.4141V50.9765C62.4141 50.5623 62.0783 50.2265 61.6641 50.2265C61.2498 50.2265 60.9141 50.5623 60.9141 50.9765V57.7265ZM62.1944 21.8681C61.9015 21.5752 61.4266 21.5752 61.1337 21.8681C60.8408 22.161 60.8408 22.6358 61.1337 22.9287L61.6641 22.3984L62.1944 21.8681ZM61.6641 22.3984L61.1337 22.9287C70.5964 32.3914 70.5964 47.7335 61.1337 57.1962L61.6641 57.7265L62.1944 58.2569C72.2429 48.2084 72.2429 31.9166 62.1944 21.8681L61.6641 22.3984Z" fill="#070FA0"/>
</g>
</g>
<defs>
<linearGradient id="paint0_linear_256_259" x1="47.9988" y1="41.9993" x2="47.9988" y2="87.9993" gradientUnits="userSpaceOnUse">
<stop stop-color="#BFEAFF"/>
<stop offset="1" stop-color="#A5C0EE"/>
</linearGradient>
<clipPath id="clip0_256_259">
<rect width="96" height="96" fill="white"/>
</clipPath>
<clipPath id="clip1_256_259">
<rect width="96" height="96" fill="white"/>
</clipPath>
</defs>
</svg>
