<svg width="201" height="45" viewBox="0 0 201 45" fill="none" xmlns="http://www.w3.org/2000/svg">
<g clip-path="url(#clip0_241_1938)">
<path d="M38.7749 7.17946L27.4489 0.00585938L16.125 7.17946L27.4489 14.3552L38.7749 7.17946Z" fill="black"/>
<path d="M16.125 37.8181L27.4489 44.9939L38.7749 37.8181L27.4489 30.6445L16.125 37.8181Z" fill="black"/>
<path d="M11.326 20.4336L0 27.6072L11.326 34.7808L22.6499 27.6072L11.326 20.4336Z" fill="black"/>
<path d="M43.5739 20.4336L32.25 27.6072L43.5739 34.7808L54.8999 27.6072L43.5739 20.4336Z" fill="black"/>
<path d="M80.1152 10.7642C78.3183 10.7642 76.9109 11.1346 75.893 11.8754C74.8751 12.6162 74.3672 13.6422 74.3672 14.9535C74.3672 15.4835 74.4662 15.9795 74.662 16.4393C74.86 16.8991 75.1462 17.2971 75.525 17.6334C75.9037 17.9698 76.3729 18.2295 76.9324 18.4168C77.4919 18.6041 78.1418 18.6978 78.8843 18.6978C79.956 18.6978 80.9351 18.4721 81.8175 18.0187C82.6998 17.5675 83.3949 16.965 83.8984 16.2179V18.4402H86.3582V10.6237C86.3582 9.85955 86.2312 9.16561 85.9794 8.54191C85.7277 7.91821 85.3554 7.38391 84.8669 6.93902C84.3783 6.49413 83.7736 6.15142 83.057 5.90875C82.3382 5.66608 81.5226 5.54688 80.608 5.54688C79.235 5.54688 78.0557 5.81934 77.0723 6.36641C76.0866 6.91348 75.2775 7.59891 74.647 8.42483L76.9173 9.73609C77.281 9.11239 77.7695 8.61641 78.385 8.25028C79.0005 7.88415 79.7343 7.70109 80.5844 7.70109C81.7206 7.70109 82.5556 7.96717 83.0914 8.49721C83.6273 9.02724 83.8963 9.7148 83.8963 10.5556V10.7664H80.1109L80.1152 10.7642ZM83.9006 13.8295C83.6962 14.251 83.4315 14.6256 83.1087 14.9535C82.7859 15.2813 82.4265 15.558 82.0327 15.7836C81.6388 16.0093 81.2213 16.1859 80.778 16.3094C80.3369 16.435 79.8871 16.4967 79.4287 16.4967C78.5765 16.4967 77.9546 16.3413 77.5608 16.0284C77.167 15.7176 76.969 15.2877 76.969 14.7406C76.969 14.1169 77.2251 13.6337 77.7372 13.2888C78.2494 12.9461 79.0973 12.7737 80.2809 12.7737H83.9006V13.8274V13.8295Z" fill="black"/>
<path d="M97.673 8.7271C98.2239 9.36783 98.5015 10.2257 98.5015 11.3007V18.4381H101.08V11.1155C101.08 10.2576 100.957 9.48065 100.714 8.78671C100.468 8.09276 100.122 7.50738 99.6722 7.03268C99.2224 6.55799 98.6694 6.18973 98.0151 5.93216C97.3609 5.6746 96.6314 5.54688 95.8265 5.54688C94.927 5.54688 94.1351 5.72994 93.4486 6.09607C92.7621 6.4622 92.1983 6.94967 91.7571 7.55846V5.59158L89.25 6.65591V18.4402H91.8044V11.4667C91.8044 10.9047 91.8905 10.3938 92.0648 9.93406C92.2391 9.47426 92.478 9.08472 92.7858 8.76329C93.0935 8.44399 93.455 8.19706 93.8747 8.02677C94.2922 7.85435 94.7462 7.7692 95.2347 7.7692C96.3064 7.7692 97.1199 8.0885 97.6708 8.72923L97.673 8.7271Z" fill="black"/>
<path d="M113.972 13.7594C113.656 14.4938 113.181 15.1048 112.541 15.5965C111.902 16.0882 111.125 16.333 110.211 16.333C109.61 16.333 109.055 16.2244 108.543 16.0052C108.031 15.7859 107.585 15.4858 107.207 15.1048C106.828 14.7216 106.533 14.2746 106.32 13.7594C106.107 13.2443 106.001 12.6994 106.001 12.1204C106.001 11.5414 106.107 10.9964 106.32 10.4834C106.533 9.96829 106.826 9.52127 107.196 9.13811C107.566 8.75708 108.003 8.45694 108.509 8.23768C109.014 8.01843 109.565 7.90987 110.166 7.90987C111.033 7.90987 111.795 8.12912 112.449 8.5655C113.103 9.00188 113.596 9.61067 113.927 10.3898L116.221 9.40632C115.985 8.84435 115.666 8.32709 115.264 7.85027C114.861 7.37558 114.401 6.96474 113.88 6.62203C113.359 6.27931 112.787 6.01323 112.165 5.82591C111.541 5.63858 110.876 5.54492 110.166 5.54492C109.234 5.54492 108.364 5.71309 107.551 6.04729C106.74 6.38362 106.034 6.84767 105.433 7.43944C104.833 8.0312 104.362 8.72728 104.013 9.52127C103.667 10.3174 103.492 11.1838 103.492 12.1182C103.492 13.0527 103.662 13.8957 104 14.6918C104.34 15.4879 104.809 16.1819 105.407 16.7736C106.006 17.3675 106.716 17.8337 107.536 18.1786C108.356 18.5213 109.238 18.6937 110.185 18.6937C111.668 18.6937 112.929 18.3233 113.97 17.5825C115.012 16.8418 115.784 15.886 116.288 14.7152L113.97 13.7552L113.972 13.7594Z" fill="black"/>
<path d="M126.967 8.72753C127.511 9.36826 127.783 10.2261 127.783 11.3011V18.4385H130.384V11.1159C130.384 10.258 130.262 9.48108 130.018 8.78713C129.773 8.09319 129.427 7.50781 128.977 7.03311C128.527 6.55842 127.974 6.19016 127.32 5.93259C126.666 5.67502 125.936 5.5473 125.131 5.5473C124.264 5.5473 123.487 5.72185 122.801 6.07308C122.114 6.42431 121.544 6.89688 121.085 7.48865V0L118.555 1.07285V18.4385H121.109V11.4671C121.109 10.9052 121.195 10.3943 121.37 9.93448C121.544 9.47469 121.783 9.08515 122.09 8.76372C122.398 8.44442 122.76 8.19749 123.179 8.0272C123.597 7.85478 124.042 7.76963 124.516 7.76963C125.605 7.76963 126.42 8.08893 126.965 8.72966L126.967 8.72753Z" fill="black"/>
<path d="M144.153 7.46498C143.553 6.87321 142.849 6.4049 142.035 6.06006C141.222 5.71734 140.359 5.54492 139.444 5.54492C138.53 5.54492 137.648 5.71734 136.843 6.06006C136.038 6.40277 135.336 6.87108 134.738 7.46498C134.138 8.05888 133.666 8.75495 133.318 9.55959C132.971 10.3642 132.797 11.2178 132.797 12.1225C132.797 13.0272 132.971 13.8999 133.318 14.6961C133.664 15.4922 134.138 16.1861 134.738 16.7779C135.336 17.3718 136.04 17.838 136.843 18.1828C137.648 18.5255 138.515 18.6979 139.444 18.6979C140.374 18.6979 141.222 18.5255 142.035 18.1828C142.847 17.8401 143.553 17.3718 144.153 16.7779C144.753 16.184 145.225 15.4901 145.573 14.6961C145.92 13.8999 146.094 13.0421 146.094 12.1225C146.094 11.2029 145.92 10.3642 145.573 9.55959C145.227 8.75708 144.753 8.05888 144.153 7.46498ZM143.243 13.7722C143.03 14.2788 142.737 14.7237 142.367 15.1069C141.997 15.4901 141.562 15.7902 141.065 16.0073C140.568 16.2266 140.028 16.3351 139.444 16.3351C138.861 16.3351 138.321 16.2266 137.824 16.0073C137.327 15.7881 136.892 15.4879 136.522 15.1069C136.152 14.7237 135.863 14.281 135.659 13.7722C135.455 13.2656 135.351 12.7164 135.351 12.1225C135.351 11.5286 135.455 10.9986 135.659 10.4856C135.863 9.97042 136.152 9.5234 136.522 9.14024C136.892 8.75921 137.327 8.45907 137.824 8.23981C138.321 8.02056 138.861 7.912 139.444 7.912C140.028 7.912 140.548 8.02056 141.052 8.23981C141.558 8.45907 141.995 8.75921 142.365 9.14024C142.735 9.5234 143.028 9.97042 143.241 10.4856C143.454 11.0007 143.559 11.5456 143.559 12.1225C143.559 12.6994 143.454 13.2656 143.241 13.7722H143.243Z" fill="black"/>
<path d="M154.516 5.61539C153.696 5.61539 152.977 5.81335 152.364 6.21141C151.749 6.60947 151.307 7.2055 151.038 8.00162V5.58984L148.531 6.65418V18.4385H151.086V11.3266C151.086 10.1878 151.355 9.37674 151.891 8.89353C152.426 8.41033 153.152 8.16766 154.066 8.16766C154.759 8.16766 155.297 8.29325 155.674 8.5423L156.668 6.10924C156.416 5.95385 156.104 5.83251 155.734 5.74736C155.364 5.66222 154.957 5.61964 154.516 5.61964V5.61539Z" fill="black"/>
<path d="M168.096 6.93707C167.607 6.49218 167.003 6.14946 166.286 5.9068C165.567 5.66413 164.752 5.54492 163.837 5.54492C162.464 5.54492 161.285 5.81739 160.301 6.36446C159.316 6.91153 158.507 7.59696 157.876 8.42288L160.146 9.73414C160.508 9.11044 160.999 8.61446 161.612 8.24833C162.227 7.8822 162.961 7.69913 163.811 7.69913C164.948 7.69913 165.783 7.96522 166.318 8.49525C166.854 9.02529 167.123 9.71285 167.123 10.5537V10.7644H163.338C161.541 10.7644 160.131 11.1348 159.116 11.8756C158.098 12.6164 157.59 13.6424 157.59 14.9536C157.59 15.4837 157.689 15.9796 157.885 16.4394C158.083 16.8992 158.369 17.2973 158.748 17.6336C159.126 17.9699 159.596 18.2296 160.155 18.417C160.715 18.6043 161.364 18.6979 162.107 18.6979C163.179 18.6979 164.158 18.4723 165.04 18.0189C165.922 17.5676 166.618 16.9652 167.121 16.2181V18.4404H169.581V10.6239C169.581 9.85973 169.454 9.16578 169.202 8.54208C168.95 7.91839 168.578 7.38409 168.09 6.9392L168.096 6.93707ZM167.125 13.8276C166.921 14.249 166.656 14.6237 166.333 14.9515C166.011 15.2793 165.651 15.556 165.257 15.7817C164.864 16.0073 164.444 16.184 164.003 16.3075C163.562 16.4331 163.112 16.4948 162.654 16.4948C161.801 16.4948 161.179 16.3394 160.786 16.0265C160.392 15.7157 160.194 15.2857 160.194 14.7386C160.194 14.1149 160.45 13.6317 160.962 13.2869C161.474 12.9442 162.322 12.7717 163.506 12.7717H167.125V13.8254V13.8276Z" fill="black"/>
<path d="M182.788 7.62871C182.3 6.97308 181.665 6.4622 180.884 6.09607C180.102 5.72994 179.287 5.54688 178.435 5.54688C177.582 5.54688 176.767 5.70227 175.986 6.01518C175.204 6.3281 174.518 6.77299 173.928 7.34985C173.336 7.92672 172.867 8.61854 172.521 9.42105C172.174 10.2257 172 11.1261 172 12.1245C172 13.1228 172.176 14.0041 172.532 14.8151C172.887 15.6261 173.36 16.3201 173.952 16.8969C174.544 17.4738 175.226 17.9187 175.998 18.2316C176.771 18.5445 177.576 18.6999 178.411 18.6999C179.246 18.6999 180.107 18.5083 180.894 18.1273C181.682 17.7441 182.321 17.2184 182.81 16.5478V17.5313C182.81 18.1081 182.711 18.6339 182.515 19.1107C182.317 19.5854 182.041 19.9963 181.686 20.339C181.331 20.6817 180.905 20.9478 180.408 21.1351C179.911 21.3224 179.356 21.4161 178.74 21.4161C177.699 21.4161 176.855 21.2564 176.209 20.9371C175.562 20.6178 174.987 20.1133 174.483 19.4279L172.426 21.0904C173.119 21.9482 173.967 22.6039 174.97 23.0552C175.97 23.5064 177.244 23.7342 178.79 23.7342C179.704 23.7342 180.559 23.5831 181.357 23.2787C182.153 22.9743 182.848 22.5443 183.438 21.9908C184.03 21.4374 184.495 20.7732 184.835 20.0026C185.175 19.2299 185.342 18.3763 185.342 17.4397V5.80232H182.788V7.62658V7.62871ZM182.612 13.772C182.399 14.2957 182.106 14.747 181.736 15.1301C181.366 15.5133 180.924 15.8177 180.41 16.0433C179.898 16.269 179.341 16.3818 178.742 16.3818C178.144 16.3818 177.587 16.2732 177.074 16.054C176.562 15.8347 176.117 15.5324 175.738 15.1408C175.359 14.7512 175.064 14.2957 174.851 13.772C174.638 13.2505 174.533 12.6928 174.533 12.0989C174.533 11.505 174.638 10.9494 174.851 10.4258C175.064 9.90425 175.359 9.45085 175.738 9.06769C176.117 8.68666 176.562 8.38652 177.074 8.16726C177.587 7.94801 178.142 7.83945 178.742 7.83945C179.343 7.83945 179.898 7.95227 180.41 8.17791C180.922 8.40354 181.363 8.70794 181.736 9.0911C182.106 9.47426 182.399 9.92554 182.612 10.4492C182.825 10.9728 182.93 11.522 182.93 12.0989C182.93 12.6758 182.825 13.2505 182.612 13.772Z" fill="black"/>
<path d="M201.001 12.0033C201.001 11.0667 200.836 10.2046 200.504 9.41697C200.173 8.62936 199.714 7.94606 199.131 7.36919C198.548 6.79232 197.857 6.34317 197.061 6.02387C196.265 5.70457 195.393 5.54492 194.446 5.54492C193.499 5.54492 192.623 5.71734 191.821 6.06006C191.016 6.40277 190.314 6.87108 189.716 7.46498C189.116 8.05888 188.647 8.75495 188.309 9.55959C187.969 10.3642 187.801 11.2327 187.801 12.1693C187.801 13.1059 187.962 13.9468 188.285 14.7429C188.608 15.539 189.068 16.2287 189.669 16.8141C190.267 17.3995 190.981 17.8593 191.81 18.1956C192.639 18.5298 193.564 18.6979 194.59 18.6979C195.978 18.6979 197.145 18.4212 198.092 17.8678C199.039 17.3143 199.818 16.5778 200.433 15.6561L198.328 14.4151C197.95 15.0239 197.457 15.5156 196.85 15.8881C196.243 16.2628 195.49 16.4501 194.59 16.4501C193.407 16.4501 192.438 16.1414 191.681 15.5262C190.923 14.9111 190.45 14.0873 190.261 13.057H201.001V12.0033ZM190.355 10.9028C190.607 9.98319 191.096 9.22964 191.823 8.64426C192.548 8.05888 193.424 7.76725 194.448 7.76725C195.473 7.76725 196.383 8.03972 197.087 8.58679C197.788 9.13385 198.234 9.90443 198.423 10.9028H190.357H190.355Z" fill="black"/>
<path d="M83.8583 28.8304C83.3698 28.2067 82.735 27.715 81.9538 27.3552C81.1726 26.9976 80.357 26.8167 79.5048 26.8167C78.6526 26.8167 77.837 26.9721 77.0558 27.285C76.2747 27.5979 75.5882 28.0428 74.9985 28.6196C74.4067 29.1965 73.9376 29.8883 73.5911 30.6908C73.2446 31.4955 73.0703 32.3959 73.0703 33.3942C73.0703 34.3926 73.2468 35.2738 73.6019 36.0849C73.9569 36.8959 74.4304 37.5898 75.0222 38.1667C75.614 38.7436 76.2962 39.1885 77.0687 39.5014C77.8413 39.8143 78.6462 39.9697 79.4811 39.9697C80.3161 39.9697 81.149 39.7824 81.9301 39.4077C82.7113 39.0331 83.3526 38.5179 83.8583 37.8623V39.71H86.3654V21.2715L83.8583 22.3358V28.8304ZM83.5743 35.044C83.3612 35.5676 83.0686 36.0189 82.6984 36.402C82.3283 36.7852 81.8871 37.0896 81.3728 37.3152C80.8606 37.5409 80.3032 37.6537 79.705 37.6537C79.1067 37.6537 78.5493 37.5451 78.0372 37.3259C77.525 37.1066 77.0795 36.8044 76.7008 36.4127C76.322 36.0231 76.0272 35.5676 75.8141 35.044C75.6011 34.5224 75.4956 33.9647 75.4956 33.3708C75.4956 32.7769 75.6011 32.2213 75.8141 31.6977C76.0272 31.1762 76.322 30.7228 76.7008 30.3396C77.0795 29.9586 77.525 29.6584 78.0372 29.4392C78.5493 29.2199 79.1045 29.1114 79.705 29.1114C80.3054 29.1114 80.8606 29.2242 81.3728 29.4498C81.8849 29.6755 82.3261 29.9799 82.6984 30.363C83.0686 30.7462 83.3612 31.1975 83.5743 31.7211C83.7873 32.2448 83.8928 32.794 83.8928 33.3708C83.8928 33.9477 83.7873 34.5224 83.5743 35.044Z" fill="black"/>
<path d="M90.506 21.7051C90.0412 21.7051 89.6559 21.8583 89.3525 22.1649C89.0491 22.4714 88.8984 22.8546 88.8984 23.3165C88.8984 23.7784 89.0469 24.1616 89.3439 24.4681C89.6409 24.7746 90.0282 24.9279 90.5081 24.9279C90.988 24.9279 91.3797 24.7746 91.6831 24.4681C91.9866 24.1616 92.1372 23.7784 92.1372 23.3165C92.1372 22.8546 91.9844 22.4735 91.6831 22.1649C91.3797 21.8583 90.988 21.7051 90.5081 21.7051H90.506Z" fill="black"/>
<path d="M111.748 21.7051C111.283 21.7051 110.898 21.8583 110.595 22.1649C110.291 22.4714 110.141 22.8546 110.141 23.3165C110.141 23.7784 110.289 24.1616 110.586 24.4681C110.883 24.7746 111.27 24.9279 111.75 24.9279C112.23 24.9279 112.622 24.7746 112.925 24.4681C113.229 24.1616 113.379 23.7784 113.379 23.3165C113.379 22.8546 113.227 22.4735 112.925 22.1649C112.622 21.8583 112.23 21.7051 111.75 21.7051H111.748Z" fill="black"/>
<path d="M91.8086 27.0742H89.2305V39.71H91.8086V27.0742Z" fill="black"/>
<path d="M105.007 28.9002C104.518 28.2446 103.883 27.7337 103.102 27.3676C102.321 27.0014 101.505 26.8184 100.653 26.8184C99.8011 26.8184 98.9855 26.9738 98.2043 27.2867C97.4231 27.5996 96.7366 28.0445 96.147 28.6213C95.5551 29.1982 95.086 29.89 94.7395 30.6925C94.3931 31.4972 94.2188 32.3976 94.2188 33.3959C94.2188 34.3943 94.3952 35.2755 94.7503 36.0866C95.1054 36.8976 95.5788 37.5915 96.1706 38.1684C96.7624 38.7453 97.4446 39.1902 98.2172 39.5031C98.9898 39.816 99.7946 39.9714 100.63 39.9714C101.465 39.9714 102.325 39.7798 103.113 39.3988C103.901 39.0177 104.54 38.4898 105.028 37.8193V38.8027C105.028 39.3796 104.929 39.9054 104.733 40.3822C104.535 40.8569 104.26 41.2677 103.905 41.6105C103.55 41.9532 103.124 42.2193 102.627 42.4066C102.13 42.5939 101.574 42.6876 100.959 42.6876C99.9173 42.6876 99.0737 42.5279 98.4281 42.2086C97.7803 41.8893 97.2057 41.3848 96.7022 40.6994L94.6448 42.3598C95.3378 43.2176 96.1857 43.8732 97.1885 44.3245C98.1892 44.7758 99.4632 45.0036 101.008 45.0036C101.923 45.0036 102.777 44.8524 103.576 44.548C104.372 44.2436 105.067 43.8136 105.657 43.2602C106.248 42.7067 106.713 42.0426 107.051 41.272C107.391 40.4993 107.559 39.6457 107.559 38.7091V27.0802H105.005V28.9045L105.007 28.9002ZM104.83 35.0435C104.617 35.5672 104.325 36.0185 103.954 36.4016C103.584 36.7848 103.143 37.0892 102.629 37.3148C102.117 37.5405 101.559 37.6533 100.961 37.6533C100.363 37.6533 99.8054 37.5447 99.2932 37.3255C98.781 37.1062 98.3355 36.8039 97.9568 36.4123C97.578 36.0227 97.2832 35.5672 97.0702 35.0435C96.8571 34.522 96.7517 33.9643 96.7517 33.3704C96.7517 32.7765 96.8571 32.2209 97.0702 31.6973C97.2832 31.1757 97.578 30.7223 97.9568 30.3392C98.3355 29.9581 98.781 29.658 99.2932 29.4387C99.8054 29.2195 100.361 29.1109 100.961 29.1109C101.561 29.1109 102.117 29.2238 102.629 29.4494C103.141 29.675 103.582 29.9794 103.954 30.3626C104.325 30.7457 104.617 31.197 104.83 31.7207C105.043 32.2443 105.149 32.7935 105.149 33.3704C105.149 33.9473 105.043 34.522 104.83 35.0435Z" fill="black"/>
<path d="M113.004 27.0742H110.426V39.71H113.004V27.0742Z" fill="black"/>
<path d="M121.779 37.5575C121.273 37.5575 120.869 37.4021 120.561 37.0892C120.253 36.7763 120.1 36.2697 120.1 35.5672V29.343H123.673V27.0738H120.1V22.7207L117.593 23.785V27.0738H115.062V29.343H117.593V35.5906C117.593 37.1509 117.94 38.2664 118.635 38.9369C119.328 39.6074 120.313 39.9437 121.592 39.9437C122.128 39.9437 122.62 39.8778 123.07 39.7458C123.52 39.6138 123.924 39.4222 124.288 39.1732L123.081 37.0679C122.702 37.3957 122.27 37.5596 121.779 37.5596V37.5575Z" fill="black"/>
<path d="M135.973 28.2086C135.484 27.7637 134.879 27.4209 134.163 27.1783C133.444 26.9356 132.628 26.8164 131.714 26.8164C130.341 26.8164 129.162 27.0889 128.178 27.6359C127.193 28.183 126.383 28.8684 125.753 29.6944L128.023 31.0056C128.387 30.3819 128.875 29.8859 129.491 29.5198C130.106 29.1537 130.84 28.9706 131.69 28.9706C132.826 28.9706 133.661 29.2367 134.197 29.7667C134.733 30.2968 135.002 30.9843 135.002 31.8252V32.0359H131.217C129.42 32.0359 128.012 32.4063 126.995 33.1471C125.977 33.8878 125.469 34.9138 125.469 36.2251C125.469 36.7551 125.568 37.2511 125.764 37.7109C125.962 38.1707 126.248 38.5688 126.627 38.9051C127.005 39.2414 127.474 39.5011 128.034 39.6884C128.593 39.8758 129.243 39.9694 129.986 39.9694C131.058 39.9694 132.037 39.7438 132.919 39.2904C133.801 38.8391 134.496 38.2367 135 37.4895V39.7119H137.46V31.8954C137.46 31.1312 137.333 30.4373 137.081 29.8136C136.829 29.1899 136.457 28.6556 135.968 28.2107L135.973 28.2086ZM135.002 35.099C134.798 35.5205 134.533 35.8952 134.21 36.223C133.887 36.5508 133.528 36.8275 133.134 37.0532C132.74 37.2788 132.321 37.4555 131.88 37.5789C131.438 37.7045 130.989 37.7663 130.53 37.7663C129.678 37.7663 129.056 37.6109 128.662 37.298C128.269 36.9872 128.071 36.5572 128.071 36.0101C128.071 35.3864 128.327 34.9032 128.839 34.5584C129.351 34.2157 130.199 34.0432 131.382 34.0432H135.002V35.0969V35.099Z" fill="black"/>
<path d="M140.328 39.71H142.906V21.2715L140.328 22.3656V39.71Z" fill="black"/>
</g>
<defs>
<clipPath id="clip0_241_1938">
<rect width="201" height="45" fill="white"/>
</clipPath>
</defs>
</svg>
