<svg width="220" height="45" viewBox="0 0 220 45" fill="none" xmlns="http://www.w3.org/2000/svg">
<g clip-path="url(#clip0_241_1895)">
<path fill-rule="evenodd" clip-rule="evenodd" d="M186.041 33.6039L202.34 11.6181H210.044L193.744 33.6039H186.041ZM176.598 1.49023H219.486V43.7131H176.598V1.49023ZM182.598 7.4005V37.7935H213.447V7.4005H182.598Z" fill="#000088"/>
<path fill-rule="evenodd" clip-rule="evenodd" d="M10.6292 28.4632L9.81141 27.99L8.92319 27.6814L7.96654 27.4747L7.04599 27.3924H3.38954V41.5995H6.49825L7.86479 41.4976L8.99168 41.2909L10.0159 40.9206L10.8708 40.4268L11.5859 39.7881L12.1337 38.9436L12.5435 38.0374L12.8497 36.9882L13.0218 35.794L13.0894 34.4342L13.0218 33.3233L12.8497 32.1908L12.5435 31.12L12.1337 30.1315L11.449 29.2263L10.6292 28.4632ZM8.2385 43.309L6.73791 43.4119H1.13672V25.6016H6.22438L7.42068 25.6633L8.71874 25.7652L9.91316 26.013L11.0752 26.3432L12.2364 26.9407L13.1245 27.7225L13.9091 28.5661L14.5234 29.5957L14.9694 30.6674L15.2433 31.8607L15.4478 33.1372L15.4801 34.4342L15.4478 35.8548L15.2091 37.1939L14.8658 38.4087L14.3893 39.5403L13.7056 40.5297L12.9534 41.3526L11.9967 42.0933L10.9393 42.6693L9.64118 43.0817L8.2385 43.309Z" fill="#000088"/>
<path fill-rule="evenodd" clip-rule="evenodd" d="M22.826 32.2935L21.9311 32.3964L21.1742 32.7667L20.5218 33.1988L20.0406 33.8169L19.6631 34.5576L19.4234 35.3394L19.2865 36.2053H26.0526L25.9832 35.3609L25.8111 34.5576L25.5049 33.8169L25.0218 33.2193L24.4398 32.7658L23.717 32.3954L22.826 32.2935ZM19.2532 37.667V37.9139L19.2874 38.7378L19.4919 39.4999L19.7677 40.2406L20.1443 40.9401L20.6939 41.4759L21.313 41.908L22.0329 42.1539L22.8916 42.2577L23.717 42.1539L24.4398 41.908L25.0218 41.5161L25.5049 40.9401L25.8481 40.2406L26.0526 39.4373H28.081L27.772 40.6109L27.2917 41.5788L26.6041 42.341L25.8481 42.9582L24.9191 43.3902L23.854 43.6175L22.7195 43.7194L21.5165 43.6175L20.4857 43.3285L19.5594 42.875L18.8053 42.3185L18.1834 41.5779L17.7051 40.7138L17.3617 39.7038L17.1202 38.6124L17.0508 37.4397L17.1202 36.2652L17.3617 35.1336L17.7051 34.0825L18.1834 33.1969L18.8376 32.3945L19.627 31.7146L20.5903 31.2199L21.6554 30.9525L22.8906 30.8496L24.0594 30.9525L25.0208 31.1797L25.8472 31.6118L26.5338 32.229L27.0492 32.8873L27.4952 33.7318L27.8385 34.5959L28.0106 35.5647L28.1143 36.5944L28.1495 37.6651H19.2532V37.667Z" fill="#000088"/>
<path fill-rule="evenodd" clip-rule="evenodd" d="M38.739 43.4523L38.6695 41.5165L38.0191 42.2787L37.3724 42.8762L36.5869 43.2466L35.7368 43.514L34.7145 43.6178L33.6228 43.514L32.7023 43.2466L31.95 42.8762L31.3738 42.3404L30.8954 41.6399L30.6215 40.7964L30.4161 39.8285L30.3477 38.7578V31.0566H32.5301V38.6334L32.5653 39.2936L32.6652 39.9323L32.8706 40.4663L33.1112 40.961L33.4183 41.4136L33.8966 41.7026L34.5433 41.9083L35.2955 41.9486L36.2132 41.8466L36.9283 41.5988L37.5074 41.1667L37.9202 40.6318L38.2606 39.9931L38.4993 39.273L38.5992 38.4276L38.6695 37.5841V31.0566H40.7484V40.2606L40.8159 43.4523H38.739Z" fill="#000088"/>
<path fill-rule="evenodd" clip-rule="evenodd" d="M47.7397 43.6195L46.8543 43.5568L46.1364 43.3099L45.5582 42.919L45.1141 42.3841L44.8744 41.6416L44.7736 40.7363V32.562H42.3867V31.0583H44.7736V28.6287L46.8867 27.7637V31.0583H49.6121V32.562H46.8867V40.4679L46.9903 41.0029L47.1254 41.4153L47.4668 41.7042L47.909 41.8483L48.5575 41.91L49.7148 41.8071V43.4539L48.7297 43.5568L47.7397 43.6195Z" fill="#000088"/>
<path fill-rule="evenodd" clip-rule="evenodd" d="M55.6267 43.7198L54.6662 43.6786L53.8113 43.514L52.9868 43.226L52.2669 42.793L51.6849 42.2581L51.2389 41.5782L50.965 40.7141L50.8633 39.6845H52.9868L53.0562 40.4467L53.3652 41.0845L53.7419 41.5782L54.2896 41.9084L54.94 42.1552L55.7294 42.217L56.3808 42.1552L57.0341 42.0112L57.6161 41.7223L58.0278 41.2696L58.3711 40.7749L58.4738 40.1166L58.3711 39.5807L58.1667 39.0664L57.7863 38.7372L57.3422 38.4277L56.5529 38.1602L55.6618 37.8927L54.8373 37.7076L54.1878 37.543L53.5022 37.2755L52.885 37.0071L52.3344 36.6368L51.857 36.2048L51.5128 35.7316L51.2712 35.0928L51.2066 34.2895L51.2712 33.4254L51.6155 32.6633L52.0967 32.0461L52.6787 31.5925L53.4004 31.181L54.1878 30.9538L55.0095 30.7892L55.833 30.748L56.725 30.7892L57.5495 30.9538L58.2694 31.2212L58.9522 31.5925L59.4666 32.1274L59.9126 32.7456L60.1865 33.5489L60.2911 34.4962H58.1667L58.0278 33.734L57.754 33.0953L57.2062 32.6633L56.5881 32.3547L55.7645 32.2509L55.1816 32.2929L54.6006 32.4566L54.0851 32.6633L53.6401 32.9925L53.3652 33.4862L53.2635 34.0632L53.3652 34.5981L53.5374 34.989L53.8807 35.3192L54.359 35.6278L55.251 35.9579L56.0727 36.1636L56.9314 36.3899L57.6161 36.5957L58.2694 36.8435L58.8818 37.1109L59.4324 37.4607L59.9126 37.8927L60.2569 38.408L60.4956 39.0664L60.6002 39.8697L60.4956 40.7347L60.2569 41.4763L59.8109 42.1141L59.3297 42.5882L58.7135 43.0605L57.9955 43.3289L57.2062 43.5963L56.4511 43.6786L55.6267 43.7198Z" fill="#000088"/>
<path fill-rule="evenodd" clip-rule="evenodd" d="M67.9719 43.7211L66.7737 43.6192L65.6734 43.3096L64.7472 42.8776L63.9227 42.3211L63.2694 41.5795L62.7207 40.6949L62.3403 39.6653L62.1358 38.5945L62.0664 37.3591L62.1358 36.1434L62.3403 34.9707L62.7207 33.9411L63.2694 32.9938L63.9227 32.1904L64.7472 31.5527L65.7086 31.058L66.8431 30.7494L68.0755 30.6465L69.1026 30.7073L70.0022 30.9139L70.8181 31.2441L71.5095 31.7173L72.139 32.3148L72.6202 33.0966L72.935 34.0019L73.1004 35.0119H70.9655L70.8181 34.1674L70.5889 33.4875L70.1696 32.9526L69.5828 32.5617L68.9124 32.3148L68.0755 32.2316L67.1874 32.3148L66.4304 32.5617L65.8122 32.9526L65.2949 33.4875L64.8841 34.1262L64.6102 34.8678L64.4039 35.6094L64.3345 36.452L64.266 37.2553L64.3345 38.0596L64.4039 38.8217L64.6435 39.6035L64.9535 40.303L65.3301 40.9418L65.8122 41.415L66.4304 41.8685L67.1874 42.1154L67.9719 42.2183L68.8106 42.1154L69.522 41.8068L70.1696 41.415L70.5889 40.8389L70.9037 40.0973L71.0293 39.2538H73.166L72.9549 40.303L72.6202 41.2504L72.139 42.0125L71.5095 42.5895L70.7982 43.0833L69.9385 43.4125L68.998 43.6799L67.9719 43.7211Z" fill="#000088"/>
<path fill-rule="evenodd" clip-rule="evenodd" d="M83.5512 43.4119V35.8145L83.4695 35.1553L83.3839 34.5165L83.1956 33.9601L82.9674 33.4673L82.5908 33.0343L82.0877 32.7257L81.4582 32.5199L80.726 32.4984L79.8263 32.5807L79.1759 32.8285L78.5283 33.2606L78.1289 33.7955L77.7732 34.5165L77.544 35.2375L77.4176 36.0193L77.3339 36.8638V43.4119H75.2617V25.6016H77.3339V32.9305L77.9815 32.1487L78.6319 31.552L79.4269 31.1396L80.3066 30.9133L81.2899 30.8105L82.3797 30.9133L83.3021 31.1396L84.0543 31.552L84.662 32.087L85.1213 32.7874L85.3952 33.5907L85.5844 34.5988L85.6244 35.6911V43.4119H83.5512Z" fill="#000088"/>
<path fill-rule="evenodd" clip-rule="evenodd" d="M93.623 32.2935L92.7433 32.3964L91.9883 32.7667L91.3806 33.1988L90.9213 33.8169L90.5029 34.5576L90.2737 35.3394L90.1263 36.2053H96.8258L96.7431 35.3609L96.5757 34.5576L96.2809 33.8169L95.7998 33.2193L95.213 32.7658L94.5017 32.3954L93.623 32.2935ZM90.1044 37.667V37.9139L90.1244 38.7378L90.3336 39.4999L90.6075 40.2406L90.9841 40.9401L91.528 41.4759L92.1357 41.908L92.847 42.1539L93.6839 42.2577L94.5007 42.1539L95.212 41.908L95.7988 41.5161L96.28 40.9401L96.6157 40.2406L96.8249 39.4373H98.8162L98.5214 40.6109L98.0383 41.5788L97.3898 42.341L96.6157 42.9582L95.6951 43.3902L94.6691 43.6175L93.5155 43.7194L92.344 43.6175L91.3198 43.3285L90.4411 42.875L89.6641 42.3185L89.0384 41.5779L88.5762 40.7138L88.2405 39.7038L87.9914 38.6124L87.9258 37.4397L87.9914 36.2652L88.2405 35.1336L88.5762 34.0825L89.0384 33.1969L89.687 32.3945L90.4829 31.7146L91.4225 31.2199L92.4704 30.9525L93.6848 30.8496L94.8574 30.9525L95.7998 31.1797L96.6157 31.6118L97.2861 32.229L97.8101 32.8873L98.2494 33.7318L98.5851 34.5959L98.7515 35.5647L98.8571 36.5944L98.918 37.6651H90.1044V37.667Z" fill="#000088"/>
<path fill-rule="evenodd" clip-rule="evenodd" d="M112.927 35.072H109.22V41.5986H112.884L113.598 41.5584L114.29 41.4555L114.917 41.29L115.525 41.1254L116.005 40.8168L116.447 40.3847L116.803 39.8498L116.971 39.2111L117.073 38.3666L116.971 37.5016L116.74 36.7609L116.342 36.1428L115.881 35.7107L115.254 35.4218L114.543 35.2366L113.745 35.1543L112.927 35.072ZM112.927 27.413H109.22V33.3625H112.571L113.304 33.3223L114.057 33.2185L114.664 33.0334L115.251 32.6827L115.668 32.2927L116.067 31.7568L116.256 31.0358L116.339 30.2737L116.256 29.4919L116.002 28.7924L115.586 28.3192L115.043 27.9283L114.432 27.6187L113.7 27.4747L112.927 27.413ZM112.883 43.4119H106.98V25.6016H113.158L114.078 25.6633L114.936 25.8064L115.836 26.0738L116.59 26.4039L117.282 26.8771L117.889 27.4747L118.351 28.2154L118.621 29.0598L118.727 30.0689L118.621 31.1191L118.351 31.9832L117.868 32.7247L117.177 33.3223L116.382 33.7749L115.418 34.1051L116.382 34.3314L117.281 34.6811L118.035 35.1758L118.62 35.793L119.062 36.4935L119.332 37.4202L119.437 38.4704L119.332 39.5814L119.062 40.5297L118.62 41.29L118.035 41.9287L117.385 42.443L116.548 42.8349L115.668 43.1033L114.77 43.2669L113.849 43.3707L112.883 43.4119Z" fill="#000088"/>
<path fill-rule="evenodd" clip-rule="evenodd" d="M128.13 37.152H127.5L126.892 37.2128L126.203 37.2539L125.533 37.4195L124.903 37.6252L124.318 37.8515L123.856 38.1816L123.479 38.6342L123.227 39.2318L123.124 39.8902L123.227 40.6112L123.499 41.1676L123.962 41.682L124.526 41.9494L125.156 42.2178L125.825 42.2375L126.682 42.2178L127.375 41.9494L127.875 41.682L128.337 41.2499L128.63 40.6944L128.901 40.0968L129.048 39.4376L129.152 38.7165L129.195 37.9955V37.2137H128.818L128.461 37.1529L128.13 37.152ZM129.635 43.4111L129.426 41.681L128.734 42.4432L128.023 43.0408L127.207 43.4111L126.306 43.6785L125.282 43.7197L124.466 43.6785L123.649 43.4924L122.937 43.225L122.307 42.8547L121.807 42.3188L121.347 41.6801L121.116 40.8777L121.012 39.9921L121.116 39.0654L121.388 38.2836L121.807 37.6448L122.351 37.1099L123.021 36.6779L123.753 36.3683L124.569 36.142L125.427 35.9774L126.307 35.8755L127.165 35.8343H127.983L128.611 35.8755H129.197V35.1751L129.154 34.3717L128.986 33.733L128.734 33.1972L128.399 32.7651L127.875 32.4154L127.269 32.2302L126.472 32.1891L125.824 32.2302L125.175 32.3536L124.776 32.6623L124.357 33.0943L124.128 33.6302L123.982 34.3708H121.867L122.035 33.4646L122.348 32.6613L122.787 32.0226L123.374 31.5494L124.042 31.1791L124.797 30.9518L125.635 30.8078L126.451 30.7461L127.539 30.8078L128.504 31.0136L129.277 31.281L129.928 31.7757L130.41 32.3518L130.827 33.1551L130.995 34.0613L131.101 35.2143V39.806L131.162 40.9787L131.246 42.0083L131.33 42.8528L131.477 43.4083H129.635V43.4111Z" fill="#000088"/>
<path fill-rule="evenodd" clip-rule="evenodd" d="M142.363 43.4118V35.8341L142.323 35.1758L142.24 34.538L142.031 34.0012L141.779 33.5084L141.464 33.0548L140.984 32.7659L140.336 32.5611L139.579 32.5199L138.765 32.6218L138.075 32.8697L137.486 33.2606L137.088 33.7347L136.733 34.3313L136.504 35.0112L136.293 35.7107L136.251 36.4729L136.189 37.2135V43.4118H134.095V33.4046L134.032 32.4572V31.697L133.988 31.0162H136.125L136.148 32.9931L136.774 32.2309L137.486 31.6539L138.282 31.1817L139.142 30.9544L140.168 30.8516L141.276 30.9544L142.197 31.1817L142.953 31.5932L143.538 32.1281L144.021 32.8285L144.333 33.6318L144.501 34.6399L144.564 35.7107V43.4118H142.363Z" fill="#000088"/>
<path fill-rule="evenodd" clip-rule="evenodd" d="M155.639 43.4119L149.691 36.4318L155.179 30.976H157.898L152.207 36.3298L158.382 43.4128L155.639 43.4119ZM147.496 43.4119V25.6016H149.589V43.4119H147.496Z" fill="#000088"/>
</g>
<defs>
<clipPath id="clip0_241_1895">
<rect width="220" height="45" fill="white"/>
</clipPath>
</defs>
</svg>
