<svg width="197" height="35" viewBox="0 0 197 35" fill="none" xmlns="http://www.w3.org/2000/svg">
<g clip-path="url(#clip0_241_1935)">
<path d="M26.0516 16.1084C25.9689 14.8434 25.6381 13.5783 24.9765 12.4819L19.3526 2.44578C18.9391 1.68675 18.6083 0.843373 18.4429 0L18.1948 0.421687C16.7888 2.86747 16.7888 5.98795 18.1948 8.43373L22.7435 16.4458C24.1495 18.8916 24.1495 22.012 22.7435 24.4578L22.4954 24.8795C22.33 24.0361 21.9992 23.1928 21.5856 22.4337L17.4505 15.0964L14.8039 10.3735C14.3904 9.61446 14.0596 8.77108 13.8942 7.92771L13.6461 8.3494C12.2401 10.7952 12.2401 13.8313 13.6461 16.3614L18.1948 24.3735C19.6008 26.8193 19.6008 29.9398 18.1948 32.3855L17.9467 32.8072C17.7813 31.9639 17.4505 31.1205 17.0369 30.3614L11.3304 20.3253C10.5861 18.9759 10.2552 17.4578 10.2552 15.9398C4.21788 17.5422 0 21 0 24.9639C0 30.5301 8.10495 35 18.1121 35C28.1192 35 36.2242 30.5301 36.2242 24.9639C36.3069 21.1687 32.1717 17.7108 26.0516 16.1084ZM43.1713 33.2289C43.254 31.7952 43.4194 30.8675 43.8329 29.6867C45.7351 30.6145 48.2162 31.0361 50.0357 31.0361C53.1784 31.0361 54.9979 30.0241 54.9979 27.9157C54.9979 25.8916 53.6746 24.9639 50.5319 23.5301L48.7951 22.8554C45.5697 21.4217 43.4194 19.5663 43.4194 15.9398C43.4194 11.9759 46.1486 9.44578 51.6071 9.44578C53.8401 9.44578 55.9076 9.78313 57.8098 10.4578C57.7271 11.8072 57.479 12.9036 57.1482 13.9157C55.3287 13.241 53.0957 12.9036 51.5243 12.9036C48.547 12.9036 47.2238 14.0843 47.2238 15.9398C47.2238 17.7108 48.547 18.8072 50.9454 19.8193L52.7649 20.5783C57.0655 22.4337 58.885 24.4578 58.885 27.8313C58.885 31.7952 55.9076 34.5783 50.1184 34.5783C47.3892 34.5783 45.0735 34.1566 43.1713 33.2289ZM77.1625 16.6145V33.9879H73.6889L73.5235 31.8795C72.5311 33.3976 71.1251 34.4096 68.7267 34.4096C64.2607 34.4096 61.2007 31.0361 61.2007 25.2169C61.2007 19.1446 64.4261 15.6024 70.7116 15.6024C73.1927 15.6867 75.2603 15.9398 77.1625 16.6145ZM73.4408 30.0241V19.1446C72.6965 18.9759 71.7867 18.9759 70.7116 18.9759C66.8245 18.9759 65.005 21.4217 65.005 25.3012C65.005 28.8434 66.411 31.3735 69.7191 31.3735C71.2905 31.2892 72.4484 30.7831 73.4408 30.0241ZM96.3497 22.3494V33.9879H92.6281V23.0241C92.6281 20.241 91.7183 18.9759 87.9966 18.9759C87.0869 18.9759 86.0945 19.0602 85.0193 19.2289V33.9879H81.2977V16.6145C83.6961 16.0241 86.3426 15.6024 88.0793 15.6024C94.3648 15.6867 96.3497 18.1325 96.3497 22.3494ZM106.77 31.2048C107.846 31.2048 108.921 31.0361 109.665 30.6988C109.582 31.7108 109.417 32.8916 109.251 33.9036C108.259 34.3253 107.101 34.494 106.109 34.494C102.47 34.494 100.154 32.8072 100.154 28.5904V10.2892C101.312 9.86747 102.718 9.6988 103.876 9.6988V16.2771H109.83C109.748 17.4578 109.665 18.5542 109.5 19.5663H103.876V28.0843C103.876 30.2771 104.951 31.2048 106.77 31.2048ZM126.867 16.6145V33.9879H123.394L123.228 31.8795C122.236 33.3976 120.83 34.4096 118.432 34.4096C113.966 34.4096 110.906 31.0361 110.906 25.2169C110.906 19.1446 114.131 15.6024 120.416 15.6024C122.898 15.6867 124.882 15.9398 126.867 16.6145ZM123.063 30.0241V19.1446C122.319 18.9759 121.409 18.9759 120.334 18.9759C116.447 18.9759 114.627 21.4217 114.627 25.3012C114.627 28.8434 116.033 31.3735 119.341 31.3735C120.913 31.2892 122.153 30.7831 123.063 30.0241ZM146.055 22.3494V33.9879H142.25V23.0241C142.25 20.241 141.34 18.9759 137.619 18.9759C136.709 18.9759 135.717 19.0602 134.641 19.2289V33.9879H130.92V16.6145C133.318 16.0241 135.965 15.6024 137.702 15.6024C143.987 15.6867 146.055 18.1325 146.055 22.3494ZM164.994 9.6988V33.9879H161.52L161.355 31.7952C160.362 33.3976 158.956 34.4096 156.475 34.4096C152.009 34.4096 148.949 31.0361 148.949 25.2169C148.949 19.1446 152.175 15.6024 158.46 15.6024C159.453 15.6024 160.362 15.6867 161.272 15.8554V10.1205C162.43 9.78313 163.753 9.6988 164.994 9.6988ZM161.272 30.0241V19.3133C160.28 19.1446 159.287 18.9759 158.295 18.9759C154.573 18.9759 152.836 21.3373 152.836 25.3012C152.836 28.8434 154.242 31.3735 157.55 31.3735C159.039 31.2892 160.28 30.7831 161.272 30.0241ZM183.85 26.5663H171.858C172.354 29.6867 174.091 31.1205 177.482 31.1205C179.55 31.1205 181.617 30.6988 183.437 29.7711C183.271 30.7831 183.106 32.1325 182.858 33.2289C181.121 33.9879 179.384 34.3253 177.317 34.3253C171.031 34.3253 168.054 30.7831 168.054 24.8795C168.054 19.7349 170.369 15.6024 176.324 15.6024C181.7 15.6024 184.016 19.1446 184.016 23.5301C184.016 24.7108 184.016 25.5542 183.85 26.5663ZM171.858 23.3614H180.294C180.294 20.494 178.805 18.8072 176.241 18.8072C173.512 18.8916 172.106 20.4096 171.858 23.3614ZM197 15.8554C197 17.0361 196.835 18.3855 196.669 19.1446C195.759 19.0602 194.932 18.9759 193.857 18.9759C192.948 18.9759 192.038 19.0602 191.128 19.1446V33.9879H187.406V16.6145C188.978 16.0241 191.707 15.6024 193.775 15.6024C194.85 15.6867 196.173 15.6867 197 15.8554Z" fill="#EA1D25"/>
</g>
<defs>
<clipPath id="clip0_241_1935">
<rect width="197" height="35" fill="white"/>
</clipPath>
</defs>
</svg>
