<svg width="103" height="79" viewBox="0 0 103 79" fill="none" xmlns="http://www.w3.org/2000/svg">
<path d="M18.6676 78.8266V73.5837C18.6676 71.5782 17.4306 70.2649 15.3071 70.2649C14.2453 70.2649 13.0908 70.611 12.2971 71.7512C11.6786 70.7943 10.7921 70.2649 9.46229 70.2649C8.57577 70.2649 7.68926 70.5296 6.9883 71.4865V70.438H5.13281V78.8266H6.9883V74.1945C6.9883 72.7082 7.78204 72.0057 9.01903 72.0057C10.256 72.0057 10.8745 72.7896 10.8745 74.1945V78.8266H12.73V74.1945C12.73 72.7082 13.6165 72.0057 14.7607 72.0057C15.9977 72.0057 16.6162 72.7896 16.6162 74.1945V78.8266H18.6676ZM46.1906 70.438H43.1806V67.903H41.3251V70.438H39.6449V72.0974H41.3251V75.9456C41.3251 77.8697 42.1189 78.9997 44.2424 78.9997C45.0361 78.9997 45.9226 78.735 46.5411 78.3889L46.0051 76.8109C45.4691 77.157 44.8506 77.2486 44.4073 77.2486C43.5208 77.2486 43.1703 76.7193 43.1703 75.8539V72.0974H46.1803V70.438H46.1906ZM61.9417 70.2547C60.8799 70.2547 60.1687 70.7841 59.7254 71.4764V70.4278H57.8699V78.8164H59.7254V74.0927C59.7254 72.698 60.3439 71.9039 61.4984 71.9039C61.8489 71.9039 62.2922 71.9956 62.6529 72.077L63.189 70.326C62.8179 70.2547 62.2922 70.2547 61.9417 70.2547ZM38.1399 71.1302C37.2534 70.5194 36.0164 70.2547 34.6866 70.2547C32.5631 70.2547 31.1509 71.3033 31.1509 72.9627C31.1509 74.3574 32.2126 75.1515 34.0681 75.406L34.9546 75.4976C35.9236 75.6707 36.4596 75.9354 36.4596 76.3731C36.4596 76.984 35.7484 77.4217 34.5114 77.4217C33.2744 77.4217 32.2951 76.984 31.6766 76.5462L30.7901 77.9409C31.7591 78.6434 33.0888 78.9895 34.4186 78.9895C36.8926 78.9895 38.3151 77.8493 38.3151 76.2815C38.3151 74.7952 37.1606 74.0113 35.3979 73.7466L34.5114 73.655C33.7176 73.5633 33.0991 73.3903 33.0991 72.8711C33.0991 72.2602 33.7176 71.9141 34.6969 71.9141C35.7587 71.9141 36.8204 72.3519 37.3565 72.6166L38.1399 71.1302ZM87.5062 70.2547C86.4444 70.2547 85.7332 70.7841 85.2899 71.4764V70.4278H83.4344V78.8164H85.2899V74.0927C85.2899 72.698 85.9084 71.9039 87.0629 71.9039C87.4134 71.9039 87.8567 71.9956 88.2174 72.077L88.7535 70.3463C88.3927 70.2547 87.867 70.2547 87.5062 70.2547ZM63.7972 74.6323C63.7972 77.1672 65.5702 78.9997 68.3122 78.9997C69.5492 78.9997 70.4357 78.735 71.3222 78.0427L70.4357 76.5564C69.7244 77.0858 69.0235 77.3403 68.2194 77.3403C66.7144 77.3403 65.6527 76.2917 65.6527 74.6323C65.6527 73.0543 66.7144 72.0057 68.2194 71.9243C69.0131 71.9243 69.7244 72.189 70.4357 72.7082L71.3222 71.2218C70.4357 70.5194 69.5492 70.2649 68.3122 70.2649C65.5702 70.2547 63.7972 72.0974 63.7972 74.6323ZM80.9604 74.6323V70.438H79.1049V71.4865C78.4864 70.7026 77.5999 70.2649 76.4454 70.2649C74.0539 70.2649 72.1984 72.0974 72.1984 74.6323C72.1984 77.1672 74.0539 78.9997 76.4454 78.9997C77.6824 78.9997 78.5689 78.5619 79.1049 77.778V78.8266H80.9604V74.6323ZM74.1467 74.6323C74.1467 73.1459 75.1156 71.9243 76.7134 71.9243C78.2184 71.9243 79.2802 73.0645 79.2802 74.6323C79.2802 76.1186 78.2184 77.3403 76.7134 77.3403C75.1259 77.2487 74.1467 76.1084 74.1467 74.6323ZM51.9427 70.2547C49.4687 70.2547 47.6957 72.0057 47.6957 74.6221C47.6957 77.2487 49.4687 78.9895 52.0354 78.9895C53.2724 78.9895 54.5094 78.6434 55.4887 77.8493L54.6022 76.536C53.8909 77.0654 53.0044 77.4115 52.1282 77.4115C50.9737 77.4115 49.8295 76.8822 49.5614 75.406H55.8392C55.8392 75.1413 55.8392 74.9682 55.8392 74.7035C55.9216 72.0057 54.3239 70.2547 51.9427 70.2547ZM51.9427 71.8327C53.0972 71.8327 53.8909 72.5351 54.0662 73.8382H49.6439C49.8192 72.7082 50.6129 71.8327 51.9427 71.8327ZM98.0412 74.6323V67.1191H96.1857V71.4865C95.5672 70.7026 94.6807 70.2649 93.5262 70.2649C91.1347 70.2649 89.2792 72.0974 89.2792 74.6323C89.2792 77.1672 91.1347 78.9997 93.5262 78.9997C94.7632 78.9997 95.6497 78.5619 96.1857 77.778V78.8266H98.0412V74.6323ZM91.2275 74.6323C91.2275 73.1459 92.1964 71.9243 93.7942 71.9243C95.2992 71.9243 96.361 73.0645 96.361 74.6323C96.361 76.1186 95.2992 77.3403 93.7942 77.3403C92.1964 77.2487 91.2275 76.1084 91.2275 74.6323ZM29.1098 74.6323V70.438H27.2544V71.4865C26.6359 70.7026 25.7493 70.2649 24.5948 70.2649C22.2033 70.2649 20.3478 72.0974 20.3478 74.6323C20.3478 77.1672 22.2033 78.9997 24.5948 78.9997C25.8318 78.9997 26.7183 78.5619 27.2544 77.778V78.8266H29.1098V74.6323ZM22.2136 74.6323C22.2136 73.1459 23.1826 71.9243 24.7804 71.9243C26.2854 71.9243 27.3471 73.0645 27.3471 74.6323C27.3471 76.1186 26.2854 77.3403 24.7804 77.3403C23.1826 77.2487 22.2136 76.1084 22.2136 74.6323Z" fill="black"/>
<path d="M65.397 6.72852H37.5234V56.185H65.397V6.72852Z" fill="#FF5A00"/>
<path d="M39.3776 31.4575C39.3776 21.4094 44.1606 12.4914 51.5001 6.72925C46.0986 2.53492 39.2848 0 31.8525 0C14.246 0 0 14.0693 0 31.4575C0 48.8456 14.246 62.915 31.8525 62.915C39.2848 62.915 46.0986 60.38 51.5001 56.1857C44.1503 50.505 39.3776 41.5055 39.3776 31.4575Z" fill="#EB001B"/>
<path d="M103 31.4575C103 48.8456 88.7541 62.915 71.1476 62.915C63.7153 62.915 56.9015 60.38 51.5 56.1857C58.9323 50.4134 63.6225 41.5055 63.6225 31.4575C63.6225 21.4094 58.8395 12.4914 51.5 6.72925C56.8912 2.53492 63.705 0 71.1372 0C88.7541 0 103 14.161 103 31.4575Z" fill="#F79E1B"/>
</svg>
