<svg width="157" height="43" viewBox="0 0 157 43" fill="none" xmlns="http://www.w3.org/2000/svg">
<g clip-path="url(#clip0_241_1912)">
<path d="M154.223 40.7127C154.223 40.631 154.168 40.5766 154.114 40.5221C154.059 40.4676 153.978 40.4676 153.869 40.4676C153.787 40.4676 153.732 40.4676 153.678 40.4949C153.623 40.5221 153.596 40.5493 153.569 40.5766C153.542 40.6038 153.542 40.6583 153.542 40.7127C153.542 40.74 153.542 40.7944 153.569 40.8217C153.596 40.8489 153.623 40.8761 153.651 40.9034C153.678 40.9306 153.705 40.9306 153.76 40.9578C153.787 40.9578 153.841 40.9851 153.869 40.9851L154.032 41.0395C154.114 41.0667 154.168 41.0667 154.223 41.094C154.278 41.1212 154.332 41.1484 154.387 41.2029C154.441 41.2574 154.468 41.2846 154.496 41.3663C154.523 41.4208 154.55 41.5025 154.55 41.5842C154.55 41.6931 154.523 41.7748 154.468 41.8565C154.414 41.9382 154.332 41.9926 154.223 42.0471C154.114 42.1016 154.005 42.1288 153.841 42.1288C153.705 42.1288 153.569 42.1016 153.46 42.0743C153.351 42.0199 153.269 41.9654 153.214 41.8837C153.16 41.802 153.133 41.6931 153.105 41.5842H153.433C153.433 41.6386 153.46 41.6931 153.487 41.7476C153.514 41.802 153.569 41.8293 153.623 41.8293C153.678 41.8565 153.732 41.8565 153.814 41.8565C153.896 41.8565 153.95 41.8565 154.005 41.8293C154.059 41.802 154.114 41.7748 154.141 41.7476C154.168 41.7203 154.196 41.6659 154.196 41.6114C154.196 41.5569 154.168 41.5297 154.141 41.5025C154.114 41.4752 154.087 41.448 154.032 41.4208C153.978 41.3935 153.923 41.3935 153.869 41.3663L153.651 41.3118C153.487 41.2846 153.378 41.2029 153.296 41.1212C153.214 41.0395 153.16 40.9306 153.16 40.7944C153.16 40.6855 153.187 40.6038 153.242 40.5221C153.296 40.4404 153.378 40.3859 153.487 40.3315C153.596 40.277 153.705 40.277 153.841 40.277C153.978 40.277 154.087 40.3042 154.196 40.3315C154.305 40.3859 154.359 40.4404 154.441 40.5221C154.496 40.6038 154.523 40.6855 154.523 40.7944H154.223V40.7127ZM156.404 40.1953L155.831 41.5569L155.259 40.1953H154.877V42.0471H155.204V40.7944L155.749 42.0471H155.913L156.458 40.7944V42.0471H156.785V40.1953H156.404Z" fill="#001AFF"/>
<path d="M51.2695 17.7007V13.4252C53.7772 15.1681 56.8299 15.9578 58.8197 15.9578C61.1093 15.9578 62.7992 15.4676 62.7992 13.9698C62.7992 13.0712 62.0905 12.581 60.7004 12.1997L56.8027 11.1921C53.968 10.4569 51.324 9.44926 51.324 6.01797C51.324 1.82418 55.5216 0.380859 59.5011 0.380859C61.4091 0.380859 63.3989 0.680416 65.3614 1.41569V5.17377C63.0173 4.2751 60.7822 4.00277 58.847 4.00277C56.5301 4.00277 55.249 4.52019 55.249 5.63672C55.249 6.39923 55.876 6.86218 57.4841 7.2979L61.5727 8.35996C64.789 9.20417 66.697 10.7019 66.697 13.6431C66.697 17.4284 63.1808 19.6342 58.9015 19.6342C55.7669 19.607 53.4228 19.0351 51.2695 17.7007ZM73.7565 19.0078H77.736V4.46572H83.8961V0.789346H67.5964V4.46572H73.7565V19.0078ZM106.656 19.0078H110.635V4.46572H116.795V0.789346H100.496V4.46572H106.656V19.0078ZM81.9063 19.0078H86.2402L87.9574 14.6779H96.3798L98.1515 19.0078H102.458L94.7171 0.789346H89.6473L81.9063 19.0078ZM89.402 11.1649L91.7461 5.01037H92.5911L94.9352 11.1649H89.402ZM119.575 19.0078H133.504V15.3315H123.446V11.5189H131.841V7.84255H123.446V4.46572H133.149V0.789346H119.575V19.0078ZM58.9287 42.6456C63.2081 42.6456 66.7242 40.4398 66.7242 36.6545C66.7242 33.7134 64.8435 32.2428 61.5999 31.3714L57.5114 30.3093C55.876 29.8736 55.2763 29.4379 55.2763 28.6481C55.2763 27.5316 56.5574 27.0142 58.8742 27.0142C60.7822 27.0142 63.0445 27.2865 65.3886 28.1852V24.4271C63.4261 23.6918 61.4364 23.3923 59.5284 23.3923C55.5216 23.3923 51.3513 24.8628 51.3513 29.0294C51.3513 32.4607 53.9952 33.441 56.8299 34.2035L60.7277 35.2111C62.1178 35.5924 62.8265 36.0553 62.8265 36.9812C62.8265 38.5063 61.1365 38.9692 58.847 38.9692C56.8845 38.9692 53.8044 38.1795 51.2968 36.4366V40.7393C53.4228 42.0737 55.7669 42.6184 58.9287 42.6456ZM73.7565 42.0465H77.736V27.5044H83.8961V23.8007H67.5964V27.4771H73.7565V42.0465ZM144.434 42.0465H148.413V27.5044H154.546V23.8007H138.246V27.4771H144.407V42.0465H144.434ZM105.211 42.0465H119.139V38.3701H109.082V34.5576H117.477V30.8812H109.082V27.5044H118.785V23.8007H105.211V42.0465ZM122.083 42.0465H136.011V38.3701H125.954V34.5576H134.349V30.8812H125.954V27.5044H135.657V23.8007H122.083V42.0465ZM86.6763 42.0465H90.6013V35.5379H93.6268L98.5058 42.0465H103.221L98.0424 35.075C100.686 34.3397 102.076 32.4607 102.076 29.7102C102.076 25.9249 99.5416 23.828 94.9352 23.828H86.6763V42.0465ZM90.6013 31.8888V27.5044H95.3985C97.0339 27.5044 98.0424 28.3486 98.0424 29.7102C98.0424 31.0718 97.0612 31.8888 95.3985 31.8888H90.6013Z" fill="#001AFF"/>
<path d="M20.307 5.28314C26.9305 2.99562 33.9082 0.490234 42.3852 0.490234V6.34521C34.9713 6.34521 28.8385 8.5238 22.215 10.8113C15.6734 13.0988 8.66831 15.6042 0.191406 15.6042V9.74926C7.60529 9.74926 13.7381 7.57067 20.307 5.28314ZM0.191406 18.5453H42.3852V24.4548H39.3051H0.191406V18.5453ZM0.191406 36.6549C7.60529 36.6549 13.7381 34.4763 20.307 32.1888C26.9305 29.9013 33.9082 27.3959 42.3852 27.3959V33.2508C34.9713 33.2508 28.8385 35.4294 22.215 37.717C15.6461 40.0045 8.66831 42.5099 0.191406 42.5099V36.6549Z" fill="#001AFF"/>
</g>
<defs>
<clipPath id="clip0_241_1912">
<rect width="157" height="43" fill="white"/>
</clipPath>
</defs>
</svg>
