<svg width="152" height="43" viewBox="0 0 152 43" fill="none" xmlns="http://www.w3.org/2000/svg">
<g clip-path="url(#clip0_241_1917)">
<path d="M31.7812 41.8617C31.7812 42.8739 33.1691 43 33.9259 43H34.5569C36.4489 42.8752 36.4489 42.1151 36.4489 41.8617V1.13828C36.5734 0.124811 35.1867 0 34.3042 0H33.9308C33.1691 0 31.7812 0.124811 31.7812 1.13828V41.8617Z" fill="#E1091D"/>
<path d="M6.43359 41.8617C6.43359 42.8739 7.82147 43 8.57824 43H9.20937C11.1013 42.8752 11.1013 42.1151 11.1013 41.8617V1.13828C11.1013 0.124811 9.83917 0 8.95666 0H8.58325C7.69454 0 6.43359 0.124811 6.43359 1.13828V41.8617Z" fill="#E1091D"/>
<path d="M14.8828 41.8617C14.8828 42.8739 16.2707 43 17.0275 43H17.7843C19.6763 42.8752 19.6763 42.1151 19.6763 41.8617V1.13828C19.6763 0.124811 18.2885 0 17.5317 0H17.0275C16.2707 0 14.8828 0.124811 14.8828 1.13828V41.8617Z" fill="#E1091D"/>
<path d="M23.3359 41.8617C23.3359 42.8739 24.7238 43 25.4806 43H26.1116C28.0036 42.8752 28.0036 42.1151 28.0036 41.8617V1.13828C28.0036 0.124811 26.6158 0 25.859 0H25.4856C24.7238 0 23.3359 0.124811 23.3359 1.13828V41.8617Z" fill="#E1091D"/>
<path d="M1.13518 19.0977C0.12449 19.0977 0 20.4893 0 21.2482V22.007C0.124488 23.9041 0.882514 23.9041 1.13518 23.9041H41.748C42.7574 23.9041 42.8831 22.5125 42.8831 21.7536V21.2482C42.8831 20.4893 42.7587 19.0977 41.748 19.0977H1.13518Z" fill="#E1091D"/>
<path d="M102.038 34.3999C95.3539 34.3999 92.8271 30.7317 92.8271 21.2473C92.8271 11.8864 95.2231 8.47408 101.914 8.47408H102.163C108.721 8.47408 111.249 11.8889 111.249 21.2473C111.124 30.7329 108.6 34.3999 102.038 34.3999ZM102.038 3.16211C90.6861 3.16211 85.5156 8.85351 85.5156 21.3733C85.5156 33.7671 90.8131 39.7119 101.66 39.8379H102.164C113.137 39.8379 118.433 33.7671 118.433 21.3733C118.433 8.7262 113.39 3.16211 102.038 3.16211Z" fill="#002469"/>
<path d="M56.2554 37.056C58.5258 38.827 61.6787 39.5859 66.7235 39.5859H66.9724C72.0173 39.5859 75.1702 38.827 77.5675 37.056C80.8461 34.5273 81.4809 31.4981 81.4809 25.8005V5.18663C81.4962 5.0008 81.4707 4.81386 81.4062 4.63898C81.3417 4.46409 81.2397 4.30551 81.1075 4.17441C80.5972 3.66518 79.462 3.41556 77.57 3.41556C76.3814 3.26337 75.177 3.53174 74.1645 4.17441C74.0323 4.30551 73.9303 4.46409 73.8658 4.63897C73.8013 4.81386 73.7757 5.0008 73.791 5.18663V26.6866C73.791 30.2275 73.7911 30.9864 72.1518 32.378C70.5318 33.3949 68.6364 33.8812 66.7284 33.7697C64.8139 33.9419 62.8985 33.4483 61.304 32.3718C59.6647 31.1075 59.6647 30.3486 59.6647 26.8077V5.18663C59.68 5.0008 59.6545 4.81386 59.59 4.63897C59.5255 4.46409 59.4235 4.30551 59.2913 4.17441C58.2763 3.52974 57.0685 3.26129 55.877 3.41556C54.6883 3.26337 53.484 3.53174 52.4715 4.17441C52.3392 4.30551 52.2373 4.46409 52.1728 4.63897C52.1082 4.81386 52.0828 5.0008 52.0981 5.18663V25.8005C52.3471 31.4919 52.8548 34.5273 56.2604 37.056" fill="#002469"/>
<path d="M137.982 34.2742H129.91V23.5242H138.486C143.279 23.5242 144.162 25.5474 144.162 28.9622C144.286 33.5153 142.648 34.2742 137.982 34.2742ZM129.91 8.60051H138.107C142.396 8.60051 142.648 10.751 142.648 13.5331C142.648 16.9479 141.135 18.3383 137.478 18.3383H129.91V8.60051ZM146.937 5.5651C145.046 4.17345 142.775 3.66797 138.361 3.66797H123.73C123.396 3.66862 123.075 3.80204 122.839 4.03901C122.602 4.27598 122.469 4.59718 122.469 4.93231V38.3206C122.469 38.6557 122.602 38.9769 122.839 39.2139C123.075 39.4508 123.396 39.5843 123.73 39.5849H139.117C143.279 39.5849 146.179 39.4601 148.701 37.5617C151.476 35.4112 151.981 31.9976 151.981 29.4677C152.074 28.0635 151.837 26.6571 151.289 25.3613C150.742 24.0656 149.899 22.9166 148.828 22.0065C147.926 21.417 146.951 20.9491 145.927 20.6148L145.296 20.3652L145.927 20.1156C148.954 18.724 149.963 16.7008 149.963 12.7804C149.839 10.7573 149.459 7.34241 146.936 5.57134" fill="#002469"/>
</g>
<defs>
<clipPath id="clip0_241_1917">
<rect width="152" height="43" fill="white"/>
</clipPath>
</defs>
</svg>
