<svg width="504" height="416" viewBox="0 0 504 416" fill="none" xmlns="http://www.w3.org/2000/svg">
<g filter="url(#filter0_di_241_3690)">
<g clip-path="url(#clip0_241_3690)">
<rect x="2" y="1" width="500" height="56" rx="28" fill="white"/>
<g clip-path="url(#clip1_241_3690)">
<g clip-path="url(#clip2_241_3690)">
<path d="M25.5 38.3333C28.2251 35.443 31.9249 33.6667 36 33.6667C40.0752 33.6667 43.7749 35.443 46.5 38.3333M41.25 23.75C41.25 26.6495 38.8995 29 36 29C33.1005 29 30.75 26.6495 30.75 23.75C30.75 20.8505 33.1005 18.5 36 18.5C38.8995 18.5 41.25 20.8505 41.25 23.75Z" stroke="#070FA0" stroke-width="1.75" stroke-linecap="round" stroke-linejoin="round"/>
</g>
</g>
<path d="M59.4091 35V23.3636H66.3864V24.6136H60.8182V28.5455H65.8636V29.7955H60.8182V35H59.4091ZM68.6179 35V26.2727H69.9588V35H68.6179ZM69.2997 24.8182C69.0384 24.8182 68.813 24.7292 68.6236 24.5511C68.438 24.3731 68.3452 24.1591 68.3452 23.9091C68.3452 23.6591 68.438 23.4451 68.6236 23.267C68.813 23.089 69.0384 23 69.2997 23C69.5611 23 69.7846 23.089 69.9702 23.267C70.1596 23.4451 70.2543 23.6591 70.2543 23.9091C70.2543 24.1591 70.1596 24.3731 69.9702 24.5511C69.7846 24.7292 69.5611 24.8182 69.2997 24.8182ZM72.4148 35V26.2727H73.7102V27.5909H73.8011C73.9602 27.1591 74.2481 26.8087 74.6648 26.5398C75.0814 26.2708 75.5511 26.1364 76.0739 26.1364C76.1723 26.1364 76.2955 26.1383 76.4432 26.142C76.5909 26.1458 76.7027 26.1515 76.7784 26.1591V27.5227C76.733 27.5114 76.6288 27.4943 76.4659 27.4716C76.3068 27.4451 76.1383 27.4318 75.9602 27.4318C75.536 27.4318 75.1572 27.5208 74.8239 27.6989C74.4943 27.8731 74.233 28.1155 74.0398 28.4261C73.8504 28.733 73.7557 29.0833 73.7557 29.4773V35H72.4148ZM84.5497 28.2273L83.3452 28.5682C83.2694 28.3674 83.1577 28.1723 83.0099 27.983C82.866 27.7898 82.669 27.6307 82.419 27.5057C82.169 27.3807 81.849 27.3182 81.4588 27.3182C80.9247 27.3182 80.4796 27.4413 80.1236 27.6875C79.7713 27.9299 79.5952 28.2386 79.5952 28.6136C79.5952 28.947 79.7164 29.2102 79.9588 29.4034C80.2012 29.5966 80.58 29.7576 81.0952 29.8864L82.3906 30.2045C83.1709 30.3939 83.7524 30.6837 84.1349 31.0739C84.5175 31.4602 84.7088 31.9583 84.7088 32.5682C84.7088 33.0682 84.5649 33.5152 84.277 33.9091C83.9929 34.303 83.5952 34.6136 83.0838 34.8409C82.5724 35.0682 81.9777 35.1818 81.2997 35.1818C80.4096 35.1818 79.6728 34.9886 79.0895 34.6023C78.5062 34.2159 78.1368 33.6515 77.9815 32.9091L79.2543 32.5909C79.3755 33.0606 79.6046 33.4129 79.9418 33.6477C80.2827 33.8826 80.7277 34 81.277 34C81.902 34 82.3982 33.8674 82.7656 33.6023C83.1368 33.3333 83.3224 33.0114 83.3224 32.6364C83.3224 32.3333 83.2164 32.0795 83.0043 31.875C82.7921 31.6667 82.4664 31.5114 82.027 31.4091L80.5724 31.0682C79.7732 30.8788 79.1861 30.5852 78.8111 30.1875C78.4399 29.786 78.2543 29.2841 78.2543 28.6818C78.2543 28.1894 78.3925 27.7538 78.669 27.375C78.9493 26.9962 79.33 26.6989 79.8111 26.483C80.2959 26.267 80.8452 26.1591 81.4588 26.1591C82.3224 26.1591 83.0005 26.3485 83.4929 26.7273C83.9891 27.1061 84.3414 27.6061 84.5497 28.2273ZM90.5227 26.2727V27.4091H86V26.2727H90.5227ZM87.3182 24.1818H88.6591V32.5C88.6591 32.8788 88.714 33.1629 88.8239 33.3523C88.9375 33.5379 89.0814 33.6629 89.2557 33.7273C89.4337 33.7879 89.6212 33.8182 89.8182 33.8182C89.9659 33.8182 90.0871 33.8106 90.1818 33.7955C90.2765 33.7765 90.3523 33.7614 90.4091 33.75L90.6818 34.9545C90.5909 34.9886 90.464 35.0227 90.3011 35.0568C90.1383 35.0947 89.9318 35.1136 89.6818 35.1136C89.303 35.1136 88.9318 35.0322 88.5682 34.8693C88.2083 34.7064 87.9091 34.4583 87.6705 34.125C87.4356 33.7917 87.3182 33.3712 87.3182 32.8636V24.1818ZM99.608 35.2045C99.0549 35.2045 98.553 35.1004 98.1023 34.892C97.6515 34.6799 97.2936 34.375 97.0284 33.9773C96.7633 33.5758 96.6307 33.0909 96.6307 32.5227C96.6307 32.0227 96.7292 31.6174 96.9261 31.3068C97.1231 30.9924 97.3864 30.7462 97.7159 30.5682C98.0455 30.3902 98.4091 30.2576 98.8068 30.1705C99.2083 30.0795 99.6117 30.0076 100.017 29.9545C100.547 29.8864 100.977 29.8352 101.307 29.8011C101.64 29.7633 101.883 29.7008 102.034 29.6136C102.189 29.5265 102.267 29.375 102.267 29.1591V29.1136C102.267 28.553 102.114 28.1174 101.807 27.8068C101.504 27.4962 101.044 27.3409 100.426 27.3409C99.786 27.3409 99.2841 27.4811 98.9205 27.7614C98.5568 28.0417 98.3011 28.3409 98.1534 28.6591L96.8807 28.2045C97.108 27.6742 97.411 27.2614 97.7898 26.9659C98.1723 26.6667 98.589 26.4583 99.0398 26.3409C99.4943 26.2197 99.9413 26.1591 100.381 26.1591C100.661 26.1591 100.983 26.1932 101.347 26.2614C101.714 26.3258 102.068 26.4602 102.409 26.6648C102.754 26.8693 103.04 27.178 103.267 27.5909C103.494 28.0038 103.608 28.5568 103.608 29.25V35H102.267V33.8182H102.199C102.108 34.0076 101.956 34.2102 101.744 34.4261C101.532 34.642 101.25 34.8258 100.898 34.9773C100.545 35.1288 100.116 35.2045 99.608 35.2045ZM99.8125 34C100.343 34 100.79 33.8958 101.153 33.6875C101.521 33.4792 101.797 33.2102 101.983 32.8807C102.172 32.5511 102.267 32.2045 102.267 31.8409V30.6136C102.21 30.6818 102.085 30.7443 101.892 30.8011C101.703 30.8542 101.483 30.9015 101.233 30.9432C100.987 30.9811 100.746 31.0152 100.511 31.0455C100.28 31.072 100.093 31.0947 99.9489 31.1136C99.6004 31.1591 99.2746 31.233 98.9716 31.3352C98.6723 31.4337 98.4299 31.5833 98.2443 31.7841C98.0625 31.9811 97.9716 32.25 97.9716 32.5909C97.9716 33.0568 98.1439 33.4091 98.4886 33.6477C98.8371 33.8826 99.2784 34 99.8125 34ZM107.396 29.75V35H106.055V26.2727H107.351V27.6364H107.464C107.669 27.1932 107.98 26.8371 108.396 26.5682C108.813 26.2955 109.351 26.1591 110.01 26.1591C110.601 26.1591 111.118 26.2803 111.561 26.5227C112.004 26.7614 112.349 27.125 112.595 27.6136C112.841 28.0985 112.964 28.7121 112.964 29.4545V35H111.624V29.5455C111.624 28.8598 111.446 28.3258 111.089 27.9432C110.733 27.5568 110.245 27.3636 109.624 27.3636C109.196 27.3636 108.813 27.4564 108.476 27.642C108.143 27.8277 107.879 28.0985 107.686 28.4545C107.493 28.8106 107.396 29.2424 107.396 29.75ZM118.71 35.1818C117.983 35.1818 117.341 34.9981 116.784 34.6307C116.227 34.2595 115.792 33.7367 115.477 33.0625C115.163 32.3845 115.006 31.5833 115.006 30.6591C115.006 29.7424 115.163 28.947 115.477 28.2727C115.792 27.5985 116.229 27.0777 116.79 26.7102C117.35 26.3428 117.998 26.1591 118.733 26.1591C119.301 26.1591 119.75 26.2538 120.08 26.4432C120.413 26.6288 120.667 26.8409 120.841 27.0795C121.019 27.3144 121.157 27.5076 121.256 27.6591H121.369V23.3636H122.71V35H121.415V33.6591H121.256C121.157 33.8182 121.017 34.0189 120.835 34.2614C120.653 34.5 120.394 34.714 120.057 34.9034C119.72 35.089 119.271 35.1818 118.71 35.1818ZM118.892 33.9773C119.43 33.9773 119.884 33.8371 120.256 33.5568C120.627 33.2727 120.909 32.8807 121.102 32.3807C121.295 31.8769 121.392 31.2955 121.392 30.6364C121.392 29.9848 121.297 29.4148 121.108 28.9261C120.919 28.4337 120.638 28.0511 120.267 27.7784C119.896 27.5019 119.438 27.3636 118.892 27.3636C118.324 27.3636 117.85 27.5095 117.472 27.8011C117.097 28.089 116.814 28.4811 116.625 28.9773C116.439 29.4697 116.347 30.0227 116.347 30.6364C116.347 31.2576 116.441 31.822 116.631 32.3295C116.824 32.8333 117.108 33.2348 117.483 33.5341C117.862 33.8295 118.331 33.9773 118.892 33.9773ZM131.193 23.3636V35H129.852V23.3636H131.193ZM136.217 35.2045C135.664 35.2045 135.162 35.1004 134.712 34.892C134.261 34.6799 133.903 34.375 133.638 33.9773C133.373 33.5758 133.24 33.0909 133.24 32.5227C133.24 32.0227 133.339 31.6174 133.536 31.3068C133.732 30.9924 133.996 30.7462 134.325 30.5682C134.655 30.3902 135.018 30.2576 135.416 30.1705C135.818 30.0795 136.221 30.0076 136.626 29.9545C137.157 29.8864 137.587 29.8352 137.916 29.8011C138.25 29.7633 138.492 29.7008 138.643 29.6136C138.799 29.5265 138.876 29.375 138.876 29.1591V29.1136C138.876 28.553 138.723 28.1174 138.416 27.8068C138.113 27.4962 137.653 27.3409 137.036 27.3409C136.395 27.3409 135.893 27.4811 135.53 27.7614C135.166 28.0417 134.911 28.3409 134.763 28.6591L133.49 28.2045C133.717 27.6742 134.02 27.2614 134.399 26.9659C134.782 26.6667 135.198 26.4583 135.649 26.3409C136.104 26.2197 136.551 26.1591 136.99 26.1591C137.27 26.1591 137.592 26.1932 137.956 26.2614C138.323 26.3258 138.678 26.4602 139.018 26.6648C139.363 26.8693 139.649 27.178 139.876 27.5909C140.104 28.0038 140.217 28.5568 140.217 29.25V35H138.876V33.8182H138.808C138.717 34.0076 138.566 34.2102 138.354 34.4261C138.142 34.642 137.859 34.8258 137.507 34.9773C137.155 35.1288 136.725 35.2045 136.217 35.2045ZM136.422 34C136.952 34 137.399 33.8958 137.763 33.6875C138.13 33.4792 138.407 33.2102 138.592 32.8807C138.782 32.5511 138.876 32.2045 138.876 31.8409V30.6136C138.82 30.6818 138.695 30.7443 138.501 30.8011C138.312 30.8542 138.092 30.9015 137.842 30.9432C137.596 30.9811 137.356 31.0152 137.121 31.0455C136.89 31.072 136.702 31.0947 136.558 31.1136C136.21 31.1591 135.884 31.233 135.581 31.3352C135.282 31.4337 135.039 31.5833 134.854 31.7841C134.672 31.9811 134.581 32.25 134.581 32.5909C134.581 33.0568 134.753 33.4091 135.098 33.6477C135.446 33.8826 135.888 34 136.422 34ZM148.847 28.2273L147.642 28.5682C147.566 28.3674 147.455 28.1723 147.307 27.983C147.163 27.7898 146.966 27.6307 146.716 27.5057C146.466 27.3807 146.146 27.3182 145.756 27.3182C145.222 27.3182 144.777 27.4413 144.42 27.6875C144.068 27.9299 143.892 28.2386 143.892 28.6136C143.892 28.947 144.013 29.2102 144.256 29.4034C144.498 29.5966 144.877 29.7576 145.392 29.8864L146.688 30.2045C147.468 30.3939 148.049 30.6837 148.432 31.0739C148.814 31.4602 149.006 31.9583 149.006 32.5682C149.006 33.0682 148.862 33.5152 148.574 33.9091C148.29 34.303 147.892 34.6136 147.381 34.8409C146.869 35.0682 146.275 35.1818 145.597 35.1818C144.706 35.1818 143.97 34.9886 143.386 34.6023C142.803 34.2159 142.434 33.6515 142.278 32.9091L143.551 32.5909C143.672 33.0606 143.902 33.4129 144.239 33.6477C144.58 33.8826 145.025 34 145.574 34C146.199 34 146.695 33.8674 147.062 33.6023C147.434 33.3333 147.619 33.0114 147.619 32.6364C147.619 32.3333 147.513 32.0795 147.301 31.875C147.089 31.6667 146.763 31.5114 146.324 31.4091L144.869 31.0682C144.07 30.8788 143.483 30.5852 143.108 30.1875C142.737 29.786 142.551 29.2841 142.551 28.6818C142.551 28.1894 142.689 27.7538 142.966 27.375C143.246 26.9962 143.627 26.6989 144.108 26.483C144.593 26.267 145.142 26.1591 145.756 26.1591C146.619 26.1591 147.297 26.3485 147.79 26.7273C148.286 27.1061 148.638 27.6061 148.847 28.2273ZM154.82 26.2727V27.4091H150.297V26.2727H154.82ZM151.615 24.1818H152.956V32.5C152.956 32.8788 153.011 33.1629 153.121 33.3523C153.234 33.5379 153.378 33.6629 153.553 33.7273C153.731 33.7879 153.918 33.8182 154.115 33.8182C154.263 33.8182 154.384 33.8106 154.479 33.7955C154.573 33.7765 154.649 33.7614 154.706 33.75L154.979 34.9545C154.888 34.9886 154.761 35.0227 154.598 35.0568C154.435 35.0947 154.229 35.1136 153.979 35.1136C153.6 35.1136 153.229 35.0322 152.865 34.8693C152.505 34.7064 152.206 34.4583 151.967 34.125C151.732 33.7917 151.615 33.3712 151.615 32.8636V24.1818ZM162.678 29.75V35H161.337V26.2727H162.632V27.6364H162.746C162.95 27.1932 163.261 26.8371 163.678 26.5682C164.094 26.2955 164.632 26.1591 165.291 26.1591C165.882 26.1591 166.399 26.2803 166.842 26.5227C167.286 26.7614 167.63 27.125 167.876 27.6136C168.123 28.0985 168.246 28.7121 168.246 29.4545V35H166.905V29.5455C166.905 28.8598 166.727 28.3258 166.371 27.9432C166.015 27.5568 165.526 27.3636 164.905 27.3636C164.477 27.3636 164.094 27.4564 163.757 27.642C163.424 27.8277 163.161 28.0985 162.967 28.4545C162.774 28.8106 162.678 29.2424 162.678 29.75ZM173.264 35.2045C172.711 35.2045 172.209 35.1004 171.759 34.892C171.308 34.6799 170.95 34.375 170.685 33.9773C170.42 33.5758 170.287 33.0909 170.287 32.5227C170.287 32.0227 170.385 31.6174 170.582 31.3068C170.779 30.9924 171.043 30.7462 171.372 30.5682C171.702 30.3902 172.065 30.2576 172.463 30.1705C172.865 30.0795 173.268 30.0076 173.673 29.9545C174.204 29.8864 174.634 29.8352 174.963 29.8011C175.296 29.7633 175.539 29.7008 175.69 29.6136C175.846 29.5265 175.923 29.375 175.923 29.1591V29.1136C175.923 28.553 175.77 28.1174 175.463 27.8068C175.16 27.4962 174.7 27.3409 174.082 27.3409C173.442 27.3409 172.94 27.4811 172.577 27.7614C172.213 28.0417 171.957 28.3409 171.81 28.6591L170.537 28.2045C170.764 27.6742 171.067 27.2614 171.446 26.9659C171.829 26.6667 172.245 26.4583 172.696 26.3409C173.151 26.2197 173.598 26.1591 174.037 26.1591C174.317 26.1591 174.639 26.1932 175.003 26.2614C175.37 26.3258 175.724 26.4602 176.065 26.6648C176.41 26.8693 176.696 27.178 176.923 27.5909C177.151 28.0038 177.264 28.5568 177.264 29.25V35H175.923V33.8182H175.855C175.764 34.0076 175.613 34.2102 175.401 34.4261C175.188 34.642 174.906 34.8258 174.554 34.9773C174.202 35.1288 173.772 35.2045 173.264 35.2045ZM173.469 34C173.999 34 174.446 33.8958 174.81 33.6875C175.177 33.4792 175.454 33.2102 175.639 32.8807C175.829 32.5511 175.923 32.2045 175.923 31.8409V30.6136C175.866 30.6818 175.741 30.7443 175.548 30.8011C175.359 30.8542 175.139 30.9015 174.889 30.9432C174.643 30.9811 174.402 31.0152 174.168 31.0455C173.937 31.072 173.749 31.0947 173.605 31.1136C173.257 31.1591 172.931 31.233 172.628 31.3352C172.329 31.4337 172.086 31.5833 171.901 31.7841C171.719 31.9811 171.628 32.25 171.628 32.5909C171.628 33.0568 171.8 33.4091 172.145 33.6477C172.493 33.8826 172.935 34 173.469 34ZM179.712 35V26.2727H181.007V27.6364H181.121C181.303 27.1705 181.596 26.8087 182.001 26.5511C182.407 26.2898 182.893 26.1591 183.462 26.1591C184.037 26.1591 184.517 26.2898 184.899 26.5511C185.286 26.8087 185.587 27.1705 185.803 27.6364H185.893C186.117 27.1856 186.452 26.8277 186.899 26.5625C187.346 26.2936 187.882 26.1591 188.507 26.1591C189.287 26.1591 189.926 26.4034 190.422 26.892C190.918 27.3769 191.166 28.1326 191.166 29.1591V35H189.825V29.1591C189.825 28.5152 189.649 28.0549 189.297 27.7784C188.945 27.5019 188.53 27.3636 188.053 27.3636C187.439 27.3636 186.964 27.5492 186.626 27.9205C186.289 28.2879 186.121 28.7538 186.121 29.3182V35H184.757V29.0227C184.757 28.5265 184.596 28.1269 184.274 27.8239C183.952 27.517 183.537 27.3636 183.03 27.3636C182.681 27.3636 182.356 27.4564 182.053 27.642C181.753 27.8277 181.511 28.0852 181.325 28.4148C181.143 28.7405 181.053 29.1174 181.053 29.5455V35H179.712ZM197.277 35.1818C196.436 35.1818 195.711 34.9962 195.101 34.625C194.495 34.25 194.027 33.7273 193.697 33.0568C193.372 32.3826 193.209 31.5985 193.209 30.7045C193.209 29.8106 193.372 29.0227 193.697 28.3409C194.027 27.6553 194.485 27.1212 195.072 26.7386C195.663 26.3523 196.353 26.1591 197.141 26.1591C197.595 26.1591 198.044 26.2348 198.487 26.3864C198.93 26.5379 199.334 26.7841 199.697 27.125C200.061 27.4621 200.351 27.9091 200.567 28.4659C200.783 29.0227 200.891 29.7083 200.891 30.5227V31.0909H194.163V29.9318H199.527C199.527 29.4394 199.429 29 199.232 28.6136C199.038 28.2273 198.762 27.9223 198.402 27.6989C198.046 27.4754 197.625 27.3636 197.141 27.3636C196.607 27.3636 196.144 27.4962 195.754 27.7614C195.368 28.0227 195.071 28.3636 194.862 28.7841C194.654 29.2045 194.55 29.6553 194.55 30.1364V30.9091C194.55 31.5682 194.663 32.1269 194.891 32.5852C195.122 33.0398 195.442 33.3864 195.851 33.625C196.26 33.8598 196.735 33.9773 197.277 33.9773C197.629 33.9773 197.947 33.928 198.232 33.8295C198.519 33.7273 198.768 33.5758 198.976 33.375C199.184 33.1705 199.345 32.9167 199.459 32.6136L200.754 32.9773C200.618 33.4167 200.389 33.803 200.067 34.1364C199.745 34.4659 199.347 34.7235 198.874 34.9091C198.4 35.0909 197.868 35.1818 197.277 35.1818Z" fill="#717680"/>
</g>
</g>
<g filter="url(#filter1_di_241_3690)">
<g clip-path="url(#clip3_241_3690)">
<rect x="2" y="73" width="500" height="56" rx="28" fill="white"/>
<g clip-path="url(#clip4_241_3690)">
<g clip-path="url(#clip5_241_3690)">
<path d="M24.332 95.168L33.8577 101.836C34.6291 102.376 35.0148 102.646 35.4344 102.75C35.8049 102.843 36.1925 102.843 36.563 102.75C36.9825 102.646 37.3682 102.376 38.1396 101.836L47.6654 95.168M29.932 110.335H42.0654C44.0256 110.335 45.0056 110.335 45.7544 109.953C46.4129 109.618 46.9483 109.082 47.2839 108.424C47.6654 107.675 47.6654 106.695 47.6654 104.735V97.268C47.6654 95.3078 47.6654 94.3277 47.2839 93.579C46.9483 92.9204 46.4129 92.385 45.7544 92.0494C45.0056 91.668 44.0256 91.668 42.0654 91.668H29.932C27.9718 91.668 26.9918 91.668 26.2431 92.0494C25.5845 92.385 25.0491 92.9204 24.7135 93.579C24.332 94.3277 24.332 95.3078 24.332 97.268V104.735C24.332 106.695 24.332 107.675 24.7135 108.424C25.0491 109.082 25.5845 109.618 26.2431 109.953C26.9918 110.335 27.9718 110.335 29.932 110.335Z" stroke="#070FA0" stroke-width="1.75" stroke-linecap="round" stroke-linejoin="round"/>
</g>
</g>
<path d="M59.4091 107V95.3636H66.4318V96.6136H60.8182V100.545H66.0682V101.795H60.8182V105.75H66.5227V107H59.4091ZM73.7898 101.386V102.636H68.6989V101.386H73.7898ZM76.1491 107V98.2727H77.4446V99.6364H77.5582C77.7401 99.1705 78.0336 98.8087 78.4389 98.5511C78.8442 98.2898 79.331 98.1591 79.8991 98.1591C80.4749 98.1591 80.9541 98.2898 81.3366 98.5511C81.723 98.8087 82.0241 99.1705 82.2401 99.6364H82.331C82.5545 99.1856 82.8897 98.8277 83.3366 98.5625C83.7836 98.2936 84.3196 98.1591 84.9446 98.1591C85.7249 98.1591 86.3632 98.4034 86.8594 98.892C87.3556 99.3769 87.6037 100.133 87.6037 101.159V107H86.2628V101.159C86.2628 100.515 86.0866 100.055 85.7344 99.7784C85.3821 99.5019 84.9673 99.3636 84.4901 99.3636C83.8764 99.3636 83.401 99.5492 83.0639 99.9205C82.7268 100.288 82.5582 100.754 82.5582 101.318V107H81.1946V101.023C81.1946 100.527 81.0336 100.127 80.7116 99.8239C80.3897 99.517 79.9749 99.3636 79.4673 99.3636C79.1188 99.3636 78.7931 99.4564 78.4901 99.642C78.1908 99.8277 77.9484 100.085 77.7628 100.415C77.581 100.741 77.4901 101.117 77.4901 101.545V107H76.1491ZM92.6236 107.205C92.0705 107.205 91.5687 107.1 91.1179 106.892C90.6671 106.68 90.3092 106.375 90.044 105.977C89.7789 105.576 89.6463 105.091 89.6463 104.523C89.6463 104.023 89.7448 103.617 89.9418 103.307C90.1387 102.992 90.402 102.746 90.7315 102.568C91.0611 102.39 91.4247 102.258 91.8224 102.17C92.224 102.08 92.6274 102.008 93.0327 101.955C93.563 101.886 93.9929 101.835 94.3224 101.801C94.6558 101.763 94.8982 101.701 95.0497 101.614C95.205 101.527 95.2827 101.375 95.2827 101.159V101.114C95.2827 100.553 95.1293 100.117 94.8224 99.8068C94.5194 99.4962 94.0592 99.3409 93.4418 99.3409C92.8016 99.3409 92.2997 99.4811 91.9361 99.7614C91.5724 100.042 91.3168 100.341 91.169 100.659L89.8963 100.205C90.1236 99.6742 90.4266 99.2614 90.8054 98.9659C91.188 98.6667 91.6046 98.4583 92.0554 98.3409C92.5099 98.2197 92.9569 98.1591 93.3963 98.1591C93.6766 98.1591 93.9986 98.1932 94.3622 98.2614C94.7296 98.3258 95.0838 98.4602 95.4247 98.6648C95.7694 98.8693 96.0554 99.178 96.2827 99.5909C96.5099 100.004 96.6236 100.557 96.6236 101.25V107H95.2827V105.818H95.2145C95.1236 106.008 94.9721 106.21 94.7599 106.426C94.5478 106.642 94.2656 106.826 93.9134 106.977C93.5611 107.129 93.1312 107.205 92.6236 107.205ZM92.8281 106C93.3584 106 93.8054 105.896 94.169 105.688C94.5365 105.479 94.813 105.21 94.9986 104.881C95.188 104.551 95.2827 104.205 95.2827 103.841V102.614C95.2259 102.682 95.1009 102.744 94.9077 102.801C94.7183 102.854 94.4986 102.902 94.2486 102.943C94.0024 102.981 93.7618 103.015 93.527 103.045C93.2959 103.072 93.1084 103.095 92.9645 103.114C92.616 103.159 92.2902 103.233 91.9872 103.335C91.688 103.434 91.4455 103.583 91.2599 103.784C91.0781 103.981 90.9872 104.25 90.9872 104.591C90.9872 105.057 91.1596 105.409 91.5043 105.648C91.8527 105.883 92.294 106 92.8281 106ZM99.071 107V98.2727H100.412V107H99.071ZM99.7528 96.8182C99.4915 96.8182 99.2661 96.7292 99.0767 96.5511C98.8911 96.3731 98.7983 96.1591 98.7983 95.9091C98.7983 95.6591 98.8911 95.4451 99.0767 95.267C99.2661 95.089 99.4915 95 99.7528 95C100.014 95 100.238 95.089 100.423 95.267C100.613 95.4451 100.707 95.6591 100.707 95.9091C100.707 96.1591 100.613 96.3731 100.423 96.5511C100.238 96.7292 100.014 96.8182 99.7528 96.8182ZM104.209 95.3636V107H102.868V95.3636H104.209Z" fill="#717680"/>
</g>
</g>
<g filter="url(#filter2_di_241_3690)">
<g clip-path="url(#clip6_241_3690)">
<rect x="2" y="145" width="500" height="56" rx="28" fill="white"/>
<g clip-path="url(#clip7_241_3690)">
<g clip-path="url(#clip8_241_3690)">
<path d="M25.5 182.625C25.0168 182.625 24.625 183.016 24.625 183.5C24.625 183.983 25.0168 184.375 25.5 184.375V183.5V182.625ZM46.5 184.375C46.9832 184.375 47.375 183.983 47.375 183.5C47.375 183.016 46.9832 182.625 46.5 182.625V183.5V184.375ZM28.125 180C28.125 180.483 28.5168 180.875 29 180.875C29.4832 180.875 29.875 180.483 29.875 180H29H28.125ZM29.875 170.666C29.875 170.183 29.4832 169.791 29 169.791C28.5168 169.791 28.125 170.183 28.125 170.666H29H29.875ZM32.7917 180C32.7917 180.483 33.1834 180.875 33.6667 180.875C34.1499 180.875 34.5417 180.483 34.5417 180H33.6667H32.7917ZM34.5417 170.666C34.5417 170.183 34.1499 169.791 33.6667 169.791C33.1834 169.791 32.7917 170.183 32.7917 170.666H33.6667H34.5417ZM37.4583 180C37.4583 180.483 37.8501 180.875 38.3333 180.875C38.8166 180.875 39.2083 180.483 39.2083 180H38.3333H37.4583ZM39.2083 170.666C39.2083 170.183 38.8166 169.791 38.3333 169.791C37.8501 169.791 37.4583 170.183 37.4583 170.666H38.3333H39.2083ZM42.125 180C42.125 180.483 42.5168 180.875 43 180.875C43.4832 180.875 43.875 180.483 43.875 180H43H42.125ZM43.875 170.666C43.875 170.183 43.4832 169.791 43 169.791C42.5168 169.791 42.125 170.183 42.125 170.666H43H43.875ZM45.3333 167.166V168.041C45.7237 168.041 46.0668 167.783 46.1744 167.407C46.2821 167.032 46.1281 166.631 45.7971 166.424L45.3333 167.166ZM26.6667 167.166L26.2029 166.424C25.8719 166.631 25.718 167.032 25.8256 167.407C25.9332 167.783 26.2763 168.041 26.6667 168.041V167.166ZM25.5 183.5V184.375H46.5V183.5V182.625H25.5V183.5ZM29 180H29.875V170.666H29H28.125V180H29ZM33.6667 180H34.5417V170.666H33.6667H32.7917V180H33.6667ZM38.3333 180H39.2083V170.666H38.3333H37.4583V180H38.3333ZM43 180H43.875V170.666H43H42.125V180H43ZM36.4947 161.642L36.0309 162.384L44.8696 167.908L45.3333 167.166L45.7971 166.424L36.9584 160.9L36.4947 161.642ZM45.3333 167.166V166.291H26.6667V167.166V168.041H45.3333V167.166ZM26.6667 167.166L27.1304 167.908L35.9691 162.384L35.5053 161.642L35.0416 160.9L26.2029 166.424L26.6667 167.166ZM36.4947 161.642L36.9584 160.9C36.8333 160.822 36.5982 160.661 36.3232 160.599L36.1293 161.452L35.9354 162.305C35.8776 162.292 35.8465 162.273 35.8644 162.283C35.8745 162.288 35.8914 162.298 35.9208 162.316C35.9504 162.334 35.9847 162.355 36.0309 162.384L36.4947 161.642ZM35.5053 161.642L35.9691 162.384C36.0153 162.355 36.0496 162.334 36.0792 162.316C36.1086 162.298 36.1255 162.288 36.1356 162.283C36.1535 162.273 36.1224 162.292 36.0646 162.305L35.8707 161.452L35.6768 160.599C35.4018 160.661 35.1666 160.822 35.0416 160.9L35.5053 161.642ZM36.1293 161.452L36.3232 160.599C36.1105 160.55 35.8895 160.55 35.6768 160.599L35.8707 161.452L36.0646 162.305C36.022 162.315 35.978 162.315 35.9354 162.305L36.1293 161.452Z" fill="#070FA0"/>
</g>
</g>
<path d="M68.7727 171H67.3636C67.2803 170.595 67.1345 170.239 66.9261 169.932C66.7216 169.625 66.4716 169.367 66.1761 169.159C65.8845 168.947 65.5606 168.788 65.2045 168.682C64.8485 168.576 64.4773 168.523 64.0909 168.523C63.3864 168.523 62.7481 168.701 62.1761 169.057C61.608 169.413 61.1553 169.938 60.8182 170.631C60.4848 171.324 60.3182 172.174 60.3182 173.182C60.3182 174.189 60.4848 175.04 60.8182 175.733C61.1553 176.426 61.608 176.951 62.1761 177.307C62.7481 177.663 63.3864 177.841 64.0909 177.841C64.4773 177.841 64.8485 177.788 65.2045 177.682C65.5606 177.576 65.8845 177.419 66.1761 177.21C66.4716 176.998 66.7216 176.739 66.9261 176.432C67.1345 176.121 67.2803 175.765 67.3636 175.364H68.7727C68.6667 175.958 68.4735 176.491 68.1932 176.96C67.9129 177.43 67.5644 177.83 67.1477 178.159C66.7311 178.485 66.2633 178.733 65.7443 178.903C65.2292 179.074 64.678 179.159 64.0909 179.159C63.0985 179.159 62.2159 178.917 61.4432 178.432C60.6705 177.947 60.0625 177.258 59.6193 176.364C59.1761 175.47 58.9545 174.409 58.9545 173.182C58.9545 171.955 59.1761 170.894 59.6193 170C60.0625 169.106 60.6705 168.417 61.4432 167.932C62.2159 167.447 63.0985 167.205 64.0909 167.205C64.678 167.205 65.2292 167.29 65.7443 167.46C66.2633 167.631 66.7311 167.881 67.1477 168.21C67.5644 168.536 67.9129 168.934 68.1932 169.403C68.4735 169.869 68.6667 170.402 68.7727 171ZM74.4134 179.182C73.6255 179.182 72.9342 178.994 72.3395 178.619C71.7486 178.244 71.2865 177.72 70.9531 177.045C70.6236 176.371 70.4588 175.583 70.4588 174.682C70.4588 173.773 70.6236 172.979 70.9531 172.301C71.2865 171.623 71.7486 171.097 72.3395 170.722C72.9342 170.347 73.6255 170.159 74.4134 170.159C75.2012 170.159 75.8906 170.347 76.4815 170.722C77.0762 171.097 77.5384 171.623 77.8679 172.301C78.2012 172.979 78.3679 173.773 78.3679 174.682C78.3679 175.583 78.2012 176.371 77.8679 177.045C77.5384 177.72 77.0762 178.244 76.4815 178.619C75.8906 178.994 75.2012 179.182 74.4134 179.182ZM74.4134 177.977C75.0118 177.977 75.5043 177.824 75.8906 177.517C76.277 177.21 76.563 176.807 76.7486 176.307C76.9342 175.807 77.027 175.265 77.027 174.682C77.027 174.098 76.9342 173.555 76.7486 173.051C76.563 172.547 76.277 172.14 75.8906 171.83C75.5043 171.519 75.0118 171.364 74.4134 171.364C73.8149 171.364 73.3224 171.519 72.9361 171.83C72.5497 172.14 72.2637 172.547 72.0781 173.051C71.8925 173.555 71.7997 174.098 71.7997 174.682C71.7997 175.265 71.8925 175.807 72.0781 176.307C72.2637 176.807 72.5497 177.21 72.9361 177.517C73.3224 177.824 73.8149 177.977 74.4134 177.977ZM80.4148 179V170.273H81.7102V171.636H81.8239C82.0057 171.17 82.2992 170.809 82.7045 170.551C83.1098 170.29 83.5966 170.159 84.1648 170.159C84.7405 170.159 85.2197 170.29 85.6023 170.551C85.9886 170.809 86.2898 171.17 86.5057 171.636H86.5966C86.8201 171.186 87.1553 170.828 87.6023 170.562C88.0492 170.294 88.5852 170.159 89.2102 170.159C89.9905 170.159 90.6288 170.403 91.125 170.892C91.6212 171.377 91.8693 172.133 91.8693 173.159V179H90.5284V173.159C90.5284 172.515 90.3523 172.055 90 171.778C89.6477 171.502 89.233 171.364 88.7557 171.364C88.142 171.364 87.6667 171.549 87.3295 171.92C86.9924 172.288 86.8239 172.754 86.8239 173.318V179H85.4602V173.023C85.4602 172.527 85.2992 172.127 84.9773 171.824C84.6553 171.517 84.2405 171.364 83.733 171.364C83.3845 171.364 83.0587 171.456 82.7557 171.642C82.4564 171.828 82.214 172.085 82.0284 172.415C81.8466 172.741 81.7557 173.117 81.7557 173.545V179H80.4148ZM94.321 182.273V170.273H95.6165V171.659H95.7756C95.8741 171.508 96.0104 171.314 96.1847 171.08C96.3627 170.841 96.6165 170.629 96.946 170.443C97.2794 170.254 97.7301 170.159 98.2983 170.159C99.0331 170.159 99.6809 170.343 100.241 170.71C100.802 171.078 101.24 171.598 101.554 172.273C101.868 172.947 102.026 173.742 102.026 174.659C102.026 175.583 101.868 176.384 101.554 177.062C101.24 177.737 100.804 178.259 100.247 178.631C99.6903 178.998 99.0483 179.182 98.321 179.182C97.7604 179.182 97.3116 179.089 96.9744 178.903C96.6373 178.714 96.3778 178.5 96.196 178.261C96.0142 178.019 95.8741 177.818 95.7756 177.659H95.6619V182.273H94.321ZM95.6392 174.636C95.6392 175.295 95.7358 175.877 95.929 176.381C96.1222 176.881 96.4044 177.273 96.7756 177.557C97.1468 177.837 97.6013 177.977 98.1392 177.977C98.6998 177.977 99.1676 177.83 99.5426 177.534C99.9214 177.235 100.205 176.833 100.395 176.33C100.588 175.822 100.685 175.258 100.685 174.636C100.685 174.023 100.59 173.47 100.401 172.977C100.215 172.481 99.9328 172.089 99.554 171.801C99.179 171.509 98.7074 171.364 98.1392 171.364C97.5938 171.364 97.1354 171.502 96.7642 171.778C96.393 172.051 96.1127 172.434 95.9233 172.926C95.7339 173.415 95.6392 173.985 95.6392 174.636ZM106.639 179.205C106.086 179.205 105.584 179.1 105.134 178.892C104.683 178.68 104.325 178.375 104.06 177.977C103.795 177.576 103.662 177.091 103.662 176.523C103.662 176.023 103.76 175.617 103.957 175.307C104.154 174.992 104.418 174.746 104.747 174.568C105.077 174.39 105.44 174.258 105.838 174.17C106.24 174.08 106.643 174.008 107.048 173.955C107.579 173.886 108.009 173.835 108.338 173.801C108.671 173.763 108.914 173.701 109.065 173.614C109.221 173.527 109.298 173.375 109.298 173.159V173.114C109.298 172.553 109.145 172.117 108.838 171.807C108.535 171.496 108.075 171.341 107.457 171.341C106.817 171.341 106.315 171.481 105.952 171.761C105.588 172.042 105.332 172.341 105.185 172.659L103.912 172.205C104.139 171.674 104.442 171.261 104.821 170.966C105.204 170.667 105.62 170.458 106.071 170.341C106.526 170.22 106.973 170.159 107.412 170.159C107.692 170.159 108.014 170.193 108.378 170.261C108.745 170.326 109.099 170.46 109.44 170.665C109.785 170.869 110.071 171.178 110.298 171.591C110.526 172.004 110.639 172.557 110.639 173.25V179H109.298V177.818H109.23C109.139 178.008 108.988 178.21 108.776 178.426C108.563 178.642 108.281 178.826 107.929 178.977C107.577 179.129 107.147 179.205 106.639 179.205ZM106.844 178C107.374 178 107.821 177.896 108.185 177.688C108.552 177.479 108.829 177.21 109.014 176.881C109.204 176.551 109.298 176.205 109.298 175.841V174.614C109.241 174.682 109.116 174.744 108.923 174.801C108.734 174.854 108.514 174.902 108.264 174.943C108.018 174.981 107.777 175.015 107.543 175.045C107.312 175.072 107.124 175.095 106.98 175.114C106.632 175.159 106.306 175.233 106.003 175.335C105.704 175.434 105.461 175.583 105.276 175.784C105.094 175.981 105.003 176.25 105.003 176.591C105.003 177.057 105.175 177.409 105.52 177.648C105.868 177.883 106.31 178 106.844 178ZM114.428 173.75V179H113.087V170.273H114.382V171.636H114.496C114.7 171.193 115.011 170.837 115.428 170.568C115.844 170.295 116.382 170.159 117.041 170.159C117.632 170.159 118.149 170.28 118.592 170.523C119.036 170.761 119.38 171.125 119.626 171.614C119.873 172.098 119.996 172.712 119.996 173.455V179H118.655V173.545C118.655 172.86 118.477 172.326 118.121 171.943C117.765 171.557 117.276 171.364 116.655 171.364C116.227 171.364 115.844 171.456 115.507 171.642C115.174 171.828 114.911 172.098 114.717 172.455C114.524 172.811 114.428 173.242 114.428 173.75ZM122.997 182.273C122.77 182.273 122.567 182.254 122.389 182.216C122.211 182.182 122.088 182.148 122.02 182.114L122.361 180.932C122.687 181.015 122.974 181.045 123.224 181.023C123.474 181 123.696 180.888 123.889 180.688C124.086 180.491 124.266 180.17 124.429 179.727L124.679 179.045L121.452 170.273H122.906L125.315 177.227H125.406L127.815 170.273H129.27L125.565 180.273C125.399 180.723 125.192 181.097 124.946 181.392C124.7 181.691 124.414 181.913 124.088 182.057C123.766 182.201 123.402 182.273 122.997 182.273Z" fill="#717680"/>
</g>
</g>
<g filter="url(#filter3_di_241_3690)">
<g clip-path="url(#clip9_241_3690)">
<rect x="2" y="217" width="500" height="56" rx="28" fill="white"/>
<g clip-path="url(#clip10_241_3690)">
<g clip-path="url(#clip11_241_3690)">
<path d="M26.6654 256.452C27.3684 256.665 28.3179 256.665 29.932 256.665H42.0654C43.6795 256.665 44.629 256.665 45.332 256.452M26.6654 256.452C26.5147 256.407 26.3752 256.351 26.2431 256.284C25.5845 255.948 25.0491 255.413 24.7135 254.754C24.332 254.006 24.332 253.026 24.332 251.065V238.932C24.332 236.972 24.332 235.992 24.7135 235.243C25.0491 234.584 25.5845 234.049 26.2431 233.714C26.9918 233.332 27.9718 233.332 29.932 233.332H42.0654C44.0256 233.332 45.0056 233.332 45.7544 233.714C46.4129 234.049 46.9483 234.584 47.2839 235.243C47.6654 235.992 47.6654 236.972 47.6654 238.932V251.065C47.6654 253.026 47.6654 254.006 47.2839 254.754C46.9483 255.413 46.4129 255.948 45.7544 256.284C45.6222 256.351 45.4828 256.407 45.332 256.452M26.6654 256.452C26.6658 255.508 26.6714 255.009 26.755 254.588C27.1233 252.737 28.5704 251.29 30.4216 250.922C30.8724 250.832 31.4145 250.832 32.4987 250.832H39.4987C40.5829 250.832 41.125 250.832 41.5758 250.922C43.427 251.29 44.8741 252.737 45.2423 254.588C45.326 255.009 45.3316 255.508 45.332 256.452M40.6654 242.082C40.6654 244.659 38.576 246.749 35.9987 246.749C33.4214 246.749 31.332 244.659 31.332 242.082C31.332 239.505 33.4214 237.415 35.9987 237.415C38.576 237.415 40.6654 239.505 40.6654 242.082Z" stroke="#070FA0" stroke-width="1.75" stroke-linecap="round" stroke-linejoin="round"/>
</g>
</g>
<path d="M58.7727 240.614V239.364H67.5V240.614H63.8409V251H62.4318V240.614H58.7727ZM69.4929 251V242.273H70.8338V251H69.4929ZM70.1747 240.818C69.9134 240.818 69.688 240.729 69.4986 240.551C69.313 240.373 69.2202 240.159 69.2202 239.909C69.2202 239.659 69.313 239.445 69.4986 239.267C69.688 239.089 69.9134 239 70.1747 239C70.4361 239 70.6596 239.089 70.8452 239.267C71.0346 239.445 71.1293 239.659 71.1293 239.909C71.1293 240.159 71.0346 240.373 70.8452 240.551C70.6596 240.729 70.4361 240.818 70.1747 240.818ZM77.0852 242.273V243.409H72.5625V242.273H77.0852ZM73.8807 240.182H75.2216V248.5C75.2216 248.879 75.2765 249.163 75.3864 249.352C75.5 249.538 75.6439 249.663 75.8182 249.727C75.9962 249.788 76.1837 249.818 76.3807 249.818C76.5284 249.818 76.6496 249.811 76.7443 249.795C76.839 249.777 76.9148 249.761 76.9716 249.75L77.2443 250.955C77.1534 250.989 77.0265 251.023 76.8636 251.057C76.7008 251.095 76.4943 251.114 76.2443 251.114C75.8655 251.114 75.4943 251.032 75.1307 250.869C74.7708 250.706 74.4716 250.458 74.233 250.125C73.9981 249.792 73.8807 249.371 73.8807 248.864V240.182ZM80.6307 239.364V251H79.2898V239.364H80.6307ZM86.7457 251.182C85.9048 251.182 85.1795 250.996 84.5696 250.625C83.9635 250.25 83.4957 249.727 83.1662 249.057C82.8404 248.383 82.6776 247.598 82.6776 246.705C82.6776 245.811 82.8404 245.023 83.1662 244.341C83.4957 243.655 83.9541 243.121 84.5412 242.739C85.1321 242.352 85.8215 242.159 86.6094 242.159C87.0639 242.159 87.5128 242.235 87.956 242.386C88.3991 242.538 88.8026 242.784 89.1662 243.125C89.5298 243.462 89.8196 243.909 90.0355 244.466C90.2514 245.023 90.3594 245.708 90.3594 246.523V247.091H83.6321V245.932H88.9957C88.9957 245.439 88.8973 245 88.7003 244.614C88.5071 244.227 88.2306 243.922 87.8707 243.699C87.5147 243.475 87.0942 243.364 86.6094 243.364C86.0753 243.364 85.6132 243.496 85.223 243.761C84.8366 244.023 84.5393 244.364 84.331 244.784C84.1226 245.205 84.0185 245.655 84.0185 246.136V246.909C84.0185 247.568 84.1321 248.127 84.3594 248.585C84.5904 249.04 84.9105 249.386 85.3196 249.625C85.7287 249.86 86.2041 249.977 86.7457 249.977C87.098 249.977 87.4162 249.928 87.7003 249.83C87.9882 249.727 88.2363 249.576 88.4446 249.375C88.6529 249.17 88.8139 248.917 88.9276 248.614L90.223 248.977C90.0866 249.417 89.8575 249.803 89.5355 250.136C89.2135 250.466 88.8158 250.723 88.3423 250.909C87.8688 251.091 87.3366 251.182 86.7457 251.182ZM97.3764 245.182C97.3764 243.75 97.562 242.434 97.9332 241.233C98.3082 240.028 98.8423 238.92 99.5355 237.909H100.717C100.445 238.284 100.189 238.746 99.9503 239.295C99.7154 239.841 99.509 240.441 99.331 241.097C99.1529 241.748 99.0128 242.422 98.9105 243.119C98.812 243.816 98.7628 244.504 98.7628 245.182C98.7628 246.083 98.8499 246.998 99.0241 247.926C99.1984 248.854 99.4332 249.716 99.7287 250.511C100.024 251.307 100.354 251.955 100.717 252.455H99.5355C98.8423 251.443 98.3082 250.337 97.9332 249.136C97.562 247.932 97.3764 246.614 97.3764 245.182ZM112.696 245.182C112.696 246.409 112.474 247.47 112.031 248.364C111.588 249.258 110.98 249.947 110.207 250.432C109.435 250.917 108.552 251.159 107.56 251.159C106.567 251.159 105.685 250.917 104.912 250.432C104.139 249.947 103.531 249.258 103.088 248.364C102.645 247.47 102.423 246.409 102.423 245.182C102.423 243.955 102.645 242.894 103.088 242C103.531 241.106 104.139 240.417 104.912 239.932C105.685 239.447 106.567 239.205 107.56 239.205C108.552 239.205 109.435 239.447 110.207 239.932C110.98 240.417 111.588 241.106 112.031 242C112.474 242.894 112.696 243.955 112.696 245.182ZM111.332 245.182C111.332 244.174 111.164 243.324 110.827 242.631C110.493 241.938 110.041 241.413 109.469 241.057C108.901 240.701 108.264 240.523 107.56 240.523C106.855 240.523 106.217 240.701 105.645 241.057C105.077 241.413 104.624 241.938 104.287 242.631C103.954 243.324 103.787 244.174 103.787 245.182C103.787 246.189 103.954 247.04 104.287 247.733C104.624 248.426 105.077 248.951 105.645 249.307C106.217 249.663 106.855 249.841 107.56 249.841C108.264 249.841 108.901 249.663 109.469 249.307C110.041 248.951 110.493 248.426 110.827 247.733C111.164 247.04 111.332 246.189 111.332 245.182ZM114.884 254.273V242.273H116.179V243.659H116.338C116.437 243.508 116.573 243.314 116.747 243.08C116.925 242.841 117.179 242.629 117.509 242.443C117.842 242.254 118.293 242.159 118.861 242.159C119.596 242.159 120.243 242.343 120.804 242.71C121.365 243.078 121.802 243.598 122.116 244.273C122.431 244.947 122.588 245.742 122.588 246.659C122.588 247.583 122.431 248.384 122.116 249.062C121.802 249.737 121.366 250.259 120.81 250.631C120.253 250.998 119.611 251.182 118.884 251.182C118.323 251.182 117.874 251.089 117.537 250.903C117.2 250.714 116.94 250.5 116.759 250.261C116.577 250.019 116.437 249.818 116.338 249.659H116.224V254.273H114.884ZM116.202 246.636C116.202 247.295 116.298 247.877 116.491 248.381C116.685 248.881 116.967 249.273 117.338 249.557C117.709 249.837 118.164 249.977 118.702 249.977C119.262 249.977 119.73 249.83 120.105 249.534C120.484 249.235 120.768 248.833 120.957 248.33C121.151 247.822 121.247 247.258 121.247 246.636C121.247 246.023 121.152 245.47 120.963 244.977C120.777 244.481 120.495 244.089 120.116 243.801C119.741 243.509 119.27 243.364 118.702 243.364C118.156 243.364 117.698 243.502 117.327 243.778C116.955 244.051 116.675 244.434 116.486 244.926C116.296 245.415 116.202 245.985 116.202 246.636ZM128.429 242.273V243.409H123.906V242.273H128.429ZM125.224 240.182H126.565V248.5C126.565 248.879 126.62 249.163 126.73 249.352C126.844 249.538 126.988 249.663 127.162 249.727C127.34 249.788 127.527 249.818 127.724 249.818C127.872 249.818 127.993 249.811 128.088 249.795C128.183 249.777 128.259 249.761 128.315 249.75L128.588 250.955C128.497 250.989 128.37 251.023 128.207 251.057C128.045 251.095 127.838 251.114 127.588 251.114C127.209 251.114 126.838 251.032 126.474 250.869C126.115 250.706 125.815 250.458 125.577 250.125C125.342 249.792 125.224 249.371 125.224 248.864V240.182ZM130.446 251V242.273H131.787V251H130.446ZM131.128 240.818C130.866 240.818 130.641 240.729 130.452 240.551C130.266 240.373 130.173 240.159 130.173 239.909C130.173 239.659 130.266 239.445 130.452 239.267C130.641 239.089 130.866 239 131.128 239C131.389 239 131.613 239.089 131.798 239.267C131.988 239.445 132.082 239.659 132.082 239.909C132.082 240.159 131.988 240.373 131.798 240.551C131.613 240.729 131.389 240.818 131.128 240.818ZM137.788 251.182C137 251.182 136.309 250.994 135.714 250.619C135.124 250.244 134.661 249.72 134.328 249.045C133.999 248.371 133.834 247.583 133.834 246.682C133.834 245.773 133.999 244.979 134.328 244.301C134.661 243.623 135.124 243.097 135.714 242.722C136.309 242.347 137 242.159 137.788 242.159C138.576 242.159 139.266 242.347 139.857 242.722C140.451 243.097 140.913 243.623 141.243 244.301C141.576 244.979 141.743 245.773 141.743 246.682C141.743 247.583 141.576 248.371 141.243 249.045C140.913 249.72 140.451 250.244 139.857 250.619C139.266 250.994 138.576 251.182 137.788 251.182ZM137.788 249.977C138.387 249.977 138.879 249.824 139.266 249.517C139.652 249.21 139.938 248.807 140.124 248.307C140.309 247.807 140.402 247.265 140.402 246.682C140.402 246.098 140.309 245.555 140.124 245.051C139.938 244.547 139.652 244.14 139.266 243.83C138.879 243.519 138.387 243.364 137.788 243.364C137.19 243.364 136.697 243.519 136.311 243.83C135.925 244.14 135.639 244.547 135.453 245.051C135.268 245.555 135.175 246.098 135.175 246.682C135.175 247.265 135.268 247.807 135.453 248.307C135.639 248.807 135.925 249.21 136.311 249.517C136.697 249.824 137.19 249.977 137.788 249.977ZM145.131 245.75V251H143.79V242.273H145.085V243.636H145.199C145.403 243.193 145.714 242.837 146.131 242.568C146.547 242.295 147.085 242.159 147.744 242.159C148.335 242.159 148.852 242.28 149.295 242.523C149.739 242.761 150.083 243.125 150.33 243.614C150.576 244.098 150.699 244.712 150.699 245.455V251H149.358V245.545C149.358 244.86 149.18 244.326 148.824 243.943C148.468 243.557 147.979 243.364 147.358 243.364C146.93 243.364 146.547 243.456 146.21 243.642C145.877 243.828 145.614 244.098 145.42 244.455C145.227 244.811 145.131 245.242 145.131 245.75ZM155.717 251.205C155.164 251.205 154.662 251.1 154.212 250.892C153.761 250.68 153.403 250.375 153.138 249.977C152.873 249.576 152.74 249.091 152.74 248.523C152.74 248.023 152.839 247.617 153.036 247.307C153.232 246.992 153.496 246.746 153.825 246.568C154.155 246.39 154.518 246.258 154.916 246.17C155.318 246.08 155.721 246.008 156.126 245.955C156.657 245.886 157.087 245.835 157.416 245.801C157.75 245.763 157.992 245.701 158.143 245.614C158.299 245.527 158.376 245.375 158.376 245.159V245.114C158.376 244.553 158.223 244.117 157.916 243.807C157.613 243.496 157.153 243.341 156.536 243.341C155.895 243.341 155.393 243.481 155.03 243.761C154.666 244.042 154.411 244.341 154.263 244.659L152.99 244.205C153.217 243.674 153.52 243.261 153.899 242.966C154.282 242.667 154.698 242.458 155.149 242.341C155.604 242.22 156.051 242.159 156.49 242.159C156.77 242.159 157.092 242.193 157.456 242.261C157.823 242.326 158.178 242.46 158.518 242.665C158.863 242.869 159.149 243.178 159.376 243.591C159.604 244.004 159.717 244.557 159.717 245.25V251H158.376V249.818H158.308C158.217 250.008 158.066 250.21 157.854 250.426C157.642 250.642 157.359 250.826 157.007 250.977C156.655 251.129 156.225 251.205 155.717 251.205ZM155.922 250C156.452 250 156.899 249.896 157.263 249.688C157.63 249.479 157.907 249.21 158.092 248.881C158.282 248.551 158.376 248.205 158.376 247.841V246.614C158.32 246.682 158.195 246.744 158.001 246.801C157.812 246.854 157.592 246.902 157.342 246.943C157.096 246.981 156.856 247.015 156.621 247.045C156.39 247.072 156.202 247.095 156.058 247.114C155.71 247.159 155.384 247.233 155.081 247.335C154.782 247.434 154.539 247.583 154.354 247.784C154.172 247.981 154.081 248.25 154.081 248.591C154.081 249.057 154.253 249.409 154.598 249.648C154.946 249.883 155.388 250 155.922 250ZM163.506 239.364V251H162.165V239.364H163.506ZM168.825 246.091C168.825 247.523 168.638 248.841 168.263 250.045C167.892 251.246 167.359 252.352 166.666 253.364H165.484C165.757 252.989 166.011 252.527 166.246 251.977C166.484 251.432 166.693 250.833 166.871 250.182C167.049 249.527 167.187 248.85 167.286 248.153C167.388 247.453 167.439 246.765 167.439 246.091C167.439 245.189 167.352 244.275 167.178 243.347C167.003 242.419 166.768 241.557 166.473 240.761C166.178 239.966 165.848 239.318 165.484 238.818H166.666C167.359 239.83 167.892 240.937 168.263 242.142C168.638 243.343 168.825 244.659 168.825 246.091Z" fill="#717680"/>
</g>
</g>
<path d="M66.7242 304V293.818H70.2839C70.9932 293.818 71.5781 293.941 72.0388 294.186C72.4995 294.428 72.8426 294.754 73.068 295.165C73.2933 295.573 73.406 296.026 73.406 296.523C73.406 296.96 73.3281 297.321 73.1724 297.607C73.0199 297.892 72.8177 298.117 72.5658 298.283C72.3173 298.448 72.0471 298.571 71.7555 298.651V298.75C72.067 298.77 72.3802 298.879 72.6951 299.078C73.01 299.277 73.2735 299.562 73.4856 299.933C73.6977 300.304 73.8038 300.759 73.8038 301.295C73.8038 301.806 73.6878 302.265 73.4557 302.673C73.2237 303.08 72.8575 303.403 72.357 303.642C71.8566 303.881 71.2053 304 70.4032 304H66.7242ZM67.9572 302.906H70.4032C71.2086 302.906 71.7803 302.75 72.1184 302.439C72.4598 302.124 72.6305 301.743 72.6305 301.295C72.6305 300.951 72.5426 300.633 72.367 300.341C72.1913 300.046 71.9411 299.811 71.6163 299.635C71.2914 299.456 70.907 299.366 70.4628 299.366H67.9572V302.906ZM67.9572 298.293H70.2441C70.6153 298.293 70.9501 298.22 71.2484 298.074C71.55 297.928 71.7886 297.723 71.9643 297.457C72.1432 297.192 72.2327 296.881 72.2327 296.523C72.2327 296.075 72.077 295.696 71.7654 295.384C71.4539 295.069 70.96 294.912 70.2839 294.912H67.9572V298.293ZM76.4263 306.864C76.2274 306.864 76.0501 306.847 75.8943 306.814C75.7385 306.784 75.6308 306.754 75.5712 306.724L75.8695 305.69C76.1545 305.763 76.4064 305.79 76.6251 305.77C76.8439 305.75 77.0378 305.652 77.2068 305.477C77.3792 305.304 77.5366 305.024 77.6791 304.636L77.8979 304.04L75.074 296.364H76.3467L78.4547 302.449H78.5342L80.6422 296.364H81.9149L78.6734 305.114C78.5276 305.508 78.347 305.835 78.1315 306.093C77.9161 306.355 77.6659 306.549 77.3808 306.675C77.0991 306.801 76.7809 306.864 76.4263 306.864ZM92.8101 298.074L91.7562 298.372C91.6899 298.196 91.5921 298.026 91.4628 297.86C91.3369 297.691 91.1646 297.552 90.9458 297.442C90.7271 297.333 90.447 297.278 90.1056 297.278C89.6383 297.278 89.2488 297.386 88.9373 297.602C88.629 297.814 88.4749 298.084 88.4749 298.412C88.4749 298.704 88.581 298.934 88.7931 299.103C89.0052 299.272 89.3367 299.413 89.7874 299.526L90.9209 299.804C91.6037 299.97 92.1125 300.223 92.4472 300.565C92.782 300.903 92.9494 301.339 92.9494 301.872C92.9494 302.31 92.8234 302.701 92.5715 303.045C92.3229 303.39 91.9749 303.662 91.5275 303.861C91.08 304.06 90.5597 304.159 89.9664 304.159C89.1875 304.159 88.5429 303.99 88.0324 303.652C87.522 303.314 87.1989 302.82 87.063 302.17L88.1766 301.892C88.2827 302.303 88.4832 302.611 88.7782 302.817C89.0765 303.022 89.4659 303.125 89.9465 303.125C90.4934 303.125 90.9276 303.009 91.2491 302.777C91.5739 302.542 91.7363 302.26 91.7363 301.932C91.7363 301.667 91.6435 301.445 91.4579 301.266C91.2723 301.083 90.9872 300.947 90.6028 300.858L89.33 300.56C88.6307 300.394 88.117 300.137 87.7888 299.789C87.464 299.438 87.3016 298.999 87.3016 298.472C87.3016 298.041 87.4226 297.66 87.6646 297.328C87.9098 296.997 88.2429 296.737 88.6638 296.548C89.0881 296.359 89.5687 296.264 90.1056 296.264C90.8613 296.264 91.4546 296.43 91.8854 296.761C92.3196 297.093 92.6279 297.53 92.8101 298.074ZM99.528 300.878V296.364H100.701V304H99.528V302.707H99.4485C99.2695 303.095 98.9911 303.425 98.6132 303.697C98.2354 303.965 97.7581 304.099 97.1814 304.099C96.7041 304.099 96.2799 303.995 95.9087 303.786C95.5375 303.574 95.2458 303.256 95.0337 302.832C94.8216 302.404 94.7155 301.866 94.7155 301.216V296.364H95.8888V301.136C95.8888 301.693 96.0446 302.137 96.3561 302.469C96.671 302.8 97.072 302.966 97.5593 302.966C97.8509 302.966 98.1476 302.891 98.4492 302.742C98.7541 302.593 99.0093 302.364 99.2148 302.056C99.4236 301.748 99.528 301.355 99.528 300.878ZM103.009 304V293.818H104.183V297.577H104.282C104.368 297.444 104.488 297.275 104.64 297.07C104.796 296.861 105.018 296.675 105.306 296.513C105.598 296.347 105.992 296.264 106.489 296.264C107.132 296.264 107.699 296.425 108.19 296.746C108.68 297.068 109.063 297.524 109.338 298.114C109.613 298.704 109.751 299.4 109.751 300.202C109.751 301.01 109.613 301.711 109.338 302.305C109.063 302.895 108.682 303.352 108.195 303.677C107.708 303.998 107.146 304.159 106.509 304.159C106.019 304.159 105.626 304.078 105.331 303.915C105.036 303.75 104.809 303.562 104.65 303.354C104.491 303.142 104.368 302.966 104.282 302.827H104.143V304H103.009ZM104.163 300.182C104.163 300.759 104.247 301.267 104.416 301.708C104.585 302.146 104.832 302.489 105.157 302.737C105.482 302.982 105.88 303.105 106.35 303.105C106.841 303.105 107.25 302.976 107.578 302.717C107.91 302.455 108.158 302.104 108.324 301.663C108.493 301.219 108.578 300.725 108.578 300.182C108.578 299.645 108.495 299.161 108.329 298.73C108.167 298.296 107.92 297.953 107.588 297.701C107.26 297.446 106.847 297.318 106.35 297.318C105.873 297.318 105.472 297.439 105.147 297.681C104.822 297.92 104.577 298.254 104.411 298.685C104.246 299.113 104.163 299.612 104.163 300.182ZM111.546 304V296.364H112.679V297.557H112.779C112.938 297.149 113.195 296.833 113.549 296.607C113.904 296.379 114.33 296.264 114.827 296.264C115.331 296.264 115.75 296.379 116.085 296.607C116.423 296.833 116.686 297.149 116.875 297.557H116.955C117.15 297.162 117.444 296.849 117.835 296.617C118.226 296.382 118.695 296.264 119.242 296.264C119.924 296.264 120.483 296.478 120.917 296.906C121.351 297.33 121.568 297.991 121.568 298.889V304H120.395V298.889C120.395 298.326 120.241 297.923 119.933 297.681C119.624 297.439 119.261 297.318 118.844 297.318C118.307 297.318 117.891 297.481 117.596 297.805C117.301 298.127 117.154 298.535 117.154 299.028V304H115.96V298.77C115.96 298.336 115.82 297.986 115.538 297.721C115.256 297.452 114.893 297.318 114.449 297.318C114.144 297.318 113.859 297.399 113.594 297.562C113.332 297.724 113.12 297.95 112.958 298.238C112.798 298.523 112.719 298.853 112.719 299.227V304H111.546ZM123.714 304V296.364H124.887V304H123.714ZM124.31 295.091C124.081 295.091 123.884 295.013 123.719 294.857C123.556 294.701 123.475 294.514 123.475 294.295C123.475 294.077 123.556 293.889 123.719 293.734C123.884 293.578 124.081 293.5 124.31 293.5C124.539 293.5 124.734 293.578 124.897 293.734C125.063 293.889 125.145 294.077 125.145 294.295C125.145 294.514 125.063 294.701 124.897 294.857C124.734 295.013 124.539 295.091 124.31 295.091ZM130.357 296.364V297.358H126.399V296.364H130.357ZM127.553 294.534H128.726V301.812C128.726 302.144 128.774 302.393 128.87 302.558C128.97 302.721 129.096 302.83 129.248 302.886C129.404 302.939 129.568 302.966 129.74 302.966C129.87 302.966 129.976 302.959 130.059 302.946C130.141 302.929 130.208 302.916 130.257 302.906L130.496 303.96C130.417 303.99 130.305 304.02 130.163 304.05C130.02 304.083 129.84 304.099 129.621 304.099C129.29 304.099 128.965 304.028 128.647 303.886C128.332 303.743 128.07 303.526 127.861 303.234C127.656 302.943 127.553 302.575 127.553 302.131V294.534ZM135.443 296.364V297.358H131.485V296.364H135.443ZM132.639 294.534H133.812V301.812C133.812 302.144 133.86 302.393 133.956 302.558C134.056 302.721 134.182 302.83 134.334 302.886C134.49 302.939 134.654 302.966 134.826 302.966C134.956 302.966 135.062 302.959 135.144 302.946C135.227 302.929 135.294 302.916 135.343 302.906L135.582 303.96C135.502 303.99 135.391 304.02 135.249 304.05C135.106 304.083 134.926 304.099 134.707 304.099C134.376 304.099 134.051 304.028 133.733 303.886C133.418 303.743 133.156 303.526 132.947 303.234C132.742 302.943 132.639 302.575 132.639 302.131V294.534ZM137.208 304V296.364H138.381V304H137.208ZM137.804 295.091C137.576 295.091 137.378 295.013 137.213 294.857C137.05 294.701 136.969 294.514 136.969 294.295C136.969 294.077 137.05 293.889 137.213 293.734C137.378 293.578 137.576 293.5 137.804 293.5C138.033 293.5 138.229 293.578 138.391 293.734C138.557 293.889 138.64 294.077 138.64 294.295C138.64 294.514 138.557 294.701 138.391 294.857C138.229 295.013 138.033 295.091 137.804 295.091ZM141.703 299.406V304H140.53V296.364H141.663V297.557H141.763C141.942 297.169 142.214 296.857 142.578 296.622C142.943 296.384 143.413 296.264 143.99 296.264C144.507 296.264 144.96 296.37 145.347 296.582C145.735 296.791 146.037 297.109 146.252 297.537C146.468 297.961 146.575 298.498 146.575 299.148V304H145.402V299.227C145.402 298.627 145.246 298.16 144.935 297.825C144.623 297.487 144.196 297.318 143.652 297.318C143.278 297.318 142.943 297.399 142.648 297.562C142.356 297.724 142.126 297.961 141.957 298.273C141.788 298.584 141.703 298.962 141.703 299.406ZM151.802 307.023C151.235 307.023 150.748 306.95 150.34 306.804C149.932 306.661 149.593 306.473 149.321 306.237C149.053 306.005 148.839 305.757 148.68 305.491L149.614 304.835C149.72 304.974 149.855 305.134 150.017 305.312C150.179 305.495 150.401 305.652 150.683 305.785C150.968 305.921 151.341 305.989 151.802 305.989C152.418 305.989 152.927 305.839 153.328 305.541C153.729 305.243 153.93 304.776 153.93 304.139V302.588H153.83C153.744 302.727 153.621 302.9 153.462 303.105C153.307 303.307 153.081 303.488 152.786 303.647C152.495 303.803 152.1 303.881 151.603 303.881C150.986 303.881 150.433 303.735 149.942 303.443C149.455 303.152 149.069 302.727 148.784 302.17C148.502 301.614 148.361 300.937 148.361 300.142C148.361 299.36 148.499 298.679 148.774 298.099C149.049 297.515 149.432 297.065 149.923 296.746C150.413 296.425 150.98 296.264 151.623 296.264C152.12 296.264 152.514 296.347 152.806 296.513C153.101 296.675 153.326 296.861 153.482 297.07C153.641 297.275 153.764 297.444 153.85 297.577H153.969V296.364H155.103V304.219C155.103 304.875 154.954 305.409 154.655 305.82C154.361 306.234 153.963 306.537 153.462 306.729C152.965 306.925 152.412 307.023 151.802 307.023ZM151.762 302.827C152.233 302.827 152.63 302.719 152.955 302.504C153.28 302.288 153.527 301.978 153.696 301.574C153.865 301.17 153.95 300.686 153.95 300.122C153.95 299.572 153.867 299.086 153.701 298.665C153.535 298.245 153.29 297.915 152.965 297.676C152.64 297.437 152.239 297.318 151.762 297.318C151.265 297.318 150.851 297.444 150.519 297.696C150.191 297.948 149.944 298.286 149.778 298.71C149.616 299.134 149.535 299.605 149.535 300.122C149.535 300.652 149.618 301.121 149.783 301.529C149.952 301.933 150.201 302.252 150.529 302.484C150.861 302.712 151.272 302.827 151.762 302.827ZM164.509 296.364V297.358H160.552V296.364H164.509ZM161.705 294.534H162.879V301.812C162.879 302.144 162.927 302.393 163.023 302.558C163.122 302.721 163.248 302.83 163.401 302.886C163.556 302.939 163.72 302.966 163.893 302.966C164.022 302.966 164.128 302.959 164.211 302.946C164.294 302.929 164.36 302.916 164.41 302.906L164.648 303.96C164.569 303.99 164.458 304.02 164.315 304.05C164.173 304.083 163.992 304.099 163.773 304.099C163.442 304.099 163.117 304.028 162.799 303.886C162.484 303.743 162.222 303.526 162.013 303.234C161.808 302.943 161.705 302.575 161.705 302.131V294.534ZM167.611 299.406V304H166.438V293.818H167.611V297.557H167.711C167.89 297.162 168.158 296.849 168.516 296.617C168.878 296.382 169.358 296.264 169.958 296.264C170.478 296.264 170.934 296.369 171.325 296.577C171.716 296.783 172.02 297.099 172.235 297.527C172.454 297.951 172.563 298.491 172.563 299.148V304H171.39V299.227C171.39 298.621 171.232 298.152 170.918 297.82C170.606 297.486 170.173 297.318 169.62 297.318C169.236 297.318 168.891 297.399 168.586 297.562C168.284 297.724 168.046 297.961 167.87 298.273C167.698 298.584 167.611 298.962 167.611 299.406ZM177.911 304.159C177.176 304.159 176.541 303.997 176.007 303.672C175.477 303.344 175.068 302.886 174.779 302.3C174.494 301.71 174.352 301.024 174.352 300.241C174.352 299.459 174.494 298.77 174.779 298.173C175.068 297.573 175.469 297.106 175.982 296.771C176.499 296.433 177.103 296.264 177.792 296.264C178.19 296.264 178.583 296.33 178.97 296.463C179.358 296.596 179.711 296.811 180.029 297.109C180.347 297.404 180.601 297.795 180.79 298.283C180.979 298.77 181.073 299.37 181.073 300.082V300.58H175.187V299.565H179.88C179.88 299.134 179.794 298.75 179.622 298.412C179.453 298.074 179.211 297.807 178.896 297.612C178.584 297.416 178.216 297.318 177.792 297.318C177.325 297.318 176.92 297.434 176.579 297.666C176.241 297.895 175.981 298.193 175.798 298.561C175.616 298.929 175.525 299.323 175.525 299.744V300.42C175.525 300.997 175.624 301.486 175.823 301.887C176.025 302.285 176.306 302.588 176.663 302.797C177.021 303.002 177.437 303.105 177.911 303.105C178.22 303.105 178.498 303.062 178.747 302.976C178.998 302.886 179.216 302.754 179.398 302.578C179.58 302.399 179.721 302.177 179.82 301.912L180.954 302.23C180.835 302.615 180.634 302.953 180.352 303.244C180.071 303.533 179.723 303.758 179.308 303.92C178.894 304.08 178.428 304.159 177.911 304.159ZM190.196 296.364V297.358H186.08V296.364H190.196ZM187.313 304V295.31C187.313 294.872 187.415 294.508 187.621 294.216C187.826 293.924 188.093 293.705 188.421 293.56C188.749 293.414 189.096 293.341 189.46 293.341C189.749 293.341 189.984 293.364 190.166 293.411C190.349 293.457 190.485 293.5 190.574 293.54L190.236 294.554C190.176 294.534 190.093 294.509 189.987 294.479C189.885 294.45 189.749 294.435 189.58 294.435C189.192 294.435 188.912 294.532 188.739 294.728C188.57 294.924 188.486 295.21 188.486 295.588V304H187.313ZM194.628 304.159C193.939 304.159 193.334 303.995 192.814 303.667C192.297 303.339 191.892 302.88 191.601 302.29C191.312 301.7 191.168 301.01 191.168 300.222C191.168 299.426 191.312 298.732 191.601 298.138C191.892 297.545 192.297 297.085 192.814 296.756C193.334 296.428 193.939 296.264 194.628 296.264C195.318 296.264 195.921 296.428 196.438 296.756C196.958 297.085 197.363 297.545 197.651 298.138C197.943 298.732 198.089 299.426 198.089 300.222C198.089 301.01 197.943 301.7 197.651 302.29C197.363 302.88 196.958 303.339 196.438 303.667C195.921 303.995 195.318 304.159 194.628 304.159ZM194.628 303.105C195.152 303.105 195.583 302.971 195.921 302.702C196.259 302.434 196.509 302.081 196.672 301.643C196.834 301.206 196.915 300.732 196.915 300.222C196.915 299.711 196.834 299.236 196.672 298.795C196.509 298.354 196.259 297.998 195.921 297.726C195.583 297.454 195.152 297.318 194.628 297.318C194.105 297.318 193.674 297.454 193.336 297.726C192.998 297.998 192.747 298.354 192.585 298.795C192.423 299.236 192.341 299.711 192.341 300.222C192.341 300.732 192.423 301.206 192.585 301.643C192.747 302.081 192.998 302.434 193.336 302.702C193.674 302.971 194.105 303.105 194.628 303.105ZM199.88 304V296.364H201.013V297.517H201.093C201.232 297.139 201.484 296.833 201.848 296.597C202.213 296.362 202.624 296.244 203.081 296.244C203.167 296.244 203.275 296.246 203.404 296.249C203.534 296.253 203.631 296.258 203.698 296.264V297.457C203.658 297.447 203.567 297.433 203.424 297.413C203.285 297.389 203.138 297.378 202.982 297.378C202.611 297.378 202.279 297.456 201.988 297.612C201.699 297.764 201.47 297.976 201.301 298.248C201.136 298.516 201.053 298.823 201.053 299.168V304H199.88ZM205.089 304V296.364H206.222V297.557H206.322C206.481 297.149 206.737 296.833 207.092 296.607C207.447 296.379 207.873 296.264 208.37 296.264C208.874 296.264 209.293 296.379 209.628 296.607C209.966 296.833 210.229 297.149 210.418 297.557H210.498C210.693 297.162 210.987 296.849 211.378 296.617C211.769 296.382 212.238 296.264 212.785 296.264C213.467 296.264 214.026 296.478 214.46 296.906C214.894 297.33 215.111 297.991 215.111 298.889V304H213.938V298.889C213.938 298.326 213.784 297.923 213.476 297.681C213.167 297.439 212.804 297.318 212.387 297.318C211.85 297.318 211.434 297.481 211.139 297.805C210.844 298.127 210.697 298.535 210.697 299.028V304H209.503V298.77C209.503 298.336 209.362 297.986 209.081 297.721C208.799 297.452 208.436 297.318 207.992 297.318C207.687 297.318 207.402 297.399 207.137 297.562C206.875 297.724 206.663 297.95 206.5 298.238C206.341 298.523 206.262 298.853 206.262 299.227V304H205.089ZM221.95 306.864C221.751 306.864 221.574 306.847 221.418 306.814C221.262 306.784 221.154 306.754 221.095 306.724L221.393 305.69C221.678 305.763 221.93 305.79 222.149 305.77C222.367 305.75 222.561 305.652 222.73 305.477C222.903 305.304 223.06 305.024 223.203 304.636L223.421 304.04L220.597 296.364H221.87L223.978 302.449H224.058L226.166 296.364H227.438L224.197 305.114C224.051 305.508 223.87 305.835 223.655 306.093C223.44 306.355 223.189 306.549 222.904 306.675C222.623 306.801 222.304 306.864 221.95 306.864ZM231.816 304.159C231.126 304.159 230.522 303.995 230.001 303.667C229.484 303.339 229.08 302.88 228.788 302.29C228.5 301.7 228.356 301.01 228.356 300.222C228.356 299.426 228.5 298.732 228.788 298.138C229.08 297.545 229.484 297.085 230.001 296.756C230.522 296.428 231.126 296.264 231.816 296.264C232.505 296.264 233.108 296.428 233.625 296.756C234.146 297.085 234.55 297.545 234.839 298.138C235.13 298.732 235.276 299.426 235.276 300.222C235.276 301.01 235.13 301.7 234.839 302.29C234.55 302.88 234.146 303.339 233.625 303.667C233.108 303.995 232.505 304.159 231.816 304.159ZM231.816 303.105C232.34 303.105 232.77 302.971 233.108 302.702C233.447 302.434 233.697 302.081 233.859 301.643C234.022 301.206 234.103 300.732 234.103 300.222C234.103 299.711 234.022 299.236 233.859 298.795C233.697 298.354 233.447 297.998 233.108 297.726C232.77 297.454 232.34 297.318 231.816 297.318C231.292 297.318 230.861 297.454 230.523 297.726C230.185 297.998 229.935 298.354 229.773 298.795C229.61 299.236 229.529 299.711 229.529 300.222C229.529 300.732 229.61 301.206 229.773 301.643C229.935 302.081 230.185 302.434 230.523 302.702C230.861 302.971 231.292 303.105 231.816 303.105ZM241.88 300.878V296.364H243.053V304H241.88V302.707H241.8C241.621 303.095 241.343 303.425 240.965 303.697C240.587 303.965 240.11 304.099 239.533 304.099C239.056 304.099 238.631 303.995 238.26 303.786C237.889 303.574 237.597 303.256 237.385 302.832C237.173 302.404 237.067 301.866 237.067 301.216V296.364H238.24V301.136C238.24 301.693 238.396 302.137 238.708 302.469C239.023 302.8 239.424 302.966 239.911 302.966C240.202 302.966 240.499 302.891 240.801 302.742C241.106 302.593 241.361 302.364 241.566 302.056C241.775 301.748 241.88 301.355 241.88 300.878ZM251.386 304.179C250.903 304.179 250.463 304.088 250.069 303.906C249.675 303.72 249.361 303.453 249.129 303.105C248.897 302.754 248.781 302.33 248.781 301.832C248.781 301.395 248.868 301.04 249.04 300.768C249.212 300.493 249.443 300.278 249.731 300.122C250.019 299.966 250.337 299.85 250.686 299.774C251.037 299.695 251.39 299.632 251.744 299.585C252.208 299.526 252.585 299.481 252.873 299.451C253.165 299.418 253.377 299.363 253.509 299.287C253.645 299.211 253.713 299.078 253.713 298.889V298.849C253.713 298.359 253.579 297.978 253.311 297.706C253.045 297.434 252.643 297.298 252.102 297.298C251.542 297.298 251.103 297.421 250.785 297.666C250.467 297.911 250.243 298.173 250.114 298.452L249 298.054C249.199 297.59 249.464 297.229 249.796 296.97C250.13 296.708 250.495 296.526 250.889 296.423C251.287 296.317 251.678 296.264 252.063 296.264C252.308 296.264 252.59 296.294 252.908 296.354C253.229 296.41 253.539 296.528 253.837 296.707C254.139 296.886 254.389 297.156 254.588 297.517C254.787 297.878 254.886 298.362 254.886 298.969V304H253.713V302.966H253.654C253.574 303.132 253.441 303.309 253.256 303.498C253.07 303.687 252.823 303.848 252.515 303.98C252.207 304.113 251.831 304.179 251.386 304.179ZM251.565 303.125C252.029 303.125 252.421 303.034 252.739 302.852C253.06 302.669 253.302 302.434 253.465 302.146C253.63 301.857 253.713 301.554 253.713 301.236V300.162C253.663 300.222 253.554 300.276 253.385 300.326C253.219 300.372 253.027 300.414 252.808 300.45C252.593 300.483 252.382 300.513 252.177 300.54C251.975 300.563 251.811 300.583 251.685 300.599C251.38 300.639 251.095 300.704 250.83 300.793C250.568 300.879 250.356 301.01 250.193 301.186C250.034 301.358 249.955 301.594 249.955 301.892C249.955 302.3 250.105 302.608 250.407 302.817C250.712 303.022 251.098 303.125 251.565 303.125ZM260.11 307.023C259.544 307.023 259.056 306.95 258.649 306.804C258.241 306.661 257.901 306.473 257.63 306.237C257.361 306.005 257.147 305.757 256.988 305.491L257.923 304.835C258.029 304.974 258.163 305.134 258.326 305.312C258.488 305.495 258.71 305.652 258.992 305.785C259.277 305.921 259.65 305.989 260.11 305.989C260.727 305.989 261.236 305.839 261.637 305.541C262.038 305.243 262.238 304.776 262.238 304.139V302.588H262.139C262.053 302.727 261.93 302.9 261.771 303.105C261.615 303.307 261.39 303.488 261.095 303.647C260.803 303.803 260.409 303.881 259.912 303.881C259.295 303.881 258.742 303.735 258.251 303.443C257.764 303.152 257.378 302.727 257.093 302.17C256.811 301.614 256.67 300.937 256.67 300.142C256.67 299.36 256.808 298.679 257.083 298.099C257.358 297.515 257.741 297.065 258.231 296.746C258.722 296.425 259.288 296.264 259.931 296.264C260.429 296.264 260.823 296.347 261.115 296.513C261.41 296.675 261.635 296.861 261.791 297.07C261.95 297.275 262.073 297.444 262.159 297.577H262.278V296.364H263.412V304.219C263.412 304.875 263.262 305.409 262.964 305.82C262.669 306.234 262.271 306.537 261.771 306.729C261.274 306.925 260.72 307.023 260.11 307.023ZM260.071 302.827C260.541 302.827 260.939 302.719 261.264 302.504C261.589 302.288 261.836 301.978 262.005 301.574C262.174 301.17 262.258 300.686 262.258 300.122C262.258 299.572 262.175 299.086 262.01 298.665C261.844 298.245 261.599 297.915 261.274 297.676C260.949 297.437 260.548 297.318 260.071 297.318C259.573 297.318 259.159 297.444 258.828 297.696C258.5 297.948 258.253 298.286 258.087 298.71C257.925 299.134 257.843 299.605 257.843 300.122C257.843 300.652 257.926 301.121 258.092 301.529C258.261 301.933 258.51 302.252 258.838 302.484C259.169 302.712 259.58 302.827 260.071 302.827ZM265.559 304V296.364H266.693V297.517H266.772C266.912 297.139 267.163 296.833 267.528 296.597C267.893 296.362 268.304 296.244 268.761 296.244C268.847 296.244 268.955 296.246 269.084 296.249C269.213 296.253 269.311 296.258 269.377 296.264V297.457C269.338 297.447 269.247 297.433 269.104 297.413C268.965 297.389 268.817 297.378 268.662 297.378C268.29 297.378 267.959 297.456 267.667 297.612C267.379 297.764 267.15 297.976 266.981 298.248C266.815 298.516 266.733 298.823 266.733 299.168V304H265.559ZM273.738 304.159C273.002 304.159 272.367 303.997 271.833 303.672C271.303 303.344 270.894 302.886 270.605 302.3C270.32 301.71 270.178 301.024 270.178 300.241C270.178 299.459 270.32 298.77 270.605 298.173C270.894 297.573 271.295 297.106 271.809 296.771C272.326 296.433 272.929 296.264 273.618 296.264C274.016 296.264 274.409 296.33 274.796 296.463C275.184 296.596 275.537 296.811 275.855 297.109C276.174 297.404 276.427 297.795 276.616 298.283C276.805 298.77 276.899 299.37 276.899 300.082V300.58H271.013V299.565H275.706C275.706 299.134 275.62 298.75 275.448 298.412C275.279 298.074 275.037 297.807 274.722 297.612C274.41 297.416 274.042 297.318 273.618 297.318C273.151 297.318 272.747 297.434 272.405 297.666C272.067 297.895 271.807 298.193 271.625 298.561C271.442 298.929 271.351 299.323 271.351 299.744V300.42C271.351 300.997 271.451 301.486 271.649 301.887C271.852 302.285 272.132 302.588 272.49 302.797C272.848 303.002 273.264 303.105 273.738 303.105C274.046 303.105 274.324 303.062 274.573 302.976C274.825 302.886 275.042 302.754 275.224 302.578C275.406 302.399 275.547 302.177 275.647 301.912L276.78 302.23C276.661 302.615 276.46 302.953 276.179 303.244C275.897 303.533 275.549 303.758 275.135 303.92C274.72 304.08 274.255 304.159 273.738 304.159ZM281.886 304.159C281.15 304.159 280.515 303.997 279.982 303.672C279.452 303.344 279.042 302.886 278.754 302.3C278.469 301.71 278.326 301.024 278.326 300.241C278.326 299.459 278.469 298.77 278.754 298.173C279.042 297.573 279.443 297.106 279.957 296.771C280.474 296.433 281.077 296.264 281.767 296.264C282.164 296.264 282.557 296.33 282.945 296.463C283.333 296.596 283.686 296.811 284.004 297.109C284.322 297.404 284.576 297.795 284.765 298.283C284.953 298.77 285.048 299.37 285.048 300.082V300.58H279.162V299.565H283.855C283.855 299.134 283.769 298.75 283.596 298.412C283.427 298.074 283.185 297.807 282.87 297.612C282.559 297.416 282.191 297.318 281.767 297.318C281.299 297.318 280.895 297.434 280.554 297.666C280.216 297.895 279.955 298.193 279.773 298.561C279.591 298.929 279.5 299.323 279.5 299.744V300.42C279.5 300.997 279.599 301.486 279.798 301.887C280 302.285 280.28 302.588 280.638 302.797C280.996 303.002 281.412 303.105 281.886 303.105C282.194 303.105 282.473 303.062 282.721 302.976C282.973 302.886 283.19 302.754 283.372 302.578C283.555 302.399 283.696 302.177 283.795 301.912L284.929 302.23C284.809 302.615 284.609 302.953 284.327 303.244C284.045 303.533 283.697 303.758 283.283 303.92C282.869 304.08 282.403 304.159 281.886 304.159ZM292.5 304L290.174 296.364H291.407L293.057 302.21H293.137L294.767 296.364H296.02L297.631 302.19H297.711L299.361 296.364H300.594L298.267 304H297.114L295.443 298.134H295.324L293.654 304H292.5ZM302.145 304V296.364H303.318V304H302.145ZM302.742 295.091C302.513 295.091 302.316 295.013 302.15 294.857C301.988 294.701 301.907 294.514 301.907 294.295C301.907 294.077 301.988 293.889 302.15 293.734C302.316 293.578 302.513 293.5 302.742 293.5C302.97 293.5 303.166 293.578 303.328 293.734C303.494 293.889 303.577 294.077 303.577 294.295C303.577 294.514 303.494 294.701 303.328 294.857C303.166 295.013 302.97 295.091 302.742 295.091ZM308.788 296.364V297.358H304.831V296.364H308.788ZM305.985 294.534H307.158V301.812C307.158 302.144 307.206 302.393 307.302 302.558C307.401 302.721 307.527 302.83 307.68 302.886C307.836 302.939 308 302.966 308.172 302.966C308.301 302.966 308.407 302.959 308.49 302.946C308.573 302.929 308.639 302.916 308.689 302.906L308.928 303.96C308.848 303.99 308.737 304.02 308.595 304.05C308.452 304.083 308.271 304.099 308.053 304.099C307.721 304.099 307.396 304.028 307.078 303.886C306.763 303.743 306.502 303.526 306.293 303.234C306.087 302.943 305.985 302.575 305.985 302.131V294.534ZM311.891 299.406V304H310.717V293.818H311.891V297.557H311.99C312.169 297.162 312.438 296.849 312.796 296.617C313.157 296.382 313.637 296.264 314.237 296.264C314.758 296.264 315.213 296.369 315.605 296.577C315.996 296.783 316.299 297.099 316.514 297.527C316.733 297.951 316.842 298.491 316.842 299.148V304H315.669V299.227C315.669 298.621 315.512 298.152 315.197 297.82C314.885 297.486 314.453 297.318 313.899 297.318C313.515 297.318 313.17 297.399 312.865 297.562C312.564 297.724 312.325 297.961 312.149 298.273C311.977 298.584 311.891 298.962 311.891 299.406ZM326.247 296.364V297.358H322.29V296.364H326.247ZM323.444 294.534H324.617V301.812C324.617 302.144 324.665 302.393 324.761 302.558C324.86 302.721 324.986 302.83 325.139 302.886C325.295 302.939 325.459 302.966 325.631 302.966C325.76 302.966 325.866 302.959 325.949 302.946C326.032 302.929 326.098 302.916 326.148 302.906L326.387 303.96C326.307 303.99 326.196 304.02 326.054 304.05C325.911 304.083 325.73 304.099 325.512 304.099C325.18 304.099 324.855 304.028 324.537 303.886C324.222 303.743 323.961 303.526 323.752 303.234C323.546 302.943 323.444 302.575 323.444 302.131V294.534ZM329.35 299.406V304H328.176V293.818H329.35V297.557H329.449C329.628 297.162 329.897 296.849 330.255 296.617C330.616 296.382 331.096 296.264 331.696 296.264C332.217 296.264 332.672 296.369 333.064 296.577C333.455 296.783 333.758 297.099 333.973 297.527C334.192 297.951 334.301 298.491 334.301 299.148V304H333.128V299.227C333.128 298.621 332.971 298.152 332.656 297.82C332.344 297.486 331.912 297.318 331.358 297.318C330.974 297.318 330.629 297.399 330.324 297.562C330.023 297.724 329.784 297.961 329.608 298.273C329.436 298.584 329.35 298.962 329.35 299.406ZM339.65 304.159C338.914 304.159 338.279 303.997 337.746 303.672C337.215 303.344 336.806 302.886 336.518 302.3C336.233 301.71 336.09 301.024 336.09 300.241C336.09 299.459 336.233 298.77 336.518 298.173C336.806 297.573 337.207 297.106 337.721 296.771C338.238 296.433 338.841 296.264 339.53 296.264C339.928 296.264 340.321 296.33 340.709 296.463C341.096 296.596 341.449 296.811 341.768 297.109C342.086 297.404 342.339 297.795 342.528 298.283C342.717 298.77 342.812 299.37 342.812 300.082V300.58H336.925V299.565H341.618C341.618 299.134 341.532 298.75 341.36 298.412C341.191 298.074 340.949 297.807 340.634 297.612C340.322 297.416 339.955 297.318 339.53 297.318C339.063 297.318 338.659 297.434 338.317 297.666C337.979 297.895 337.719 298.193 337.537 298.561C337.354 298.929 337.263 299.323 337.263 299.744V300.42C337.263 300.997 337.363 301.486 337.562 301.887C337.764 302.285 338.044 302.588 338.402 302.797C338.76 303.002 339.176 303.105 339.65 303.105C339.958 303.105 340.236 303.062 340.485 302.976C340.737 302.886 340.954 302.754 341.136 302.578C341.318 302.399 341.459 302.177 341.559 301.912L342.692 302.23C342.573 302.615 342.372 302.953 342.091 303.244C341.809 303.533 341.461 303.758 341.047 303.92C340.632 304.08 340.167 304.159 339.65 304.159ZM348.693 304V293.818H352.133C352.932 293.818 353.585 293.962 354.092 294.251C354.603 294.536 354.98 294.922 355.226 295.409C355.471 295.896 355.594 296.44 355.594 297.04C355.594 297.64 355.471 298.185 355.226 298.675C354.984 299.166 354.609 299.557 354.102 299.849C353.595 300.137 352.945 300.281 352.153 300.281H349.687V299.188H352.113C352.66 299.188 353.099 299.093 353.431 298.904C353.762 298.715 354.003 298.46 354.152 298.138C354.304 297.814 354.38 297.447 354.38 297.04C354.38 296.632 354.304 296.268 354.152 295.946C354.003 295.625 353.761 295.373 353.426 295.19C353.091 295.005 352.647 294.912 352.094 294.912H349.926V304H348.693ZM357.421 304V296.364H358.554V297.517H358.634C358.773 297.139 359.025 296.833 359.389 296.597C359.754 296.362 360.165 296.244 360.622 296.244C360.708 296.244 360.816 296.246 360.945 296.249C361.075 296.253 361.172 296.258 361.239 296.264V297.457C361.199 297.447 361.108 297.433 360.965 297.413C360.826 297.389 360.679 297.378 360.523 297.378C360.152 297.378 359.82 297.456 359.529 297.612C359.24 297.764 359.012 297.976 358.842 298.248C358.677 298.516 358.594 298.823 358.594 299.168V304H357.421ZM362.63 304V296.364H363.803V304H362.63ZM363.226 295.091C362.997 295.091 362.8 295.013 362.635 294.857C362.472 294.701 362.391 294.514 362.391 294.295C362.391 294.077 362.472 293.889 362.635 293.734C362.8 293.578 362.997 293.5 363.226 293.5C363.455 293.5 363.65 293.578 363.813 293.734C363.979 293.889 364.061 294.077 364.061 294.295C364.061 294.514 363.979 294.701 363.813 294.857C363.65 295.013 363.455 295.091 363.226 295.091ZM372.196 296.364L369.372 304H368.179L365.355 296.364H366.628L368.736 302.449H368.815L370.923 296.364H372.196ZM375.76 304.179C375.276 304.179 374.837 304.088 374.442 303.906C374.048 303.72 373.734 303.453 373.502 303.105C373.27 302.754 373.154 302.33 373.154 301.832C373.154 301.395 373.241 301.04 373.413 300.768C373.585 300.493 373.816 300.278 374.104 300.122C374.392 299.966 374.711 299.85 375.059 299.774C375.41 299.695 375.763 299.632 376.118 299.585C376.582 299.526 376.958 299.481 377.246 299.451C377.538 299.418 377.75 299.363 377.882 299.287C378.018 299.211 378.086 299.078 378.086 298.889V298.849C378.086 298.359 377.952 297.978 377.684 297.706C377.418 297.434 377.016 297.298 376.475 297.298C375.915 297.298 375.476 297.421 375.158 297.666C374.84 297.911 374.616 298.173 374.487 298.452L373.373 298.054C373.572 297.59 373.837 297.229 374.169 296.97C374.503 296.708 374.868 296.526 375.262 296.423C375.66 296.317 376.051 296.264 376.436 296.264C376.681 296.264 376.963 296.294 377.281 296.354C377.602 296.41 377.912 296.528 378.211 296.707C378.512 296.886 378.762 297.156 378.961 297.517C379.16 297.878 379.26 298.362 379.26 298.969V304H378.086V302.966H378.027C377.947 303.132 377.814 303.309 377.629 303.498C377.443 303.687 377.196 303.848 376.888 303.98C376.58 304.113 376.204 304.179 375.76 304.179ZM375.939 303.125C376.403 303.125 376.794 303.034 377.112 302.852C377.433 302.669 377.675 302.434 377.838 302.146C378.003 301.857 378.086 301.554 378.086 301.236V300.162C378.037 300.222 377.927 300.276 377.758 300.326C377.592 300.372 377.4 300.414 377.181 300.45C376.966 300.483 376.756 300.513 376.55 300.54C376.348 300.563 376.184 300.583 376.058 300.599C375.753 300.639 375.468 300.704 375.203 300.793C374.941 300.879 374.729 301.01 374.566 301.186C374.407 301.358 374.328 301.594 374.328 301.892C374.328 302.3 374.479 302.608 374.78 302.817C375.085 303.022 375.471 303.125 375.939 303.125ZM384.503 304.159C383.787 304.159 383.171 303.99 382.654 303.652C382.137 303.314 381.739 302.848 381.461 302.255C381.182 301.662 381.043 300.984 381.043 300.222C381.043 299.446 381.186 298.762 381.471 298.168C381.759 297.572 382.16 297.106 382.674 296.771C383.191 296.433 383.794 296.264 384.483 296.264C385.02 296.264 385.504 296.364 385.935 296.562C386.366 296.761 386.719 297.04 386.994 297.398C387.269 297.756 387.44 298.173 387.506 298.651H386.333C386.243 298.303 386.045 297.994 385.736 297.726C385.431 297.454 385.02 297.318 384.503 297.318C384.046 297.318 383.645 297.437 383.3 297.676C382.959 297.911 382.692 298.245 382.5 298.675C382.311 299.103 382.216 299.605 382.216 300.182C382.216 300.772 382.309 301.286 382.495 301.723C382.684 302.161 382.949 302.5 383.29 302.742C383.635 302.984 384.039 303.105 384.503 303.105C384.808 303.105 385.085 303.052 385.334 302.946C385.582 302.84 385.793 302.688 385.965 302.489C386.137 302.29 386.26 302.051 386.333 301.773H387.506C387.44 302.223 387.276 302.629 387.014 302.991C386.755 303.349 386.412 303.634 385.985 303.846C385.561 304.055 385.067 304.159 384.503 304.159ZM389.977 306.864C389.778 306.864 389.601 306.847 389.445 306.814C389.289 306.784 389.182 306.754 389.122 306.724L389.42 305.69C389.705 305.763 389.957 305.79 390.176 305.77C390.395 305.75 390.589 305.652 390.758 305.477C390.93 305.304 391.087 305.024 391.23 304.636L391.449 304.04L388.625 296.364H389.898L392.005 302.449H392.085L394.193 296.364H395.466L392.224 305.114C392.078 305.508 391.898 305.835 391.682 306.093C391.467 306.355 391.217 306.549 390.932 306.675C390.65 306.801 390.332 306.864 389.977 306.864ZM401.111 304V293.818H404.551C405.35 293.818 406.003 293.962 406.51 294.251C407.021 294.536 407.398 294.922 407.644 295.409C407.889 295.896 408.012 296.44 408.012 297.04C408.012 297.64 407.889 298.185 407.644 298.675C407.402 299.166 407.027 299.557 406.52 299.849C406.013 300.137 405.363 300.281 404.571 300.281H402.105V299.188H404.531C405.078 299.188 405.517 299.093 405.849 298.904C406.18 298.715 406.421 298.46 406.57 298.138C406.722 297.814 406.798 297.447 406.798 297.04C406.798 296.632 406.722 296.268 406.57 295.946C406.421 295.625 406.179 295.373 405.844 295.19C405.509 295.005 405.065 294.912 404.512 294.912H402.344V304H401.111ZM412.859 304.159C412.169 304.159 411.565 303.995 411.044 303.667C410.527 303.339 410.123 302.88 409.831 302.29C409.543 301.7 409.399 301.01 409.399 300.222C409.399 299.426 409.543 298.732 409.831 298.138C410.123 297.545 410.527 297.085 411.044 296.756C411.565 296.428 412.169 296.264 412.859 296.264C413.548 296.264 414.151 296.428 414.668 296.756C415.189 297.085 415.593 297.545 415.882 298.138C416.173 298.732 416.319 299.426 416.319 300.222C416.319 301.01 416.173 301.7 415.882 302.29C415.593 302.88 415.189 303.339 414.668 303.667C414.151 303.995 413.548 304.159 412.859 304.159ZM412.859 303.105C413.382 303.105 413.813 302.971 414.151 302.702C414.489 302.434 414.74 302.081 414.902 301.643C415.065 301.206 415.146 300.732 415.146 300.222C415.146 299.711 415.065 299.236 414.902 298.795C414.74 298.354 414.489 297.998 414.151 297.726C413.813 297.454 413.382 297.318 412.859 297.318C412.335 297.318 411.904 297.454 411.566 297.726C411.228 297.998 410.978 298.354 410.815 298.795C410.653 299.236 410.572 299.711 410.572 300.222C410.572 300.732 410.653 301.206 410.815 301.643C410.978 302.081 411.228 302.434 411.566 302.702C411.904 302.971 412.335 303.105 412.859 303.105ZM419.283 293.818V304H418.11V293.818H419.283ZM421.432 304V296.364H422.606V304H421.432ZM422.029 295.091C421.8 295.091 421.603 295.013 421.437 294.857C421.275 294.701 421.194 294.514 421.194 294.295C421.194 294.077 421.275 293.889 421.437 293.734C421.603 293.578 421.8 293.5 422.029 293.5C422.258 293.5 422.453 293.578 422.616 293.734C422.781 293.889 422.864 294.077 422.864 294.295C422.864 294.514 422.781 294.701 422.616 294.857C422.453 295.013 422.258 295.091 422.029 295.091ZM427.857 304.159C427.141 304.159 426.524 303.99 426.007 303.652C425.49 303.314 425.093 302.848 424.814 302.255C424.536 301.662 424.397 300.984 424.397 300.222C424.397 299.446 424.539 298.762 424.824 298.168C425.113 297.572 425.514 297.106 426.027 296.771C426.544 296.433 427.148 296.264 427.837 296.264C428.374 296.264 428.858 296.364 429.289 296.562C429.72 296.761 430.073 297.04 430.348 297.398C430.623 297.756 430.793 298.173 430.86 298.651H429.686C429.597 298.303 429.398 297.994 429.09 297.726C428.785 297.454 428.374 297.318 427.857 297.318C427.399 297.318 426.998 297.437 426.654 297.676C426.312 297.911 426.046 298.245 425.853 298.675C425.664 299.103 425.57 299.605 425.57 300.182C425.57 300.772 425.663 301.286 425.848 301.723C426.037 302.161 426.302 302.5 426.644 302.742C426.988 302.984 427.393 303.105 427.857 303.105C428.162 303.105 428.439 303.052 428.687 302.946C428.936 302.84 429.146 302.688 429.319 302.489C429.491 302.29 429.613 302.051 429.686 301.773H430.86C430.793 302.223 430.629 302.629 430.368 302.991C430.109 303.349 429.766 303.634 429.338 303.846C428.914 304.055 428.42 304.159 427.857 304.159ZM433.331 306.864C433.132 306.864 432.954 306.847 432.799 306.814C432.643 306.784 432.535 306.754 432.475 306.724L432.774 305.69C433.059 305.763 433.311 305.79 433.529 305.77C433.748 305.75 433.942 305.652 434.111 305.477C434.283 305.304 434.441 305.024 434.583 304.636L434.802 304.04L431.978 296.364H433.251L435.359 302.449H435.439L437.546 296.364H438.819L435.578 305.114C435.432 305.508 435.251 305.835 435.036 306.093C434.82 306.355 434.57 306.549 434.285 306.675C434.003 306.801 433.685 306.864 433.331 306.864Z" fill="black"/>
<path d="M347.46 306.784H388.358V307.739H347.46V306.784ZM391.572 306.784H431.71V307.739H391.572V306.784ZM434.923 306.784H439.296V307.739H434.923V306.784Z" fill="black"/>
<g filter="url(#filter4_dii_241_3690)">
<g clip-path="url(#clip12_241_3690)">
<rect x="76" y="365" width="352" height="48" rx="24" fill="#070EA0"/>
<g clip-path="url(#clip13_241_3690)">
<g clip-path="url(#clip14_241_3690)">
<g clip-path="url(#clip15_241_3690)">
<path opacity="0.5" d="M76 381V413H108L76 381Z" fill="url(#paint0_linear_241_3690)"/>
</g>
</g>
</g>
<g clip-path="url(#clip16_241_3690)">
<g clip-path="url(#clip17_241_3690)">
<g clip-path="url(#clip18_241_3690)">
<path opacity="0.5" d="M428 421V365H372L428 421Z" fill="url(#paint1_linear_241_3690)"/>
</g>
</g>
</g>
<path d="M233.477 386.273C233.409 385.697 233.132 385.25 232.647 384.932C232.163 384.614 231.568 384.455 230.863 384.455C230.348 384.455 229.897 384.538 229.511 384.705C229.129 384.871 228.829 385.1 228.613 385.392C228.401 385.684 228.295 386.015 228.295 386.386C228.295 386.697 228.369 386.964 228.517 387.188C228.668 387.407 228.861 387.591 229.096 387.739C229.331 387.883 229.577 388.002 229.835 388.097C230.093 388.187 230.329 388.261 230.545 388.318L231.727 388.636C232.03 388.716 232.367 388.826 232.738 388.966C233.113 389.106 233.471 389.297 233.812 389.54C234.157 389.778 234.441 390.085 234.665 390.46C234.888 390.835 235 391.295 235 391.841C235 392.47 234.835 393.038 234.505 393.545C234.18 394.053 233.702 394.456 233.074 394.756C232.449 395.055 231.689 395.205 230.795 395.205C229.962 395.205 229.24 395.07 228.63 394.801C228.024 394.532 227.547 394.157 227.199 393.676C226.854 393.195 226.659 392.636 226.613 392H228.068C228.106 392.439 228.254 392.803 228.511 393.091C228.772 393.375 229.102 393.587 229.5 393.727C229.901 393.864 230.333 393.932 230.795 393.932C231.333 393.932 231.816 393.845 232.244 393.67C232.672 393.492 233.011 393.246 233.261 392.932C233.511 392.614 233.636 392.242 233.636 391.818C233.636 391.432 233.528 391.117 233.312 390.875C233.096 390.633 232.812 390.436 232.46 390.284C232.108 390.133 231.727 390 231.318 389.886L229.886 389.477C228.977 389.216 228.257 388.843 227.727 388.358C227.197 387.873 226.932 387.239 226.932 386.455C226.932 385.803 227.108 385.235 227.46 384.75C227.816 384.261 228.293 383.883 228.892 383.614C229.494 383.341 230.166 383.205 230.909 383.205C231.659 383.205 232.325 383.339 232.909 383.608C233.492 383.873 233.954 384.237 234.295 384.699C234.64 385.161 234.822 385.686 234.841 386.273H233.477ZM242.635 391.432V386.273H243.976V395H242.635V393.523H242.544C242.339 393.966 242.021 394.343 241.589 394.653C241.157 394.96 240.612 395.114 239.953 395.114C239.407 395.114 238.923 394.994 238.498 394.756C238.074 394.513 237.741 394.15 237.498 393.665C237.256 393.176 237.135 392.561 237.135 391.818V386.273H238.476V391.727C238.476 392.364 238.654 392.871 239.01 393.25C239.37 393.629 239.828 393.818 240.385 393.818C240.718 393.818 241.057 393.733 241.402 393.562C241.75 393.392 242.042 393.131 242.277 392.778C242.515 392.426 242.635 391.977 242.635 391.432ZM246.613 395V383.364H247.954V387.659H248.068C248.166 387.508 248.303 387.314 248.477 387.08C248.655 386.841 248.909 386.629 249.238 386.443C249.572 386.254 250.022 386.159 250.591 386.159C251.325 386.159 251.973 386.343 252.534 386.71C253.094 387.078 253.532 387.598 253.846 388.273C254.161 388.947 254.318 389.742 254.318 390.659C254.318 391.583 254.161 392.384 253.846 393.062C253.532 393.737 253.096 394.259 252.54 394.631C251.983 394.998 251.341 395.182 250.613 395.182C250.053 395.182 249.604 395.089 249.267 394.903C248.93 394.714 248.67 394.5 248.488 394.261C248.307 394.019 248.166 393.818 248.068 393.659H247.909V395H246.613ZM247.932 390.636C247.932 391.295 248.028 391.877 248.221 392.381C248.415 392.881 248.697 393.273 249.068 393.557C249.439 393.837 249.894 393.977 250.432 393.977C250.992 393.977 251.46 393.83 251.835 393.534C252.214 393.235 252.498 392.833 252.687 392.33C252.88 391.822 252.977 391.258 252.977 390.636C252.977 390.023 252.882 389.47 252.693 388.977C252.507 388.481 252.225 388.089 251.846 387.801C251.471 387.509 251 387.364 250.432 387.364C249.886 387.364 249.428 387.502 249.057 387.778C248.685 388.051 248.405 388.434 248.216 388.926C248.026 389.415 247.932 389.985 247.932 390.636ZM256.369 395V386.273H257.665V387.636H257.778C257.96 387.17 258.254 386.809 258.659 386.551C259.064 386.29 259.551 386.159 260.119 386.159C260.695 386.159 261.174 386.29 261.557 386.551C261.943 386.809 262.244 387.17 262.46 387.636H262.551C262.774 387.186 263.11 386.828 263.557 386.562C264.004 386.294 264.54 386.159 265.165 386.159C265.945 386.159 266.583 386.403 267.079 386.892C267.575 387.377 267.824 388.133 267.824 389.159V395H266.483V389.159C266.483 388.515 266.307 388.055 265.954 387.778C265.602 387.502 265.187 387.364 264.71 387.364C264.096 387.364 263.621 387.549 263.284 387.92C262.947 388.288 262.778 388.754 262.778 389.318V395H261.415V389.023C261.415 388.527 261.254 388.127 260.932 387.824C260.61 387.517 260.195 387.364 259.687 387.364C259.339 387.364 259.013 387.456 258.71 387.642C258.411 387.828 258.168 388.085 257.983 388.415C257.801 388.741 257.71 389.117 257.71 389.545V395H256.369ZM270.275 395V386.273H271.616V395H270.275ZM270.957 384.818C270.696 384.818 270.47 384.729 270.281 384.551C270.095 384.373 270.003 384.159 270.003 383.909C270.003 383.659 270.095 383.445 270.281 383.267C270.47 383.089 270.696 383 270.957 383C271.218 383 271.442 383.089 271.628 383.267C271.817 383.445 271.912 383.659 271.912 383.909C271.912 384.159 271.817 384.373 271.628 384.551C271.442 384.729 271.218 384.818 270.957 384.818ZM277.868 386.273V387.409H273.345V386.273H277.868ZM274.663 384.182H276.004V392.5C276.004 392.879 276.059 393.163 276.169 393.352C276.282 393.538 276.426 393.663 276.601 393.727C276.779 393.788 276.966 393.818 277.163 393.818C277.311 393.818 277.432 393.811 277.527 393.795C277.621 393.777 277.697 393.761 277.754 393.75L278.027 394.955C277.936 394.989 277.809 395.023 277.646 395.057C277.483 395.095 277.277 395.114 277.027 395.114C276.648 395.114 276.277 395.032 275.913 394.869C275.553 394.706 275.254 394.458 275.015 394.125C274.781 393.792 274.663 393.371 274.663 392.864V384.182Z" fill="white"/>
</g>
</g>
<defs>
<filter id="filter0_di_241_3690" x="0" y="0" width="504" height="60" filterUnits="userSpaceOnUse" color-interpolation-filters="sRGB">
<feFlood flood-opacity="0" result="BackgroundImageFix"/>
<feColorMatrix in="SourceAlpha" type="matrix" values="0 0 0 0 0 0 0 0 0 0 0 0 0 0 0 0 0 0 127 0" result="hardAlpha"/>
<feOffset dy="1"/>
<feGaussianBlur stdDeviation="1"/>
<feComposite in2="hardAlpha" operator="out"/>
<feColorMatrix type="matrix" values="0 0 0 0 0.0392157 0 0 0 0 0.0509804 0 0 0 0 0.0705882 0 0 0 0.05 0"/>
<feBlend mode="normal" in2="BackgroundImageFix" result="effect1_dropShadow_241_3690"/>
<feBlend mode="normal" in="SourceGraphic" in2="effect1_dropShadow_241_3690" result="shape"/>
<feColorMatrix in="SourceAlpha" type="matrix" values="0 0 0 0 0 0 0 0 0 0 0 0 0 0 0 0 0 0 127 0" result="hardAlpha"/>
<feMorphology radius="1" operator="erode" in="SourceAlpha" result="effect2_innerShadow_241_3690"/>
<feOffset/>
<feComposite in2="hardAlpha" operator="arithmetic" k2="-1" k3="1"/>
<feColorMatrix type="matrix" values="0 0 0 0 0.835294 0 0 0 0 0.843137 0 0 0 0 0.854902 0 0 0 1 0"/>
<feBlend mode="normal" in2="shape" result="effect2_innerShadow_241_3690"/>
</filter>
<filter id="filter1_di_241_3690" x="0" y="72" width="504" height="60" filterUnits="userSpaceOnUse" color-interpolation-filters="sRGB">
<feFlood flood-opacity="0" result="BackgroundImageFix"/>
<feColorMatrix in="SourceAlpha" type="matrix" values="0 0 0 0 0 0 0 0 0 0 0 0 0 0 0 0 0 0 127 0" result="hardAlpha"/>
<feOffset dy="1"/>
<feGaussianBlur stdDeviation="1"/>
<feComposite in2="hardAlpha" operator="out"/>
<feColorMatrix type="matrix" values="0 0 0 0 0.0392157 0 0 0 0 0.0509804 0 0 0 0 0.0705882 0 0 0 0.05 0"/>
<feBlend mode="normal" in2="BackgroundImageFix" result="effect1_dropShadow_241_3690"/>
<feBlend mode="normal" in="SourceGraphic" in2="effect1_dropShadow_241_3690" result="shape"/>
<feColorMatrix in="SourceAlpha" type="matrix" values="0 0 0 0 0 0 0 0 0 0 0 0 0 0 0 0 0 0 127 0" result="hardAlpha"/>
<feMorphology radius="1" operator="erode" in="SourceAlpha" result="effect2_innerShadow_241_3690"/>
<feOffset/>
<feComposite in2="hardAlpha" operator="arithmetic" k2="-1" k3="1"/>
<feColorMatrix type="matrix" values="0 0 0 0 0.835294 0 0 0 0 0.843137 0 0 0 0 0.854902 0 0 0 1 0"/>
<feBlend mode="normal" in2="shape" result="effect2_innerShadow_241_3690"/>
</filter>
<filter id="filter2_di_241_3690" x="0" y="144" width="504" height="60" filterUnits="userSpaceOnUse" color-interpolation-filters="sRGB">
<feFlood flood-opacity="0" result="BackgroundImageFix"/>
<feColorMatrix in="SourceAlpha" type="matrix" values="0 0 0 0 0 0 0 0 0 0 0 0 0 0 0 0 0 0 127 0" result="hardAlpha"/>
<feOffset dy="1"/>
<feGaussianBlur stdDeviation="1"/>
<feComposite in2="hardAlpha" operator="out"/>
<feColorMatrix type="matrix" values="0 0 0 0 0.0392157 0 0 0 0 0.0509804 0 0 0 0 0.0705882 0 0 0 0.05 0"/>
<feBlend mode="normal" in2="BackgroundImageFix" result="effect1_dropShadow_241_3690"/>
<feBlend mode="normal" in="SourceGraphic" in2="effect1_dropShadow_241_3690" result="shape"/>
<feColorMatrix in="SourceAlpha" type="matrix" values="0 0 0 0 0 0 0 0 0 0 0 0 0 0 0 0 0 0 127 0" result="hardAlpha"/>
<feMorphology radius="1" operator="erode" in="SourceAlpha" result="effect2_innerShadow_241_3690"/>
<feOffset/>
<feComposite in2="hardAlpha" operator="arithmetic" k2="-1" k3="1"/>
<feColorMatrix type="matrix" values="0 0 0 0 0.835294 0 0 0 0 0.843137 0 0 0 0 0.854902 0 0 0 1 0"/>
<feBlend mode="normal" in2="shape" result="effect2_innerShadow_241_3690"/>
</filter>
<filter id="filter3_di_241_3690" x="0" y="216" width="504" height="60" filterUnits="userSpaceOnUse" color-interpolation-filters="sRGB">
<feFlood flood-opacity="0" result="BackgroundImageFix"/>
<feColorMatrix in="SourceAlpha" type="matrix" values="0 0 0 0 0 0 0 0 0 0 0 0 0 0 0 0 0 0 127 0" result="hardAlpha"/>
<feOffset dy="1"/>
<feGaussianBlur stdDeviation="1"/>
<feComposite in2="hardAlpha" operator="out"/>
<feColorMatrix type="matrix" values="0 0 0 0 0.0392157 0 0 0 0 0.0509804 0 0 0 0 0.0705882 0 0 0 0.05 0"/>
<feBlend mode="normal" in2="BackgroundImageFix" result="effect1_dropShadow_241_3690"/>
<feBlend mode="normal" in="SourceGraphic" in2="effect1_dropShadow_241_3690" result="shape"/>
<feColorMatrix in="SourceAlpha" type="matrix" values="0 0 0 0 0 0 0 0 0 0 0 0 0 0 0 0 0 0 127 0" result="hardAlpha"/>
<feMorphology radius="1" operator="erode" in="SourceAlpha" result="effect2_innerShadow_241_3690"/>
<feOffset/>
<feComposite in2="hardAlpha" operator="arithmetic" k2="-1" k3="1"/>
<feColorMatrix type="matrix" values="0 0 0 0 0.835294 0 0 0 0 0.843137 0 0 0 0 0.854902 0 0 0 1 0"/>
<feBlend mode="normal" in2="shape" result="effect2_innerShadow_241_3690"/>
</filter>
<filter id="filter4_dii_241_3690" x="74" y="364" width="356" height="52" filterUnits="userSpaceOnUse" color-interpolation-filters="sRGB">
<feFlood flood-opacity="0" result="BackgroundImageFix"/>
<feColorMatrix in="SourceAlpha" type="matrix" values="0 0 0 0 0 0 0 0 0 0 0 0 0 0 0 0 0 0 127 0" result="hardAlpha"/>
<feOffset dy="1"/>
<feGaussianBlur stdDeviation="1"/>
<feComposite in2="hardAlpha" operator="out"/>
<feColorMatrix type="matrix" values="0 0 0 0 0.0392157 0 0 0 0 0.0509804 0 0 0 0 0.0705882 0 0 0 0.05 0"/>
<feBlend mode="normal" in2="BackgroundImageFix" result="effect1_dropShadow_241_3690"/>
<feBlend mode="normal" in="SourceGraphic" in2="effect1_dropShadow_241_3690" result="shape"/>
<feColorMatrix in="SourceAlpha" type="matrix" values="0 0 0 0 0 0 0 0 0 0 0 0 0 0 0 0 0 0 127 0" result="hardAlpha"/>
<feOffset dy="-2"/>
<feComposite in2="hardAlpha" operator="arithmetic" k2="-1" k3="1"/>
<feColorMatrix type="matrix" values="0 0 0 0 0.0392157 0 0 0 0 0.0509804 0 0 0 0 0.0705882 0 0 0 0.05 0"/>
<feBlend mode="normal" in2="shape" result="effect2_innerShadow_241_3690"/>
<feColorMatrix in="SourceAlpha" type="matrix" values="0 0 0 0 0 0 0 0 0 0 0 0 0 0 0 0 0 0 127 0" result="hardAlpha"/>
<feMorphology radius="1" operator="erode" in="SourceAlpha" result="effect3_innerShadow_241_3690"/>
<feOffset/>
<feComposite in2="hardAlpha" operator="arithmetic" k2="-1" k3="1"/>
<feColorMatrix type="matrix" values="0 0 0 0 0.0392157 0 0 0 0 0.0509804 0 0 0 0 0.0705882 0 0 0 0.18 0"/>
<feBlend mode="normal" in2="effect2_innerShadow_241_3690" result="effect3_innerShadow_241_3690"/>
</filter>
<linearGradient id="paint0_linear_241_3690" x1="92" y1="381" x2="92" y2="413" gradientUnits="userSpaceOnUse">
<stop stop-color="#5C6CEC"/>
<stop offset="1" stop-color="#5C6CEC" stop-opacity="0"/>
</linearGradient>
<linearGradient id="paint1_linear_241_3690" x1="400" y1="421" x2="400" y2="365" gradientUnits="userSpaceOnUse">
<stop stop-color="#5C6CEC"/>
<stop offset="1" stop-color="#5C6CEC" stop-opacity="0"/>
</linearGradient>
<clipPath id="clip0_241_3690">
<rect x="2" y="1" width="500" height="56" rx="28" fill="white"/>
</clipPath>
<clipPath id="clip1_241_3690">
<rect width="48" height="48" fill="white" transform="translate(2 5)"/>
</clipPath>
<clipPath id="clip2_241_3690">
<rect width="48" height="48" fill="white" transform="translate(2 5)"/>
</clipPath>
<clipPath id="clip3_241_3690">
<rect x="2" y="73" width="500" height="56" rx="28" fill="white"/>
</clipPath>
<clipPath id="clip4_241_3690">
<rect width="48" height="48" fill="white" transform="translate(2 77)"/>
</clipPath>
<clipPath id="clip5_241_3690">
<rect width="48" height="48" fill="white" transform="translate(2 77)"/>
</clipPath>
<clipPath id="clip6_241_3690">
<rect x="2" y="145" width="500" height="56" rx="28" fill="white"/>
</clipPath>
<clipPath id="clip7_241_3690">
<rect width="48" height="48" fill="white" transform="translate(2 149)"/>
</clipPath>
<clipPath id="clip8_241_3690">
<rect width="48" height="48" fill="white" transform="translate(2 149)"/>
</clipPath>
<clipPath id="clip9_241_3690">
<rect x="2" y="217" width="500" height="56" rx="28" fill="white"/>
</clipPath>
<clipPath id="clip10_241_3690">
<rect width="48" height="48" fill="white" transform="translate(2 221)"/>
</clipPath>
<clipPath id="clip11_241_3690">
<rect width="48" height="48" fill="white" transform="translate(2 221)"/>
</clipPath>
<clipPath id="clip12_241_3690">
<rect x="76" y="365" width="352" height="48" rx="24" fill="white"/>
</clipPath>
<clipPath id="clip13_241_3690">
<rect width="32" height="32" fill="white" transform="translate(76 381)"/>
</clipPath>
<clipPath id="clip14_241_3690">
<rect width="32" height="32" fill="white" transform="translate(76 381)"/>
</clipPath>
<clipPath id="clip15_241_3690">
<rect width="32" height="32" fill="white" transform="translate(76 381)"/>
</clipPath>
<clipPath id="clip16_241_3690">
<rect width="56" height="56" fill="white" transform="translate(372 365)"/>
</clipPath>
<clipPath id="clip17_241_3690">
<rect width="56" height="56" fill="white" transform="translate(372 365)"/>
</clipPath>
<clipPath id="clip18_241_3690">
<rect width="56" height="56" fill="white" transform="translate(372 365)"/>
</clipPath>
</defs>
</svg>
